<svg width="593" height="692" viewBox="0 0 593 692" fill="none" xmlns="http://www.w3.org/2000/svg">
<path d="M321.414 647.676C409.902 647.676 481.635 630.421 481.635 609.136C481.635 587.851 409.902 570.596 321.414 570.596C232.926 570.596 161.192 587.851 161.192 609.136C161.192 630.421 232.926 647.676 321.414 647.676Z" fill="black"/>
<path d="M369.959 642.624C396.568 642.056 418.018 636.633 417.868 630.512C417.718 624.391 396.025 619.889 369.416 620.457C342.807 621.026 321.358 626.448 321.508 632.569C321.658 638.69 343.35 643.192 369.959 642.624Z" fill="black"/>
<path d="M267.84 604.987C305.202 603.445 335.354 599.323 335.186 595.778C335.018 592.233 304.594 590.61 267.233 592.151C229.871 593.692 199.719 597.815 199.887 601.36C200.054 604.904 230.478 606.528 267.84 604.987Z" fill="black"/>
<path d="M239.267 374.898L238.488 390.959C238.488 390.959 264.645 400.349 320.613 399.156C376.581 397.962 390.117 388.397 390.117 388.397V374.222L239.267 374.898Z" fill="white"/>
<path d="M136.797 277.665L186.065 239.242C186.065 239.242 192.918 241.532 198.296 245.277C201.685 247.66 204.875 250.281 207.838 253.115L194.932 349.632C194.932 349.632 162.855 321.891 150.805 304.109C138.756 286.328 135.634 280.277 135.634 280.277L136.797 277.665Z" fill="#C18B1E"/>
<path d="M207.624 105.482L273.88 82.1058L274.714 80.7635L241.956 80.9224L207.624 105.482Z" fill="#C18B1E"/>
<path d="M243.152 80.7635L276.437 80.2973V68.6785L248.585 67.8793L244.727 74.3188L243.152 80.7635Z" fill="#8C1C2F" stroke="#8C1C2F" stroke-width="0.46" stroke-linecap="round" stroke-linejoin="round"/>
<path d="M250.643 64.9079C250.643 64.9079 259.158 52.7665 267.619 52.6128C276.08 52.4591 282.478 62.0647 282.478 62.0647C282.478 62.0647 279.384 65.9222 278.736 66.9827C278.519 67.301 278.228 67.5691 277.884 67.767C277.54 67.9649 277.152 68.0873 276.75 68.1251L249.26 67.8843L250.643 64.9079Z" fill="#C18B1E"/>
<path d="M286.78 78.4889C287.522 77.7212 288.211 76.9102 288.843 76.0606C288.843 76.0606 286.692 70.036 285.501 66.6907C284.311 63.3454 283.043 62.8331 283.043 62.8331C280.597 64.1224 278.763 66.2266 277.907 68.7245C276.437 72.951 276.75 79.5647 276.75 79.5647L282.478 80.9428" fill="#C18B1E"/>
<path d="M286.5 79.867C288.267 79.867 288.272 77.3055 286.5 77.3055C284.728 77.3055 284.733 79.867 286.5 79.867Z" fill="black"/>
<path d="M291.762 75.8199C295.555 74.6161 299.214 73.072 302.687 71.2092C307.444 68.4991 310.506 60.6456 306.309 58.8116C302.111 56.9776 298.501 61.3065 295.334 65.2563C292.168 69.2061 288.679 70.1231 288.679 70.1231L291.762 75.8199Z" fill="black"/>
<path d="M240.881 102.408L248.349 125.216L252.64 126.307C252.64 126.307 257.43 124.022 262.341 123.504C265.21 123.199 268.095 123.04 270.983 123.028C270.983 123.028 288.541 116.588 295.126 115.938C298.887 115.587 302.622 115.021 306.308 114.242L303.823 108.515C303.823 108.515 322.989 106.378 321.068 89.4726C319.148 72.5668 296.377 75.3537 293.293 81.6447C290.209 87.9357 290.105 89.4726 290.105 89.4726L284.832 88.156L267.114 93.1201C267.114 93.1201 261.704 89.2677 257.419 90.8455C253.133 92.4234 255.224 98.3097 255.224 98.3097L240.881 102.408Z" fill="#00EFBF"/>
<path d="M254.664 95.2871L261.945 116.752L271.959 113.55L263.548 90.2461L254.664 92.2902V95.2871Z" fill="#00EFBF"/>
<path d="M242.335 93.9859L252.656 91.0966L254.538 97.8486C254.538 97.8486 249.194 99.5187 245.967 99.114C242.741 98.7093 242.335 93.9859 242.335 93.9859Z" fill="white"/>
<path d="M263.745 86.5166L278.011 81.4448C278.011 81.4448 281.644 89.5442 274.055 91.0965C264.552 93.033 263.745 86.5166 263.745 86.5166Z" fill="white"/>
<path d="M245.605 93.0688C245.605 93.0688 245.721 96.5627 250.61 95.0668C255.499 93.5709 251.125 90.8455 251.125 90.8455L245.605 93.0688Z" fill="#72F7B4"/>
<path d="M245.968 93.1457C245.968 93.1457 246.324 96.7318 250.061 95.4408C252.256 94.6672 250.643 91.2246 250.643 91.2246L245.968 93.1457Z" fill="black"/>
<path d="M267.619 85.1385C267.619 85.1385 268.382 88.407 271.306 87.7C274.231 86.993 273.117 83.3506 273.117 83.3506L267.619 85.1385Z" fill="black"/>
<path d="M324.932 119.001L424.401 63.6324C424.401 63.6324 436.472 56.8445 446.541 64.4469C456.61 72.0494 449.795 83.9398 444.011 86.988C438.228 90.0361 326.419 144.821 326.419 144.821L324.932 119.001Z" fill="white"/>
<path d="M180.507 215.964L255.866 179.124L249.265 161.225L170.438 204.457L172.919 209.755L180.507 215.964Z" fill="white"/>
<path d="M86.6129 251.614L82.2233 253.413C82.2233 253.413 77.4441 248.1 70.0366 250.58C62.6291 253.059 69.2464 266.184 72.4783 270.641C75.7102 275.098 84.9064 278.838 87.842 272.091C89.2867 268.885 89.3613 265.285 88.0505 262.029L92.901 259.007L86.6129 251.614Z" fill="white"/>
<path d="M257.342 175.313L243.318 134.555L247.707 131.481L247.191 130.072C247.191 130.072 249.704 126.486 256.86 124.59C261.178 123.442 265.654 122.89 270.144 122.951C270.144 122.951 284.553 117.649 296.553 115.938C308.553 114.227 317.513 113.807 317.513 113.807C317.513 113.807 320.624 122.085 321.952 127.639C323.28 133.192 323.736 146.517 323.966 148.469C324.196 150.42 325.25 157.526 325.25 157.526C325.25 157.526 339.478 157.885 370.101 168.971C400.724 180.057 395.144 180.754 395.144 180.754C395.144 180.754 379.111 193.715 375.72 212.869C372.329 232.024 370.913 248.218 376.581 275.37C382.249 302.521 396.839 328.613 396.839 328.613C396.839 328.613 391.029 346.031 389.706 354.171C388.384 362.311 386.655 374.243 386.655 374.243C386.655 374.243 341.525 383.879 299.318 383.121C257.112 382.363 237.04 374.222 237.04 374.222L215.229 367.829L209.512 365.441C209.512 365.441 205.089 305.078 206.011 290.774C206.933 276.471 207.109 245.098 207.109 245.098L213.984 222.045L218.154 204.627L257.342 175.313Z" fill="#C18B1E"/>
<path d="M166.608 271.251C166.608 271.251 184.578 261.071 183.827 235.851C183.075 210.631 167.799 211.199 167.799 211.199C167.799 211.199 165.055 191.671 148.863 190.605C132.671 189.539 138.624 214.002 138.624 214.002L136.002 200.17C136.002 200.17 131.129 197.096 124.819 200.958C118.509 204.821 120.841 212.603 120.841 212.603C120.841 212.603 116.358 206.102 107.37 211.829C98.3824 217.557 104.029 231.409 104.029 231.409C104.029 231.409 103.03 224.36 100.16 223.996C97.2905 223.633 83.6113 221.794 86.5194 242.342C89.4275 262.89 110.114 265.159 110.114 265.159L112.566 265.626C112.566 265.626 122.992 276.599 141.099 277.301C159.206 278.003 166.608 271.251 166.608 271.251Z" fill="#00EFBF"/>
<path d="M387.099 316.676C387.099 316.676 369.206 248.423 374.753 220.364C381.338 187.065 397.064 181.087 397.064 181.087C397.064 181.087 444.51 201.44 476.938 254.099C509.367 306.758 508.187 344.371 498.157 378.541C488.697 410.759 476.077 422.542 476.077 422.542C476.077 422.542 466.458 431.651 435.808 426.558C405.157 421.466 391.127 412.137 389.113 397.87C387.099 383.602 387.187 366.876 389.382 356.968C391.577 347.06 387.099 316.676 387.099 316.676Z" fill="#C18B1E"/>
<path d="M205.539 305.323L224.343 305.534L219.745 317.183H200.266L203.92 305.323H205.539Z" fill="#8C1C2F" stroke="#8C1C2F" stroke-width="0.46" stroke-linecap="round" stroke-linejoin="round"/>
<path d="M211.328 323.336L211.586 318.807H224.047V347.926C224.047 347.926 226.143 358.684 213.89 359.022C201.638 359.361 202.071 349.217 201.912 346.727C201.753 344.238 201.363 318.254 201.363 318.254H203.734C203.734 318.254 203.092 323.592 203.827 323.592C204.562 323.592 211.328 323.336 211.328 323.336Z" fill="#8C1C2F" stroke="#8C1C2F" stroke-width="0.46" stroke-linecap="round" stroke-linejoin="round"/>
<path d="M210.505 227.28L228.338 227.342V264.294C228.338 269.289 224.497 277.204 216.404 277.342C208.31 277.48 204.667 276.83 204.667 276.83L209.205 241.245L209.271 238.213L208.107 237.383C208.107 237.383 208.173 231.747 208.799 230.211C209.265 229.185 209.837 228.204 210.505 227.28Z" fill="#8C1C2F" stroke="#8C1C2F" stroke-width="0.46" stroke-linecap="round" stroke-linejoin="round"/>
<path d="M292.947 228.817H350.77L351.247 239.063H348.394V267.496C348.394 267.496 349.327 276.589 337.667 277.87C326.007 279.15 305.567 277.998 305.567 277.998C305.567 277.998 295.005 277.741 294.73 261.86C294.456 245.979 294.868 239.063 294.868 239.063L292.673 238.423L292.947 228.817Z" fill="#8C1C2F" stroke="#8C1C2F" stroke-width="0.46" stroke-linecap="round" stroke-linejoin="round"/>
<path d="M292.744 320.262V308.351H369.837V320.262H293.359" fill="#8C1C2F"/>
<path d="M292.744 320.262V308.351H369.837V320.262H293.359" stroke="#8C1C2F" stroke-width="0.46" stroke-linecap="round" stroke-linejoin="round"/>
<path d="M344.526 322.019H367.023V352.281C367.023 352.281 369.218 366.369 349.19 366.369C329.162 366.369 305.656 365.698 305.656 365.698C305.656 365.698 295.143 363.295 295.143 351.768V323.013H321.206V326.405H341.541V323.013L344.526 322.019Z" fill="#8C1C2F" stroke="#8C1C2F" stroke-width="0.46" stroke-linecap="round" stroke-linejoin="round"/>
<path d="M321.255 320.769H341.541V326.405H321.206L321.255 320.769Z" fill="white"/>
<path d="M204.288 317.701L211.586 317.654L211.328 323.336L203.833 323.592L204.288 317.701Z" fill="white"/>
<path d="M402.458 424.181C402.458 424.181 391.05 473.741 427.117 484.34C463.183 494.94 470.525 474.991 470.525 474.991L471.452 466.502C471.452 466.502 480.182 462.593 480.154 456.835V451.077C480.154 451.077 482.728 442.199 479.002 437.68C475.276 433.162 471.408 431.738 471.408 431.738L468.006 428.095C456.018 429.819 443.794 429.497 431.929 427.147C412.861 423.218 404.159 422.025 404.159 422.025L402.458 424.181Z" fill="#00EFBF"/>
<path d="M309.546 407.352L319.198 451.538L348.048 545.498C348.048 545.498 357.881 555.309 381.042 553.306C404.203 551.303 412.428 540.549 412.428 540.549L395.418 490.001L402.633 422.04L386.513 395.57L309.546 407.352Z" fill="black"/>
<path d="M255.756 402.209L253.304 463.874L274.901 527.23C274.901 527.23 289.096 535.478 299.68 533.674C306.502 532.437 313.157 530.505 319.527 527.911L317.513 443.213L308.86 404.919L255.756 402.209Z" fill="black"/>
<path d="M389.58 555.842L397.349 584.627H395.703C395.703 584.627 390.858 580.667 387.566 578.188C384.274 575.708 383.632 575.488 383.632 575.488C383.632 575.488 385.464 569.725 385.097 567.291C384.729 564.858 381.508 561.467 377.782 560.427C375.858 559.869 373.904 559.404 371.928 559.033L372.52 557.348L389.58 555.842Z" fill="white"/>
<path d="M289.167 549.002C292.085 552.296 296.24 554.425 300.783 554.955C308.278 555.744 307.949 548.362 307.949 548.362L305.079 533.674L286.808 533.162L289.167 549.002Z" fill="white"/>
<path d="M252.025 116.665C254.386 116.665 256.3 114.879 256.3 112.675C256.3 110.47 254.386 108.684 252.025 108.684C249.665 108.684 247.751 110.47 247.751 112.675C247.751 114.879 249.665 116.665 252.025 116.665Z" fill="#8C1C2F" stroke="#8C1C2F" stroke-width="0.46" stroke-linecap="round" stroke-linejoin="round"/>
<path d="M281.518 107.06C283.878 107.06 285.792 105.273 285.792 103.069C285.792 100.865 283.878 99.0781 281.518 99.0781C279.157 99.0781 277.243 100.865 277.243 103.069C277.243 105.273 279.157 107.06 281.518 107.06Z" fill="#8C1C2F" stroke="#8C1C2F" stroke-width="0.46" stroke-linecap="round" stroke-linejoin="round"/>
<path d="M301.315 400.18L309.82 400.436" stroke="black" stroke-miterlimit="10"/>
<path d="M322.101 236.374C323.579 236.374 324.778 235.284 324.778 233.94C324.778 232.596 323.579 231.507 322.101 231.507C320.622 231.507 319.423 232.596 319.423 233.94C319.423 235.284 320.622 236.374 322.101 236.374Z" fill="white" stroke="black" stroke-miterlimit="10"/>
<path d="M210.987 234.324C212.012 234.324 212.842 233.205 212.842 231.824C212.842 230.444 212.012 229.324 210.987 229.324C209.963 229.324 209.133 230.444 209.133 231.824C209.133 233.205 209.963 234.324 210.987 234.324Z" fill="white" stroke="black" stroke-miterlimit="10"/>
<path d="M442.425 85.1181L442.255 85.1539C443.923 83.5757 445.054 81.5722 445.505 79.3954C445.956 77.2186 445.708 74.9658 444.791 72.9205C443.875 70.8752 442.33 69.1287 440.353 67.9008C438.376 66.6728 436.054 66.0184 433.679 66.0197C431.116 66.0197 426.546 67.9152 426.546 67.9152L325.458 121.235L329.573 140.958C329.573 140.958 440.697 86.5269 441.926 85.4511L442.425 85.1181Z" fill="black"/>
<path d="M433.498 76.6805C438.516 76.6805 442.584 74.1828 442.584 71.1016C442.584 68.0205 438.516 65.5227 433.498 65.5227C428.479 65.5227 424.411 68.0205 424.411 71.1016C424.411 74.1828 428.479 76.6805 433.498 76.6805Z" fill="white"/>
<path d="M419.199 82.0392C422.144 82.0392 424.532 80.5598 424.532 78.7349C424.532 76.9099 422.144 75.4305 419.199 75.4305C416.253 75.4305 413.865 76.9099 413.865 78.7349C413.865 80.5598 416.253 82.0392 419.199 82.0392Z" fill="white"/>
<path d="M246.308 165.677C245.759 166.061 201.66 190.523 201.66 190.523L210.231 201.409L254.95 179.381L246.308 165.677Z" fill="black"/>
<path d="M201.314 187.577C201.314 187.577 201.66 191.245 204.881 195.646C208.31 200.318 210.642 201.471 210.642 201.471" stroke="black" stroke-width="3" stroke-linecap="round" stroke-linejoin="round"/>
<path d="M211.251 198.259C211.251 198.259 209.38 198.996 210.016 199.985C210.653 200.974 212.173 199.893 212.173 199.893C212.173 199.893 210.735 200.917 210.664 200.882C210.593 200.846 208.661 199.232 208.661 199.232L211.251 198.259Z" fill="black"/>
<path d="M203.256 187.111C203.256 187.111 202.054 187.751 202.395 188.791C202.735 189.831 204.282 189.078 204.282 189.078L202.636 190.139L201.862 187.623L203.256 187.111Z" fill="black"/>
<path d="M319.148 161.962L381.152 197.992L395.237 182.454C395.237 182.454 384.993 171.522 355.363 164.012C325.733 156.501 326.468 157.864 326.468 157.864L319.148 161.962Z" fill="#68523C"/>
<path d="M374.567 223.95C374.567 223.95 392.126 207.557 401.454 201.922C410.782 196.286 417.366 194.237 417.366 194.237C417.366 194.237 407.49 184.503 399.808 183.991C392.126 183.479 383.714 193.213 379.506 202.603C375.297 211.993 374.567 223.95 374.567 223.95Z" fill="#68523C"/>
<path d="M254.862 97.0699C254.401 97.157 250.473 100.057 247.636 99.3752C244.799 98.6939 241.693 94.5084 241.693 94.5084L239.131 95.8763L241.918 105.482C241.918 105.482 243.158 102.787 255.411 98.3097L254.862 97.0699Z" fill="black"/>
<path d="M265.293 95.0668C279.559 90.702 289.612 88.7041 289.612 88.7041L290.983 84.9438C290.983 84.9438 291.713 83.0688 291.625 82.8127C291.538 82.5565 289.337 77.6897 288.97 77.6897C288.602 77.6897 277.996 81.4448 277.996 81.4448C277.996 81.4448 279.186 90.241 272.876 91.4346C266.566 92.6283 262.632 87.1672 262.632 87.1672L265.293 95.0668Z" fill="black"/>
<path d="M289.167 69.9387L293.282 75.8301L289.03 76.7932C289.03 76.7932 286.972 70.3895 287.175 70.3229C287.378 70.2563 289.167 69.9387 289.167 69.9387Z" fill="black"/>
<path d="M291.51 69.3854C291.238 69.5328 291.003 69.7331 290.821 69.9726C290.64 70.2121 290.515 70.4853 290.456 70.7737C290.5 71.4011 290.687 72.0126 291.005 72.5667L288.717 70.1333L291.51 69.3854Z" fill="black"/>
<path d="M291.763 73.6733C292.087 74.1316 292.585 74.459 293.156 74.5904C293.829 74.6805 294.515 74.6009 295.143 74.3598L292.63 75.7686L291.763 73.6733Z" fill="black"/>
<path d="M268.909 81.2759C268.909 81.2759 271.834 81.3066 271.861 81.8804C271.894 82.6181 269.941 83.2892 269.941 83.2892C269.941 83.2892 277.859 80.9429 277.721 80.9429C277.584 80.9429 268.909 81.2759 268.909 81.2759Z" fill="black"/>
<path d="M273.645 68.8168C274.456 68.948 275.214 69.2807 275.839 69.7799C276.591 70.5176 276.147 72.531 276.147 72.531C276.147 72.531 277.584 68.5299 277.447 68.5965C277.31 68.6631 273.645 68.8168 273.645 68.8168Z" fill="black"/>
<path d="M280.262 65.7788C280.262 65.7788 281.288 64.5288 282.248 64.4622C283.208 64.3956 284.031 66.0657 284.031 66.0657L282.457 62.8331L280.262 65.7788Z" fill="black"/>
<path d="M252.552 63.6323C252.552 63.6323 251.487 65.2973 252.003 66.3834C252.519 67.4694 254.231 67.3465 254.231 67.3465L249.43 67.6026L252.552 63.6323Z" fill="black"/>
<path d="M245.007 75.4459C245.007 75.4459 243.965 78.0586 244.87 79.2574C246.001 80.7636 249.26 80.3793 249.26 80.3793L241.979 80.9429L245.007 75.4459Z" fill="black"/>
<path d="M287.257 73.6938C287.418 74.5473 287.298 75.4263 286.912 76.2143C286.407 76.9731 285.687 77.5867 284.832 77.9869C284.832 77.9869 288.81 77.0494 288.722 77.0238C288.635 76.9982 287.257 73.6938 287.257 73.6938Z" fill="black"/>
<path d="M255.91 97.8486C255.91 97.8486 254.126 93.3865 258.884 91.8906C262.346 90.8045 264.371 94.9234 264.371 94.9234L263.18 88.1149L261.879 86.9623L252.403 90.6764L255.91 97.8486Z" fill="black"/>
<path d="M250.643 100.149C250.643 100.149 252.7 99.3701 254.001 99.8414C255.416 100.354 256.003 102.577 256.003 102.577L254.747 98.4019L250.643 100.149Z" fill="black"/>
<path d="M268.898 93.9858C268.525 94.1617 268.197 94.4099 267.936 94.7139C267.675 95.0178 267.486 95.3705 267.383 95.7481C267.207 96.7325 267.233 97.7391 267.46 98.7143L265.649 94.6774L268.898 93.9858Z" fill="black"/>
<path d="M283.482 90.0259C283.482 90.0259 286.775 89.5136 288.004 90.5382C289.233 91.5628 289.151 93.5402 289.151 93.5402C289.151 93.5402 289.699 88.156 289.557 88.156C289.414 88.156 283.482 90.0259 283.482 90.0259Z" fill="black"/>
<path d="M297.946 107.546C297.946 107.546 298.758 109.549 301.754 110.897C304.306 112.044 305.156 111.896 305.156 111.896L303.823 108.515L297.946 107.546Z" fill="black"/>
<path d="M303.862 111.517C303.862 111.517 304.454 112.967 303.713 113.653C302.973 114.339 300.685 114.724 300.685 114.724C300.685 114.724 306.172 114.416 306.007 114.38C305.842 114.345 304.91 111.378 304.783 111.414C304.657 111.45 303.862 111.517 303.862 111.517Z" fill="black"/>
<path d="M248.497 123.1C248.497 123.1 249.139 124.498 251.444 124.78C253.748 125.062 254.664 124.596 254.664 124.596L249.578 127.567L248.497 123.1Z" fill="black"/>
<path d="M261.425 117.367C261.425 117.367 263.471 119.022 268.657 117.639C272.876 116.512 272.876 113.807 272.788 113.807C272.701 113.807 261.425 117.367 261.425 117.367Z" fill="black"/>
<path d="M245.271 137.926C245.826 137.703 246.425 137.588 247.029 137.588C247.634 137.588 248.232 137.703 248.788 137.926C250.621 138.694 252.629 143.136 252.629 143.136L247.69 132.203L243.762 134.427L245.271 137.926Z" fill="black"/>
<path d="M272.997 79.6262C273.833 79.5939 274.634 79.3079 275.28 78.8116C275.927 78.2993 275.938 76.6036 275.938 76.6036C275.938 76.6036 276.487 79.7338 276.432 79.7338L272.997 79.6262Z" fill="black"/>
<path d="M277.59 77.3568C277.59 77.3568 277.727 78.74 278.649 79.1345C279.097 79.3619 279.605 79.4667 280.114 79.4367L277.37 79.6724L277.59 77.3568Z" fill="black"/>
<path d="M259.202 178.356L217.797 208.643L222.302 196.158L259.202 178.356Z" fill="black"/>
<path d="M244.623 163.658L254.527 179.939L258.758 178.305L252.157 159.714L244.623 163.658Z" fill="black"/>
<path d="M174.362 202.383C174.055 202.577 172.82 206.097 176.118 210.067C179.959 214.678 189.012 211.512 189.012 211.512L178.285 217.101C178.285 217.101 176.326 213.827 173.127 212.767C171.531 212.272 169.979 211.66 168.485 210.938L166.729 206.215L173.939 202.48" fill="black"/>
<path d="M120.507 235.81C120.507 235.81 119.859 242.726 126.691 246.235C137.012 251.532 148.09 247.388 148.09 247.388C148.09 247.388 148.573 254.304 154.126 256.609C159.679 258.915 163.207 257.475 163.207 257.475C163.207 257.475 154.022 254.299 152.271 248.423C150.521 242.547 151.135 240.621 151.135 240.621C151.135 240.621 142.779 244.207 135.969 244.278C129.16 244.35 122.559 238.402 122.559 238.402L120.507 235.81Z" fill="black"/>
<path d="M135.574 200.359C135.399 204.737 135.884 209.115 137.017 213.366C138.872 220.026 139.903 221.358 139.903 221.358C139.903 221.358 143.415 219.432 143.102 219.432C142.789 219.432 139.184 211.824 137.944 208.069C137.19 205.719 136.841 203.272 136.913 200.82L135.574 200.359Z" fill="black"/>
<path d="M119.557 210.759C119.41 214.904 119.548 219.053 119.968 223.182C120.654 228.561 121.203 230.098 121.203 230.098L124.221 228.049C124.221 228.049 121.614 221.261 121.34 216.906C121.066 212.552 120.791 210.631 120.791 210.631L119.557 210.759Z" fill="black"/>
<path d="M126.142 245.083C126.648 246.917 127.585 248.623 128.885 250.077C129.865 251.099 131.158 251.814 132.589 252.127L134.647 249.949L134.784 247.9L126.142 245.083Z" fill="black"/>
<path d="M101.038 224.975C101.038 224.975 101.587 234.324 105.291 242.137C108.994 249.949 117.362 256.865 117.362 256.865C117.362 256.865 117.362 253.151 115.716 251.998C114.07 250.846 109.817 246.363 107.348 240.984C104.879 235.605 102.41 225.359 102.41 225.359L101.038 224.975Z" fill="black"/>
<path d="M87.1836 250.974C87.1836 250.974 88.281 254.56 89.1041 256.481C89.9271 258.402 90.7502 260.067 90.7502 260.067L94.5911 258.53C94.5911 258.53 91.5732 254.432 90.613 253.023C89.6528 251.614 88.8297 250.206 88.8297 250.206L87.1836 250.974Z" fill="black"/>
<path d="M114.344 267.624C114.344 267.624 120.106 265.574 120.106 260.451C120.106 255.328 117.088 252.767 117.088 252.767C117.088 252.767 118.734 257.506 116.951 260.708C115.168 263.909 111.189 265.574 111.189 265.574L114.344 267.624Z" fill="black"/>
<path d="M118.597 254.944C118.597 254.944 124.792 260.477 131.492 258.018C139.86 254.944 136.842 247.644 136.842 247.644C136.842 247.644 133.001 254.048 127.651 254.56C122.301 255.072 116.951 252.255 116.951 252.255L118.597 254.944Z" fill="black"/>
<path d="M325.732 118.545L331.768 141.599C331.768 141.599 323.949 146.081 323.949 145.697C323.949 145.313 322.989 135.067 322.303 129.944L321.068 120.723L325.732 118.545Z" fill="black"/>
<path d="M334.007 114.529C334.007 114.529 329.03 117.603 328.147 120.887C327.439 123.53 328.399 128.832 328.399 128.832L324.932 119.001L334.007 114.529Z" fill="black"/>
<path d="M329.091 131.778C329.091 131.778 331.214 137.326 334.325 138.136C337.036 138.843 341.327 136.665 341.327 136.665L341.387 137.311L331.417 142.137L329.223 133.94L329.091 131.778Z" fill="black"/>
<path d="M239.783 166.922C239.783 166.922 242.318 165.549 244.722 166.22C246.538 166.732 247.877 168.971 247.877 168.971L245.133 163.412L239.783 166.922Z" fill="black"/>
<path d="M248.332 182.003C248.332 182.003 252.793 179.698 252.173 177.541C251.518 175.599 250.685 173.714 249.682 171.906C249.682 171.906 256.058 179.114 255.877 179.114C255.696 179.114 248.332 182.003 248.332 182.003Z" fill="black"/>
<path d="M141.28 214.002C141.28 214.002 142.487 215.738 144.205 216.307C145.758 216.819 147.815 215.579 147.815 215.579L143.245 218.996L141.28 214.002Z" fill="black"/>
<path d="M163.728 210.2C164.147 210.134 164.546 209.981 164.895 209.752C165.243 209.524 165.532 209.225 165.741 208.879C166.043 208.086 166.01 207.216 165.648 206.445L167.799 210.672L163.728 210.2Z" fill="black"/>
<path d="M137.757 215.964C137.757 215.964 139.173 218.868 137.757 220.62C136.342 222.372 135.014 222.67 135.014 222.67L140.045 221.133L137.757 215.964Z" fill="black"/>
<path d="M123.673 222.967C123.673 222.967 124.315 225.016 125.917 225.313C126.791 225.512 127.712 225.421 128.523 225.057L124.271 227.28L123.673 222.967Z" fill="black"/>
<path d="M133.154 199.908C133.881 200.265 134.524 200.752 135.047 201.343C135.525 202.029 135.558 203.612 135.558 203.612C135.558 203.612 136.106 200.538 135.975 200.564C135.843 200.59 133.154 199.908 133.154 199.908Z" fill="black"/>
<path d="M116.111 210.042C116.111 210.042 118.268 210.554 118.965 211.896C119.369 212.679 119.577 213.537 119.574 214.406C119.574 214.406 120.15 210.82 119.991 210.851C119.832 210.882 116.111 210.042 116.111 210.042Z" fill="black"/>
<path d="M98.7666 224.463C99.4865 224.686 100.128 225.088 100.621 225.626C101.022 226.175 101.255 226.816 101.296 227.48L101.521 224.919L98.7666 224.463Z" fill="black"/>
<path d="M85.0488 252.695C85.826 252.621 86.6057 252.812 87.2436 253.233C87.9369 253.716 88.4154 254.42 88.588 255.211L87.4906 250.989L85.0488 252.695Z" fill="black"/>
<path d="M89.3622 257.065C89.3622 257.065 89.9109 258.602 89.428 259.514C89.0875 260.082 88.6173 260.574 88.0508 260.954L91.2552 259.785L89.3622 257.065Z" fill="black"/>
<path d="M77.7025 251.44C77.7025 251.44 76.5173 251.112 76.1332 251.502C75.7491 251.891 76.7752 252.634 76.7752 252.634C76.7752 252.634 72.3526 250.784 72.4843 250.754C72.616 250.723 75.365 250.421 76.4844 250.692C77.6037 250.964 77.7025 251.44 77.7025 251.44Z" fill="black"/>
<path d="M86.5475 268.341C86.5475 268.341 86.767 270.313 87.3486 270.313C87.9303 270.313 88.1498 268.1 88.1498 268.1C88.1498 268.1 88.6271 269.237 87.826 271.123C87.0249 273.008 85.9385 273.336 85.9385 273.244C85.9385 273.151 86.5475 268.341 86.5475 268.341Z" fill="black"/>
<path d="M183.815 246.809C183.815 246.809 184.09 242.777 186.559 242.07C189.028 241.363 192.386 242.905 192.386 242.905L184.238 238.218L183.815 246.809Z" fill="black"/>
<path d="M143.7 278.689C143.7 278.689 139.722 278.305 138.421 280.165C137.121 282.024 139.244 285.605 139.244 285.605L137.873 284.903L134.169 277.28L143.7 278.689Z" fill="black"/>
<path d="M294.917 239.063H348.778V245.38H295.005L294.917 239.063Z" fill="black"/>
<path d="M295.691 250.159C295.691 250.159 295.51 247.813 297.387 246.573C299.093 245.446 302.001 245.38 302.001 245.38C302.001 245.38 295.143 244.867 295.143 244.996C295.143 245.124 295.691 250.159 295.691 250.159Z" fill="black"/>
<path d="M347.845 250.159C347.845 250.159 348.026 247.813 346.15 246.573C344.443 245.446 341.535 245.38 341.535 245.38C341.535 245.38 348.394 244.867 348.394 244.996C348.394 245.124 347.845 250.159 347.845 250.159Z" fill="black"/>
<path d="M296.926 274.591C296.926 274.591 301.25 282.342 312.361 282.403C323.472 282.465 334.035 282.403 334.035 282.403C334.035 282.403 340.959 282.659 343.774 279.458C346.589 276.256 348.367 271.456 348.367 271.456C348.367 271.456 343.774 276.512 341.031 277.475C338.287 278.438 307.971 278.305 307.971 278.305C307.971 278.305 302.276 277.859 299.806 276.835C297.337 275.81 296.926 274.591 296.926 274.591Z" fill="black"/>
<path d="M226.965 272.542C226.965 272.542 223.745 278.372 218.12 279.396C214.891 280.006 211.604 280.306 208.31 280.293L208.655 276.579C211.72 276.936 214.828 276.783 217.835 276.128C222.839 275.042 225.38 273.505 225.38 273.505L226.965 272.542Z" fill="black"/>
<path d="M209.271 239.273H228.431C228.431 239.273 228.706 229.027 228.475 229.114C228.245 229.201 224.179 237.608 224.179 237.608L209.408 237.654L209.271 239.273Z" fill="black"/>
<path d="M201.726 248.495C201.726 248.495 204.93 251.312 205.616 253.536C206.027 255.084 206.135 256.69 205.934 258.274C205.934 258.274 207.125 251.783 206.988 251.783C206.85 251.783 201.726 248.495 201.726 248.495Z" fill="black"/>
<path d="M223.811 239.273C223.811 239.273 225.731 239.401 226.828 240.472C227.926 241.543 227.838 243.756 227.838 243.756L228.337 238.761L223.811 239.273Z" fill="black"/>
<path d="M205.018 252.127C200.429 267.36 196.855 282.844 194.318 298.489C189.928 325.129 188.008 342.547 188.008 342.547L205.841 358.428C205.841 358.428 203.509 350.872 202 345.493C200.491 340.113 202.411 317.188 202.411 317.188L201.314 316.548C201.484 314.168 201.897 311.81 202.548 309.504C203.509 306.558 204.743 305.405 204.743 305.405L207.212 305.149L208.584 277.101L206.527 276.076L206.938 253.151L205.018 252.127Z" fill="black"/>
<path d="M295.005 320.39H321.068C321.068 320.39 321.48 323.653 321.068 323.653H295.142L295.005 320.39Z" fill="black"/>
<path d="M341.124 320.39H367.187C367.187 320.39 367.599 323.653 367.187 323.653H341.261L341.124 320.39Z" fill="black"/>
<path d="M321.754 321.722C321.963 321.594 341.371 321.722 341.371 321.722C341.371 321.722 341.749 320.026 341.371 320.38C340.992 320.733 321.551 320.124 321.277 320.38C321.003 320.636 321.754 321.722 321.754 321.722Z" fill="black"/>
<path d="M295.966 329.099C295.966 329.099 295.872 326.451 297.272 325.001C298.506 323.72 301.727 323.592 301.727 323.592C301.727 323.592 295.28 323.08 295.351 323.269C295.423 323.459 295.966 329.099 295.966 329.099Z" fill="black"/>
<path d="M360.921 323.653C360.921 323.653 364.005 323.72 365.239 325.257C366.337 326.594 366.545 329.801 366.545 329.801C366.545 329.801 367.231 322.885 366.957 323.013C366.682 323.141 360.921 323.653 360.921 323.653Z" fill="black"/>
<path d="M296.651 359.965C296.651 359.965 299.669 369.699 308.586 370.851C317.502 372.004 348.23 371.108 348.23 371.108C348.23 371.108 357.832 371.62 360.85 369.058C364.691 365.816 365.651 360.349 365.651 360.349C365.651 360.349 360.85 364.832 355.637 365.985C350.424 367.137 312.564 365.985 312.564 365.985C312.564 365.985 306.802 366.497 302.687 365.088C298.572 363.679 296.651 359.965 296.651 359.965Z" fill="black"/>
<path d="M202.368 320.006H203.739V317.654H201.912L202.368 320.006Z" fill="black"/>
<path d="M211.328 320.134H223.811V308.992C223.811 308.992 219.515 317.188 219.471 317.06C219.427 316.932 211.328 317.06 211.328 317.06V320.134Z" fill="black"/>
<path d="M204.288 318.807H211.421C211.421 318.807 211.789 317.701 211.421 317.701H204.288V318.807Z" fill="black"/>
<path d="M222.801 355.795C222.801 355.795 222.055 360.862 216.859 362.675C211.663 364.489 209.83 364.115 209.83 364.115V359.422C209.83 359.422 217.144 359.637 219.657 358.249C222.17 356.86 222.801 355.795 222.801 355.795Z" fill="black"/>
<path d="M389.459 177.987C389.459 177.987 392.054 179.36 392.433 181.097C392.79 182.71 390.661 184.908 390.661 184.908C390.661 184.908 396.696 181.01 396.521 181.01C396.345 181.01 389.459 177.987 389.459 177.987Z" fill="black"/>
<path d="M375.133 214.268C375.133 214.268 366.584 257.255 375.747 296.235C383.347 328.587 392.323 342.101 392.323 342.101C392.323 342.101 394.167 333.505 395.698 330.943C396.719 329.257 397.847 327.63 399.078 326.071C399.078 326.071 386.288 301.589 379.736 277.04C369.278 238.059 375.133 214.268 375.133 214.268Z" fill="black"/>
<path d="M388.834 363.295C388.834 363.295 379.281 400.18 390.205 416.83C395.418 424.77 402.277 426.564 402.277 426.564L404.746 416.574C404.746 416.574 390.205 406.072 388.285 394.801C386.364 383.531 388.834 363.295 388.834 363.295Z" fill="black"/>
<path d="M402.826 421.184C402.826 421.184 417.367 431.43 436.022 433.223C454.678 435.016 471.14 430.15 471.14 430.15L470.316 424.771C470.316 424.771 461.263 429.637 440.961 426.82C420.659 424.002 401.729 414.781 401.729 414.781L402.826 421.184Z" fill="black"/>
<path d="M469.768 447.568C469.768 447.568 472.237 449.361 473.334 454.868C474.432 460.375 471.825 466.138 471.825 466.138C471.825 466.138 470.591 459.222 469.082 456.789C468.188 455.379 467.627 453.807 467.436 452.178L469.768 447.568Z" fill="black"/>
<path d="M473.471 432.327C473.883 432.327 476.352 436.297 476.489 439.243C476.536 441.226 476.305 443.207 475.803 445.134C474.847 444.231 473.839 443.376 472.785 442.573C471.825 441.932 471.002 441.42 471.002 441.42C471.002 441.42 471.413 436.809 471.413 434.632C471.413 432.455 471.551 431.302 471.551 431.302L473.471 432.327Z" fill="black"/>
<path d="M237.94 377.895C237.94 377.895 263.702 385.544 291.988 385.836C342.194 386.348 386.365 377.895 386.365 377.895L386.913 371.236C386.913 371.236 336.433 383.275 296.103 380.713C255.773 378.152 237.392 374.566 237.392 374.566L237.94 377.895Z" fill="black"/>
<path d="M255.592 403.848C255.592 403.848 270.955 407.265 285.589 408.29C294.107 408.912 302.659 409.026 311.192 408.633L308.542 398.981C298.652 399.143 288.761 398.801 278.912 397.957C264.645 396.594 256.234 395.57 256.234 395.57L255.592 403.848Z" fill="black"/>
<path d="M309.546 407.352C309.546 407.352 328.569 407.691 360.394 404.279C377.574 402.434 387.099 399.837 387.099 399.837C387.099 399.837 387.187 388.054 386.09 388.397C384.992 388.741 370.726 393.177 349.146 395.57C327.565 397.962 305.628 398.3 305.628 398.3L309.546 407.352Z" fill="black"/>
<path d="M367.083 556.769C367.083 556.769 371.654 559.504 379.517 558.992C387.379 558.48 389.58 556.431 389.58 556.431L389.212 552.67C385.491 553.484 381.691 553.943 377.87 554.038C373.999 554.138 370.129 553.794 366.348 553.014L367.083 556.769Z" fill="black"/>
<path d="M287.521 537.132C287.521 537.132 292.459 539.351 297.76 539.182C303.06 539.013 305.99 536.963 305.99 536.963L305.628 533.034C302.714 533.35 299.774 533.407 296.849 533.203C292.092 532.865 286.604 532.01 286.604 532.01L287.521 537.132Z" fill="black"/>
<path d="M401.821 430.062C401.821 430.062 402.002 425.964 405.569 425.109C408.472 424.417 412.428 426.564 412.428 426.564L402.919 419.904L401.821 430.062Z" fill="black"/>
<path d="M462.009 432.025C462.009 432.025 467.403 431.343 468.868 433.562C469.879 435.158 470.326 437.011 470.146 438.859C470.146 438.859 471.474 435.826 471.518 433.562C471.516 432.084 471.27 430.615 470.788 429.207L462.009 432.025Z" fill="black"/>
<path d="M238.972 384.104C238.972 384.104 238.813 381.369 240.684 380.262C242.741 379.048 246.308 379.955 246.308 379.955C246.308 379.955 238.138 376.932 238.138 377.255C238.138 377.578 238.972 384.104 238.972 384.104Z" fill="black"/>
<path d="M324.745 157.336L301.842 169.836L329.348 158.305L326.243 157.659L324.745 157.336Z" fill="black"/>
<path d="M385.36 193.382C385.36 193.382 390.194 186.461 397.981 185.953C405.767 185.446 411.972 190.395 411.972 190.395C411.972 190.395 406.853 186.297 402.189 183.904C397.525 181.512 395.511 180.743 395.511 180.743L386.09 191.245L385.36 193.382Z" fill="black"/>
<path d="M323.949 156.071C323.949 156.071 324.02 157.331 323.4 157.91C323.091 158.226 322.718 158.482 322.303 158.663L324.327 157.813L323.949 156.071Z" fill="black"/>
<path d="M337.722 607.148L331.905 615.468C331.905 615.468 340.822 618.342 360.235 617.932C379.648 617.522 395.006 615.852 395.006 615.852L403.237 608.68L402.962 584.525C402.962 584.525 401.865 577.819 398.847 577.64C395.829 577.46 396.789 585.196 396.789 585.196L393.223 583.572C393.223 583.572 373.881 606.113 370.177 607.783C366.474 609.453 359.34 610.345 359.34 610.345C359.34 610.345 350.292 610.217 345.008 608.936C339.724 607.655 337.722 607.148 337.722 607.148Z" fill="#A28ADD"/>
<path d="M355.56 573.69C355.56 573.69 351.143 572.071 349.075 572.153C347.006 572.235 346.973 575.022 346.973 575.022C346.973 575.022 344.592 575.898 345.02 576.999C345.448 578.101 345.876 579.632 345.876 579.632C345.876 579.632 343.807 581.343 344.038 582.322C344.268 583.3 344.559 584.53 344.559 584.53C344.101 585.121 343.732 585.767 343.461 586.451C343.017 587.578 345.009 587.476 345.009 587.476C345.009 587.476 344.46 588.5 343.977 589.494C343.699 590.052 343.6 590.673 343.692 591.282L344.833 592.768C344.833 592.768 342.369 592.988 342.441 594.274C342.512 595.56 343.977 596.835 343.977 596.835C343.977 596.835 340.378 597.465 340.465 599.776C340.553 602.086 346.776 599.894 352.4 601.461C358.024 603.029 363.456 605.801 364.932 604.325C366.408 602.85 363.319 600.483 363.319 600.483V599.238C363.319 599.238 366.337 600.806 367.193 599.335C368.049 597.865 367.045 595.816 367.045 595.816C367.045 595.816 370.825 598.172 371.434 596.841C371.789 596.03 371.931 595.151 371.846 594.279C371.846 594.279 374.216 593.89 374.441 592.614C374.666 591.338 372.927 589.991 372.927 589.991L370.913 587.173C370.913 587.173 376.356 590.216 377.053 588.885C377.75 587.553 377.053 585.739 377.053 585.739C377.053 585.739 381.091 588.157 382.134 587.752C383.177 587.348 383.643 585.191 383.643 585.191C383.643 585.191 386.183 586 387.006 584.914C387.237 584.588 387.36 584.206 387.36 583.815C387.36 583.425 387.237 583.042 387.006 582.716C387.006 582.716 380.724 577.87 375.314 576.769C369.903 575.667 367.176 575.396 367.176 575.396L364.372 575.257L355.56 573.69Z" fill="white"/>
<path d="M342.605 633.014C341.407 631.463 340.417 629.78 339.658 628.003C338.489 625.206 336.114 623.675 329.699 624.253C323.285 624.832 326.281 632.763 326.281 632.763L325.123 633.997C325.123 633.997 328.525 637.824 345.787 638.828L342.605 633.014Z" fill="black"/>
<path d="M343.154 633.526C343.154 633.526 347.132 641.984 383.621 636.917C387.616 636.364 392.4 628.162 396.241 627.507C400.082 626.851 406.244 625.063 405.772 621.241C405.599 619.42 405.255 617.617 404.746 615.852C404.746 615.852 394.184 618.839 390.892 624.264C387.599 629.689 380.927 631.523 376.378 631.677C371.83 631.83 364.828 631.733 364.828 631.733L343.154 633.526Z" fill="white"/>
<path d="M357.206 631.984C357.206 631.984 380.252 630.16 385.629 624.3C391.006 618.439 393.618 612.481 396.8 610.637C399.983 608.792 402.699 607.128 402.699 607.128L403.248 601.492C403.248 601.492 411.429 599.822 412.098 602.005C412.768 604.187 413.146 612.435 409.47 614.074C405.794 615.714 399.045 617.471 394.501 620.498C389.958 623.526 387.067 630.647 381.728 631.154C376.389 631.661 357.206 631.984 357.206 631.984Z" fill="white"/>
<path d="M324.163 633.034C324.163 633.034 320.909 626.989 324.163 623.418C327.417 619.848 328.3 619.018 328.3 619.018L357.969 622.025C357.969 622.025 366.441 622.307 370.243 620.432C374.046 618.557 384.641 611.779 384.641 611.779L389.53 613.316L392.273 615.877C392.273 615.877 389.371 623.562 379.653 627.66C369.936 631.759 355.22 632.435 351.39 633.055C347.56 633.675 341.831 632.752 341.831 632.752C341.831 632.752 340.695 623.495 330.682 623.849C320.668 624.202 326.753 635.001 326.753 635.001L324.163 633.034Z" fill="#C18B1E"/>
<path d="M328.888 618.454L331.906 615.468C331.906 615.468 338.49 617.968 356.049 617.358C373.607 616.748 382.962 611.779 382.962 611.779C382.962 611.779 374.282 621.723 364.828 621.743C355.374 621.764 338.902 620.083 334.375 619.827C329.848 619.571 328.888 618.454 328.888 618.454Z" fill="#A28ADD"/>
<path d="M360.986 609.161C368.459 606.004 375.049 601.28 380.246 595.355C388.784 585.55 391.302 581.523 391.302 581.523L393.667 583.572L374.462 603.895C374.462 603.895 368.888 609.269 365.316 609.909C361.744 610.55 360.986 609.161 360.986 609.161Z" fill="#C18B1E"/>
<path d="M341.201 601.574L338.49 606.887C338.49 606.887 355.637 612.199 364.005 608.306C372.373 604.412 391.671 582.076 391.671 582.076C391.671 582.076 388.148 578.413 384.79 576.472C381.432 574.53 375.402 574.458 375.402 574.458L370.271 574.786C370.271 574.786 377.772 576.415 380.878 578.546C383.983 580.678 387.325 583.577 387.325 583.577C387.325 583.577 387.632 584.776 386.815 585.201C385.997 585.626 383.852 584.648 383.852 584.648C383.852 584.648 384.159 586.907 383.16 587.337C382.162 587.768 377.327 585.201 377.327 585.201C377.327 585.201 378.255 587.681 377.327 588.705C376.4 589.73 370.891 587.168 370.891 587.168L373.635 590.637C373.635 590.637 375.094 592.378 374.09 592.978C373.086 593.577 371.072 593.746 371.072 593.746C371.072 593.746 372.757 595.452 371.55 596.477C370.342 597.501 367.023 595.821 367.023 595.821C367.023 595.821 368.12 598.664 367.171 599.064C366.222 599.463 363.297 599.243 363.297 599.243L361.591 600.053C361.591 600.053 365.98 602.542 365.058 603.639C364.743 603.973 364.352 604.238 363.914 604.416C363.475 604.593 363.001 604.677 362.523 604.663C359.012 603.162 355.304 602.099 351.495 601.502C344.85 600.411 341.201 601.574 341.201 601.574Z" fill="#A28ADD"/>
<path d="M349.738 571.538C349.738 571.538 347.258 565.437 349.738 562.911C352.218 560.386 357.146 558.091 357.146 558.091L356.048 567.056L370.177 568.721L371.648 559.115C371.648 559.115 381.727 560.652 383.346 563.726C384.965 566.8 384.855 571.713 384.855 571.713L383.62 575.509C383.62 575.509 377.651 574.197 373.288 574.484C368.926 574.771 363.823 575.278 363.823 575.278L363.642 572.148L358.517 571.733L357.744 575.063C357.744 575.063 354.77 572.501 353.354 572.148C351.938 571.794 349.738 571.538 349.738 571.538Z" fill="white"/>
<path d="M357.969 556.169L356.049 567.056L370.178 568.721L371.824 557.962L357.969 556.169Z" fill="white"/>
<path d="M358.611 572.65L357.969 580.503L363.181 580.888L363.823 572.793L358.611 572.65Z" fill="white"/>
<path d="M341.2 601.574C337.486 607.957 332.24 615.135 329.985 617.389C326.144 621.231 320.52 625.201 322.989 631.093C325.458 636.984 333.826 637.881 351.384 639.289C368.943 640.698 381.014 639.289 385.13 635.96C389.245 632.63 391.303 629.172 396.241 627.507C396.241 627.507 403.923 626.994 405.294 623.536C406.666 620.078 404.746 615.852 404.746 615.852C404.746 615.852 411.434 615.724 412.34 608.598C412.603 606.503 413.262 603.28 412.087 602.02C410.26 600.068 403.237 601.508 403.237 601.508C403.237 601.508 403.786 591.902 403.1 586.907C402.414 581.912 401.316 576.917 398.71 578.326C396.104 579.735 398.71 587.163 395.006 584.602C391.303 582.04 386.913 576.405 379.917 574.996C372.921 573.587 364.553 575.381 364.553 575.381" stroke="black" stroke-width="3" stroke-linecap="round" stroke-linejoin="round"/>
<path d="M357.832 575.252C357.832 575.252 354.951 572.691 351.247 572.179C347.544 571.666 346.962 574.996 346.962 574.996" stroke="black" stroke-width="3" stroke-linecap="round" stroke-linejoin="round"/>
<path d="M349.189 571.538C349.189 571.538 346.715 565.232 351.11 561.292C354.402 558.347 357.146 558.091 357.146 558.091" stroke="black" stroke-width="3" stroke-linecap="round" stroke-linejoin="round"/>
<path d="M372.51 559.115C372.51 559.115 380.329 560.268 383.347 563.726C386.365 567.184 383.621 575.508 383.621 575.508" stroke="black" stroke-width="3" stroke-linecap="round" stroke-linejoin="round"/>
<path d="M325.047 633.91L326.419 632.373C326.419 632.373 322.029 625.073 331.494 623.921C340.959 622.768 338.902 632.373 343.154 633.526" stroke="black" stroke-width="3" stroke-linecap="round" stroke-linejoin="round"/>
<path d="M342.605 633.014C343.017 633.142 363.593 632.758 374.293 629.556C384.993 626.354 389.794 621.615 391.714 617.005C393.635 612.394 399.259 608.68 403.649 607.143C408.038 605.606 408.11 605.734 408.11 605.734" stroke="black" stroke-width="3" stroke-linecap="round" stroke-linejoin="round"/>
<path d="M403.237 601.508L402.688 607.143" stroke="black" stroke-width="3" stroke-linecap="round" stroke-linejoin="round"/>
<path d="M404.745 615.852C404.745 615.852 397.887 617.261 393.497 621.359C389.107 625.457 387.873 630.836 379.505 631.477C374.119 631.859 368.712 631.917 363.318 631.651" stroke="black" stroke-width="3" stroke-linecap="round" stroke-linejoin="round"/>
<path d="M328.888 619.182C328.888 619.182 341.919 620.335 350.836 621.103C359.752 621.871 362.77 624.049 371.275 619.95C379.78 615.852 379.637 614.433 383.209 612.906C388.011 610.857 391.989 615.083 391.989 615.083" stroke="black" stroke-width="3" stroke-linecap="round" stroke-linejoin="round"/>
<path d="M331.905 615.468C339.347 617.657 347.19 618.398 354.951 617.645C363.511 616.825 371.937 615.062 380.054 612.394C381.423 611.906 382.886 611.688 384.35 611.754C385.813 611.82 387.247 612.169 388.559 612.778" stroke="black" stroke-width="3" stroke-linecap="round" stroke-linejoin="round"/>
<path d="M338.49 606.887C338.49 606.887 346.446 610.857 359.204 609.704C371.961 608.552 391.303 582.296 391.303 582.296" stroke="black" stroke-width="3" stroke-linecap="round" stroke-linejoin="round"/>
<path d="M353.365 609.96C353.365 609.96 363.423 612.609 370.463 607.527C377.393 602.532 393.234 583.577 393.234 583.577" stroke="black" stroke-width="3" stroke-linecap="round" stroke-linejoin="round"/>
<path d="M399.396 584.09L396.516 585.201" stroke="black" stroke-width="3" stroke-linecap="round" stroke-linejoin="round"/>
<path d="M357.969 556.169C357.558 556.298 356.049 567.056 356.049 567.056L370.178 568.721L371.824 557.962L357.969 556.169Z" stroke="black" stroke-width="3" stroke-linecap="round" stroke-linejoin="round"/>
<path d="M358.655 572.051L357.969 580.503L363.181 580.888L364.004 572.819L358.655 572.051Z" stroke="black" stroke-width="3" stroke-linecap="round" stroke-linejoin="round"/>
<path d="M363.791 604.837C363.464 604.837 363.146 604.746 362.875 604.576C362.875 604.576 359.626 602.614 352.762 601.666C349.283 601.181 345.759 601.042 342.249 601.251C341.812 601.282 341.381 601.149 341.049 600.883C340.717 600.616 340.512 600.237 340.479 599.83C340.446 599.422 340.589 599.019 340.874 598.709C341.16 598.399 341.565 598.208 342.002 598.178C345.756 597.949 349.525 598.096 353.245 598.618C360.927 599.684 364.565 601.928 364.718 602.025C365.009 602.21 365.229 602.477 365.345 602.787C365.462 603.097 365.469 603.434 365.365 603.748C365.261 604.062 365.052 604.337 364.769 604.532C364.486 604.727 364.143 604.833 363.791 604.832V604.837Z" stroke="black" stroke-width="3" stroke-linecap="round" stroke-linejoin="round"/>
<path d="M341.843 598.213C345.085 596.582 348.673 595.639 352.35 595.452C360.685 594.94 365.931 596.723 366.15 596.8C366.362 596.864 366.558 596.967 366.725 597.104C366.893 597.241 367.029 597.408 367.125 597.595C367.222 597.782 367.277 597.986 367.287 598.193C367.297 598.401 367.261 598.608 367.183 598.802C367.105 598.997 366.985 599.175 366.831 599.325C366.677 599.475 366.492 599.594 366.287 599.675C366.083 599.757 365.862 599.799 365.64 599.798C365.417 599.798 365.197 599.756 364.993 599.674C364.949 599.674 360.137 598.029 352.575 598.516" stroke="black" stroke-width="3" stroke-linecap="round" stroke-linejoin="round"/>
<path d="M370.271 597.071C369.971 597.072 369.676 596.994 369.421 596.846C369.371 596.846 364.055 593.9 355.517 593.741C349.92 593.629 344.79 596.164 344.74 596.19C344.356 596.376 343.909 596.412 343.496 596.293C343.083 596.173 342.737 595.906 342.533 595.55C342.328 595.194 342.283 594.777 342.405 594.39C342.528 594.002 342.809 593.675 343.187 593.48C343.423 593.362 349.146 590.545 355.583 590.667C365.059 590.842 370.88 594.079 371.127 594.218C371.436 594.391 371.675 594.655 371.808 594.967C371.941 595.28 371.96 595.625 371.863 595.949C371.766 596.273 371.558 596.558 371.27 596.761C370.983 596.964 370.632 597.073 370.271 597.071Z" stroke="black" stroke-width="3" stroke-linecap="round" stroke-linejoin="round"/>
<path d="M351.012 582.906C354.2 582.107 358.803 582.076 358.93 582.076C372.268 582.076 376.938 586.477 377.179 586.687C377.351 586.815 377.493 586.973 377.597 587.153C377.702 587.333 377.767 587.53 377.789 587.734C377.811 587.938 377.789 588.143 377.724 588.339C377.66 588.535 377.554 588.716 377.413 588.873C377.273 589.03 377.1 589.159 376.905 589.253C376.71 589.347 376.497 589.403 376.278 589.419C376.06 589.435 375.84 589.41 375.632 589.345C375.424 589.281 375.232 589.178 375.067 589.043C372.815 587.847 370.421 586.9 367.934 586.221" stroke="black" stroke-width="3" stroke-linecap="round" stroke-linejoin="round"/>
<path d="M349.063 587.496C351.497 586.797 354.024 586.426 356.57 586.395H356.751C367.78 586.487 373.942 590.801 374.2 591.005C374.377 591.126 374.526 591.279 374.639 591.454C374.753 591.63 374.827 591.825 374.858 592.028C374.89 592.23 374.877 592.437 374.822 592.635C374.766 592.833 374.669 593.019 374.535 593.182C374.402 593.344 374.235 593.48 374.044 593.582C373.853 593.683 373.643 593.748 373.425 593.773C373.207 593.797 372.986 593.781 372.775 593.724C372.564 593.668 372.368 593.572 372.197 593.444C372.147 593.408 366.584 589.571 356.723 589.489L355.077 589.535" stroke="black" stroke-width="3" stroke-linecap="round" stroke-linejoin="round"/>
<path d="M348.071 591.062C347.336 591.314 346.616 591.603 345.914 591.927C345.53 592.108 345.085 592.142 344.675 592.02C344.264 591.899 343.922 591.632 343.719 591.277C343.302 590.524 343.248 589.228 344.054 588.818" stroke="black" stroke-width="3" stroke-linecap="round" stroke-linejoin="round"/>
<path d="M361.596 599.059C362.832 599.954 363.947 600.986 364.915 602.133" stroke="black" stroke-width="3" stroke-linecap="round" stroke-linejoin="round"/>
<path d="M350.243 591.133C348.717 590.801 347.171 590.56 345.612 590.411C345.396 590.404 345.183 590.357 344.986 590.274C344.79 590.19 344.612 590.071 344.465 589.923C344.317 589.775 344.202 589.602 344.127 589.413C344.051 589.224 344.016 589.022 344.023 588.82C344.031 588.619 344.081 588.42 344.171 588.236C344.261 588.053 344.388 587.887 344.546 587.749C344.705 587.612 344.89 587.505 345.093 587.434C345.295 587.363 345.511 587.33 345.727 587.337C349.73 587.589 353.629 588.637 357.162 590.411" stroke="black" stroke-width="3" stroke-linecap="round" stroke-linejoin="round"/>
<path d="M364.691 595.022C367.072 596.682 367.352 597.204 367.434 597.286C367.737 597.58 367.902 597.975 367.893 598.383C367.884 598.791 367.703 599.178 367.387 599.461C367.072 599.744 366.65 599.898 366.213 599.89C365.776 599.881 365.361 599.712 365.058 599.417C365.058 599.387 363.412 596.969 357.195 593.782" stroke="black" stroke-width="3" stroke-linecap="round" stroke-linejoin="round"/>
<path d="M372.022 592.973C371.741 592.973 371.466 592.906 371.221 592.779C370.976 592.651 370.77 592.468 370.622 592.245C370.502 592.066 367.33 587.635 357.876 586.292C352.285 585.519 345.602 587.21 345.536 587.23C344.663 587.481 343.736 587.23 343.473 586.426C343.409 586.232 343.387 586.029 343.408 585.828C343.429 585.626 343.492 585.431 343.594 585.252C343.696 585.074 343.835 584.916 344.002 584.788C344.17 584.659 344.363 584.563 344.57 584.505C344.872 584.412 352.049 582.373 358.375 583.255C369.426 584.791 373.273 590.386 373.426 590.621C373.539 590.794 373.615 590.986 373.649 591.185C373.682 591.385 373.673 591.589 373.622 591.786C373.571 591.982 373.479 592.167 373.352 592.331C373.224 592.494 373.063 592.632 372.878 592.737C372.621 592.888 372.325 592.969 372.022 592.973Z" stroke="black" stroke-width="3" stroke-linecap="round" stroke-linejoin="round"/>
<path d="M366.413 582.563L363.318 580.165" stroke="black" stroke-width="3" stroke-linecap="round" stroke-linejoin="round"/>
<path d="M363.823 577.645C370.596 579.073 377.059 581.568 382.935 585.022C383.123 585.134 383.285 585.281 383.411 585.454C383.536 585.627 383.623 585.821 383.665 586.026C383.707 586.231 383.704 586.442 383.657 586.646C383.609 586.85 383.517 587.043 383.387 587.212C383.256 587.382 383.091 587.525 382.899 587.633C382.708 587.741 382.495 587.811 382.273 587.84C382.052 587.868 381.826 587.854 381.611 587.799C381.395 587.743 381.194 587.647 381.02 587.517C380.97 587.486 372.833 583.838 365.513 582.127L374.945 585.201" stroke="black" stroke-width="3" stroke-linecap="round" stroke-linejoin="round"/>
<path d="M357.695 580.165C357.695 580.165 353.854 580.883 350.907 581.702C349.362 582.192 347.887 582.86 346.518 583.69C346.338 583.802 346.136 583.88 345.923 583.919C345.711 583.958 345.492 583.958 345.28 583.918C344.852 583.838 344.475 583.602 344.232 583.262C343.99 582.923 343.902 582.507 343.988 582.107C344.074 581.707 344.327 581.355 344.691 581.129C346.319 580.131 348.078 579.334 349.925 578.757C352.538 578.109 355.208 577.688 357.903 577.496" stroke="black" stroke-width="3" stroke-linecap="round" stroke-linejoin="round"/>
<path d="M364.723 575.258C365.036 575.258 372.405 575.421 378.095 577.681C381.269 579.014 384.204 580.796 386.798 582.962C387.118 583.239 387.308 583.623 387.326 584.031C387.343 584.438 387.187 584.835 386.891 585.135C386.595 585.434 386.183 585.612 385.747 585.628C385.311 585.644 384.885 585.498 384.564 585.222C382.244 583.3 379.629 581.713 376.806 580.514C371.692 578.465 363.708 578.331 363.637 578.326" stroke="black" stroke-width="3" stroke-linecap="round" stroke-linejoin="round"/>
<path d="M357.651 578.116L348.027 578.454C348.027 578.454 344.987 579.095 345.009 576.974C345.003 576.569 345.164 576.178 345.46 575.882C345.755 575.586 346.162 575.408 346.595 575.386L357.744 575.042" stroke="black" stroke-width="3" stroke-linecap="round" stroke-linejoin="round"/>
<path d="M345.865 578.393L345.179 580.826" stroke="black" stroke-width="3" stroke-linecap="round" stroke-linejoin="round"/>
<path d="M208.968 578.895C208.968 578.895 218.434 576.492 221.259 575.519C224.085 574.545 229.314 572.148 229.314 572.148C240.027 573.342 250.89 572.381 261.172 569.33C272.49 565.804 283.609 561.742 294.484 557.158C294.484 557.158 301.178 559.51 304.542 558.741C307.905 557.973 311.796 555.842 312.591 551.057C313.387 546.272 314.056 545.524 314.846 545.088C315.636 544.653 317.206 546.492 318.687 549.269C320.169 552.045 322.594 558.741 322.594 558.741L313.815 581.456L260.903 592.112L206.373 580.001L208.968 578.895Z" fill="#A28ADD"/>
<path d="M212.151 596.39C212.151 596.39 242.665 596.492 254.846 595.365C267.027 594.238 279.132 591.072 279.636 590.98C280.141 590.888 324.01 587.174 324.01 587.174C324.01 587.174 325.19 590.314 323.791 592.112C322.391 593.91 320.663 595.826 320.663 595.826L286.045 597.081C286.045 597.081 266.594 599.679 258.363 601.18C240.135 604.448 222.763 600.667 222.763 600.667L212.151 596.39Z" fill="white"/>
<path d="M202.269 585.714C202.269 585.714 198.099 592.722 213.243 597.629C228.387 602.537 210.555 596.815 209.561 592.117C208.568 587.419 207.191 586.395 205.545 585.714C204.493 585.325 203.321 585.325 202.269 585.714Z" fill="black"/>
<path d="M224.634 596.313C224.634 596.313 248.278 596.548 256.141 595.836C264.004 595.124 282.111 590.678 282.111 590.678L321.716 587.363L325.365 586.42C325.365 586.42 330.852 583.142 331.949 580.529C333.047 577.916 332.548 574.484 332.548 574.484L327.258 572.153L324.026 571.994L323.28 580.017C323.28 580.017 313.54 580.713 304.558 581.39C295.576 582.066 282.001 583.09 270.061 587.189C260.936 590.43 251.382 592.499 241.66 593.336C233.43 594.13 209.973 594.018 209.973 594.018C209.973 594.018 211.043 595.555 216.266 595.867C221.49 596.18 224.634 596.313 224.634 596.313Z" fill="white"/>
<path d="M202.269 585.714C202.485 584.348 203.124 583.071 204.107 582.04C205.124 581.119 206.327 580.394 207.646 579.909C207.646 579.909 212.623 585.544 224.656 584.776C236.689 584.008 251.356 581.226 256.151 581.446C260.947 581.666 263.378 581.759 265.227 582.809C267.076 583.859 271.076 586.482 271.076 586.482C271.076 586.482 260.738 591.093 243.586 593.234C226.433 595.375 209.1 592.973 209.1 592.973C209.1 592.973 209.418 589.346 207.909 587.553C206.4 585.76 202.269 585.714 202.269 585.714Z" fill="#C18B1E"/>
<path d="M209.604 580.888C209.604 580.888 226.022 581.4 232.063 580.739C238.104 580.078 242.735 579.202 246.379 579.258C250.022 579.315 255.317 579.909 255.317 579.909L258.472 581.082C258.472 581.082 246.192 583.423 237.961 584.156C229.731 584.889 224.463 585.099 218.592 584.54C212.721 583.982 209.604 580.888 209.604 580.888Z" fill="#A28ADD"/>
<path d="M311.801 579.991C314.468 577.103 316.587 573.812 318.067 570.257C320.459 564.443 322.599 558.736 322.599 558.736C323.5 562.782 323.989 566.899 324.059 571.031C324.223 578.203 323.263 580.001 323.263 580.001L311.153 580.749L311.801 579.991Z" fill="#C18B1E"/>
<path d="M297.37 581.226L316.827 572.717L311.154 580.739L297.37 581.226Z" fill="#A28ADD"/>
<path d="M290.347 555.841C290.347 555.841 278.824 561.477 267.927 565.114C257.03 568.751 245.134 571.948 245.134 571.948C245.134 571.948 257.15 571.395 273.118 565.37C289.085 559.346 293.968 557.348 293.968 557.348L291.06 555.468L290.347 555.841Z" fill="#C18B1E"/>
<path d="M236.184 567.153L230.258 571.712C230.258 571.712 237.391 574.745 255.696 569.151C274 563.557 291.065 555.498 291.065 555.498L286.264 550.206L284.782 549.878L283.224 553.003C283.224 553.003 285.649 556.077 284.36 556.938C283.071 557.799 281.117 556.134 281.117 556.134L277.172 553.879C277.172 553.879 279.718 557.66 277.935 558.582C276.151 559.504 272.623 554.361 272.623 554.361L269.88 553.48C269.88 553.48 271.877 556.123 272.19 558.065C272.502 560.007 272.656 560.698 271.553 560.831C270.45 560.965 269.819 561.093 269.358 559.863C268.996 559 268.507 558.188 267.904 557.45L265.556 556.938C265.556 556.938 267.026 560.898 265.556 561.738C265.126 561.982 264.633 562.112 264.129 562.112C263.626 562.112 263.132 561.982 262.703 561.738L259.257 559.049C259.257 559.049 259.723 563.7 258.856 564.469C257.989 565.237 256.184 564.125 256.184 564.125C255.771 563.39 255.19 562.749 254.483 562.245C253.658 561.626 252.719 561.152 251.712 560.847L253.095 565.519C253.095 565.519 253.545 566.8 252.546 567.127C251.548 567.455 250.198 566.82 250.198 566.82L249.753 564.638L246.373 564.971C246.373 564.971 246.999 567.927 246.373 568.526C245.8 568.947 245.123 569.225 244.403 569.335C243.319 568.578 242.14 567.946 240.892 567.455C239.405 566.979 236.184 567.153 236.184 567.153Z" fill="#A28ADD"/>
<path d="M243.926 569.013C243.926 569.013 240.272 567.112 238.686 567.112C237.62 567.087 236.57 566.866 235.597 566.461C235.474 565.797 235.474 565.118 235.597 564.453C235.805 563.347 237.588 563.347 237.588 563.347C237.588 563.347 237.21 562.629 238.225 562.056C239.034 561.638 239.885 561.295 240.765 561.031C240.765 561.031 240.886 560.006 241.572 559.807C242.06 559.67 242.566 559.594 243.075 559.581L244.919 557.701C244.884 557.484 244.904 557.262 244.978 557.054C245.053 556.845 245.179 556.656 245.347 556.502C245.896 556.128 247.822 556.502 247.822 556.502C248.047 555.877 248.484 555.338 249.067 554.965C249.854 554.604 250.715 554.406 251.591 554.387C251.591 554.387 252.2 553.5 252.612 553.014C253.023 552.527 254.477 553.014 254.477 553.014L255.575 551.507C255.575 551.507 256.036 550.35 256.672 550.288C257.655 550.353 258.63 550.497 259.586 550.719C259.385 550.061 259.267 549.383 259.235 548.7C259.235 547.886 260.162 546.953 260.162 546.953L261.858 546.641C261.858 546.641 262.829 546.738 262.604 546.277C262.277 545.71 262.123 545.07 262.159 544.427C262.264 543.762 264.453 544.284 264.453 544.284L260.189 550.206L263.932 551.046L267.926 546.077C267.926 546.077 278.9 550.175 281.358 552.015C283.817 553.854 285.918 556.758 283.981 557.107C282.044 557.455 278.571 554.361 278.571 554.361L276.694 553.879C276.694 553.879 279.855 557.916 277.935 558.582C276.014 559.248 273.677 555.022 272.096 554.253L269.55 553.003L272.508 559.31C272.508 559.31 272.426 560.493 271.575 560.847C270.725 561.2 269.243 559.556 269.243 559.556L268.299 557.45L265.556 556.938C265.556 556.938 266.615 560.77 265.556 561.738C264.497 562.706 262.703 561.738 262.703 561.738L259.257 559.048C259.257 559.048 260.058 562.635 259.076 564.125C258.093 565.616 255.103 562.65 255.103 562.65L252.008 560.847C252.008 560.847 254.905 566.154 252.524 567.127C250.143 568.101 249.506 564.971 249.506 564.971L245.857 564.812C245.857 564.812 247.147 568.162 246.351 568.869C245.556 569.576 243.926 569.013 243.926 569.013Z" fill="white"/>
<path d="M267.153 543.301L267.439 546.687L263.932 551.046L259.74 550.206C259.74 550.206 261.962 546.948 263.581 545.509C264.638 544.599 265.844 543.853 267.153 543.301Z" fill="white"/>
<path d="M276.267 531.21L283.768 534.284C283.768 534.284 287.883 535.954 287.213 541.082C286.544 546.21 283.411 553.598 283.411 553.598L267.438 546.707L266.291 544.238L265.605 543.639L265.693 538.772L271.345 538.649L274.681 530.693L276.267 531.21Z" fill="white"/>
<path d="M273.403 530.672L267.28 528.593C267.28 528.593 265.633 532.179 265.474 534.458C265.315 536.738 265.255 538.239 265.255 538.239L271.345 538.628L274.682 530.672H273.403Z" fill="white"/>
<path d="M286.044 545.923L284.914 549.258C284.914 549.258 287.625 550.852 288.541 552.711C289.457 554.571 292.931 558.07 300.772 558.818C308.613 559.566 311.746 554.95 312.591 551.046C312.903 549.434 313.308 547.838 313.803 546.267C313.803 546.267 312.009 544.576 310.023 544.929C308.036 545.283 309.683 552.583 305.43 554.028C301.178 555.473 296.02 555.396 293.973 553.577C291.927 551.758 289.073 549.002 289.073 549.002L288.689 545.882L286.044 545.923Z" fill="white"/>
<path d="M236.809 566.671C236.809 566.671 230.724 571.456 227.202 573.249C223.679 575.042 213.457 577.942 209.67 578.71C205.884 579.479 202.537 582.727 201.566 587.081C200.595 591.436 206.06 595.447 211.256 596.984C216.452 598.521 230.285 604.499 251.954 601.938C273.622 599.376 283.312 597.071 290.709 597.071C298.105 597.071 320.218 595.534 320.218 595.534C320.218 595.534 323.477 593.654 324.009 591.518C324.34 589.973 324.487 588.4 324.448 586.825C327.559 585.457 330.164 583.257 331.933 580.503C333.699 577.686 334.051 573.418 329.381 572.737C325.156 572.117 324.009 571.968 324.009 571.968C324.009 571.968 324.624 564.366 322.363 557.281C320.835 552.774 318.577 548.512 315.669 544.643C315.669 544.643 313.288 544.474 313.2 548.06C313.112 551.646 309.941 560.011 299.482 558.475C289.024 556.938 288.382 550.365 285.737 550.022" stroke="black" stroke-width="3" stroke-linecap="round" stroke-linejoin="round"/>
<path d="M324.01 587.163C324.01 587.163 312.646 588.444 298.286 589.387C283.927 590.329 283.224 590.155 276.969 591.518C266.233 594.061 255.26 595.634 244.201 596.216C233.568 596.686 222.914 596.459 212.315 595.534" stroke="black" stroke-width="3" stroke-linecap="round" stroke-linejoin="round"/>
<path d="M202.269 585.713C202.269 585.713 205.885 584.945 207.909 587.676C209.934 590.406 207.026 593.997 212.299 595.534" stroke="black" stroke-width="3" stroke-linecap="round" stroke-linejoin="round"/>
<path d="M209.604 593.311C209.604 593.311 229.687 596.046 249.594 592.286C269.501 588.526 274.083 584.52 291.087 582.64C308.091 580.76 321.123 581.272 326.056 579.223C330.989 577.173 332.136 574.786 332.136 574.786" stroke="black" stroke-width="3" stroke-linecap="round" stroke-linejoin="round"/>
<path d="M324.01 570.345C324.01 570.345 323.834 573.675 323.653 575.555C323.445 577.06 323.092 578.545 322.6 579.991" stroke="black" stroke-width="3" stroke-linecap="round" stroke-linejoin="round"/>
<path d="M322.6 558.731C322.6 558.731 319.604 567.102 317.404 571.713C315.203 576.323 311.061 580.847 311.061 580.847" stroke="black" stroke-width="3" stroke-linecap="round" stroke-linejoin="round"/>
<path d="M295.554 582.04C295.554 582.04 304.585 578.377 308.766 576.405C312.026 574.868 317.403 571.712 317.403 571.712" stroke="black" stroke-width="3" stroke-linecap="round" stroke-linejoin="round"/>
<path d="M207.646 579.919C207.646 579.919 210.11 585.042 224.656 584.786C239.202 584.53 251.674 581.712 257.952 581.456C264.827 581.2 271.077 586.492 271.077 586.492" stroke="black" stroke-width="3" stroke-linecap="round" stroke-linejoin="round"/>
<path d="M208.969 580.944C208.969 580.944 212.491 580.688 221.04 581.026C229.589 581.364 239.186 579.745 246.763 579.32C254.341 578.895 259.263 581.456 259.263 581.456" stroke="black" stroke-width="3" stroke-linecap="round" stroke-linejoin="round"/>
<path d="M229.314 572.138C229.578 572.225 234.253 574.53 254.33 569.489C274.407 564.448 291.093 555.488 291.093 555.488" stroke="black" stroke-width="3" stroke-linecap="round" stroke-linejoin="round"/>
<path d="M236.755 572.65C236.755 572.65 247.817 573.674 267.191 567.783C288.042 561.446 293.617 557.194 293.617 557.194" stroke="black" stroke-width="3" stroke-linecap="round" stroke-linejoin="round"/>
<path d="M288.157 548.572C292.827 550.365 292.827 555.744 301.458 555.063C310.089 554.382 307.131 548.162 309.299 545.585C311.378 543.106 313.387 546.267 313.387 546.267" stroke="black" stroke-width="3" stroke-linecap="round" stroke-linejoin="round"/>
<path d="M265.254 538.239L271.421 538.751C271.421 538.751 272.091 536.118 272.563 534.74C273.146 533.35 273.855 532.008 274.681 530.729L267.279 528.593C266.569 530.011 266.037 531.501 265.693 533.034C265.396 534.755 265.25 536.496 265.254 538.239Z" stroke="black" stroke-width="3" stroke-linecap="round" stroke-linejoin="round"/>
<path d="M265.693 538.926L265.605 543.618" stroke="black" stroke-width="3" stroke-linecap="round" stroke-linejoin="round"/>
<path d="M265.287 544.305C265.287 544.305 263.844 544.643 261.644 547.378C259.443 550.114 259.613 550.708 259.613 550.708L263.932 551.047C263.932 551.047 266.308 547.307 267.438 546.687C269.128 545.754 265.287 544.305 265.287 544.305Z" stroke="black" stroke-width="3" stroke-linecap="round" stroke-linejoin="round"/>
<path d="M283.29 553.88C283.466 553.623 286.813 543.634 286.813 543.634C286.813 543.634 288.887 536.615 282.939 533.813C280.025 532.461 276.995 531.34 273.88 530.462" stroke="black" stroke-width="3" stroke-linecap="round" stroke-linejoin="round"/>
<path d="M244.903 569.32C244.525 569.319 244.158 569.196 243.866 568.972C242.847 568.296 241.741 567.744 240.574 567.327C239.363 566.913 238.087 566.691 236.798 566.671C236.362 566.671 235.943 566.51 235.634 566.221C235.326 565.933 235.152 565.542 235.152 565.135C235.152 564.727 235.326 564.336 235.634 564.048C235.943 563.76 236.362 563.598 236.798 563.598C238.517 563.619 240.22 563.917 241.83 564.479C243.3 565.004 244.687 565.714 245.951 566.589C246.215 566.79 246.407 567.062 246.499 567.368C246.591 567.674 246.579 568 246.464 568.299C246.35 568.599 246.139 568.858 245.86 569.041C245.582 569.224 245.249 569.321 244.908 569.32H244.903Z" stroke="black" stroke-width="3" stroke-linecap="round" stroke-linejoin="round"/>
<path d="M242.368 564.494C242.01 563.603 241.564 562.745 241.034 561.933C240.827 561.586 240.771 561.177 240.879 560.792C240.987 560.408 241.251 560.077 241.615 559.87C241.978 559.664 242.414 559.596 242.829 559.683C243.245 559.769 243.609 560.003 243.844 560.334C244.505 561.358 245.057 562.441 245.49 563.567C245.86 564.731 246.153 565.915 246.368 567.112" stroke="black" stroke-width="3" stroke-linecap="round" stroke-linejoin="round"/>
<path d="M244.388 561.072C246.51 561.023 248.632 561.194 250.714 561.584C251.11 561.665 251.46 561.88 251.696 562.187C251.933 562.494 252.041 562.872 251.998 563.248C251.955 563.624 251.765 563.972 251.464 564.226C251.164 564.479 250.774 564.62 250.369 564.622C250.252 564.625 250.136 564.614 250.023 564.591L245.82 564.55" stroke="black" stroke-width="3" stroke-linecap="round" stroke-linejoin="round"/>
<path d="M237.913 563.265C237.834 562.864 237.929 562.45 238.177 562.115C238.425 561.78 238.806 561.55 239.235 561.477C239.312 561.477 239.871 561.374 240.766 561.282" stroke="black" stroke-width="3" stroke-linecap="round" stroke-linejoin="round"/>
<path d="M247.921 561.036C246.928 559.033 245.633 558.792 245.617 558.782C245.432 558.668 245.273 558.52 245.151 558.347C245.029 558.174 244.945 557.98 244.906 557.776C244.866 557.572 244.871 557.363 244.92 557.161C244.968 556.959 245.061 556.768 245.191 556.6C245.32 556.433 245.485 556.291 245.675 556.184C245.865 556.077 246.077 556.007 246.296 555.978C246.516 555.95 246.74 555.962 246.954 556.016C247.168 556.07 247.368 556.164 247.543 556.292C249.229 557.547 250.583 559.147 251.499 560.969C252.139 562.446 252.674 563.961 253.101 565.503C253.166 565.701 253.187 565.908 253.164 566.113C253.142 566.318 253.075 566.517 252.968 566.697C252.861 566.878 252.716 567.037 252.542 567.164C252.368 567.291 252.169 567.384 251.955 567.438C251.742 567.491 251.519 567.504 251.301 567.476C251.082 567.448 250.871 567.378 250.682 567.272C250.492 567.167 250.327 567.026 250.197 566.859C250.067 566.693 249.974 566.503 249.924 566.303C249.809 565.913 249.655 565.375 249.408 564.622" stroke="black" stroke-width="3" stroke-linecap="round" stroke-linejoin="round"/>
<path d="M248.964 557.225C250.128 557.155 251.296 557.247 252.432 557.496C256.366 558.398 258.868 561.928 258.972 562.076C259.17 562.415 259.224 562.811 259.123 563.185C259.023 563.559 258.775 563.884 258.429 564.096C258.084 564.308 257.666 564.39 257.258 564.327C256.85 564.264 256.483 564.061 256.229 563.756C256.229 563.756 254.034 561.093 251.356 560.483" stroke="black" stroke-width="3" stroke-linecap="round" stroke-linejoin="round"/>
<path d="M246.829 560.621C246.435 560.707 246.047 560.813 245.665 560.939C244.815 561.236 243.899 560.647 243.575 559.853C243.496 559.68 243.457 559.493 243.461 559.305C243.466 559.118 243.513 558.933 243.6 558.763C243.688 558.594 243.813 558.444 243.968 558.323C244.122 558.203 244.303 558.115 244.497 558.065" stroke="black" stroke-width="3" stroke-linecap="round" stroke-linejoin="round"/>
<path d="M255.345 558.603C254.67 557.419 252.958 556.041 252.354 555.59C252.03 555.335 251.823 554.972 251.779 554.578C251.734 554.183 251.854 553.788 252.114 553.475C252.374 553.161 252.754 552.954 253.174 552.896C253.594 552.837 254.021 552.933 254.368 553.162C254.648 553.362 257.111 555.181 258.247 557.153C259.756 559.786 259.679 563.562 259.674 563.721C259.664 564.122 259.486 564.504 259.178 564.784C258.871 565.065 258.458 565.222 258.028 565.222H257.984C257.078 565.222 256.047 564.448 256.069 563.598" stroke="black" stroke-width="3" stroke-linecap="round" stroke-linejoin="round"/>
<path d="M256.706 554.955C257.77 555.158 258.807 555.473 259.795 555.893C261.899 556.792 263.761 558.117 265.249 559.771C265.499 560.097 265.602 560.501 265.537 560.897C265.472 561.294 265.243 561.65 264.9 561.891C264.558 562.133 264.128 562.239 263.702 562.189C263.276 562.138 262.888 561.934 262.621 561.62C262.621 561.62 261.842 560.083 259.027 558.818" stroke="black" stroke-width="3" stroke-linecap="round" stroke-linejoin="round"/>
<path d="M254.489 557.706C253.132 557.533 251.764 557.448 250.395 557.45C249.959 557.454 249.539 557.295 249.227 557.009C248.916 556.723 248.739 556.334 248.735 555.926C248.732 555.519 248.902 555.126 249.208 554.836C249.514 554.545 249.931 554.38 250.368 554.376C250.439 554.376 250.823 554.346 251.63 554.376" stroke="black" stroke-width="3" stroke-linecap="round" stroke-linejoin="round"/>
<path d="M261.079 556.513C259.537 554.889 257.605 553.439 257.068 553.26C256.695 553.224 256.346 553.07 256.08 552.824C255.813 552.578 255.644 552.254 255.602 551.907C255.559 551.559 255.644 551.208 255.844 550.912C256.044 550.616 256.346 550.392 256.7 550.278C258.346 549.766 261.874 552.327 263.4 553.956C265.858 556.518 266.176 560.252 266.193 560.411C266.224 560.817 266.082 561.219 265.797 561.527C265.512 561.835 265.108 562.026 264.673 562.056" stroke="black" stroke-width="3" stroke-linecap="round" stroke-linejoin="round"/>
<path d="M264.919 549.766C265.496 550.278 269.095 553.075 270.198 554.504C271.276 555.898 272.083 557.459 272.579 559.115C272.682 559.511 272.612 559.929 272.384 560.277C272.157 560.624 271.791 560.874 271.367 560.97C271.239 560.998 271.108 561.012 270.977 561.011C270.609 561.01 270.251 560.894 269.962 560.681C269.672 560.469 269.468 560.172 269.38 559.837C268.986 558.561 268.36 557.357 267.531 556.277C266.302 554.689 263.932 552.056 263.229 551.62" stroke="black" stroke-width="3" stroke-linecap="round" stroke-linejoin="round"/>
<path d="M264.941 550.606C266.33 551.118 270.313 552.655 271.998 554.074C274.774 556.39 275.548 557.891 275.548 557.891C275.675 558.166 275.886 558.4 276.154 558.565C276.422 558.73 276.736 558.818 277.057 558.818C277.282 558.819 277.504 558.775 277.71 558.69C278.11 558.528 278.424 558.224 278.585 557.846C278.745 557.468 278.738 557.045 278.566 556.672L275.663 552.927" stroke="black" stroke-width="3" stroke-linecap="round" stroke-linejoin="round"/>
<path d="M268.316 557.706C267.767 557.507 266.604 557.081 265.232 556.508" stroke="black" stroke-width="3" stroke-linecap="round" stroke-linejoin="round"/>
<path d="M261.183 551.943C264.283 552.763 264.425 553.27 265.111 553.48" stroke="black" stroke-width="3" stroke-linecap="round" stroke-linejoin="round"/>
<path d="M254.488 553.003C254.485 552.801 254.541 552.602 254.65 552.428C254.759 552.253 254.918 552.11 255.108 552.015" stroke="black" stroke-width="3" stroke-linecap="round" stroke-linejoin="round"/>
<path d="M267.57 546.308C267.894 546.436 276.234 549.602 279.537 551.328C283.027 553.157 284.35 554.848 284.476 555.037C284.724 555.372 284.82 555.784 284.743 556.185C284.666 556.585 284.422 556.941 284.064 557.173C283.79 557.355 283.462 557.451 283.126 557.45C282.86 557.45 282.597 557.391 282.361 557.275C282.125 557.16 281.922 556.993 281.771 556.789C281.771 556.789 280.728 555.483 277.93 554.013C274.791 552.363 265.644 548.772 265.567 548.741" stroke="black" stroke-width="3" stroke-linecap="round" stroke-linejoin="round"/>
<path d="M286.045 546.267L288.377 545.883" stroke="black" stroke-width="3" stroke-linecap="round" stroke-linejoin="round"/>
<path d="M262.538 545.882C262.538 545.882 261.342 545.293 262.187 544.417C263.147 543.428 264.76 544.417 264.76 544.417" stroke="black" stroke-width="3" stroke-linecap="round" stroke-linejoin="round"/>
<path d="M259.822 549.766C259.822 549.766 258.724 548.516 259.476 547.491C260.113 546.63 261.792 547.035 261.792 547.035" stroke="black" stroke-width="3" stroke-linecap="round" stroke-linejoin="round"/>
<path d="M288.843 76.0607L291.921 83.0689" stroke="black" stroke-width="3" stroke-linecap="round" stroke-linejoin="round"/>
<path d="M249.325 128.151L238.675 95.6201" stroke="black" stroke-width="3" stroke-linecap="round" stroke-linejoin="round"/>
<path d="M303.784 108.719L306.308 114.242" stroke="black" stroke-width="3" stroke-linecap="round" stroke-linejoin="round"/>
<path d="M290.265 96.0146C290.003 94.6364 289.872 93.2392 289.875 91.8394C289.875 83.0689 294.769 76.4091 304.141 76.4091C308.653 76.4091 312.979 78.0823 316.169 81.0606C319.359 84.0389 321.151 88.0783 321.151 92.2902C321.151 96.5022 319.359 100.542 316.169 103.52C312.979 106.498 308.653 108.171 304.141 108.171C302.197 108.185 300.272 107.809 298.495 107.07" stroke="black" stroke-width="3" stroke-linecap="round" stroke-linejoin="round"/>
<path d="M203.833 107.741L289.167 77.2594C289.167 77.2594 283.861 54.2932 269.046 52.6692C254.231 51.0452 241.244 81.3578 241.244 81.3578L203.833 107.741Z" stroke="black" stroke-width="3" stroke-linecap="round" stroke-linejoin="round"/>
<path d="M241.232 81.3578L280.926 80.1642" stroke="black" stroke-width="3" stroke-linecap="round" stroke-linejoin="round"/>
<path d="M276.991 80.3332C276.991 80.3332 276.042 73.0022 277.908 68.7245C280.103 63.6835 282.479 62.0647 282.479 62.0647" stroke="black" stroke-width="3" stroke-linecap="round" stroke-linejoin="round"/>
<path d="M278.089 68.0381L248.365 68.1252" stroke="black" stroke-width="3" stroke-linecap="round" stroke-linejoin="round"/>
<path d="M262.703 87.9203L272.064 113.714L262.017 116.896L252.656 91.0965" stroke="black" stroke-width="3" stroke-linecap="round" stroke-linejoin="round"/>
<path d="M277.561 81.6447C277.997 82.5079 278.236 83.4459 278.264 84.3997C278.292 85.3535 278.109 86.3024 277.725 87.1868C277.342 88.0712 276.766 88.8719 276.035 89.5385C275.304 90.2051 274.433 90.7233 273.477 91.0604C272.521 91.3976 271.5 91.5463 270.48 91.4974C269.459 91.4485 268.46 91.2029 267.546 90.7761C266.632 90.3493 265.823 89.7506 265.169 89.0175C264.514 88.2845 264.03 87.433 263.745 86.5166" stroke="black" stroke-width="3" stroke-linecap="round" stroke-linejoin="round"/>
<path d="M254.538 96.7728C253.845 97.5064 252.992 98.0938 252.036 98.4957C251.081 98.8976 250.044 99.1049 248.996 99.1037C245.611 99.1037 243.098 97.5668 242.209 94.6672" stroke="black" stroke-width="3" stroke-linecap="round" stroke-linejoin="round"/>
<path d="M273.117 83.3403C273.39 83.7032 273.568 84.1211 273.635 84.5601C273.702 84.999 273.658 85.4467 273.505 85.8666C273.352 86.2865 273.096 86.6668 272.756 86.9765C272.416 87.2863 272.003 87.5168 271.549 87.6493C271.096 87.7817 270.616 87.8124 270.147 87.7389C269.679 87.6653 269.236 87.4896 268.854 87.2259C268.472 86.9623 268.162 86.6182 267.949 86.2216C267.737 85.8251 267.627 85.3873 267.63 84.9438" stroke="black" stroke-width="3" stroke-linecap="round" stroke-linejoin="round"/>
<path d="M251.065 91.3783C251.338 91.7411 251.516 92.159 251.583 92.598C251.651 93.037 251.606 93.4846 251.453 93.9045C251.301 94.3244 251.044 94.7047 250.704 95.0145C250.364 95.3243 249.951 95.5548 249.497 95.6872C249.044 95.8197 248.564 95.8504 248.095 95.7768C247.627 95.7033 247.184 95.5275 246.802 95.2639C246.42 95.0002 246.11 94.6562 245.897 94.2596C245.685 93.8631 245.575 93.4252 245.578 92.9818" stroke="black" stroke-width="3" stroke-linecap="round" stroke-linejoin="round"/>
<path d="M283.757 379.945C283.757 379.945 264.827 337.424 272.234 263.653C279.642 189.883 289.93 173.489 289.93 173.489L271 123.028C271 123.028 264.964 122.388 256.459 124.821C253.015 125.749 249.923 127.57 247.543 130.072L267.022 175.282C267.022 175.282 250.561 203.458 247.543 269.032C244.525 334.606 257.419 377.127 257.419 377.127" stroke="black" stroke-width="3" stroke-linecap="round" stroke-linejoin="round"/>
<path d="M269.276 122.951C277.057 120.687 288.871 117.377 295.142 116.24C305.019 114.447 318.188 114.191 318.188 114.191C318.188 114.191 321.206 119.698 323.263 136.604C324.866 149.76 324.772 157.096 324.772 157.096C324.772 157.096 432.664 168.059 485.224 268.52C531.694 357.316 476.077 422.547 476.077 422.547C476.077 422.547 461.46 431.087 430.732 424.94C400.005 418.792 382.809 406.497 387.934 367.906C393.058 329.314 399.637 326.235 399.637 326.235C399.637 326.235 385.799 309.842 376.224 259.299C364.52 197.48 397.075 181.087 397.075 181.087" stroke="black" stroke-width="3" stroke-linecap="round" stroke-linejoin="round"/>
<path d="M209.227 359.022C209.682 363.812 209.88 365.426 209.88 365.426C209.88 365.426 242.072 381.481 304.624 380.795C344.707 380.359 371.818 375.016 386.93 371.235" stroke="black" stroke-width="3" stroke-linecap="round" stroke-linejoin="round"/>
<path d="M208.222 276.461C208.156 277.861 208.1 279.283 208.052 280.728C207.728 289.616 207.542 297.711 207.454 305.062" stroke="black" stroke-width="3" stroke-linecap="round" stroke-linejoin="round"/>
<path d="M248.058 131.481L243.668 134.555L258.44 177.255L221.457 197.705C221.457 197.705 217.172 205.861 213.353 227.203" stroke="black" stroke-width="3" stroke-linecap="round" stroke-linejoin="round"/>
<path d="M304.333 99.7185C302.877 99.7185 301.482 99.1787 300.453 98.218C299.424 97.2572 298.846 95.9542 298.846 94.5955C298.846 93.2368 299.424 91.9338 300.453 90.973C301.482 90.0123 302.877 89.4725 304.333 89.4725" stroke="black" stroke-width="3" stroke-linecap="round" stroke-linejoin="round"/>
<path d="M298.846 94.4726C299.354 93.9655 299.964 93.5572 300.642 93.271C301.32 92.9849 302.051 92.8265 302.794 92.8051C303.538 92.7837 304.278 92.8996 304.974 93.1462C305.669 93.3928 306.305 93.7652 306.846 94.242" stroke="black" stroke-width="3" stroke-linecap="round" stroke-linejoin="round"/>
<path d="M162.965 256.906C162.965 256.906 157.659 256.563 153.45 250.246C152.4 248.654 151.727 246.87 151.475 245.015C151.224 243.159 151.399 241.275 151.991 239.488C151.991 239.488 134.432 250.246 123.639 238.976C112.846 227.705 132.6 225.487 140.649 221.215C148.699 216.942 153.637 208.75 169.73 211.481C185.824 214.212 192.37 255.569 166.619 271.251C137.176 289.181 111.387 265.446 111.387 265.446" stroke="black" stroke-width="3" stroke-linecap="round" stroke-linejoin="round"/>
<path d="M167.903 210.287C167.903 210.287 160.951 185.185 143.574 191.676C132.638 195.774 137.642 209.478 143.19 219.688" stroke="black" stroke-width="3" stroke-linecap="round" stroke-linejoin="round"/>
<path d="M133.714 244.109C134.979 245.301 136.455 246.28 138.076 247.004C143.497 249.309 148.046 246.696 149.324 243.817C149.722 242.88 149.993 241.901 150.131 240.902" stroke="black" stroke-width="3" stroke-linecap="round" stroke-linejoin="round"/>
<path d="M136.798 200.723C136.798 200.723 132.139 196.722 124.82 200.979C118.51 204.652 120.529 216.307 124.271 227.844" stroke="black" stroke-width="3" stroke-linecap="round" stroke-linejoin="round"/>
<path d="M120.452 210.554C120.452 210.554 113.319 206.522 106.07 212.839C99.5845 218.51 103.875 242.209 115.305 250.748C126.734 259.288 133.725 251.686 134.877 249.724C135.782 248.187 135.322 245.912 134.778 244.288" stroke="black" stroke-width="3" stroke-linecap="round" stroke-linejoin="round"/>
<path d="M103.052 225.569C103.052 225.569 98.9367 221.302 91.1616 225.4C82.2945 230.077 84.6704 252.895 99.5787 261.686C114.487 270.477 117.137 260.021 117.593 258.187C118.416 254.688 115.305 250.759 115.305 250.759" stroke="black" stroke-width="3" stroke-linecap="round" stroke-linejoin="round"/>
<path d="M184.03 238.038C184.03 238.038 194.944 242.813 200.491 246.747C204.469 249.565 207.032 251.614 207.032 251.614" stroke="black" stroke-width="3" stroke-linecap="round" stroke-linejoin="round"/>
<path d="M133.549 276.845C133.549 276.845 143.426 298.105 165.511 321.543C190.477 348.054 209.27 360.99 209.27 360.99" stroke="black" stroke-width="3" stroke-linecap="round" stroke-linejoin="round"/>
<path d="M286.846 70.451C286.846 70.451 291.373 69.6825 295.351 65.2665C299.329 60.8505 299.466 58.3505 304.059 58.2225C308.651 58.0944 311.664 65.5227 302.687 71.2092C293.71 76.8957 289.106 76.783 289.106 76.783" stroke="black" stroke-width="3" stroke-linecap="round" stroke-linejoin="round"/>
<path d="M95.2768 258.146L88.2754 261.65" stroke="black" stroke-width="3" stroke-linecap="round" stroke-linejoin="round"/>
<path d="M258.703 177.757L178.29 217.449" stroke="black" stroke-width="3" stroke-linecap="round" stroke-linejoin="round"/>
<path d="M320.915 121.015L427.671 61.8137C429.685 60.8675 431.884 60.3149 434.135 60.1898C442.991 59.6775 450.596 65.743 451.144 73.7144C451.479 78.699 450.107 83.9091 441.789 88.2585L324.328 145.846" stroke="black" stroke-width="3" stroke-linecap="round" stroke-linejoin="round"/>
<path d="M166.646 206.563L252.047 159.206" stroke="black" stroke-width="3" stroke-linecap="round" stroke-linejoin="round"/>
<path d="M82.2236 253.412L88.6928 249.821" stroke="black" stroke-width="3" stroke-linecap="round" stroke-linejoin="round"/>
<path d="M83.5208 275.567C87.0435 273.682 86.6035 266.786 82.538 260.167C78.4725 253.547 72.3211 249.709 68.7984 251.595C65.2757 253.481 65.7156 260.376 69.7811 266.996C73.8466 273.616 79.9981 277.453 83.5208 275.567Z" stroke="black" stroke-width="3" stroke-linecap="round" stroke-linejoin="round"/>
<path d="M69.3018 251.425C75.8862 248.12 81.269 250.825 86.2238 259.109C89.9879 265.369 90.6738 272.695 83.4034 275.615" stroke="black" stroke-width="3" stroke-linecap="round" stroke-linejoin="round"/>
<path d="M350.77 228.945H292.744V239.063H350.77V228.945Z" stroke="black" stroke-width="3" stroke-linecap="round" stroke-linejoin="round"/>
<path d="M348.641 239.447V267.383C348.634 270.218 347.425 272.935 345.278 274.941C343.131 276.946 340.221 278.077 337.184 278.085H306.331C303.295 278.07 300.389 276.938 298.243 274.934C296.097 272.93 294.884 270.217 294.868 267.383V239.447" stroke="black" stroke-width="3" stroke-linecap="round" stroke-linejoin="round"/>
<path d="M369.837 308.397H292.744V320.262H369.837V308.397Z" stroke="black" stroke-width="3" stroke-linecap="round" stroke-linejoin="round"/>
<path d="M367.34 320.698V353.484C367.329 356.806 365.911 359.989 363.395 362.339C360.88 364.688 357.472 366.013 353.914 366.025H308.679C305.116 366.016 301.703 364.691 299.184 362.339C296.665 359.987 295.245 356.8 295.235 353.474V320.698" stroke="black" stroke-width="3" stroke-linecap="round" stroke-linejoin="round"/>
<path d="M208.107 237.398H223.745L228.749 227.28H210.505C210.505 227.28 208.93 228.561 208.381 232.019C208.048 233.794 207.955 235.601 208.107 237.398Z" stroke="black" stroke-width="3" stroke-linecap="round" stroke-linejoin="round"/>
<path d="M209.27 237.331C209.27 237.331 207.558 245.467 206.801 258.208C206.044 270.948 206.527 276.333 206.527 276.333V276.42H217.155C220.192 276.412 223.102 275.281 225.249 273.276C227.396 271.27 228.605 268.553 228.612 265.718V227.342" stroke="black" stroke-width="3" stroke-linecap="round" stroke-linejoin="round"/>
<path d="M341.371 320.262H321.206V326.794H341.371V320.262Z" stroke="black" stroke-width="3" stroke-linecap="round" stroke-linejoin="round"/>
<path d="M201.374 317.188H219.344L224.343 305.329H204.815C204.815 305.329 203.371 306.825 202.274 310.795C201.177 314.765 201.374 317.188 201.374 317.188Z" stroke="black" stroke-width="3" stroke-linecap="round" stroke-linejoin="round"/>
<path d="M211.196 317.183H203.92V323.715H211.196V317.183Z" stroke="black" stroke-width="3" stroke-linecap="round" stroke-linejoin="round"/>
<path d="M202.209 317.444C202.209 317.444 201.281 345.447 202.894 351.594C205.018 359.709 210.604 359.191 210.604 359.191C222.028 359.191 224.047 355.867 224.047 346.645V305.534" stroke="black" stroke-width="3" stroke-linecap="round" stroke-linejoin="round"/>
<path d="M237.759 374.222L238.489 390.959C238.489 390.959 272.173 400.693 320.613 398.131C365.426 395.739 387.006 388.566 387.006 388.566" stroke="black" stroke-width="3" stroke-linecap="round" stroke-linejoin="round"/>
<path d="M308.92 398.812L318.797 450.211C318.797 450.211 348.24 544.986 348.059 545.498C347.878 546.011 360.311 555.918 383.906 553.014C407.5 550.109 412.438 540.549 412.438 540.549L395.429 490.001L400.504 434.248" stroke="black" stroke-width="3" stroke-linecap="round" stroke-linejoin="round"/>
<path d="M404.334 415.933C404.334 415.933 392.63 449.852 408.175 470.621C413.398 477.593 422.99 485.606 439.588 486.886C466.2 488.936 471.523 478.603 471.506 468.059C471.506 467.547 471.506 467.035 471.451 466.523C470.968 459.105 467.298 452.568 467.298 452.568" stroke="black" stroke-width="3" stroke-linecap="round" stroke-linejoin="round"/>
<path d="M460.362 461.226C460.362 461.226 468.318 455.677 470.464 442.829C472.889 428.326 469.915 425.283 469.915 425.283" stroke="black" stroke-width="3" stroke-linecap="round" stroke-linejoin="round"/>
<path d="M471.451 466.518C471.451 466.518 482.645 462.875 479.644 452.173C477.312 443.848 471.139 441.415 471.139 441.415" stroke="black" stroke-width="3" stroke-linecap="round" stroke-linejoin="round"/>
<path d="M479.644 452.178C479.644 452.178 483.024 446.307 479.369 438.474C476.626 432.583 471.688 431.174 471.688 431.174" stroke="black" stroke-width="3" stroke-linecap="round" stroke-linejoin="round"/>
<path d="M457.97 458.326C457.97 458.326 460.165 460.032 460.9 463.874" stroke="black" stroke-width="3" stroke-linecap="round" stroke-linejoin="round"/>
<path d="M256.047 394.883L253.304 463.874L274.901 527.23C274.901 527.23 284.777 534.059 300.871 533.034C316.964 532.009 319.527 527.911 319.527 527.911L318.062 447.824" stroke="black" stroke-width="3" stroke-linecap="round" stroke-linejoin="round"/>
<path d="M286.594 532.178L289.156 549.002" stroke="black" stroke-width="3" stroke-linecap="round" stroke-linejoin="round"/>
<path d="M305.431 532.865L308.086 549.258" stroke="black" stroke-width="3" stroke-linecap="round" stroke-linejoin="round"/>
<path d="M366.337 553.526L367.072 557.368" stroke="black" stroke-width="3" stroke-linecap="round" stroke-linejoin="round"/>
<path d="M389.02 552.501L397.338 583.07" stroke="black" stroke-width="3" stroke-linecap="round" stroke-linejoin="round"/>
<path d="M322.078 236.584C323.594 236.584 324.822 235.437 324.822 234.022C324.822 232.607 323.594 231.461 322.078 231.461C320.563 231.461 319.335 232.607 319.335 234.022C319.335 235.437 320.563 236.584 322.078 236.584Z" stroke="black" stroke-width="3" stroke-linecap="round" stroke-linejoin="round"/>
<path d="M212.566 232.407C212.851 231.018 212.349 229.76 211.444 229.598C210.54 229.436 209.575 230.431 209.289 231.821C209.004 233.21 209.506 234.468 210.411 234.63C211.315 234.792 212.28 233.797 212.566 232.407Z" stroke="black" stroke-width="3" stroke-linecap="round" stroke-linejoin="round"/>
<path d="M258.517 67.828C259.691 64.6978 261.344 61.7422 263.422 59.0524C265.252 56.7476 267.35 54.6395 269.677 52.7665" stroke="black" stroke-width="3" stroke-linecap="round" stroke-linejoin="round"/>
<path d="M387.385 382.25C387.385 382.25 387.429 382.798 387.604 383.787" stroke="black" stroke-width="3" stroke-linecap="round" stroke-linejoin="round"/>
<path d="M388.938 388.782C392.136 398.003 401.728 414.284 429.986 419.135C458.124 423.961 471.896 420.262 477.723 417.501" stroke="black" stroke-width="3" stroke-linecap="round" stroke-linejoin="round" stroke-dasharray="6.06 10.1"/>
<path d="M480.116 416.179C480.572 415.895 480.997 415.569 481.384 415.206" stroke="black" stroke-width="3" stroke-linecap="round" stroke-linejoin="round"/>
<path d="M187.459 241.881C187.459 241.881 187.459 261.348 172.095 271.932C156.731 282.516 137.346 282.521 137.346 282.521" stroke="black" stroke-width="3" stroke-linecap="round" stroke-linejoin="round" stroke-dasharray="6 10"/>
<path d="M282.385 376.051C328.794 378.449 370.567 370.283 388.356 366.113" stroke="black" stroke-width="3" stroke-linecap="round" stroke-linejoin="round" stroke-dasharray="6 10"/>
<path d="M210.872 361.072C210.872 361.072 222.351 369.109 256.332 373.669" stroke="black" stroke-width="3" stroke-linecap="round" stroke-linejoin="round" stroke-dasharray="6 10"/>
<path d="M417.564 194.749C417.564 194.749 407.687 197.137 396.346 205.677C385.004 214.217 374.397 224.801 374.397 224.801" stroke="black" stroke-width="3" stroke-linecap="round" stroke-linejoin="round" stroke-dasharray="6 10"/>
<path d="M318.786 162.301L380.241 198.161" stroke="black" stroke-width="3" stroke-linecap="round" stroke-linejoin="round" stroke-dasharray="6 10"/>
<path d="M322.265 206.455C322.124 206.447 321.983 206.468 321.852 206.516C321.721 206.565 321.604 206.641 321.508 206.737C321.308 206.94 321.145 207.172 321.025 207.424C320.901 207.692 320.808 207.972 320.745 208.259C320.696 208.508 320.627 208.753 320.537 208.991C319.986 210.487 319.354 211.956 318.644 213.392C317.931 214.847 316.886 216.139 315.582 217.178C315.062 217.603 314.483 217.96 313.859 218.238C313.214 218.537 312.521 218.733 311.807 218.817C311.112 218.905 310.404 218.853 309.733 218.663C309.005 218.441 308.36 218.031 307.873 217.48C307.215 216.781 306.703 215.973 306.364 215.098C306.023 214.217 305.782 213.305 305.645 212.377C305.514 211.462 305.459 210.539 305.48 209.616C305.48 208.699 305.557 207.823 305.645 207.004C305.832 205.301 306.158 203.614 306.621 201.957C307.076 200.325 307.732 198.747 308.575 197.255C309.002 196.474 309.49 195.724 310.034 195.011C310.587 194.285 311.319 193.694 312.169 193.289C312.493 193.114 312.854 193.008 313.227 192.979C313.6 192.949 313.975 192.998 314.325 193.12C314.671 193.265 314.979 193.476 315.229 193.742C315.479 194.007 315.664 194.319 315.774 194.657C316.005 195.308 316.113 195.991 316.092 196.676C316.078 197.392 315.953 198.103 315.719 198.786C315.495 199.457 315.144 200.085 314.682 200.641C314.238 201.185 313.657 201.62 312.992 201.906C312.549 202.132 312.132 202.357 311.741 202.582C311.34 202.82 311.042 203.183 310.901 203.607C310.69 204.097 310.671 204.641 310.846 205.144C311.031 205.675 311.38 206.142 311.851 206.486C312.375 206.943 313.06 207.207 313.777 207.229C314.413 207.234 315.038 207.078 315.587 206.778C316.166 206.472 316.694 206.087 317.151 205.636C317.571 205.231 317.951 204.792 318.287 204.324C318.748 203.627 319.116 202.881 319.384 202.101C319.662 201.303 319.828 200.475 319.878 199.637C319.926 198.789 319.86 197.938 319.681 197.106C319.507 196.269 319.196 195.462 318.759 194.714C317.949 193.201 316.63 191.977 315.006 191.23C313.359 190.546 311.5 190.45 309.782 190.958C307.99 191.364 306.33 192.167 304.942 193.3C303.6 194.409 302.493 195.743 301.678 197.234C300.941 198.6 300.398 200.05 300.064 201.548C299.709 203.111 299.55 204.709 299.593 206.307C299.632 207.922 299.874 209.528 300.311 211.092C300.746 212.655 301.428 214.148 302.336 215.523C302.811 216.248 303.335 216.945 303.905 217.608C304.488 218.28 305.159 218.881 305.903 219.396C306.643 219.904 307.453 220.316 308.311 220.62C309.212 220.934 310.173 221.068 311.132 221.015C312.525 220.938 313.873 220.525 315.044 219.816C316.169 219.149 317.189 218.339 318.073 217.408C319.175 216.241 320.139 214.967 320.948 213.607C321.745 212.255 322.404 210.837 322.918 209.37C322.995 209.181 323.099 208.925 323.22 208.602C323.34 208.3 323.416 207.985 323.445 207.664C323.472 207.378 323.401 207.091 323.242 206.845C323.127 206.708 322.978 206.6 322.807 206.532C322.636 206.464 322.45 206.438 322.265 206.455Z" fill="#8C1C2F" stroke="#8C1C2F" stroke-width="0.46" stroke-linecap="round" stroke-linejoin="round"/>
<path d="M323.566 200.999C323.745 200.832 323.849 200.606 323.856 200.369C323.86 200.142 323.945 199.922 324.098 199.744C324.662 199.099 325.192 198.427 325.684 197.731C326.155 197.05 326.611 196.363 327.044 195.682C327.247 195.349 327.434 195.021 327.593 194.688C327.752 194.355 327.933 194.022 328.092 193.663C328.259 193.304 328.332 192.913 328.305 192.522C328.278 192.131 328.153 191.751 327.939 191.414C327.532 190.747 326.918 190.211 326.177 189.878C325.48 189.553 324.69 189.445 323.922 189.57C323.528 189.652 323.166 189.835 322.875 190.097C322.585 190.359 322.377 190.691 322.276 191.056C322.105 191.52 322.047 192.013 322.106 192.5C322.166 193.013 322.194 193.499 322.199 193.95C322.199 194.637 322.199 195.323 322.166 195.999C322.14 196.687 322.061 197.372 321.93 198.049C321.886 198.238 321.821 198.464 321.733 198.735C321.645 199.007 321.563 199.273 321.491 199.539C321.422 199.794 321.393 200.056 321.404 200.318C321.406 200.557 321.495 200.788 321.656 200.974C321.779 201.113 321.933 201.225 322.107 201.301C322.282 201.377 322.473 201.416 322.666 201.414C322.842 201.428 323.019 201.397 323.177 201.324C323.336 201.251 323.47 201.139 323.566 200.999Z" fill="#8C1C2F" stroke="#8C1C2F" stroke-width="0.46" stroke-linecap="round" stroke-linejoin="round"/>
<path d="M334.237 200.784C333.937 200.299 333.503 199.898 332.981 199.621C332.504 199.378 331.971 199.244 331.428 199.232C330.878 199.224 330.332 199.316 329.82 199.503C329.302 199.689 328.823 199.958 328.405 200.298C327.603 200.927 327.028 201.771 326.759 202.716C326.5 203.669 326.5 204.667 326.759 205.62C326.998 206.646 327.56 207.583 328.372 208.31C329.224 209.044 330.197 209.646 331.252 210.093C331.803 210.334 332.337 210.604 332.855 210.902C333.379 211.185 333.812 211.596 334.106 212.091C334.341 212.512 334.456 212.983 334.44 213.458C334.432 213.924 334.34 214.385 334.166 214.821C334.036 215.143 333.851 215.442 333.617 215.707C333.374 215.979 333.082 216.209 332.756 216.389C332.424 216.574 332.068 216.718 331.697 216.819C331.31 216.923 330.906 216.958 330.506 216.922C329.977 216.898 329.47 216.718 329.058 216.409C328.666 216.118 328.353 215.746 328.141 215.323C327.929 214.909 327.816 214.456 327.812 213.996C327.796 213.559 327.9 213.125 328.114 212.736C328.209 212.579 328.321 212.431 328.449 212.296L328.827 211.896C328.947 211.769 329.048 211.628 329.129 211.476C329.211 211.3 329.243 211.108 329.222 210.917C329.196 210.527 329.012 210.161 328.706 209.893C328.403 209.618 328.016 209.438 327.599 209.377C327.181 209.315 326.754 209.376 326.374 209.55C326.018 209.719 325.698 209.948 325.431 210.226C325.156 210.506 324.93 210.824 324.761 211.168C324.604 211.474 324.489 211.798 324.421 212.132C324.268 212.951 324.363 213.794 324.695 214.565C325.031 215.353 325.542 216.065 326.193 216.655C326.857 217.252 327.653 217.705 328.525 217.982C329.43 218.273 330.406 218.314 331.335 218.1C332.199 217.925 333.006 217.559 333.689 217.034C334.355 216.533 334.906 215.911 335.307 215.205C335.7 214.503 335.933 213.732 335.993 212.941C336.059 212.122 335.922 211.3 335.593 210.538C335.232 209.65 334.644 208.857 333.881 208.228C333.103 207.584 332.183 207.107 331.187 206.829C330.711 206.705 330.259 206.511 329.848 206.256C329.454 206.017 329.106 205.719 328.816 205.374C328.541 205.048 328.339 204.674 328.224 204.273C328.108 203.869 328.08 203.447 328.141 203.033C328.333 202.176 328.816 201.4 329.518 200.82C329.871 200.531 330.296 200.329 330.753 200.231C330.999 200.188 331.252 200.192 331.496 200.243C331.741 200.294 331.971 200.391 332.174 200.528C332.281 200.588 332.374 200.667 332.446 200.761C332.519 200.856 332.57 200.963 332.597 201.076C332.646 201.294 332.646 201.519 332.597 201.737C332.534 201.965 332.434 202.183 332.3 202.383C332.177 202.568 332.032 202.74 331.867 202.895C331.722 203.044 331.53 203.145 331.318 203.182C331.116 203.219 330.92 203.283 330.737 203.371C330.5 203.465 330.295 203.617 330.144 203.812C330.001 203.992 329.905 204.201 329.864 204.422C329.827 204.648 329.843 204.879 329.914 205.098C330.027 205.427 330.246 205.715 330.54 205.925C330.834 206.135 331.19 206.255 331.56 206.271C332.012 206.286 332.46 206.179 332.849 205.964C333.31 205.712 333.712 205.377 334.034 204.98C334.35 204.597 334.58 204.157 334.709 203.689C334.976 202.703 334.812 201.658 334.254 200.784H334.237Z" fill="#8C1C2F" stroke="#8C1C2F" stroke-width="0.46" stroke-linecap="round" stroke-linejoin="round"/>
</svg>
