<svg width="603" height="869" viewBox="0 0 603 869" fill="none" xmlns="http://www.w3.org/2000/svg">
<path d="M353.158 868.981C473.511 868.981 571.076 843.832 571.076 812.809C571.076 781.786 473.511 756.637 353.158 756.637C232.805 756.637 135.239 781.786 135.239 812.809C135.239 843.832 232.805 868.981 353.158 868.981Z" fill="black"/>
<path d="M419.184 861.618C455.375 860.79 484.548 852.886 484.344 843.965C484.14 835.043 454.636 828.482 418.445 829.31C382.254 830.138 353.08 838.042 353.284 846.963C353.488 855.885 382.992 862.446 419.184 861.618Z" fill="black"/>
<path d="M280.291 806.762C331.108 804.516 372.117 798.507 371.889 793.341C371.661 788.174 330.281 785.808 279.465 788.054C228.649 790.3 187.64 796.31 187.868 801.476C188.096 806.642 229.475 809.009 280.291 806.762Z" fill="black"/>
<path d="M241.43 471.411L240.37 494.819C240.37 494.819 275.946 508.505 352.068 506.765C428.19 505.026 446.602 491.085 446.602 491.085V470.425L241.43 471.411Z" fill="white"/>
<path d="M102.059 329.693L169.069 273.693C169.069 273.693 178.39 277.031 185.704 282.489C190.313 285.962 194.651 289.781 198.682 293.913L181.129 434.585C181.129 434.585 137.5 394.153 121.112 368.236C104.723 342.319 100.477 333.501 100.477 333.501L102.059 329.693Z" fill="#C18B1E"/>
<path d="M198.391 78.7387L288.506 44.6683L289.64 42.712L245.086 42.9435L198.391 78.7387Z" fill="#C18B1E"/>
<path d="M246.713 42.712L291.984 42.0326V25.0981L254.102 23.9333L248.855 33.319L246.713 42.712Z" fill="#8C1C2F" stroke="#8C1C2F" stroke-width="0.46" stroke-linecap="round" stroke-linejoin="round"/>
<path d="M256.9 19.6027C256.9 19.6027 268.483 1.90671 279.991 1.68271C291.499 1.45871 300.2 15.4587 300.2 15.4587C300.2 15.4587 295.991 21.0811 295.111 22.6267C294.815 23.0906 294.419 23.4814 293.951 23.7698C293.483 24.0582 292.956 24.2367 292.409 24.2918L255.02 23.9408L256.9 19.6027Z" fill="#C18B1E"/>
<path d="M306.052 39.3968C307.061 38.2779 307.999 37.0957 308.858 35.8575C308.858 35.8575 305.932 27.0767 304.313 22.201C302.693 17.3253 300.97 16.5786 300.97 16.5786C297.643 18.4578 295.148 21.5246 293.984 25.1653C291.984 31.3253 292.409 40.9647 292.409 40.9647L300.201 42.9733" fill="#C18B1E"/>
<path d="M305.671 41.4053C308.074 41.4053 308.081 37.672 305.671 37.672C303.26 37.672 303.268 41.4053 305.671 41.4053Z" fill="black"/>
<path d="M312.828 35.5066C317.986 33.7521 322.962 31.5016 327.687 28.7866C334.157 24.8368 338.321 13.3904 332.612 10.7173C326.903 8.04424 321.992 14.3536 317.686 20.1104C313.38 25.8672 308.634 27.2037 308.634 27.2037L312.828 35.5066Z" fill="black"/>
<path d="M243.624 74.2586L253.781 107.5L259.617 109.091C259.617 109.091 266.132 105.76 272.812 105.006C276.714 104.561 280.638 104.329 284.566 104.312C284.566 104.312 308.447 94.9264 317.403 93.9781C322.519 93.467 327.598 92.6417 332.612 91.5066L329.232 83.1589C329.232 83.1589 355.3 80.0453 352.688 55.4053C350.076 30.7653 319.104 34.8272 314.91 43.9962C310.716 53.1653 310.574 55.4053 310.574 55.4053L303.402 53.4864L279.304 60.7216C279.304 60.7216 271.946 55.1066 266.117 57.4064C260.289 59.7061 263.132 68.2853 263.132 68.2853L243.624 74.2586Z" fill="#00EFBF"/>
<path d="M262.371 63.88L272.274 95.1654L285.894 90.4987L274.453 56.5328L262.371 59.512V63.88Z" fill="#00EFBF"/>
<path d="M245.602 61.9834L259.639 57.7722L262.199 67.6133C262.199 67.6133 254.93 70.0474 250.542 69.4575C246.154 68.8677 245.602 61.9834 245.602 61.9834Z" fill="white"/>
<path d="M274.722 51.0971L294.126 43.7051C294.126 43.7051 299.066 55.5099 288.745 57.7723C275.819 60.5947 274.722 51.0971 274.722 51.0971Z" fill="white"/>
<path d="M250.049 60.6469C250.049 60.6469 250.206 65.7392 256.856 63.5589C263.505 61.3786 257.557 57.4064 257.557 57.4064L250.049 60.6469Z" fill="#72F7B4"/>
<path d="M250.542 60.759C250.542 60.759 251.027 65.9856 256.109 64.104C259.095 62.9766 256.9 57.959 256.9 57.959L250.542 60.759Z" fill="black"/>
<path d="M279.991 49.0885C279.991 49.0885 281.028 53.8523 285.006 52.8219C288.984 51.7915 287.469 46.4827 287.469 46.4827L279.991 49.0885Z" fill="black"/>
<path d="M357.941 98.4431L493.23 17.7434C493.23 17.7434 509.649 7.85008 523.343 18.9306C537.038 30.0111 527.769 47.3413 519.903 51.7839C512.037 56.2266 359.964 136.075 359.964 136.075L357.941 98.4431Z" fill="white"/>
<path d="M161.509 239.765L264.005 186.072L255.027 159.983L147.814 222.995L151.188 230.715L161.509 239.765Z" fill="white"/>
<path d="M33.8028 291.725L27.8324 294.346C27.8324 294.346 21.3322 286.603 11.2572 290.217C1.18217 293.831 10.1825 312.961 14.5782 319.457C18.9739 325.953 31.4818 331.403 35.4745 321.57C37.4394 316.897 37.5409 311.65 35.7581 306.905L42.3553 302.5L33.8028 291.725Z" fill="white"/>
<path d="M266.013 180.517L246.937 121.112L252.908 116.632L252.206 114.579C252.206 114.579 255.624 109.352 265.356 106.589C271.23 104.916 277.317 104.111 283.424 104.2C283.424 104.2 303.022 96.472 319.343 93.9781C335.665 91.4842 347.852 90.8719 347.852 90.8719C347.852 90.8719 352.083 102.938 353.889 111.032C355.695 119.126 356.315 138.547 356.628 141.391C356.942 144.236 358.374 154.592 358.374 154.592C358.374 154.592 377.726 155.115 419.377 171.273C461.027 187.431 453.438 188.446 453.438 188.446C453.438 188.446 431.631 207.337 427.019 235.255C422.407 263.173 420.481 286.775 428.19 326.348C435.9 365.922 455.744 403.949 455.744 403.949C455.744 403.949 447.84 429.336 446.042 441.2C444.243 453.065 441.892 470.455 441.892 470.455C441.892 470.455 380.51 484.5 323.104 483.395C265.699 482.289 238.4 470.425 238.4 470.425L208.735 461.107L200.958 457.627C200.958 457.627 194.943 369.647 196.197 348.8C197.451 327.954 197.689 282.228 197.689 282.228L207.041 248.628L212.712 223.241L266.013 180.517Z" fill="#C18B1E"/>
<path d="M142.605 320.345C142.605 320.345 167.046 305.509 166.024 268.75C165.002 231.992 144.225 232.821 144.225 232.821C144.225 232.821 140.493 204.358 118.47 202.805C96.4468 201.252 104.544 236.905 104.544 236.905L100.977 216.745C100.977 216.745 94.3497 212.265 85.7673 217.895C77.1849 223.525 80.3567 234.867 80.3567 234.867C80.3567 234.867 74.2594 225.391 62.0351 233.739C49.8108 242.087 57.4902 262.277 57.4902 262.277C57.4902 262.277 56.1319 252.003 52.2288 251.473C48.3256 250.942 29.7205 248.262 33.6758 278.211C37.6312 308.159 65.7666 311.467 65.7666 311.467L69.1025 312.147C69.1025 312.147 83.2822 328.14 107.91 329.163C132.538 330.186 142.605 320.345 142.605 320.345Z" fill="#00EFBF"/>
<path d="M442.497 386.552C442.497 386.552 418.16 287.074 425.705 246.179C434.661 197.645 456.05 188.932 456.05 188.932C456.05 188.932 520.582 218.597 564.688 295.347C608.794 372.097 607.19 426.917 593.547 476.719C580.681 523.677 563.516 540.851 563.516 540.851C563.516 540.851 550.434 554.126 508.746 546.705C467.058 539.283 447.975 525.686 445.236 504.891C442.497 484.097 442.616 459.718 445.602 445.277C448.587 430.837 442.497 386.552 442.497 386.552Z" fill="#C18B1E"/>
<path d="M195.555 370.006L221.13 370.312L214.876 387.291H188.383L193.353 370.006H195.555Z" fill="#8C1C2F" stroke="#8C1C2F" stroke-width="0.46" stroke-linecap="round" stroke-linejoin="round"/>
<path d="M203.428 396.259L203.779 389.658H220.727V432.099C220.727 432.099 223.578 447.779 206.913 448.271C190.249 448.764 190.838 433.98 190.622 430.351C190.405 426.723 189.875 388.852 189.875 388.852H193.099C193.099 388.852 192.226 396.632 193.226 396.632C194.226 396.632 203.428 396.259 203.428 396.259Z" fill="#8C1C2F" stroke="#8C1C2F" stroke-width="0.46" stroke-linecap="round" stroke-linejoin="round"/>
<path d="M202.309 256.259L226.563 256.348V310.205C226.563 317.485 221.339 329.021 210.331 329.223C199.324 329.425 194.368 328.476 194.368 328.476L200.54 276.613L200.63 272.193L199.047 270.983C199.047 270.983 199.137 262.77 199.988 260.53C200.623 259.035 201.4 257.604 202.309 256.259Z" fill="#8C1C2F" stroke="#8C1C2F" stroke-width="0.46" stroke-linecap="round" stroke-linejoin="round"/>
<path d="M314.44 258.499H393.085L393.734 273.432H389.853V314.872C389.853 314.872 391.122 328.125 375.263 329.992C359.404 331.859 331.605 330.179 331.605 330.179C331.605 330.179 317.239 329.805 316.866 306.659C316.492 283.512 317.052 273.432 317.052 273.432L314.067 272.499L314.44 258.499Z" fill="#8C1C2F" stroke="#8C1C2F" stroke-width="0.46" stroke-linecap="round" stroke-linejoin="round"/>
<path d="M314.164 391.779V374.419H419.018V391.779H314.999" fill="#8C1C2F"/>
<path d="M314.164 391.779V374.419H419.018V391.779H314.999" stroke="#8C1C2F" stroke-width="0.46" stroke-linecap="round" stroke-linejoin="round"/>
<path d="M384.592 394.34H415.19V438.445C415.19 438.445 418.175 458.979 390.935 458.979C363.696 458.979 331.724 458.001 331.724 458.001C331.724 458.001 317.425 454.499 317.425 437.699V395.788H352.874V400.731H380.532V395.788L384.592 394.34Z" fill="#8C1C2F" stroke="#8C1C2F" stroke-width="0.46" stroke-linecap="round" stroke-linejoin="round"/>
<path d="M352.941 392.518H380.532V400.731H352.874L352.941 392.518Z" fill="white"/>
<path d="M193.853 388.045L203.779 387.978L203.428 396.259L193.234 396.632L193.853 388.045Z" fill="white"/>
<path d="M463.386 543.24C463.386 543.24 447.87 615.472 496.924 630.921C545.978 646.37 555.964 617.294 555.964 617.294L557.225 604.922C557.225 604.922 569.099 599.225 569.061 590.832V582.44C569.061 582.44 572.561 569.5 567.494 562.915C562.427 556.329 557.165 554.253 557.165 554.253L552.538 548.944C536.233 551.456 519.608 550.988 503.469 547.563C477.535 541.836 465.699 540.096 465.699 540.096L463.386 543.24Z" fill="#00EFBF"/>
<path d="M337.016 518.712L350.143 583.112L389.383 720.058C389.383 720.058 402.757 734.357 434.258 731.437C465.759 728.518 476.946 712.845 476.946 712.845L453.811 639.172L463.625 540.119L441.699 501.539L337.016 518.712Z" fill="black"/>
<path d="M263.856 511.215L260.52 601.092L289.894 693.432C289.894 693.432 309.201 705.453 323.597 702.825C332.875 701.022 341.927 698.205 350.591 694.425L347.852 570.979L336.083 515.165L263.856 511.215Z" fill="black"/>
<path d="M445.87 735.133L456.438 777.088H454.199C454.199 777.088 447.609 771.317 443.131 767.703C438.653 764.089 437.78 763.768 437.78 763.768C437.78 763.768 440.273 755.368 439.773 751.821C439.273 748.275 434.892 743.332 429.825 741.816C427.207 741.003 424.549 740.325 421.862 739.785L422.668 737.328L445.87 735.133Z" fill="white"/>
<path d="M309.298 725.165C313.267 729.966 318.918 733.069 325.097 733.842C335.291 734.991 334.844 724.232 334.844 724.232L330.941 702.825L306.089 702.078L309.298 725.165Z" fill="white"/>
<path d="M258.781 95.0383C261.992 95.0383 264.595 92.4342 264.595 89.2218C264.595 86.0094 261.992 83.4053 258.781 83.4053C255.57 83.4053 252.967 86.0094 252.967 89.2218C252.967 92.4342 255.57 95.0383 258.781 95.0383Z" fill="#8C1C2F" stroke="#8C1C2F" stroke-width="0.46" stroke-linecap="round" stroke-linejoin="round"/>
<path d="M298.895 81.0383C302.105 81.0383 304.708 78.4342 304.708 75.2218C304.708 72.0094 302.105 69.4053 298.895 69.4053C295.684 69.4053 293.081 72.0094 293.081 75.2218C293.081 78.4342 295.684 81.0383 298.895 81.0383Z" fill="#8C1C2F" stroke="#8C1C2F" stroke-width="0.46" stroke-linecap="round" stroke-linejoin="round"/>
<path d="M325.821 508.259L337.388 508.632" stroke="black" stroke-miterlimit="10"/>
<path d="M354.091 269.512C356.102 269.512 357.733 267.924 357.733 265.965C357.733 264.007 356.102 262.419 354.091 262.419C352.079 262.419 350.449 264.007 350.449 265.965C350.449 267.924 352.079 269.512 354.091 269.512Z" fill="white" stroke="black" stroke-miterlimit="10"/>
<path d="M202.966 266.525C204.359 266.525 205.488 264.894 205.488 262.882C205.488 260.869 204.359 259.238 202.966 259.238C201.573 259.238 200.443 260.869 200.443 262.882C200.443 264.894 201.573 266.525 202.966 266.525Z" fill="white" stroke="black" stroke-miterlimit="10"/>
<path d="M517.746 49.0586L517.515 49.1109C519.783 46.8107 521.321 43.8905 521.935 40.7179C522.549 37.5452 522.211 34.2618 520.964 31.2808C519.717 28.2998 517.617 25.7543 514.928 23.9646C512.238 22.1749 509.08 21.221 505.85 21.2229C502.365 21.2229 496.148 23.9856 496.148 23.9856L358.658 101.699L364.255 130.445C364.255 130.445 515.395 51.112 517.067 49.544L517.746 49.0586Z" fill="black"/>
<path d="M505.604 36.7611C512.429 36.7611 517.962 33.1206 517.962 28.6299C517.962 24.1391 512.429 20.4987 505.604 20.4987C498.778 20.4987 493.245 24.1391 493.245 28.6299C493.245 33.1206 498.778 36.7611 505.604 36.7611Z" fill="white"/>
<path d="M486.155 44.5712C490.162 44.5712 493.409 42.415 493.409 39.7552C493.409 37.0954 490.162 34.9392 486.155 34.9392C482.149 34.9392 478.901 37.0954 478.901 39.7552C478.901 42.415 482.149 44.5712 486.155 44.5712Z" fill="white"/>
<path d="M251.005 166.472C250.259 167.032 190.279 202.685 190.279 202.685L201.936 218.552L262.759 186.445L251.005 166.472Z" fill="black"/>
<path d="M189.809 198.392C189.809 198.392 190.279 203.738 194.66 210.152C199.324 216.962 202.496 218.642 202.496 218.642" stroke="black" stroke-width="3" stroke-linecap="round" stroke-linejoin="round"/>
<path d="M203.324 213.96C203.324 213.96 200.779 215.035 201.645 216.476C202.51 217.917 204.578 216.342 204.578 216.342C204.578 216.342 202.622 217.835 202.525 217.783C202.428 217.731 199.801 215.379 199.801 215.379L203.324 213.96Z" fill="black"/>
<path d="M192.45 197.713C192.45 197.713 190.816 198.646 191.279 200.162C191.741 201.677 193.846 200.58 193.846 200.58L191.607 202.125L190.555 198.459L192.45 197.713Z" fill="black"/>
<path d="M350.076 161.059L434.407 213.572L453.565 190.925C453.565 190.925 439.631 174.991 399.331 164.045C359.031 153.099 360.031 155.085 360.031 155.085L350.076 161.059Z" fill="#68523C"/>
<path d="M425.452 251.405C425.452 251.405 449.333 227.512 462.02 219.299C474.707 211.085 483.663 208.099 483.663 208.099C483.663 208.099 470.229 193.912 459.781 193.165C449.333 192.419 437.892 206.605 432.168 220.292C426.444 233.978 425.452 251.405 425.452 251.405Z" fill="#68523C"/>
<path d="M262.639 66.4785C262.013 66.6054 256.669 70.8315 252.811 69.8385C248.952 68.8454 244.728 62.7451 244.728 62.7451L241.243 64.7387L245.034 78.7387C245.034 78.7387 246.721 74.8112 263.386 68.2854L262.639 66.4785Z" fill="black"/>
<path d="M276.827 63.5589C296.23 57.1973 309.902 54.2853 309.902 54.2853L311.768 48.8047C311.768 48.8047 312.761 46.0719 312.641 45.6986C312.522 45.3253 309.529 38.2319 309.029 38.2319C308.529 38.2319 294.103 43.705 294.103 43.705C294.103 43.705 295.723 56.5253 287.14 58.265C278.558 60.0047 273.207 52.0453 273.207 52.0453L276.827 63.5589Z" fill="black"/>
<path d="M309.298 26.9349L314.895 35.5216L309.111 36.9253C309.111 36.9253 306.313 27.592 306.589 27.4949C306.865 27.3979 309.298 26.9349 309.298 26.9349Z" fill="black"/>
<path d="M312.485 26.1285C312.115 26.3435 311.796 26.6353 311.548 26.9844C311.301 27.3335 311.132 27.7317 311.052 28.152C311.111 29.0665 311.365 29.9577 311.798 30.7653L308.686 27.2187L312.485 26.1285Z" fill="black"/>
<path d="M312.828 32.3782C313.27 33.0461 313.947 33.5232 314.724 33.7147C315.638 33.8461 316.571 33.7301 317.425 33.3787L314.007 35.432L312.828 32.3782Z" fill="black"/>
<path d="M281.745 43.4586C281.745 43.4586 285.722 43.5034 285.76 44.3397C285.804 45.4149 283.148 46.393 283.148 46.393C283.148 46.393 293.917 42.9733 293.73 42.9733C293.544 42.9733 281.745 43.4586 281.745 43.4586Z" fill="black"/>
<path d="M288.185 25.2997C289.288 25.4908 290.319 25.9757 291.17 26.7034C292.193 27.7786 291.588 30.713 291.588 30.713C291.588 30.713 293.543 24.8815 293.357 24.9786C293.17 25.0757 288.185 25.2997 288.185 25.2997Z" fill="black"/>
<path d="M297.186 20.8719C297.186 20.8719 298.581 19.0501 299.887 18.953C301.193 18.8559 302.313 21.2901 302.313 21.2901L300.171 16.5786L297.186 20.8719Z" fill="black"/>
<path d="M259.497 17.7434C259.497 17.7434 258.05 20.1701 258.751 21.753C259.453 23.3359 261.781 23.1567 261.781 23.1567L255.251 23.5301L259.497 17.7434Z" fill="black"/>
<path d="M249.236 34.9615C249.236 34.9615 247.818 38.7695 249.049 40.5167C250.587 42.7119 255.02 42.1519 255.02 42.1519L245.116 42.9733L249.236 34.9615Z" fill="black"/>
<path d="M306.701 32.408C306.92 33.6519 306.756 34.9329 306.231 36.0816C305.545 37.1875 304.566 38.0817 303.402 38.665C303.402 38.665 308.813 37.2986 308.694 37.2613C308.574 37.224 306.701 32.408 306.701 32.408Z" fill="black"/>
<path d="M264.065 67.6134C264.065 67.6134 261.639 61.1099 268.11 58.9296C272.819 57.3467 275.573 63.3499 275.573 63.3499L273.953 53.4267L272.184 51.7467L259.296 57.16L264.065 67.6134Z" fill="black"/>
<path d="M256.9 70.9658C256.9 70.9658 259.699 69.8309 261.468 70.5178C263.393 71.2645 264.192 74.505 264.192 74.505L262.483 68.4197L256.9 70.9658Z" fill="black"/>
<path d="M281.73 61.9835C281.223 62.2398 280.777 62.6016 280.422 63.0446C280.066 63.4877 279.81 64.0016 279.67 64.552C279.43 65.9867 279.466 67.4539 279.774 68.8753L277.312 62.9915L281.73 61.9835Z" fill="black"/>
<path d="M301.566 56.2118C301.566 56.2118 306.044 55.4651 307.716 56.9584C309.388 58.4518 309.276 61.3339 309.276 61.3339C309.276 61.3339 310.022 53.4865 309.828 53.4865C309.634 53.4865 301.566 56.2118 301.566 56.2118Z" fill="black"/>
<path d="M321.239 81.7477C321.239 81.7477 322.343 84.6672 326.418 86.6309C329.888 88.3034 331.045 88.0869 331.045 88.0869L329.232 83.1589L321.239 81.7477Z" fill="black"/>
<path d="M329.284 87.5344C329.284 87.5344 330.09 89.6475 329.082 90.6481C328.075 91.6486 324.963 92.2086 324.963 92.2086C324.963 92.2086 332.426 91.7606 332.202 91.7083C331.978 91.6561 330.709 87.3328 330.538 87.3851C330.366 87.4374 329.284 87.5344 329.284 87.5344Z" fill="black"/>
<path d="M253.982 104.417C253.982 104.417 254.856 106.455 257.99 106.866C261.124 107.276 262.371 106.597 262.371 106.597L255.453 110.927L253.982 104.417Z" fill="black"/>
<path d="M271.565 96.0613C271.565 96.0613 274.349 98.473 281.402 96.457C287.141 94.8144 287.141 90.8719 287.021 90.8719C286.902 90.8719 271.565 96.0613 271.565 96.0613Z" fill="black"/>
<path d="M249.594 126.025C250.35 125.7 251.164 125.533 251.986 125.533C252.809 125.533 253.622 125.7 254.378 126.025C256.871 127.145 259.602 133.619 259.602 133.619L252.885 117.685L247.542 120.925L249.594 126.025Z" fill="black"/>
<path d="M287.305 41.0544C288.441 41.0073 289.531 40.5905 290.409 39.8672C291.29 39.1205 291.305 36.649 291.305 36.649C291.305 36.649 292.051 41.2112 291.977 41.2112L287.305 41.0544Z" fill="black"/>
<path d="M293.551 37.7467C293.551 37.7467 293.738 39.7627 294.991 40.3376C295.601 40.6691 296.292 40.8218 296.984 40.7782L293.252 41.1216L293.551 37.7467Z" fill="black"/>
<path d="M268.543 184.952L212.227 229.095L218.354 210.899L268.543 184.952Z" fill="black"/>
<path d="M248.713 163.53L262.184 187.259L267.938 184.877L258.96 157.781L248.713 163.53Z" fill="black"/>
<path d="M153.151 219.971C152.733 220.254 151.053 225.384 155.539 231.171C160.763 237.891 173.077 233.276 173.077 233.276L158.487 241.422C158.487 241.422 155.822 236.651 151.471 235.106C149.3 234.384 147.189 233.493 145.158 232.44L142.77 225.556L152.576 220.113" fill="black"/>
<path d="M79.9013 268.691C79.9013 268.691 79.0206 278.771 88.312 283.885C102.35 291.606 117.418 285.565 117.418 285.565C117.418 285.565 118.074 295.645 125.627 299.005C133.179 302.365 137.978 300.267 137.978 300.267C137.978 300.267 125.485 295.638 123.104 287.074C120.724 278.509 121.56 275.702 121.56 275.702C121.56 275.702 110.193 280.929 100.932 281.033C91.6704 281.138 82.6924 272.469 82.6924 272.469L79.9013 268.691Z" fill="black"/>
<path d="M100.395 217.021C100.156 223.402 100.817 229.783 102.357 235.979C104.88 245.686 106.283 247.627 106.283 247.627C106.283 247.627 111.059 244.82 110.634 244.82C110.208 244.82 105.305 233.732 103.619 228.259C102.592 224.834 102.119 221.267 102.216 217.693L100.395 217.021Z" fill="black"/>
<path d="M78.6104 232.179C78.411 238.22 78.598 244.268 79.1701 250.285C80.103 258.125 80.8493 260.365 80.8493 260.365L84.9539 257.379C84.9539 257.379 81.409 247.485 81.0359 241.139C80.6627 234.792 80.2896 231.992 80.2896 231.992L78.6104 232.179Z" fill="black"/>
<path d="M87.5659 282.205C88.255 284.879 89.5296 287.365 91.2974 289.485C92.6306 290.974 94.3893 292.017 96.3349 292.472L99.1335 289.299L99.3201 286.312L87.5659 282.205Z" fill="black"/>
<path d="M53.4229 252.899C53.4229 252.899 54.1691 266.525 59.2066 277.912C64.2441 289.299 75.6252 299.379 75.6252 299.379C75.6252 299.379 75.6252 293.965 73.3863 292.285C71.1474 290.605 65.3636 284.072 62.0053 276.232C58.6469 268.392 55.2886 253.459 55.2886 253.459L53.4229 252.899Z" fill="black"/>
<path d="M34.5786 290.792C34.5786 290.792 36.0712 296.019 37.1907 298.819C38.3101 301.619 39.4295 304.045 39.4295 304.045L44.6536 301.805C44.6536 301.805 40.549 295.832 39.243 293.779C37.9369 291.725 36.8175 289.672 36.8175 289.672L34.5786 290.792Z" fill="black"/>
<path d="M71.5207 315.059C71.5207 315.059 79.3568 312.072 79.3568 304.605C79.3568 297.139 75.2522 293.405 75.2522 293.405C75.2522 293.405 77.4911 300.312 75.0656 304.979C72.6401 309.645 67.2295 312.072 67.2295 312.072L71.5207 315.059Z" fill="black"/>
<path d="M77.3043 296.579C77.3043 296.579 85.73 304.643 94.8423 301.059C106.223 296.579 102.119 285.939 102.119 285.939C102.119 285.939 96.8946 295.272 89.6182 296.019C82.3418 296.765 75.0654 292.659 75.0654 292.659L77.3043 296.579Z" fill="black"/>
<path d="M359.031 97.7787L367.24 131.379C367.24 131.379 356.606 137.912 356.606 137.352C356.606 136.792 355.3 121.859 354.367 114.392L352.688 100.952L359.031 97.7787Z" fill="black"/>
<path d="M370.285 91.9248C370.285 91.9248 363.516 96.4048 362.315 101.191C361.352 105.044 362.658 112.772 362.658 112.772L357.941 98.4432L370.285 91.9248Z" fill="black"/>
<path d="M363.599 117.065C363.599 117.065 366.487 125.151 370.718 126.331C374.405 127.362 380.241 124.188 380.241 124.188L380.323 125.129L366.763 132.163L363.778 120.216L363.599 117.065Z" fill="black"/>
<path d="M242.131 168.286C242.131 168.286 245.579 166.285 248.848 167.263C251.318 168.01 253.139 171.273 253.139 171.273L249.408 163.172L242.131 168.286Z" fill="black"/>
<path d="M253.758 190.268C253.758 190.268 259.826 186.908 258.982 183.765C258.092 180.934 256.958 178.186 255.594 175.552C255.594 175.552 264.266 186.057 264.02 186.057C263.774 186.057 253.758 190.268 253.758 190.268Z" fill="black"/>
<path d="M108.156 236.905C108.156 236.905 109.798 239.436 112.134 240.265C114.246 241.012 117.045 239.205 117.045 239.205L110.828 244.185L108.156 236.905Z" fill="black"/>
<path d="M138.687 231.365C139.258 231.268 139.8 231.045 140.274 230.712C140.748 230.378 141.142 229.943 141.426 229.438C141.836 228.283 141.791 227.015 141.299 225.892L144.225 232.052L138.687 231.365Z" fill="black"/>
<path d="M103.365 239.765C103.365 239.765 105.29 243.998 103.365 246.552C101.439 249.106 99.6333 249.539 99.6333 249.539L106.477 247.299L103.365 239.765Z" fill="black"/>
<path d="M84.2075 249.972C84.2075 249.972 85.0807 252.958 87.2599 253.391C88.4491 253.681 89.7019 253.549 90.8048 253.018L85.021 256.259L84.2075 249.972Z" fill="black"/>
<path d="M97.1035 216.364C98.0917 216.884 98.9669 217.594 99.6782 218.455C100.328 219.455 100.372 221.763 100.372 221.763C100.372 221.763 101.119 217.283 100.939 217.32C100.76 217.357 97.1035 216.364 97.1035 216.364Z" fill="black"/>
<path d="M73.9233 231.133C73.9233 231.133 76.8563 231.88 77.8041 233.836C78.3538 234.977 78.6371 236.228 78.6325 237.495C78.6325 237.495 79.4161 232.268 79.1996 232.313C78.9832 232.358 73.9233 231.133 73.9233 231.133Z" fill="black"/>
<path d="M50.333 252.152C51.3121 252.477 52.1841 253.063 52.8555 253.847C53.4 254.648 53.7172 255.582 53.7734 256.55L54.0794 252.817L50.333 252.152Z" fill="black"/>
<path d="M31.6758 293.301C32.7328 293.193 33.7933 293.471 34.661 294.085C35.6038 294.788 36.2547 295.814 36.4894 296.967L34.9968 290.814L31.6758 293.301Z" fill="black"/>
<path d="M37.5415 299.67C37.5415 299.67 38.2878 301.91 37.631 303.239C37.1679 304.067 36.5284 304.784 35.7578 305.337L40.1162 303.635L37.5415 299.67Z" fill="black"/>
<path d="M21.6827 291.471C21.6827 291.471 20.0707 290.994 19.5483 291.561C19.0259 292.129 20.4215 293.211 20.4215 293.211C20.4215 293.211 14.4064 290.516 14.5855 290.471C14.7646 290.426 18.5035 289.986 20.026 290.381C21.5484 290.777 21.6827 291.471 21.6827 291.471Z" fill="black"/>
<path d="M33.7132 316.104C33.7132 316.104 34.0117 318.979 34.8028 318.979C35.5938 318.979 35.8923 315.753 35.8923 315.753C35.8923 315.753 36.5416 317.411 35.452 320.158C34.3624 322.906 32.8848 323.384 32.8848 323.25C32.8848 323.115 33.7132 316.104 33.7132 316.104Z" fill="black"/>
<path d="M166.009 284.722C166.009 284.722 166.382 278.845 169.74 277.815C173.099 276.784 177.666 279.032 177.666 279.032L166.583 272.2L166.009 284.722Z" fill="black"/>
<path d="M111.448 331.187C111.448 331.187 106.037 330.627 104.268 333.337C102.499 336.047 105.388 341.267 105.388 341.267L103.522 340.244L98.4844 329.133L111.448 331.187Z" fill="black"/>
<path d="M317.119 273.432H390.376V282.638H317.239L317.119 273.432Z" fill="black"/>
<path d="M318.172 289.605C318.172 289.605 317.925 286.185 320.478 284.378C322.799 282.735 326.754 282.638 326.754 282.638C326.754 282.638 317.425 281.892 317.425 282.078C317.425 282.265 318.172 289.605 318.172 289.605Z" fill="black"/>
<path d="M389.107 289.605C389.107 289.605 389.353 286.185 386.801 284.378C384.48 282.735 380.524 282.638 380.524 282.638C380.524 282.638 389.853 281.892 389.853 282.078C389.853 282.265 389.107 289.605 389.107 289.605Z" fill="black"/>
<path d="M319.851 325.213C319.851 325.213 325.731 336.51 340.844 336.6C355.956 336.69 370.323 336.6 370.323 336.6C370.323 336.6 379.741 336.973 383.569 332.307C387.398 327.64 389.816 320.644 389.816 320.644C389.816 320.644 383.569 328.013 379.838 329.417C376.106 330.821 334.874 330.627 334.874 330.627C334.874 330.627 327.127 329.977 323.769 328.484C320.41 326.99 319.851 325.213 319.851 325.213Z" fill="black"/>
<path d="M224.698 322.227C224.698 322.227 220.317 330.724 212.667 332.217C208.276 333.105 203.804 333.543 199.324 333.524L199.794 328.11C203.962 328.631 208.189 328.408 212.279 327.453C219.086 325.87 222.541 323.63 222.541 323.63L224.698 322.227Z" fill="black"/>
<path d="M200.63 273.738H226.691C226.691 273.738 227.064 258.805 226.75 258.932C226.437 259.059 220.907 271.311 220.907 271.311L200.816 271.379L200.63 273.738Z" fill="black"/>
<path d="M190.368 287.178C190.368 287.178 194.727 291.285 195.659 294.525C196.219 296.783 196.365 299.122 196.092 301.432C196.092 301.432 197.712 291.972 197.525 291.972C197.339 291.972 190.368 287.178 190.368 287.178Z" fill="black"/>
<path d="M220.407 273.738C220.407 273.738 223.019 273.925 224.511 275.485C226.004 277.046 225.885 280.271 225.885 280.271L226.564 272.991L220.407 273.738Z" fill="black"/>
<path d="M194.846 292.472C188.605 314.674 183.745 337.242 180.293 360.045C174.323 398.872 171.711 424.259 171.711 424.259L195.966 447.405C195.966 447.405 192.794 436.392 190.741 428.552C188.689 420.712 191.301 387.299 191.301 387.299L189.809 386.365C190.039 382.897 190.602 379.459 191.488 376.099C192.794 371.805 194.473 370.125 194.473 370.125L197.831 369.752L199.697 328.872L196.898 327.379L197.458 293.965L194.846 292.472Z" fill="black"/>
<path d="M317.238 391.965H352.687C352.687 391.965 353.247 396.722 352.687 396.722H317.425L317.238 391.965Z" fill="black"/>
<path d="M379.965 391.965H415.414C415.414 391.965 415.974 396.722 415.414 396.722H380.151L379.965 391.965Z" fill="black"/>
<path d="M353.62 393.907C353.904 393.72 380.3 393.907 380.3 393.907C380.3 393.907 380.815 391.435 380.3 391.95C379.786 392.466 353.344 391.577 352.971 391.95C352.598 392.324 353.62 393.907 353.62 393.907Z" fill="black"/>
<path d="M318.545 404.659C318.545 404.659 318.418 400.798 320.321 398.685C322 396.819 326.381 396.632 326.381 396.632C326.381 396.632 317.612 395.885 317.709 396.162C317.806 396.438 318.545 404.659 318.545 404.659Z" fill="black"/>
<path d="M406.891 396.722C406.891 396.722 411.085 396.819 412.764 399.059C414.257 401.008 414.541 405.682 414.541 405.682C414.541 405.682 415.474 395.602 415.1 395.788C414.727 395.975 406.891 396.722 406.891 396.722Z" fill="black"/>
<path d="M319.478 449.645C319.478 449.645 323.582 463.832 335.709 465.512C347.837 467.192 389.629 465.885 389.629 465.885C389.629 465.885 402.69 466.632 406.794 462.899C412.018 458.172 413.324 450.205 413.324 450.205C413.324 450.205 406.794 456.739 399.704 458.419C392.615 460.099 341.12 458.419 341.12 458.419C341.12 458.419 333.284 459.165 327.687 457.112C322.09 455.059 319.478 449.645 319.478 449.645Z" fill="black"/>
<path d="M191.241 391.405H193.107V387.978H190.622L191.241 391.405Z" fill="black"/>
<path d="M203.428 391.592H220.406V375.352C220.406 375.352 214.563 387.299 214.503 387.112C214.444 386.925 203.428 387.112 203.428 387.112V391.592Z" fill="black"/>
<path d="M193.854 389.658H203.555C203.555 389.658 204.055 388.045 203.555 388.045H193.854V389.658Z" fill="black"/>
<path d="M219.034 443.568C219.034 443.568 218.019 450.952 210.951 453.595C203.884 456.238 201.391 455.693 201.391 455.693V448.854C201.391 448.854 211.339 449.167 214.757 447.144C218.175 445.121 219.034 443.568 219.034 443.568Z" fill="black"/>
<path d="M445.706 184.414C445.706 184.414 449.236 186.416 449.751 188.947C450.236 191.299 447.34 194.502 447.34 194.502C447.34 194.502 455.55 188.82 455.311 188.82C455.072 188.82 445.706 184.414 445.706 184.414Z" fill="black"/>
<path d="M426.22 237.293C426.22 237.293 414.593 299.946 427.056 356.76C437.392 403.912 449.602 423.609 449.602 423.609C449.602 423.609 452.109 411.08 454.191 407.347C455.58 404.889 457.115 402.518 458.789 400.246C458.789 400.246 441.392 364.563 432.482 328.782C418.257 271.969 426.22 237.293 426.22 237.293Z" fill="black"/>
<path d="M444.855 454.499C444.855 454.499 431.862 508.259 446.721 532.525C453.811 544.099 463.14 546.712 463.14 546.712L466.498 532.152C466.498 532.152 446.721 516.845 444.109 500.419C441.497 483.992 444.855 454.499 444.855 454.499Z" fill="black"/>
<path d="M463.886 538.872C463.886 538.872 483.663 553.805 509.037 556.419C534.411 559.032 556.8 551.939 556.8 551.939L555.68 544.099C555.68 544.099 543.366 551.192 515.753 547.085C488.14 542.979 462.393 529.539 462.393 529.539L463.886 538.872Z" fill="black"/>
<path d="M554.934 577.325C554.934 577.325 558.292 579.939 559.785 587.965C561.277 595.992 557.733 604.392 557.733 604.392C557.733 604.392 556.053 594.312 554.001 590.765C552.786 588.71 552.023 586.419 551.762 584.045L554.934 577.325Z" fill="black"/>
<path d="M559.972 555.112C560.531 555.112 563.89 560.899 564.076 565.192C564.14 568.083 563.826 570.969 563.143 573.779C561.843 572.462 560.472 571.216 559.039 570.045C557.733 569.112 556.613 568.365 556.613 568.365C556.613 568.365 557.173 561.645 557.173 558.472C557.173 555.299 557.36 553.619 557.36 553.619L559.972 555.112Z" fill="black"/>
<path d="M239.624 475.779C239.624 475.779 274.662 486.926 313.134 487.352C381.42 488.099 441.497 475.779 441.497 475.779L442.243 466.072C442.243 466.072 373.584 483.619 318.731 479.885C263.878 476.152 238.877 470.925 238.877 470.925L239.624 475.779Z" fill="black"/>
<path d="M263.632 513.605C263.632 513.605 284.528 518.585 304.432 520.078C316.017 520.985 327.648 521.152 339.254 520.579L335.649 506.511C322.199 506.746 308.746 506.248 295.349 505.018C275.946 503.032 264.505 501.539 264.505 501.539L263.632 513.605Z" fill="black"/>
<path d="M337.016 518.712C337.016 518.712 362.89 519.205 406.175 514.232C429.541 511.544 442.497 507.758 442.497 507.758C442.497 507.758 442.617 490.585 441.124 491.085C439.631 491.586 420.228 498.052 390.876 501.539C361.524 505.026 331.687 505.518 331.687 505.518L337.016 518.712Z" fill="black"/>
<path d="M415.272 736.485C415.272 736.485 421.489 740.472 432.183 739.725C442.878 738.979 445.87 735.992 445.87 735.992L445.37 730.511C440.309 731.698 435.14 732.366 429.944 732.505C424.679 732.65 419.415 732.149 414.272 731.012L415.272 736.485Z" fill="black"/>
<path d="M307.059 707.865C307.059 707.865 313.775 711.098 320.985 710.852C328.194 710.605 332.179 707.619 332.179 707.619L331.687 701.892C327.723 702.352 323.725 702.435 319.746 702.138C313.275 701.645 305.812 700.398 305.812 700.398L307.059 707.865Z" fill="black"/>
<path d="M462.52 551.812C462.52 551.812 462.766 545.838 467.617 544.591C471.565 543.583 476.946 546.712 476.946 546.712L464.013 537.005L462.52 551.812Z" fill="black"/>
<path d="M544.381 554.671C544.381 554.671 551.717 553.678 553.71 556.911C555.085 559.239 555.694 561.94 555.449 564.632C555.449 564.632 557.255 560.212 557.315 556.911C557.313 554.757 556.978 552.617 556.322 550.565L544.381 554.671Z" fill="black"/>
<path d="M241.027 484.828C241.027 484.828 240.811 480.841 243.355 479.228C246.154 477.459 251.005 478.78 251.005 478.78C251.005 478.78 239.893 474.375 239.893 474.845C239.893 475.316 241.027 484.828 241.027 484.828Z" fill="black"/>
<path d="M357.688 154.316L326.537 172.535L363.949 155.727L359.725 154.787L357.688 154.316Z" fill="black"/>
<path d="M440.131 206.852C440.131 206.852 446.706 196.764 457.296 196.025C467.886 195.286 476.326 202.499 476.326 202.499C476.326 202.499 469.363 196.525 463.02 193.038C456.676 189.551 453.937 188.431 453.937 188.431L441.123 203.738L440.131 206.852Z" fill="black"/>
<path d="M356.606 152.472C356.606 152.472 356.703 154.309 355.859 155.152C355.439 155.613 354.932 155.986 354.367 156.25L357.121 155.011L356.606 152.472Z" fill="black"/>
<path d="M375.337 809.912L367.427 822.038C367.427 822.038 379.554 826.227 405.958 825.629C432.362 825.032 453.251 822.598 453.251 822.598L464.445 812.145L464.072 776.939C464.072 776.939 462.58 767.165 458.475 766.904C454.37 766.643 455.676 777.917 455.676 777.917L450.825 775.55C450.825 775.55 424.518 808.404 419.481 810.838C414.443 813.272 404.742 814.571 404.742 814.571C404.742 814.571 392.435 814.385 385.248 812.518C378.061 810.651 375.337 809.912 375.337 809.912Z" fill="#A28ADD"/>
<path d="M399.6 761.147C399.6 761.147 393.592 758.788 390.778 758.907C387.965 759.027 387.92 763.089 387.92 763.089C387.92 763.089 384.681 764.365 385.263 765.971C385.845 767.576 386.428 769.809 386.428 769.809C386.428 769.809 383.614 772.302 383.927 773.729C384.241 775.155 384.636 776.947 384.636 776.947C384.014 777.808 383.512 778.75 383.144 779.747C382.539 781.389 385.248 781.24 385.248 781.24C385.248 781.24 384.502 782.733 383.845 784.182C383.467 784.995 383.332 785.9 383.457 786.788L385.01 788.953C385.01 788.953 381.659 789.274 381.756 791.148C381.853 793.022 383.845 794.882 383.845 794.882C383.845 794.882 378.95 795.8 379.069 799.168C379.188 802.535 387.651 799.339 395.301 801.624C402.951 803.909 410.339 807.948 412.346 805.798C414.354 803.648 410.152 800.198 410.152 800.198V798.383C410.152 798.383 414.257 800.668 415.421 798.525C416.585 796.382 415.22 793.396 415.22 793.396C415.22 793.396 420.362 796.83 421.19 794.889C421.673 793.708 421.865 792.427 421.75 791.156C421.75 791.156 424.974 790.588 425.28 788.729C425.586 786.87 423.22 784.906 423.22 784.906L420.481 780.8C420.481 780.8 427.884 785.235 428.832 783.293C429.78 781.352 428.832 778.709 428.832 778.709C428.832 778.709 434.325 782.233 435.743 781.643C437.161 781.053 437.795 777.91 437.795 777.91C437.795 777.91 441.25 779.09 442.37 777.507C442.684 777.032 442.851 776.475 442.851 775.905C442.851 775.336 442.684 774.779 442.37 774.303C442.37 774.303 433.825 767.24 426.466 765.635C419.108 764.029 415.399 763.634 415.399 763.634L411.585 763.432L399.6 761.147Z" fill="white"/>
<path d="M381.98 847.611C380.35 845.35 379.004 842.898 377.972 840.309C376.382 836.232 373.151 833.999 364.427 834.843C355.703 835.687 359.777 847.245 359.777 847.245L358.203 849.045C358.203 849.045 362.83 854.622 386.308 856.086L381.98 847.611Z" fill="black"/>
<path d="M382.726 848.358C382.726 848.358 388.137 860.685 437.765 853.301C443.198 852.494 449.706 840.54 454.93 839.585C460.154 838.629 468.535 836.023 467.893 830.453C467.657 827.799 467.19 825.171 466.498 822.598C466.498 822.598 452.132 826.951 447.654 834.858C443.176 842.765 434.101 845.438 427.914 845.662C421.728 845.886 412.205 845.745 412.205 845.745L382.726 848.358Z" fill="white"/>
<path d="M401.839 846.11C401.839 846.11 433.183 843.452 440.497 834.91C447.811 826.369 451.363 817.685 455.692 814.997C460.02 812.309 463.714 809.882 463.714 809.882L464.461 801.669C464.461 801.669 475.588 799.235 476.498 802.415C477.409 805.596 477.924 817.618 472.924 820.007C467.923 822.396 458.744 824.957 452.565 829.37C446.385 833.783 442.452 844.162 435.191 844.901C427.929 845.64 401.839 846.11 401.839 846.11Z" fill="white"/>
<path d="M356.897 847.641C356.897 847.641 352.471 838.83 356.897 833.626C361.322 828.422 362.524 827.212 362.524 827.212L402.876 831.595C402.876 831.595 414.399 832.006 419.571 829.273C424.742 826.54 439.153 816.662 439.153 816.662L445.803 818.902L449.534 822.635C449.534 822.635 445.586 833.835 432.369 839.809C419.153 845.782 399.137 846.767 393.928 847.671C388.719 848.574 380.927 847.23 380.927 847.23C380.927 847.23 379.382 833.738 365.763 834.253C352.143 834.769 360.419 850.508 360.419 850.508L356.897 847.641Z" fill="#C18B1E"/>
<path d="M363.322 826.391L367.427 822.038C367.427 822.038 376.382 825.682 400.264 824.793C424.145 823.905 436.87 816.662 436.87 816.662C436.87 816.662 425.063 831.155 412.205 831.185C399.346 831.214 376.942 828.765 370.785 828.392C364.628 828.019 363.322 826.391 363.322 826.391Z" fill="#A28ADD"/>
<path d="M406.98 812.846C417.144 808.245 426.108 801.359 433.175 792.724C444.788 778.433 448.213 772.564 448.213 772.564L451.43 775.55L425.31 805.171C425.31 805.171 417.727 813.003 412.869 813.937C408.01 814.87 406.98 812.846 406.98 812.846Z" fill="#C18B1E"/>
<path d="M380.069 801.788L376.382 809.531C376.382 809.531 399.704 817.274 411.085 811.599C422.466 805.925 448.713 773.37 448.713 773.37C448.713 773.37 443.922 768.031 439.355 765.202C434.787 762.372 426.586 762.267 426.586 762.267L419.608 762.745C419.608 762.745 429.81 765.119 434.034 768.225C438.258 771.332 442.803 775.558 442.803 775.558C442.803 775.558 443.221 777.305 442.109 777.925C440.997 778.544 438.079 777.118 438.079 777.118C438.079 777.118 438.497 780.411 437.138 781.038C435.78 781.666 429.205 777.925 429.205 777.925C429.205 777.925 430.466 781.539 429.205 783.032C427.944 784.525 420.451 780.792 420.451 780.792L424.183 785.847C424.183 785.847 426.168 788.386 424.802 789.259C423.436 790.133 420.697 790.379 420.697 790.379C420.697 790.379 422.989 792.865 421.347 794.359C419.705 795.852 415.19 793.403 415.19 793.403C415.19 793.403 416.682 797.547 415.391 798.13C414.1 798.712 410.122 798.391 410.122 798.391L407.801 799.571C407.801 799.571 413.772 803.199 412.518 804.797C412.089 805.285 411.557 805.671 410.961 805.93C410.365 806.188 409.719 806.311 409.07 806.291C404.294 804.103 399.25 802.554 394.07 801.684C385.032 800.093 380.069 801.788 380.069 801.788Z" fill="#A28ADD"/>
<path d="M391.681 758.011C391.681 758.011 388.308 749.118 391.681 745.437C395.055 741.756 401.756 738.411 401.756 738.411L400.264 751.478L419.481 753.904L421.481 739.904C421.481 739.904 435.19 742.144 437.392 746.624C439.594 751.104 439.444 758.265 439.444 758.265L437.765 763.798C437.765 763.798 429.645 761.886 423.712 762.304C417.779 762.723 410.839 763.462 410.839 763.462L410.592 758.9L403.622 758.295L402.57 763.148C402.57 763.148 398.525 759.415 396.599 758.9C394.674 758.384 391.681 758.011 391.681 758.011Z" fill="white"/>
<path d="M402.876 735.611L400.264 751.478L419.481 753.905L421.72 738.225L402.876 735.611Z" fill="white"/>
<path d="M403.749 759.632L402.876 771.078L409.966 771.638L410.839 759.841L403.749 759.632Z" fill="white"/>
<path d="M380.069 801.788C375.017 811.092 367.882 821.553 364.815 824.838C359.591 830.438 351.941 836.225 355.299 844.811C358.658 853.398 370.039 854.705 393.92 856.758C417.802 858.811 434.22 856.758 439.818 851.905C445.415 847.051 448.213 842.011 454.93 839.585C454.93 839.585 465.378 838.838 467.244 833.798C469.11 828.758 466.498 822.598 466.498 822.598C466.498 822.598 475.595 822.411 476.826 812.025C477.185 808.971 478.08 804.275 476.483 802.438C473.998 799.593 464.445 801.691 464.445 801.691C464.445 801.691 465.192 787.691 464.259 780.411C463.326 773.131 461.833 765.851 458.288 767.905C454.743 769.958 458.288 780.785 453.251 777.051C448.213 773.318 442.243 765.105 432.728 763.051C423.212 760.998 411.831 763.611 411.831 763.611" stroke="black" stroke-width="3" stroke-linecap="round" stroke-linejoin="round"/>
<path d="M402.689 763.425C402.689 763.425 398.771 759.691 393.734 758.945C388.696 758.198 387.905 763.051 387.905 763.051" stroke="black" stroke-width="3" stroke-linecap="round" stroke-linejoin="round"/>
<path d="M390.935 758.011C390.935 758.011 387.57 748.82 393.547 743.078C398.025 738.784 401.757 738.411 401.757 738.411" stroke="black" stroke-width="3" stroke-linecap="round" stroke-linejoin="round"/>
<path d="M422.653 739.905C422.653 739.905 433.288 741.585 437.392 746.625C441.497 751.665 437.765 763.798 437.765 763.798" stroke="black" stroke-width="3" stroke-linecap="round" stroke-linejoin="round"/>
<path d="M358.098 848.918L359.964 846.678C359.964 846.678 353.994 836.038 366.867 834.358C379.741 832.678 376.942 846.678 382.726 848.358" stroke="black" stroke-width="3" stroke-linecap="round" stroke-linejoin="round"/>
<path d="M381.979 847.611C382.539 847.798 410.525 847.238 425.078 842.571C439.631 837.905 446.161 830.998 448.773 824.278C451.385 817.558 459.035 812.145 465.005 809.905C470.975 807.665 471.072 807.851 471.072 807.851" stroke="black" stroke-width="3" stroke-linecap="round" stroke-linejoin="round"/>
<path d="M464.446 801.691L463.699 809.904" stroke="black" stroke-width="3" stroke-linecap="round" stroke-linejoin="round"/>
<path d="M466.498 822.598C466.498 822.598 457.169 824.651 451.199 830.625C445.228 836.598 443.549 844.438 432.168 845.371C424.843 845.928 417.489 846.013 410.152 845.625" stroke="black" stroke-width="3" stroke-linecap="round" stroke-linejoin="round"/>
<path d="M363.322 827.451C363.322 827.451 381.047 829.131 393.174 830.251C405.301 831.371 409.406 834.545 420.974 828.571C432.541 822.598 432.347 820.53 437.206 818.305C443.736 815.318 449.146 821.478 449.146 821.478" stroke="black" stroke-width="3" stroke-linecap="round" stroke-linejoin="round"/>
<path d="M367.427 822.038C377.548 825.228 388.216 826.308 398.771 825.211C410.414 824.016 421.875 821.447 432.914 817.558C434.776 816.847 436.766 816.529 438.757 816.626C440.748 816.722 442.697 817.23 444.482 818.118" stroke="black" stroke-width="3" stroke-linecap="round" stroke-linejoin="round"/>
<path d="M376.382 809.531C376.382 809.531 387.204 815.318 404.555 813.638C421.906 811.958 448.213 773.691 448.213 773.691" stroke="black" stroke-width="3" stroke-linecap="round" stroke-linejoin="round"/>
<path d="M396.615 814.011C396.615 814.011 410.294 817.871 419.869 810.465C429.295 803.185 450.841 775.558 450.841 775.558" stroke="black" stroke-width="3" stroke-linecap="round" stroke-linejoin="round"/>
<path d="M459.221 776.305L455.303 777.925" stroke="black" stroke-width="3" stroke-linecap="round" stroke-linejoin="round"/>
<path d="M402.876 735.611C402.316 735.798 400.264 751.478 400.264 751.478L419.481 753.905L421.72 738.225L402.876 735.611Z" stroke="black" stroke-width="3" stroke-linecap="round" stroke-linejoin="round"/>
<path d="M403.809 758.758L402.876 771.078L409.966 771.638L411.085 759.878L403.809 758.758Z" stroke="black" stroke-width="3" stroke-linecap="round" stroke-linejoin="round"/>
<path d="M410.794 806.545C410.35 806.544 409.916 806.412 409.548 806.164C409.548 806.164 405.13 803.304 395.794 801.923C391.062 801.216 386.269 801.013 381.495 801.318C380.901 801.362 380.314 801.169 379.862 800.781C379.411 800.392 379.132 799.84 379.088 799.246C379.043 798.652 379.236 798.064 379.625 797.613C380.013 797.161 380.565 796.882 381.159 796.838C386.264 796.504 391.391 796.72 396.45 797.48C406.899 799.033 411.847 802.304 412.055 802.445C412.451 802.715 412.75 803.104 412.909 803.556C413.067 804.009 413.076 804.499 412.935 804.957C412.794 805.415 412.51 805.815 412.125 806.1C411.739 806.384 411.273 806.537 410.794 806.537V806.545Z" stroke="black" stroke-width="3" stroke-linecap="round" stroke-linejoin="round"/>
<path d="M380.942 796.89C385.352 794.512 390.232 793.138 395.234 792.866C406.57 792.119 413.705 794.717 414.003 794.829C414.291 794.923 414.557 795.074 414.785 795.273C415.013 795.472 415.198 795.716 415.329 795.988C415.461 796.261 415.535 796.558 415.549 796.86C415.562 797.163 415.514 797.465 415.408 797.749C415.301 798.032 415.138 798.291 414.929 798.509C414.72 798.728 414.468 798.902 414.19 799.021C413.911 799.139 413.612 799.2 413.309 799.2C413.006 799.199 412.707 799.138 412.429 799.018C412.369 799.018 405.824 796.621 395.54 797.331" stroke="black" stroke-width="3" stroke-linecap="round" stroke-linejoin="round"/>
<path d="M419.608 795.225C419.199 795.226 418.798 795.112 418.451 794.897C418.384 794.897 411.152 790.603 399.54 790.372C391.928 790.207 384.95 793.903 384.883 793.941C384.36 794.211 383.752 794.265 383.19 794.09C382.628 793.916 382.158 793.527 381.88 793.008C381.602 792.489 381.54 791.881 381.707 791.317C381.874 790.752 382.256 790.276 382.771 789.991C383.091 789.819 390.875 785.712 399.629 785.892C412.518 786.146 420.436 790.865 420.772 791.066C421.192 791.319 421.517 791.703 421.698 792.159C421.879 792.614 421.905 793.117 421.773 793.589C421.641 794.061 421.357 794.477 420.966 794.773C420.575 795.068 420.098 795.227 419.608 795.225Z" stroke="black" stroke-width="3" stroke-linecap="round" stroke-linejoin="round"/>
<path d="M393.413 774.58C397.749 773.415 404.01 773.37 404.182 773.37C422.325 773.37 428.676 779.784 429.004 780.09C429.237 780.276 429.43 780.508 429.572 780.77C429.715 781.032 429.803 781.32 429.833 781.617C429.863 781.913 429.833 782.213 429.745 782.498C429.657 782.783 429.513 783.048 429.322 783.277C429.131 783.506 428.896 783.694 428.631 783.83C428.365 783.967 428.076 784.049 427.779 784.072C427.481 784.096 427.182 784.059 426.899 783.965C426.616 783.871 426.355 783.721 426.131 783.525C423.067 781.781 419.811 780.401 416.429 779.411" stroke="black" stroke-width="3" stroke-linecap="round" stroke-linejoin="round"/>
<path d="M390.764 781.27C394.073 780.251 397.511 779.71 400.973 779.665H401.219C416.22 779.799 424.601 786.086 424.952 786.385C425.193 786.561 425.396 786.783 425.55 787.039C425.704 787.295 425.805 787.579 425.847 787.874C425.89 788.17 425.873 788.471 425.797 788.76C425.722 789.049 425.59 789.32 425.408 789.557C425.226 789.794 424.999 789.992 424.74 790.14C424.481 790.288 424.194 790.382 423.898 790.418C423.602 790.453 423.301 790.429 423.014 790.347C422.728 790.265 422.46 790.126 422.228 789.939C422.16 789.886 414.593 784.294 401.182 784.174L398.943 784.242" stroke="black" stroke-width="3" stroke-linecap="round" stroke-linejoin="round"/>
<path d="M389.413 786.467C388.413 786.835 387.434 787.256 386.48 787.729C385.957 787.992 385.352 788.041 384.794 787.864C384.236 787.686 383.769 787.297 383.495 786.78C382.927 785.683 382.853 783.794 383.95 783.196" stroke="black" stroke-width="3" stroke-linecap="round" stroke-linejoin="round"/>
<path d="M407.809 798.122C409.49 799.426 411.007 800.931 412.324 802.602" stroke="black" stroke-width="3" stroke-linecap="round" stroke-linejoin="round"/>
<path d="M392.368 786.571C390.293 786.087 388.189 785.735 386.069 785.518C385.775 785.508 385.486 785.44 385.218 785.318C384.951 785.196 384.71 785.022 384.509 784.807C384.308 784.592 384.152 784.339 384.049 784.063C383.946 783.788 383.898 783.494 383.909 783.2C383.919 782.906 383.987 782.617 384.109 782.349C384.231 782.081 384.405 781.84 384.62 781.639C384.835 781.438 385.088 781.282 385.363 781.179C385.639 781.076 385.932 781.028 386.226 781.038C391.67 781.405 396.973 782.933 401.779 785.518" stroke="black" stroke-width="3" stroke-linecap="round" stroke-linejoin="round"/>
<path d="M412.018 792.239C415.257 794.658 415.638 795.419 415.75 795.539C416.161 795.968 416.386 796.542 416.374 797.137C416.362 797.731 416.115 798.297 415.686 798.708C415.258 799.12 414.683 799.345 414.089 799.333C413.495 799.321 412.93 799.074 412.518 798.645C412.518 798.6 410.279 795.076 401.824 790.432" stroke="black" stroke-width="3" stroke-linecap="round" stroke-linejoin="round"/>
<path d="M421.988 789.252C421.607 789.252 421.232 789.154 420.899 788.969C420.566 788.783 420.286 788.516 420.085 788.191C419.921 787.93 415.608 781.471 402.749 779.515C395.144 778.388 386.054 780.852 385.965 780.882C384.778 781.247 383.517 780.881 383.159 779.709C383.072 779.427 383.043 779.131 383.071 778.838C383.099 778.544 383.185 778.259 383.324 777.999C383.463 777.739 383.651 777.509 383.879 777.322C384.107 777.135 384.369 776.995 384.651 776.909C385.062 776.775 394.823 773.803 403.428 775.087C418.459 777.327 423.69 785.481 423.899 785.824C424.053 786.076 424.156 786.355 424.201 786.646C424.247 786.938 424.235 787.235 424.166 787.521C424.096 787.808 423.971 788.078 423.797 788.316C423.624 788.554 423.404 788.755 423.153 788.908C422.804 789.128 422.401 789.247 421.988 789.252Z" stroke="black" stroke-width="3" stroke-linecap="round" stroke-linejoin="round"/>
<path d="M414.361 774.079L410.152 770.585" stroke="black" stroke-width="3" stroke-linecap="round" stroke-linejoin="round"/>
<path d="M410.839 766.912C420.051 768.993 428.841 772.629 436.832 777.664C437.089 777.827 437.309 778.042 437.48 778.293C437.651 778.545 437.768 778.829 437.826 779.128C437.883 779.426 437.879 779.734 437.814 780.031C437.749 780.328 437.624 780.609 437.447 780.856C437.27 781.104 437.044 781.312 436.784 781.469C436.524 781.627 436.234 781.729 435.933 781.771C435.632 781.812 435.325 781.792 435.032 781.711C434.739 781.63 434.465 781.49 434.228 781.3C434.161 781.255 423.093 775.939 413.137 773.445L425.966 777.925" stroke="black" stroke-width="3" stroke-linecap="round" stroke-linejoin="round"/>
<path d="M402.503 770.585C402.503 770.585 397.279 771.63 393.271 772.825C391.169 773.539 389.163 774.512 387.301 775.722C387.056 775.885 386.781 775.999 386.492 776.056C386.203 776.113 385.906 776.112 385.617 776.054C385.035 775.937 384.522 775.594 384.192 775.099C383.863 774.603 383.743 773.998 383.86 773.414C383.977 772.831 384.321 772.318 384.815 771.989C387.03 770.535 389.423 769.373 391.935 768.532C395.488 767.588 399.121 766.973 402.786 766.695" stroke="black" stroke-width="3" stroke-linecap="round" stroke-linejoin="round"/>
<path d="M412.063 763.432C412.488 763.432 422.511 763.671 430.25 766.964C434.567 768.907 438.559 771.504 442.086 774.662C442.523 775.065 442.781 775.625 442.805 776.219C442.829 776.812 442.616 777.391 442.213 777.828C441.81 778.265 441.251 778.523 440.657 778.547C440.064 778.571 439.485 778.358 439.049 777.955C435.893 775.154 432.336 772.841 428.496 771.093C421.541 768.106 410.682 767.912 410.585 767.905" stroke="black" stroke-width="3" stroke-linecap="round" stroke-linejoin="round"/>
<path d="M402.443 767.598L389.353 768.091C389.353 768.091 385.218 769.025 385.248 765.933C385.24 765.344 385.459 764.773 385.861 764.342C386.263 763.911 386.816 763.651 387.405 763.619L402.57 763.118" stroke="black" stroke-width="3" stroke-linecap="round" stroke-linejoin="round"/>
<path d="M386.413 768.002L385.48 771.548" stroke="black" stroke-width="3" stroke-linecap="round" stroke-linejoin="round"/>
<path d="M200.219 768.733C200.219 768.733 213.093 765.232 216.936 763.813C220.78 762.394 227.892 758.9 227.892 758.9C242.463 760.64 257.237 759.24 271.222 754.793C286.616 749.654 301.738 743.733 316.53 737.052C316.53 737.052 325.635 740.48 330.209 739.36C334.784 738.24 340.075 735.133 341.158 728.16C342.24 721.186 343.15 720.095 344.225 719.461C345.299 718.826 347.434 721.507 349.449 725.554C351.464 729.601 354.762 739.36 354.762 739.36L342.822 772.467L270.856 787.997L196.689 770.346L200.219 768.733Z" fill="#A28ADD"/>
<path d="M204.548 794.232C204.548 794.232 246.049 794.381 262.617 792.739C279.185 791.096 295.648 786.482 296.335 786.347C297.021 786.213 356.688 780.8 356.688 780.8C356.688 780.8 358.292 785.377 356.389 787.997C354.486 790.618 352.135 793.411 352.135 793.411L305.052 795.24C305.052 795.24 278.595 799.026 267.401 801.213C242.609 805.977 218.981 800.467 218.981 800.467L204.548 794.232Z" fill="white"/>
<path d="M191.107 778.671C191.107 778.671 185.435 788.886 206.033 796.039C226.631 803.192 202.376 794.852 201.025 788.005C199.674 781.158 197.801 779.664 195.562 778.671C194.131 778.105 192.538 778.105 191.107 778.671Z" fill="black"/>
<path d="M221.526 794.12C221.526 794.12 253.684 794.463 264.378 793.426C275.073 792.388 299.701 785.907 299.701 785.907L353.568 781.076L358.531 779.702C358.531 779.702 365.994 774.923 367.487 771.115C368.979 767.307 368.3 762.305 368.3 762.305L361.106 758.907L356.71 758.676L355.695 770.369C355.695 770.369 342.448 771.384 330.232 772.37C318.015 773.355 299.551 774.849 283.312 780.822C270.901 785.546 257.906 788.561 244.684 789.782C233.489 790.939 201.585 790.775 201.585 790.775C201.585 790.775 203.04 793.015 210.145 793.47C217.25 793.926 221.526 794.12 221.526 794.12Z" fill="white"/>
<path d="M191.107 778.671C191.401 776.681 192.27 774.821 193.607 773.318C194.991 771.975 196.627 770.919 198.421 770.212C198.421 770.212 205.19 778.425 221.556 777.305C237.922 776.185 257.871 772.131 264.393 772.452C270.916 772.773 274.222 772.907 276.737 774.438C279.252 775.968 284.692 779.791 284.692 779.791C284.692 779.791 270.632 786.511 247.303 789.632C223.974 792.754 200.398 789.252 200.398 789.252C200.398 789.252 200.831 783.965 198.779 781.352C196.727 778.739 191.107 778.671 191.107 778.671Z" fill="#C18B1E"/>
<path d="M201.085 771.638C201.085 771.638 223.414 772.385 231.631 771.421C239.848 770.458 246.146 769.181 251.102 769.264C256.057 769.346 263.259 770.212 263.259 770.212L267.55 771.922C267.55 771.922 250.848 775.334 239.654 776.402C228.459 777.469 221.295 777.776 213.309 776.962C205.324 776.148 201.085 771.638 201.085 771.638Z" fill="#A28ADD"/>
<path d="M340.083 770.331C343.711 766.123 346.593 761.325 348.605 756.145C351.859 747.67 354.77 739.352 354.77 739.352C355.995 745.249 356.66 751.249 356.755 757.272C356.979 767.725 355.673 770.346 355.673 770.346L339.202 771.436L340.083 770.331Z" fill="#C18B1E"/>
<path d="M320.455 772.131L346.919 759.729L339.202 771.421L320.455 772.131Z" fill="#A28ADD"/>
<path d="M310.903 735.133C310.903 735.133 295.23 743.347 280.409 748.648C265.587 753.949 249.408 758.608 249.408 758.608C249.408 758.608 265.752 757.802 287.469 749.021C309.186 740.24 315.828 737.328 315.828 737.328L311.873 734.588L310.903 735.133Z" fill="#C18B1E"/>
<path d="M237.236 751.62L229.176 758.265C229.176 758.265 238.878 762.685 263.774 754.532C288.671 746.378 311.88 734.633 311.88 734.633L305.35 726.92L303.335 726.442L301.216 730.997C301.216 730.997 304.514 735.477 302.761 736.731C301.007 737.986 298.35 735.559 298.35 735.559L292.984 732.274C292.984 732.274 296.447 737.784 294.021 739.128C291.596 740.472 286.797 732.975 286.797 732.975L283.066 731.691C283.066 731.691 285.782 735.544 286.208 738.374C286.633 741.204 286.842 742.212 285.342 742.406C283.842 742.6 282.984 742.787 282.357 740.995C281.864 739.736 281.198 738.553 280.379 737.478L277.185 736.731C277.185 736.731 279.185 742.503 277.185 743.727C276.6 744.084 275.929 744.272 275.245 744.272C274.56 744.272 273.889 744.084 273.304 743.727L268.618 739.807C268.618 739.807 269.252 746.587 268.073 747.707C266.894 748.827 264.438 747.207 264.438 747.207C263.876 746.136 263.086 745.2 262.125 744.467C261.002 743.564 259.725 742.874 258.356 742.428L260.237 749.238C260.237 749.238 260.849 751.105 259.49 751.582C258.132 752.06 256.296 751.134 256.296 751.134L255.692 747.954L251.094 748.439C251.094 748.439 251.945 752.747 251.094 753.621C250.315 754.234 249.394 754.64 248.415 754.801C246.941 753.696 245.337 752.776 243.639 752.06C241.617 751.366 237.236 751.62 237.236 751.62Z" fill="#A28ADD"/>
<path d="M247.766 754.33C247.766 754.33 242.796 751.56 240.639 751.56C239.19 751.524 237.762 751.202 236.437 750.612C236.271 749.643 236.271 748.653 236.437 747.685C236.721 746.072 239.146 746.072 239.146 746.072C239.146 746.072 238.631 745.027 240.012 744.19C241.113 743.582 242.27 743.082 243.467 742.697C243.467 742.697 243.631 741.204 244.564 740.913C245.228 740.713 245.916 740.603 246.609 740.584L249.117 737.844C249.069 737.527 249.096 737.204 249.198 736.9C249.299 736.596 249.471 736.321 249.699 736.097C250.445 735.552 253.065 736.097 253.065 736.097C253.371 735.186 253.966 734.399 254.759 733.857C255.828 733.329 257 733.041 258.192 733.013C258.192 733.013 259.02 731.721 259.58 731.012C260.14 730.302 262.117 731.012 262.117 731.012L263.61 728.817C263.61 728.817 264.237 727.129 265.102 727.039C266.439 727.134 267.765 727.343 269.065 727.667C268.792 726.708 268.632 725.721 268.588 724.725C268.588 723.538 269.849 722.179 269.849 722.179L272.155 721.723C272.155 721.723 273.476 721.865 273.17 721.193C272.725 720.367 272.516 719.435 272.565 718.498C272.707 717.527 275.685 718.288 275.685 718.288L269.886 726.92L274.976 728.145L280.409 720.902C280.409 720.902 295.335 726.875 298.678 729.556C302.022 732.236 304.88 736.47 302.246 736.978C299.611 737.485 294.887 732.975 294.887 732.975L292.335 732.274C292.335 732.274 296.633 738.157 294.021 739.128C291.409 740.099 288.23 733.939 286.081 732.819L282.618 730.997L286.641 740.188C286.641 740.188 286.529 741.913 285.372 742.428C284.215 742.943 282.2 740.547 282.2 740.547L280.916 737.478L277.185 736.731C277.185 736.731 278.625 742.316 277.185 743.727C275.745 745.139 273.304 743.727 273.304 743.727L268.617 739.807C268.617 739.807 269.707 745.034 268.371 747.207C267.035 749.38 262.968 745.057 262.968 745.057L258.759 742.428C258.759 742.428 262.699 750.164 259.46 751.582C256.222 753.001 255.356 748.439 255.356 748.439L250.393 748.207C250.393 748.207 252.147 753.091 251.065 754.121C249.982 755.152 247.766 754.33 247.766 754.33Z" fill="white"/>
<path d="M279.356 716.855L279.744 721.79L274.976 728.145L269.274 726.92C269.274 726.92 272.296 722.171 274.498 720.073C275.935 718.747 277.575 717.661 279.356 716.855Z" fill="white"/>
<path d="M291.752 699.234L301.954 703.714C301.954 703.714 307.552 706.148 306.641 713.622C305.731 721.096 301.469 731.863 301.469 731.863L279.745 721.82L278.185 718.221L277.252 717.348L277.371 710.254L285.058 710.075L289.596 698.479L291.752 699.234Z" fill="white"/>
<path d="M287.857 698.45L279.528 695.418C279.528 695.418 277.289 700.645 277.073 703.968C276.857 707.29 276.774 709.478 276.774 709.478L285.058 710.045L289.596 698.45H287.857Z" fill="white"/>
<path d="M305.052 720.678L303.514 725.539C303.514 725.539 307.201 727.861 308.447 730.571C309.693 733.282 314.418 738.381 325.082 739.471C335.747 740.562 340.008 733.834 341.157 728.145C341.582 725.795 342.133 723.469 342.807 721.178C342.807 721.178 340.366 718.714 337.665 719.229C334.963 719.744 337.202 730.384 331.418 732.49C325.634 734.596 318.619 734.484 315.836 731.833C313.052 729.182 309.171 725.165 309.171 725.165L308.649 720.618L305.052 720.678Z" fill="white"/>
<path d="M238.086 750.918C238.086 750.918 229.81 757.892 225.019 760.505C220.227 763.118 206.324 767.344 201.174 768.464C196.025 769.584 191.473 774.318 190.152 780.665C188.831 787.012 196.264 792.858 203.331 795.098C210.399 797.338 229.213 806.052 258.684 802.318C288.155 798.585 301.335 795.225 311.395 795.225C321.455 795.225 351.531 792.985 351.531 792.985C351.531 792.985 355.964 790.245 356.688 787.131C357.137 784.88 357.337 782.586 357.285 780.292C361.516 778.298 365.059 775.091 367.464 771.078C369.867 766.971 370.345 760.751 363.994 759.758C358.247 758.855 356.688 758.638 356.688 758.638C356.688 758.638 357.524 747.558 354.449 737.231C352.37 730.663 349.299 724.451 345.344 718.811C345.344 718.811 342.105 718.565 341.986 723.791C341.866 729.018 337.553 741.211 323.328 738.971C309.104 736.731 308.231 727.151 304.634 726.651" stroke="black" stroke-width="3" stroke-linecap="round" stroke-linejoin="round"/>
<path d="M356.688 780.785C356.688 780.785 341.232 782.651 321.701 784.025C302.171 785.399 301.215 785.145 292.708 787.131C278.105 790.838 263.18 793.131 248.139 793.978C233.678 794.664 219.186 794.332 204.771 792.985" stroke="black" stroke-width="3" stroke-linecap="round" stroke-linejoin="round"/>
<path d="M191.107 778.672C191.107 778.672 196.025 777.552 198.779 781.531C201.533 785.511 197.577 790.745 204.749 792.985" stroke="black" stroke-width="3" stroke-linecap="round" stroke-linejoin="round"/>
<path d="M201.085 789.745C201.085 789.745 228.399 793.732 255.475 788.251C282.551 782.771 288.782 776.932 311.91 774.192C335.038 771.451 352.762 772.198 359.471 769.211C366.181 766.225 367.74 762.745 367.74 762.745" stroke="black" stroke-width="3" stroke-linecap="round" stroke-linejoin="round"/>
<path d="M356.688 756.271C356.688 756.271 356.449 761.125 356.202 763.865C355.919 766.059 355.439 768.223 354.77 770.331" stroke="black" stroke-width="3" stroke-linecap="round" stroke-linejoin="round"/>
<path d="M354.77 739.344C354.77 739.344 350.695 751.545 347.702 758.265C344.71 764.985 339.075 771.578 339.075 771.578" stroke="black" stroke-width="3" stroke-linecap="round" stroke-linejoin="round"/>
<path d="M317.985 773.318C317.985 773.318 330.269 767.979 335.956 765.105C340.389 762.865 347.702 758.265 347.702 758.265" stroke="black" stroke-width="3" stroke-linecap="round" stroke-linejoin="round"/>
<path d="M198.421 770.227C198.421 770.227 201.772 777.693 221.556 777.32C241.34 776.947 258.304 772.84 266.841 772.467C276.192 772.093 284.693 779.806 284.693 779.806" stroke="black" stroke-width="3" stroke-linecap="round" stroke-linejoin="round"/>
<path d="M200.219 771.72C200.219 771.72 205.01 771.347 216.638 771.84C228.265 772.332 241.318 769.973 251.624 769.353C261.93 768.733 268.625 772.467 268.625 772.467" stroke="black" stroke-width="3" stroke-linecap="round" stroke-linejoin="round"/>
<path d="M227.892 758.885C228.25 759.012 234.609 762.372 261.916 755.025C289.223 747.677 311.918 734.618 311.918 734.618" stroke="black" stroke-width="3" stroke-linecap="round" stroke-linejoin="round"/>
<path d="M238.012 759.631C238.012 759.631 253.057 761.125 279.409 752.538C307.768 743.302 315.35 737.104 315.35 737.104" stroke="black" stroke-width="3" stroke-linecap="round" stroke-linejoin="round"/>
<path d="M307.925 724.538C314.276 727.151 314.276 734.991 326.015 733.998C337.754 733.005 333.732 723.941 336.68 720.185C339.508 716.571 342.24 721.178 342.24 721.178" stroke="black" stroke-width="3" stroke-linecap="round" stroke-linejoin="round"/>
<path d="M276.775 709.478L285.163 710.225C285.163 710.225 286.073 706.387 286.715 704.378C287.509 702.352 288.473 700.396 289.596 698.532L279.528 695.418C278.563 697.486 277.839 699.658 277.372 701.892C276.968 704.4 276.768 706.937 276.775 709.478Z" stroke="black" stroke-width="3" stroke-linecap="round" stroke-linejoin="round"/>
<path d="M277.371 710.478L277.252 717.318" stroke="black" stroke-width="3" stroke-linecap="round" stroke-linejoin="round"/>
<path d="M276.819 718.318C276.819 718.318 274.856 718.811 271.864 722.798C268.871 726.786 269.102 727.652 269.102 727.652L274.976 728.145C274.976 728.145 278.207 722.694 279.744 721.79C282.043 720.431 276.819 718.318 276.819 718.318Z" stroke="black" stroke-width="3" stroke-linecap="round" stroke-linejoin="round"/>
<path d="M301.305 732.274C301.544 731.9 306.096 717.34 306.096 717.34C306.096 717.34 308.917 707.111 300.827 703.027C296.864 701.056 292.743 699.422 288.506 698.143" stroke="black" stroke-width="3" stroke-linecap="round" stroke-linejoin="round"/>
<path d="M249.094 754.778C248.58 754.776 248.082 754.597 247.684 754.271C246.298 753.286 244.793 752.481 243.206 751.874C241.56 751.27 239.824 750.947 238.071 750.918C237.478 750.918 236.908 750.682 236.488 750.262C236.068 749.842 235.833 749.272 235.833 748.678C235.833 748.084 236.068 747.514 236.488 747.094C236.908 746.674 237.478 746.438 238.071 746.438C240.409 746.469 242.724 746.904 244.915 747.722C246.915 748.487 248.8 749.522 250.52 750.798C250.879 751.09 251.14 751.487 251.265 751.933C251.39 752.38 251.374 752.854 251.218 753.29C251.063 753.727 250.776 754.105 250.396 754.371C250.017 754.638 249.565 754.78 249.102 754.778H249.094Z" stroke="black" stroke-width="3" stroke-linecap="round" stroke-linejoin="round"/>
<path d="M245.646 747.745C245.16 746.446 244.553 745.196 243.833 744.011C243.55 743.506 243.475 742.91 243.622 742.349C243.769 741.789 244.128 741.307 244.622 741.006C245.117 740.704 245.709 740.606 246.274 740.732C246.839 740.858 247.334 741.199 247.654 741.682C248.554 743.175 249.304 744.753 249.893 746.393C250.396 748.089 250.795 749.815 251.087 751.56" stroke="black" stroke-width="3" stroke-linecap="round" stroke-linejoin="round"/>
<path d="M248.393 742.757C251.28 742.685 254.166 742.935 256.997 743.503C257.536 743.622 258.011 743.934 258.333 744.382C258.655 744.829 258.801 745.38 258.743 745.928C258.685 746.476 258.427 746.983 258.018 747.353C257.609 747.723 257.078 747.929 256.527 747.931C256.369 747.935 256.211 747.92 256.057 747.886L250.34 747.827" stroke="black" stroke-width="3" stroke-linecap="round" stroke-linejoin="round"/>
<path d="M239.586 745.953C239.48 745.368 239.609 744.766 239.946 744.277C240.284 743.788 240.801 743.454 241.385 743.347C241.489 743.347 242.251 743.197 243.467 743.063" stroke="black" stroke-width="3" stroke-linecap="round" stroke-linejoin="round"/>
<path d="M253.199 742.705C251.848 739.785 250.087 739.434 250.064 739.419C249.813 739.253 249.597 739.037 249.431 738.785C249.265 738.533 249.151 738.25 249.097 737.953C249.043 737.656 249.05 737.351 249.116 737.057C249.183 736.762 249.308 736.484 249.485 736.24C249.662 735.995 249.886 735.788 250.144 735.633C250.403 735.477 250.69 735.375 250.989 735.333C251.288 735.291 251.592 735.31 251.883 735.388C252.174 735.467 252.447 735.604 252.684 735.79C254.977 737.619 256.819 739.952 258.065 742.608C258.936 744.76 259.664 746.967 260.244 749.215C260.332 749.503 260.361 749.805 260.33 750.104C260.299 750.403 260.208 750.693 260.063 750.956C259.917 751.219 259.72 751.45 259.484 751.636C259.247 751.821 258.976 751.957 258.686 752.035C258.396 752.113 258.093 752.132 257.795 752.091C257.498 752.049 257.211 751.948 256.954 751.794C256.696 751.64 256.472 751.435 256.295 751.192C256.117 750.949 255.991 750.673 255.923 750.38C255.766 749.813 255.557 749.029 255.221 747.931" stroke="black" stroke-width="3" stroke-linecap="round" stroke-linejoin="round"/>
<path d="M254.617 737.149C256.2 737.048 257.789 737.181 259.333 737.545C264.684 738.859 268.087 744.004 268.229 744.22C268.498 744.714 268.571 745.291 268.434 745.836C268.298 746.382 267.961 746.856 267.491 747.164C267.021 747.473 266.452 747.593 265.898 747.501C265.343 747.41 264.843 747.113 264.498 746.669C264.498 746.669 261.512 742.787 257.871 741.898" stroke="black" stroke-width="3" stroke-linecap="round" stroke-linejoin="round"/>
<path d="M251.714 742.1C251.178 742.225 250.65 742.379 250.132 742.563C248.975 742.996 247.729 742.137 247.288 740.98C247.18 740.728 247.128 740.456 247.134 740.182C247.14 739.908 247.204 739.638 247.323 739.392C247.442 739.145 247.612 738.926 247.822 738.751C248.033 738.575 248.278 738.447 248.542 738.374" stroke="black" stroke-width="3" stroke-linecap="round" stroke-linejoin="round"/>
<path d="M263.296 739.158C262.378 737.433 260.05 735.425 259.229 734.767C258.787 734.395 258.507 733.866 258.446 733.291C258.385 732.717 258.549 732.141 258.902 731.684C259.256 731.227 259.772 730.925 260.343 730.84C260.915 730.755 261.496 730.894 261.968 731.228C262.348 731.519 265.699 734.17 267.244 737.045C269.296 740.883 269.192 746.386 269.184 746.617C269.171 747.202 268.929 747.758 268.51 748.167C268.092 748.576 267.53 748.805 266.945 748.805H266.886C265.654 748.805 264.251 747.677 264.281 746.438" stroke="black" stroke-width="3" stroke-linecap="round" stroke-linejoin="round"/>
<path d="M265.147 733.842C266.594 734.138 268.004 734.596 269.349 735.208C272.209 736.519 274.743 738.45 276.767 740.86C277.106 741.336 277.246 741.925 277.158 742.502C277.069 743.079 276.759 743.599 276.292 743.951C275.826 744.302 275.241 744.458 274.662 744.384C274.083 744.31 273.555 744.013 273.192 743.556C273.192 743.556 272.132 741.316 268.304 739.471" stroke="black" stroke-width="3" stroke-linecap="round" stroke-linejoin="round"/>
<path d="M262.132 737.851C260.287 737.599 258.427 737.474 256.565 737.478C255.971 737.483 255.4 737.252 254.976 736.835C254.553 736.419 254.312 735.851 254.307 735.257C254.302 734.663 254.533 734.091 254.95 733.667C255.366 733.244 255.934 733.003 256.527 732.998C256.624 732.998 257.147 732.953 258.244 732.998" stroke="black" stroke-width="3" stroke-linecap="round" stroke-linejoin="round"/>
<path d="M271.095 736.111C268.998 733.745 266.371 731.631 265.639 731.37C265.132 731.318 264.658 731.094 264.296 730.735C263.933 730.376 263.704 729.905 263.646 729.398C263.587 728.891 263.704 728.38 263.975 727.948C264.247 727.517 264.658 727.191 265.139 727.025C267.378 726.278 272.177 730.011 274.252 732.386C277.595 736.119 278.028 741.562 278.05 741.794C278.094 742.386 277.9 742.971 277.512 743.42C277.125 743.869 276.575 744.146 275.983 744.19" stroke="black" stroke-width="3" stroke-linecap="round" stroke-linejoin="round"/>
<path d="M276.319 726.278C277.103 727.024 281.998 731.101 283.498 733.184C284.965 735.216 286.062 737.491 286.737 739.904C286.877 740.482 286.781 741.091 286.472 741.598C286.163 742.104 285.665 742.468 285.088 742.607C284.915 742.649 284.737 742.669 284.558 742.667C284.057 742.666 283.571 742.497 283.177 742.187C282.783 741.877 282.505 741.444 282.386 740.957C281.85 739.097 280.999 737.342 279.871 735.768C278.2 733.453 274.976 729.615 274.021 728.981" stroke="black" stroke-width="3" stroke-linecap="round" stroke-linejoin="round"/>
<path d="M276.349 727.502C278.237 728.249 283.655 730.489 285.946 732.557C289.723 735.932 290.775 738.12 290.775 738.12C290.948 738.521 291.235 738.862 291.599 739.103C291.964 739.343 292.391 739.471 292.827 739.472C293.133 739.472 293.436 739.409 293.715 739.285C294.259 739.049 294.687 738.606 294.905 738.055C295.124 737.503 295.114 736.888 294.88 736.343L290.932 730.885" stroke="black" stroke-width="3" stroke-linecap="round" stroke-linejoin="round"/>
<path d="M280.939 737.851C280.193 737.56 278.61 736.94 276.745 736.104" stroke="black" stroke-width="3" stroke-linecap="round" stroke-linejoin="round"/>
<path d="M271.237 729.451C275.453 730.646 275.647 731.385 276.58 731.691" stroke="black" stroke-width="3" stroke-linecap="round" stroke-linejoin="round"/>
<path d="M262.132 730.997C262.127 730.702 262.203 730.412 262.352 730.158C262.5 729.904 262.716 729.695 262.975 729.556" stroke="black" stroke-width="3" stroke-linecap="round" stroke-linejoin="round"/>
<path d="M279.924 721.238C280.364 721.424 291.708 726.039 296.2 728.555C300.947 731.221 302.745 733.685 302.917 733.961C303.255 734.448 303.385 735.05 303.281 735.634C303.176 736.217 302.844 736.735 302.357 737.075C301.984 737.339 301.538 737.48 301.081 737.478C300.719 737.478 300.362 737.391 300.041 737.223C299.72 737.056 299.444 736.812 299.238 736.515C299.238 736.515 297.82 734.611 294.014 732.468C289.745 730.063 277.304 724.829 277.2 724.784" stroke="black" stroke-width="3" stroke-linecap="round" stroke-linejoin="round"/>
<path d="M305.051 721.178L308.223 720.618" stroke="black" stroke-width="3" stroke-linecap="round" stroke-linejoin="round"/>
<path d="M273.08 720.618C273.08 720.618 271.453 719.759 272.603 718.483C273.909 717.042 276.103 718.483 276.103 718.483" stroke="black" stroke-width="3" stroke-linecap="round" stroke-linejoin="round"/>
<path d="M269.386 726.278C269.386 726.278 267.893 724.456 268.916 722.963C269.781 721.708 272.065 722.298 272.065 722.298" stroke="black" stroke-width="3" stroke-linecap="round" stroke-linejoin="round"/>
<path d="M308.857 35.8575L313.044 46.0719" stroke="black" stroke-width="3" stroke-linecap="round" stroke-linejoin="round"/>
<path d="M255.109 111.779L240.624 64.3654" stroke="black" stroke-width="3" stroke-linecap="round" stroke-linejoin="round"/>
<path d="M329.179 83.4576L332.612 91.5067" stroke="black" stroke-width="3" stroke-linecap="round" stroke-linejoin="round"/>
<path d="M310.791 64.9403C310.434 62.9316 310.257 60.8951 310.261 58.855C310.261 46.072 316.918 36.3654 329.665 36.3654C335.8 36.3654 341.685 38.804 346.024 43.1449C350.362 47.4857 352.8 53.3731 352.8 59.512C352.8 65.6509 350.362 71.5384 346.024 75.8792C341.685 80.22 335.8 82.6587 329.665 82.6587C327.02 82.6778 324.401 82.1305 321.985 81.0534" stroke="black" stroke-width="3" stroke-linecap="round" stroke-linejoin="round"/>
<path d="M193.234 82.0315L309.298 37.6048C309.298 37.6048 302.081 4.13173 281.931 1.76479C261.781 -0.602141 244.116 43.5781 244.116 43.5781L193.234 82.0315Z" stroke="black" stroke-width="3" stroke-linecap="round" stroke-linejoin="round"/>
<path d="M244.102 43.5781L298.089 41.8384" stroke="black" stroke-width="3" stroke-linecap="round" stroke-linejoin="round"/>
<path d="M292.738 42.0847C292.738 42.0847 291.447 31.3999 293.984 25.1653C296.969 17.8181 300.201 15.4586 300.201 15.4586" stroke="black" stroke-width="3" stroke-linecap="round" stroke-linejoin="round"/>
<path d="M294.23 24.1648L253.803 24.2917" stroke="black" stroke-width="3" stroke-linecap="round" stroke-linejoin="round"/>
<path d="M273.304 53.1429L286.036 90.7376L272.371 95.3744L259.639 57.7723" stroke="black" stroke-width="3" stroke-linecap="round" stroke-linejoin="round"/>
<path d="M293.514 43.9962C294.106 45.2544 294.431 46.6216 294.47 48.0117C294.508 49.4019 294.258 50.7849 293.737 52.0739C293.215 53.3628 292.432 54.5298 291.438 55.5014C290.443 56.473 289.259 57.2283 287.958 57.7196C286.658 58.211 285.27 58.4278 283.882 58.3565C282.494 58.2852 281.135 57.9273 279.892 57.3052C278.649 56.6832 277.548 55.8106 276.658 54.7421C275.768 53.6737 275.109 52.4327 274.722 51.097" stroke="black" stroke-width="3" stroke-linecap="round" stroke-linejoin="round"/>
<path d="M262.199 66.0454C261.256 67.1147 260.096 67.9707 258.796 68.5565C257.496 69.1423 256.087 69.4444 254.661 69.4427C250.057 69.4427 246.639 67.2027 245.43 62.9766" stroke="black" stroke-width="3" stroke-linecap="round" stroke-linejoin="round"/>
<path d="M287.469 46.4678C287.84 46.9966 288.082 47.6057 288.173 48.2455C288.265 48.8853 288.205 49.5377 287.997 50.1497C287.789 50.7617 287.44 51.316 286.978 51.7675C286.515 52.219 285.953 52.5549 285.337 52.748C284.72 52.9411 284.067 52.9858 283.43 52.8786C282.793 52.7714 282.19 52.5152 281.67 52.131C281.151 51.7467 280.729 51.2452 280.44 50.6672C280.151 50.0893 280.002 49.4512 280.006 48.8048" stroke="black" stroke-width="3" stroke-linecap="round" stroke-linejoin="round"/>
<path d="M257.475 58.1829C257.847 58.7117 258.088 59.3208 258.18 59.9606C258.272 60.6004 258.211 61.2528 258.003 61.8648C257.796 62.4768 257.446 63.0311 256.984 63.4826C256.522 63.9341 255.959 64.27 255.343 64.4631C254.726 64.6562 254.073 64.7009 253.436 64.5937C252.799 64.4865 252.196 64.2303 251.677 63.8461C251.157 63.4618 250.736 62.9603 250.446 62.3823C250.157 61.8044 250.009 61.1663 250.012 60.5199" stroke="black" stroke-width="3" stroke-linecap="round" stroke-linejoin="round"/>
<path d="M301.94 478.765C301.94 478.765 276.192 416.792 286.267 309.272C296.342 201.752 310.335 177.859 310.335 177.859L284.588 104.312C284.588 104.312 276.379 103.379 264.811 106.925C260.127 108.278 255.922 110.932 252.684 114.579L279.178 180.472C279.178 180.472 256.789 221.539 252.684 317.112C248.579 412.685 266.117 474.659 266.117 474.659" stroke="black" stroke-width="3" stroke-linecap="round" stroke-linejoin="round"/>
<path d="M282.245 104.2C292.827 100.9 308.895 96.0763 317.425 94.4187C330.858 91.8053 348.769 91.432 348.769 91.432C348.769 91.432 352.874 99.4587 355.673 124.099C357.852 143.273 357.725 153.965 357.725 153.965C357.725 153.965 504.469 169.944 575.957 316.365C639.161 445.785 563.516 540.858 563.516 540.858C563.516 540.858 543.635 553.305 501.842 544.345C460.05 535.385 436.661 517.465 443.631 461.219C450.602 404.972 459.55 400.485 459.55 400.485C459.55 400.485 440.728 376.591 427.705 302.925C411.787 212.825 456.064 188.932 456.064 188.932" stroke="black" stroke-width="3" stroke-linecap="round" stroke-linejoin="round"/>
<path d="M200.57 448.271C201.189 455.253 201.458 457.605 201.458 457.605C201.458 457.605 245.243 481.005 330.321 480.005C384.838 479.37 421.712 471.582 442.265 466.072" stroke="black" stroke-width="3" stroke-linecap="round" stroke-linejoin="round"/>
<path d="M199.205 327.939C199.115 329.98 199.038 332.053 198.973 334.158C198.533 347.113 198.279 358.91 198.16 369.625" stroke="black" stroke-width="3" stroke-linecap="round" stroke-linejoin="round"/>
<path d="M253.385 116.632L247.415 121.112L267.505 183.347L217.205 213.154C217.205 213.154 211.376 225.04 206.182 256.147" stroke="black" stroke-width="3" stroke-linecap="round" stroke-linejoin="round"/>
<path d="M329.925 70.3386C327.946 70.3386 326.048 69.5519 324.648 68.1517C323.249 66.7514 322.462 64.8522 322.462 62.8719C322.462 60.8917 323.249 58.9925 324.648 57.5922C326.048 56.1919 327.946 55.4053 329.925 55.4053" stroke="black" stroke-width="3" stroke-linecap="round" stroke-linejoin="round"/>
<path d="M322.462 62.6928C323.154 61.9538 323.984 61.3587 324.905 60.9416C325.827 60.5246 326.822 60.2938 327.833 60.2626C328.844 60.2313 329.851 60.4003 330.797 60.7597C331.743 61.1191 332.608 61.6619 333.343 62.3568" stroke="black" stroke-width="3" stroke-linecap="round" stroke-linejoin="round"/>
<path d="M137.65 299.438C137.65 299.438 130.433 298.938 124.709 289.732C123.281 287.41 122.365 284.811 122.023 282.106C121.681 279.402 121.92 276.656 122.724 274.052C122.724 274.052 98.8425 289.732 84.1628 273.305C69.4832 256.878 96.3499 253.645 107.298 247.418C118.246 241.191 124.963 229.252 146.852 233.232C168.741 237.211 177.644 297.49 142.62 320.345C102.574 346.478 67.498 311.885 67.498 311.885" stroke="black" stroke-width="3" stroke-linecap="round" stroke-linejoin="round"/>
<path d="M144.366 231.492C144.366 231.492 134.911 194.905 111.276 204.365C96.4018 210.339 103.208 230.312 110.753 245.193" stroke="black" stroke-width="3" stroke-linecap="round" stroke-linejoin="round"/>
<path d="M97.8647 280.787C99.5854 282.524 101.592 283.951 103.798 285.005C111.171 288.365 117.358 284.557 119.097 280.361C119.637 278.996 120.006 277.569 120.194 276.113" stroke="black" stroke-width="3" stroke-linecap="round" stroke-linejoin="round"/>
<path d="M102.059 217.551C102.059 217.551 95.723 211.72 85.7674 217.925C77.185 223.278 79.9314 240.265 85.0211 257.08" stroke="black" stroke-width="3" stroke-linecap="round" stroke-linejoin="round"/>
<path d="M79.8266 231.88C79.8266 231.88 70.1247 226.004 60.2661 235.21C51.4449 243.476 57.281 278.017 72.8263 290.463C88.3717 302.91 97.8795 291.83 99.4467 288.97C100.678 286.73 100.051 283.415 99.3124 281.048" stroke="black" stroke-width="3" stroke-linecap="round" stroke-linejoin="round"/>
<path d="M56.1618 253.765C56.1618 253.765 50.5646 247.545 39.9896 253.518C27.9294 260.336 31.1609 293.592 51.4378 306.405C71.7146 319.218 75.3193 303.978 75.9387 301.305C77.0581 296.205 72.8266 290.478 72.8266 290.478" stroke="black" stroke-width="3" stroke-linecap="round" stroke-linejoin="round"/>
<path d="M166.3 271.939C166.3 271.939 181.144 278.898 188.689 284.632C194.1 288.739 197.585 291.725 197.585 291.725" stroke="black" stroke-width="3" stroke-linecap="round" stroke-linejoin="round"/>
<path d="M97.6406 328.499C97.6406 328.499 111.074 359.485 141.112 393.645C175.069 432.285 200.63 451.139 200.63 451.139" stroke="black" stroke-width="3" stroke-linecap="round" stroke-linejoin="round"/>
<path d="M306.141 27.6816C306.141 27.6816 312.298 26.5616 317.709 20.1254C323.119 13.6891 323.306 10.0454 329.552 9.8587C335.799 9.67204 339.896 20.4987 327.687 28.7867C315.477 37.0747 309.216 36.9104 309.216 36.9104" stroke="black" stroke-width="3" stroke-linecap="round" stroke-linejoin="round"/>
<path d="M45.5867 301.245L36.064 306.353" stroke="black" stroke-width="3" stroke-linecap="round" stroke-linejoin="round"/>
<path d="M267.863 184.078L158.494 241.93" stroke="black" stroke-width="3" stroke-linecap="round" stroke-linejoin="round"/>
<path d="M352.479 101.378L497.678 15.0928C500.417 13.7138 503.408 12.9083 506.469 12.7259C518.515 11.9792 528.858 20.8198 529.604 32.4379C530.06 39.703 528.194 47.2966 516.88 53.6358L357.121 137.569" stroke="black" stroke-width="3" stroke-linecap="round" stroke-linejoin="round"/>
<path d="M142.657 226.063L258.811 157.042" stroke="black" stroke-width="3" stroke-linecap="round" stroke-linejoin="round"/>
<path d="M27.832 294.346L36.6309 289.112" stroke="black" stroke-width="3" stroke-linecap="round" stroke-linejoin="round"/>
<path d="M29.5969 326.637C34.3882 323.888 33.7897 313.838 28.2603 304.19C22.7308 294.542 14.3641 288.949 9.57284 291.698C4.78156 294.446 5.38001 304.496 10.9095 314.144C16.439 323.792 24.8057 329.385 29.5969 326.637Z" stroke="black" stroke-width="3" stroke-linecap="round" stroke-linejoin="round"/>
<path d="M10.2568 291.449C19.2124 286.633 26.5336 290.575 33.2726 302.649C38.3922 311.773 39.3251 322.451 29.4366 326.707" stroke="black" stroke-width="3" stroke-linecap="round" stroke-linejoin="round"/>
<path d="M393.084 258.685H314.164V273.432H393.084V258.685Z" stroke="black" stroke-width="3" stroke-linecap="round" stroke-linejoin="round"/>
<path d="M390.189 273.992V314.708C390.179 318.84 388.534 322.801 385.614 325.724C382.694 328.646 378.737 330.294 374.606 330.306H332.642C328.514 330.284 324.561 328.634 321.642 325.713C318.723 322.793 317.073 318.838 317.052 314.708V273.992" stroke="black" stroke-width="3" stroke-linecap="round" stroke-linejoin="round"/>
<path d="M419.018 374.486H314.164V391.779H419.018V374.486Z" stroke="black" stroke-width="3" stroke-linecap="round" stroke-linejoin="round"/>
<path d="M415.623 392.413V440.2C415.607 445.042 413.678 449.681 410.257 453.105C406.836 456.529 402.2 458.461 397.361 458.478H335.836C330.991 458.465 326.348 456.533 322.922 453.105C319.496 449.677 317.566 445.033 317.552 440.185V392.413" stroke="black" stroke-width="3" stroke-linecap="round" stroke-linejoin="round"/>
<path d="M199.048 271.005H220.317L227.123 256.259H202.309C202.309 256.259 200.167 258.125 199.421 263.165C198.967 265.753 198.842 268.387 199.048 271.005Z" stroke="black" stroke-width="3" stroke-linecap="round" stroke-linejoin="round"/>
<path d="M200.63 270.908C200.63 270.908 198.301 282.765 197.271 301.335C196.241 319.905 196.898 327.752 196.898 327.752V327.879H211.354C215.484 327.867 219.442 326.22 222.362 323.297C225.282 320.374 226.927 316.414 226.937 312.281V256.348" stroke="black" stroke-width="3" stroke-linecap="round" stroke-linejoin="round"/>
<path d="M380.3 391.779H352.874V401.299H380.3V391.779Z" stroke="black" stroke-width="3" stroke-linecap="round" stroke-linejoin="round"/>
<path d="M189.89 387.299H214.332L221.13 370.013H194.57C194.57 370.013 192.607 372.194 191.114 377.98C189.622 383.767 189.89 387.299 189.89 387.299Z" stroke="black" stroke-width="3" stroke-linecap="round" stroke-linejoin="round"/>
<path d="M203.249 387.291H193.354V396.811H203.249V387.291Z" stroke="black" stroke-width="3" stroke-linecap="round" stroke-linejoin="round"/>
<path d="M191.025 387.672C191.025 387.672 189.764 428.485 191.958 437.445C194.846 449.272 202.443 448.518 202.443 448.518C217.981 448.518 220.727 443.672 220.727 430.232V370.312" stroke="black" stroke-width="3" stroke-linecap="round" stroke-linejoin="round"/>
<path d="M239.377 470.425L240.37 494.819C240.37 494.819 286.185 509.005 352.068 505.272C413.018 501.785 442.37 491.332 442.37 491.332" stroke="black" stroke-width="3" stroke-linecap="round" stroke-linejoin="round"/>
<path d="M336.165 506.265L349.598 581.178C349.598 581.178 389.644 719.311 389.398 720.058C389.152 720.805 406.063 735.245 438.153 731.012C470.244 726.778 476.961 712.845 476.961 712.845L453.826 639.172L460.729 557.912" stroke="black" stroke-width="3" stroke-linecap="round" stroke-linejoin="round"/>
<path d="M465.938 531.219C465.938 531.219 450.019 580.656 471.162 610.925C478.267 621.088 491.312 632.765 513.887 634.632C550.083 637.619 557.322 622.558 557.299 607.192C557.299 606.445 557.299 605.699 557.225 604.952C556.568 594.14 551.575 584.613 551.575 584.613" stroke="black" stroke-width="3" stroke-linecap="round" stroke-linejoin="round"/>
<path d="M542.143 597.231C542.143 597.231 552.964 589.145 555.882 570.419C559.181 549.281 555.136 544.845 555.136 544.845" stroke="black" stroke-width="3" stroke-linecap="round" stroke-linejoin="round"/>
<path d="M557.225 604.945C557.225 604.945 572.45 599.636 568.367 584.038C565.196 571.905 556.8 568.358 556.8 568.358" stroke="black" stroke-width="3" stroke-linecap="round" stroke-linejoin="round"/>
<path d="M568.367 584.045C568.367 584.045 572.964 575.489 567.994 564.072C564.263 555.485 557.546 553.432 557.546 553.432" stroke="black" stroke-width="3" stroke-linecap="round" stroke-linejoin="round"/>
<path d="M538.889 593.005C538.889 593.005 541.874 595.492 542.874 601.092" stroke="black" stroke-width="3" stroke-linecap="round" stroke-linejoin="round"/>
<path d="M264.252 500.538L260.52 601.092L289.894 693.432C289.894 693.432 303.328 703.385 325.216 701.892C347.105 700.398 350.591 694.425 350.591 694.425L348.598 577.699" stroke="black" stroke-width="3" stroke-linecap="round" stroke-linejoin="round"/>
<path d="M305.798 700.645L309.283 725.165" stroke="black" stroke-width="3" stroke-linecap="round" stroke-linejoin="round"/>
<path d="M331.418 701.645L335.03 725.539" stroke="black" stroke-width="3" stroke-linecap="round" stroke-linejoin="round"/>
<path d="M414.257 731.758L415.257 737.358" stroke="black" stroke-width="3" stroke-linecap="round" stroke-linejoin="round"/>
<path d="M445.109 730.265L456.423 774.819" stroke="black" stroke-width="3" stroke-linecap="round" stroke-linejoin="round"/>
<path d="M354.061 269.818C356.121 269.818 357.792 268.147 357.792 266.085C357.792 264.023 356.121 262.351 354.061 262.351C352 262.351 350.329 264.023 350.329 266.085C350.329 268.147 352 269.818 354.061 269.818Z" stroke="black" stroke-width="3" stroke-linecap="round" stroke-linejoin="round"/>
<path d="M205.112 263.731C205.5 261.706 204.817 259.873 203.587 259.637C202.356 259.401 201.044 260.851 200.656 262.876C200.267 264.901 200.95 266.734 202.181 266.97C203.411 267.206 204.724 265.756 205.112 263.731Z" stroke="black" stroke-width="3" stroke-linecap="round" stroke-linejoin="round"/>
<path d="M267.61 23.8586C269.208 19.2964 271.455 14.9886 274.282 11.0682C276.77 7.7091 279.624 4.63646 282.79 1.90662" stroke="black" stroke-width="3" stroke-linecap="round" stroke-linejoin="round"/>
<path d="M442.885 482.125C442.885 482.125 442.944 482.924 443.183 484.365" stroke="black" stroke-width="3" stroke-linecap="round" stroke-linejoin="round"/>
<path d="M444.997 491.645C449.348 505.085 462.393 528.814 500.827 535.885C539.098 542.919 557.83 537.528 565.755 533.504" stroke="black" stroke-width="3" stroke-linecap="round" stroke-linejoin="round" stroke-dasharray="6.06 10.1"/>
<path d="M569.009 531.577C569.629 531.162 570.206 530.687 570.733 530.158" stroke="black" stroke-width="3" stroke-linecap="round" stroke-linejoin="round"/>
<path d="M170.964 277.539C170.964 277.539 170.964 305.912 150.068 321.338C129.172 336.764 102.805 336.772 102.805 336.772" stroke="black" stroke-width="3" stroke-linecap="round" stroke-linejoin="round" stroke-dasharray="6 10"/>
<path d="M300.074 473.091C363.195 476.585 420.011 464.683 444.206 458.605" stroke="black" stroke-width="3" stroke-linecap="round" stroke-linejoin="round" stroke-dasharray="6 10"/>
<path d="M202.809 451.258C202.809 451.258 218.422 462.973 264.64 469.619" stroke="black" stroke-width="3" stroke-linecap="round" stroke-linejoin="round" stroke-dasharray="6 10"/>
<path d="M483.931 208.845C483.931 208.845 470.498 212.325 455.072 224.772C439.646 237.219 425.22 252.645 425.22 252.645" stroke="black" stroke-width="3" stroke-linecap="round" stroke-linejoin="round" stroke-dasharray="6 10"/>
<path d="M349.583 161.552L433.168 213.818" stroke="black" stroke-width="3" stroke-linecap="round" stroke-linejoin="round" stroke-dasharray="6 10"/>
<path d="M354.315 225.907C354.123 225.894 353.932 225.925 353.753 225.996C353.575 226.067 353.415 226.177 353.285 226.317C353.013 226.613 352.791 226.951 352.628 227.318C352.46 227.71 352.333 228.117 352.247 228.535C352.181 228.898 352.087 229.255 351.964 229.603C351.215 231.783 350.356 233.924 349.389 236.017C348.42 238.138 346.998 240.021 345.225 241.534C344.518 242.155 343.73 242.675 342.881 243.08C342.005 243.516 341.061 243.801 340.09 243.924C339.145 244.052 338.183 243.976 337.269 243.7C336.28 243.376 335.403 242.778 334.739 241.975C333.845 240.956 333.149 239.778 332.687 238.503C332.223 237.219 331.896 235.89 331.709 234.538C331.531 233.204 331.456 231.859 331.486 230.514C331.486 229.177 331.59 227.9 331.709 226.706C331.964 224.224 332.408 221.765 333.038 219.351C333.656 216.971 334.548 214.671 335.695 212.497C336.275 211.359 336.939 210.266 337.68 209.226C338.431 208.168 339.427 207.307 340.583 206.717C341.023 206.462 341.514 206.307 342.022 206.265C342.529 206.222 343.039 206.292 343.516 206.471C343.985 206.681 344.404 206.99 344.744 207.377C345.084 207.763 345.337 208.218 345.486 208.711C345.8 209.659 345.947 210.654 345.919 211.653C345.9 212.697 345.729 213.734 345.411 214.729C345.106 215.707 344.629 216.623 344.001 217.432C343.397 218.225 342.608 218.859 341.702 219.276C341.1 219.605 340.533 219.933 340.001 220.262C339.455 220.608 339.05 221.138 338.859 221.755C338.572 222.47 338.545 223.263 338.784 223.995C339.035 224.769 339.51 225.45 340.15 225.951C340.864 226.617 341.794 227.002 342.77 227.034C343.635 227.042 344.486 226.815 345.232 226.377C346.02 225.931 346.737 225.37 347.359 224.712C347.93 224.122 348.447 223.482 348.904 222.801C349.531 221.785 350.032 220.697 350.397 219.56C350.774 218.397 351 217.19 351.068 215.969C351.134 214.733 351.044 213.493 350.8 212.28C350.564 211.06 350.141 209.884 349.546 208.793C348.444 206.588 346.651 204.805 344.441 203.716C342.201 202.72 339.673 202.579 337.336 203.32C334.9 203.911 332.642 205.081 330.754 206.732C328.928 208.349 327.422 210.294 326.314 212.467C325.311 214.458 324.574 216.571 324.12 218.754C323.636 221.033 323.421 223.361 323.478 225.69C323.532 228.045 323.86 230.385 324.455 232.664C325.047 234.942 325.975 237.119 327.209 239.123C327.856 240.18 328.568 241.195 329.344 242.162C330.136 243.141 331.048 244.017 332.06 244.767C333.066 245.508 334.169 246.108 335.336 246.552C336.561 247.009 337.868 247.204 339.172 247.127C341.067 247.015 342.901 246.413 344.493 245.38C346.024 244.408 347.41 243.227 348.613 241.87C350.112 240.17 351.423 238.312 352.524 236.33C353.607 234.36 354.504 232.293 355.203 230.155C355.307 229.879 355.449 229.506 355.613 229.035C355.777 228.596 355.88 228.136 355.919 227.669C355.956 227.251 355.86 226.833 355.643 226.474C355.488 226.275 355.284 226.118 355.052 226.019C354.82 225.92 354.566 225.881 354.315 225.907Z" fill="#8C1C2F" stroke="#8C1C2F" stroke-width="0.46" stroke-linecap="round" stroke-linejoin="round"/>
<path d="M356.083 217.955C356.327 217.71 356.468 217.382 356.479 217.036C356.484 216.705 356.599 216.384 356.807 216.125C357.575 215.184 358.295 214.205 358.964 213.191C359.606 212.198 360.225 211.197 360.815 210.204C361.091 209.719 361.345 209.241 361.561 208.756C361.777 208.27 362.024 207.785 362.24 207.262C362.466 206.738 362.566 206.168 362.529 205.598C362.493 205.029 362.322 204.476 362.031 203.985C361.478 203.012 360.643 202.231 359.635 201.745C358.687 201.271 357.612 201.114 356.568 201.297C356.032 201.416 355.539 201.682 355.144 202.064C354.749 202.446 354.467 202.93 354.329 203.462C354.097 204.138 354.018 204.857 354.098 205.567C354.18 206.314 354.217 207.023 354.225 207.681C354.225 208.681 354.225 209.682 354.18 210.667C354.144 211.669 354.036 212.667 353.859 213.654C353.799 213.93 353.71 214.259 353.59 214.654C353.471 215.05 353.359 215.438 353.262 215.827C353.168 216.197 353.128 216.58 353.143 216.962C353.146 217.31 353.267 217.647 353.486 217.917C353.653 218.12 353.862 218.283 354.1 218.394C354.338 218.505 354.597 218.561 354.859 218.559C355.099 218.58 355.34 218.534 355.555 218.428C355.771 218.321 355.953 218.157 356.083 217.955Z" fill="#8C1C2F" stroke="#8C1C2F" stroke-width="0.46" stroke-linecap="round" stroke-linejoin="round"/>
<path d="M370.599 217.641C370.19 216.934 369.6 216.349 368.89 215.946C368.241 215.591 367.517 215.397 366.778 215.379C366.03 215.366 365.287 215.501 364.591 215.774C363.887 216.045 363.235 216.436 362.666 216.932C361.575 217.849 360.794 219.079 360.427 220.456C360.076 221.845 360.076 223.3 360.427 224.69C360.753 226.185 361.517 227.55 362.621 228.61C363.78 229.679 365.103 230.556 366.539 231.208C367.287 231.559 368.015 231.953 368.718 232.388C369.432 232.8 370.02 233.399 370.42 234.12C370.74 234.735 370.897 235.421 370.875 236.114C370.864 236.792 370.738 237.464 370.502 238.1C370.325 238.568 370.073 239.005 369.755 239.392C369.424 239.787 369.028 240.123 368.584 240.385C368.132 240.654 367.648 240.865 367.143 241.012C366.618 241.163 366.068 241.214 365.524 241.161C364.805 241.126 364.115 240.865 363.554 240.414C363.022 239.99 362.595 239.448 362.307 238.832C362.018 238.228 361.865 237.567 361.86 236.898C361.837 236.26 361.979 235.628 362.27 235.061C362.399 234.832 362.552 234.617 362.725 234.419L363.24 233.836C363.403 233.651 363.541 233.445 363.651 233.224C363.763 232.968 363.806 232.688 363.778 232.41C363.742 231.841 363.491 231.307 363.076 230.917C362.663 230.517 362.137 230.254 361.569 230.165C361.002 230.075 360.42 230.163 359.904 230.417C359.42 230.664 358.985 230.998 358.621 231.402C358.247 231.81 357.94 232.273 357.71 232.776C357.496 233.222 357.34 233.694 357.248 234.18C357.039 235.374 357.168 236.602 357.621 237.726C358.077 238.874 358.772 239.913 359.658 240.773C360.56 241.643 361.643 242.303 362.83 242.707C364.06 243.131 365.387 243.19 366.651 242.878C367.826 242.623 368.924 242.091 369.852 241.325C370.759 240.595 371.508 239.688 372.054 238.66C372.588 237.635 372.906 236.512 372.987 235.36C373.076 234.166 372.89 232.968 372.442 231.858C371.951 230.562 371.152 229.406 370.114 228.49C369.055 227.552 367.805 226.856 366.449 226.452C365.802 226.27 365.188 225.988 364.628 225.615C364.093 225.268 363.619 224.834 363.225 224.331C362.851 223.856 362.577 223.31 362.419 222.726C362.262 222.137 362.224 221.523 362.307 220.919C362.569 219.67 363.226 218.539 364.181 217.693C364.66 217.272 365.237 216.977 365.86 216.835C366.194 216.772 366.538 216.778 366.871 216.852C367.203 216.927 367.517 217.068 367.793 217.268C367.938 217.355 368.064 217.47 368.163 217.608C368.262 217.745 368.331 217.901 368.367 218.067C368.434 218.384 368.434 218.712 368.367 219.03C368.282 219.362 368.146 219.68 367.964 219.971C367.797 220.241 367.599 220.492 367.375 220.717C367.178 220.934 366.916 221.081 366.628 221.135C366.353 221.189 366.087 221.282 365.837 221.412C365.515 221.548 365.236 221.77 365.031 222.054C364.836 222.316 364.706 222.62 364.651 222.942C364.6 223.272 364.623 223.609 364.718 223.928C364.873 224.407 365.17 224.828 365.57 225.134C365.97 225.439 366.454 225.615 366.957 225.638C367.572 225.659 368.181 225.504 368.711 225.19C369.337 224.823 369.885 224.336 370.323 223.756C370.752 223.197 371.065 222.557 371.241 221.875C371.603 220.437 371.38 218.914 370.621 217.641H370.599Z" fill="#8C1C2F" stroke="#8C1C2F" stroke-width="0.46" stroke-linecap="round" stroke-linejoin="round"/>
</svg>
