<svg width="281" height="351" viewBox="0 0 281 351" fill="none" xmlns="http://www.w3.org/2000/svg">
<path d="M152.409 328.708C194.368 328.708 228.383 319.95 228.383 309.148C228.383 298.345 194.368 289.588 152.409 289.588C110.449 289.588 76.4346 298.345 76.4346 309.148C76.4346 319.95 110.449 328.708 152.409 328.708Z" fill="black"/>
<path d="M175.428 326.144C188.045 325.855 198.216 323.103 198.145 319.997C198.074 316.89 187.788 314.605 175.17 314.894C162.553 315.182 152.382 317.934 152.453 321.041C152.524 324.147 162.81 326.432 175.428 326.144Z" fill="black"/>
<path d="M127.005 307.042C144.721 306.26 159.019 304.167 158.939 302.369C158.859 300.57 144.433 299.745 126.717 300.528C109.001 301.31 94.7032 303.402 94.7827 305.201C94.8622 307 109.289 307.824 127.005 307.042Z" fill="black"/>
<path d="M113.456 190.268L113.087 198.419C113.087 198.419 125.49 203.185 152.029 202.579C178.568 201.973 184.986 197.119 184.986 197.119V189.925L113.456 190.268Z" fill="white"/>
<path d="M64.867 140.92L88.2291 121.42C88.2291 121.42 91.4788 122.582 94.0286 124.483C95.6355 125.692 97.1481 127.022 98.5532 128.461L92.4336 177.445C92.4336 177.445 77.2232 163.366 71.5095 154.341C65.7959 145.317 64.3154 142.246 64.3154 142.246L64.867 140.92Z" fill="#C18B1E"/>
<path d="M98.4521 53.534L129.87 41.6702L130.265 40.989L114.732 41.0696L98.4521 53.534Z" fill="#C18B1E"/>
<path d="M115.299 40.989L131.082 40.7524V34.8556L117.875 34.45L116.046 37.7182L115.299 40.989Z" fill="#8C1C2F" stroke="#8C1C2F" stroke-width="0.46" stroke-linecap="round" stroke-linejoin="round"/>
<path d="M118.85 32.942C118.85 32.942 122.888 26.78 126.9 26.702C130.912 26.624 133.946 31.499 133.946 31.499C133.946 31.499 132.479 33.4568 132.171 33.995C132.069 34.1565 131.93 34.2926 131.767 34.393C131.604 34.4934 131.42 34.5556 131.23 34.5748L118.194 34.4526L118.85 32.942Z" fill="#C18B1E"/>
<path d="M135.986 39.8346C136.338 39.445 136.665 39.0333 136.964 38.6022C136.964 38.6022 135.945 35.5446 135.38 33.8468C134.815 32.149 134.214 31.889 134.214 31.889C133.054 32.5433 132.185 33.6112 131.779 34.879C131.082 37.024 131.23 40.3806 131.23 40.3806L133.946 41.08" fill="#C18B1E"/>
<path d="M135.853 40.534C136.691 40.534 136.693 39.234 135.853 39.234C135.013 39.234 135.015 40.534 135.853 40.534Z" fill="black"/>
<path d="M138.349 38.48C140.147 37.869 141.882 37.0854 143.529 36.14C145.785 34.7646 147.237 30.7788 145.246 29.848C143.256 28.9172 141.544 31.1142 140.043 33.1188C138.541 35.1234 136.887 35.5888 136.887 35.5888L138.349 38.48Z" fill="black"/>
<path d="M114.222 51.974L117.763 63.5492L119.797 64.103C119.797 64.103 122.069 62.9434 124.398 62.6808C125.758 62.5256 127.126 62.4449 128.495 62.439C128.495 62.439 136.821 59.1708 139.944 58.8406C141.727 58.6626 143.498 58.3752 145.246 57.98L144.068 55.0732C144.068 55.0732 153.156 53.989 152.245 45.409C151.334 36.829 140.537 38.2434 139.075 41.4362C137.612 44.629 137.563 45.409 137.563 45.409L135.063 44.7408L126.661 47.2602C126.661 47.2602 124.096 45.305 122.064 46.1058C120.032 46.9066 121.023 49.894 121.023 49.894L114.222 51.974Z" fill="#00EFBF"/>
<path d="M120.758 48.36L124.21 59.254L128.959 57.629L124.97 45.8016L120.758 46.839V48.36Z" fill="#00EFBF"/>
<path d="M114.911 47.6996L119.805 46.2332L120.698 49.66C120.698 49.66 118.163 50.5076 116.634 50.3022C115.104 50.0968 114.911 47.6996 114.911 47.6996Z" fill="white"/>
<path d="M125.063 43.9088L131.828 41.3348C131.828 41.3348 133.551 45.4454 129.952 46.2332C125.446 47.216 125.063 43.9088 125.063 43.9088Z" fill="white"/>
<path d="M116.462 47.2342C116.462 47.2342 116.517 49.0074 118.835 48.2482C121.153 47.489 119.079 46.1058 119.079 46.1058L116.462 47.2342Z" fill="#72F7B4"/>
<path d="M116.634 47.2732C116.634 47.2732 116.803 49.0932 118.575 48.438C119.616 48.0454 118.851 46.2982 118.851 46.2982L116.634 47.2732Z" fill="black"/>
<path d="M126.9 43.2094C126.9 43.2094 127.262 44.8682 128.649 44.5094C130.036 44.1506 129.507 42.302 129.507 42.302L126.9 43.2094Z" fill="black"/>
<path d="M154.077 60.3954L201.244 32.2946C201.244 32.2946 206.968 28.8496 211.742 32.708C216.516 36.5664 213.285 42.601 210.543 44.148C207.8 45.695 154.782 73.4994 154.782 73.4994L154.077 60.3954Z" fill="white"/>
<path d="M85.5937 109.606L121.328 90.909L118.198 81.8246L80.8193 103.766L81.9954 106.454L85.5937 109.606Z" fill="white"/>
<path d="M41.0701 127.699L38.9886 128.612C38.9886 128.612 36.7224 125.915 33.2099 127.174C29.6974 128.432 32.8352 135.093 34.3677 137.355C35.9002 139.617 40.2609 141.515 41.6529 138.091C42.3379 136.464 42.3733 134.637 41.7518 132.985L44.0518 131.451L41.0701 127.699Z" fill="white"/>
<path d="M122.027 88.9746L115.377 68.289L117.458 66.729L117.214 66.014C117.214 66.014 118.405 64.194 121.798 63.232C123.846 62.6492 125.968 62.3689 128.097 62.4C128.097 62.4 134.93 59.709 140.62 58.8406C146.31 57.9722 150.559 57.759 150.559 57.759C150.559 57.759 152.034 61.9606 152.664 64.779C153.294 67.5974 153.51 74.36 153.619 75.3506C153.728 76.3412 154.228 79.9474 154.228 79.9474C154.228 79.9474 160.974 80.1294 175.495 85.7558C190.016 91.3822 187.37 91.7358 187.37 91.7358C187.37 91.7358 179.768 98.3138 178.16 108.035C176.552 117.757 175.88 125.975 178.568 139.755C181.256 153.535 188.174 166.777 188.174 166.777C188.174 166.777 185.419 175.617 184.792 179.748C184.165 183.88 183.345 189.935 183.345 189.935C183.345 189.935 161.945 194.826 141.931 194.441C121.918 194.056 112.4 189.925 112.4 189.925L102.058 186.68L99.3469 185.468C99.3469 185.468 97.2498 154.833 97.6869 147.573C98.124 140.314 98.2073 124.392 98.2073 124.392L101.467 112.692L103.445 103.852L122.027 88.9746Z" fill="#C18B1E"/>
<path d="M79.0028 137.665C79.0028 137.665 87.5238 132.499 87.1674 119.699C86.8109 106.899 79.5674 107.188 79.5674 107.188C79.5674 107.188 78.2665 97.2764 70.5884 96.7356C62.9103 96.1948 65.7333 108.61 65.7333 108.61L64.4897 101.59C64.4897 101.59 62.1792 100.03 59.1871 101.99C56.195 103.951 57.3007 107.9 57.3007 107.9C57.3007 107.9 55.175 104.601 50.9132 107.507C46.6514 110.414 49.3287 117.445 49.3287 117.445C49.3287 117.445 48.8551 113.867 47.4944 113.682C46.1336 113.498 39.6472 112.564 41.0262 122.993C42.4051 133.422 52.2141 134.573 52.2141 134.573L53.3771 134.81C53.3771 134.81 58.3207 140.379 66.9068 140.735C75.4929 141.092 79.0028 137.665 79.0028 137.665Z" fill="#00EFBF"/>
<path d="M183.555 160.719C183.555 160.719 175.071 126.079 177.701 111.839C180.823 94.939 188.28 91.9048 188.28 91.9048C188.28 91.9048 210.779 102.235 226.155 128.96C241.532 155.685 240.973 174.775 236.217 192.117C231.731 208.468 225.747 214.448 225.747 214.448C225.747 214.448 221.186 219.071 206.652 216.486C192.118 213.902 185.465 209.167 184.51 201.926C183.555 194.685 183.597 186.196 184.638 181.168C185.678 176.14 183.555 160.719 183.555 160.719Z" fill="#C18B1E"/>
<path d="M97.4633 154.957L106.38 155.064L104.199 160.976H94.9629L96.6957 154.957H97.4633Z" fill="#8C1C2F" stroke="#8C1C2F" stroke-width="0.46" stroke-linecap="round" stroke-linejoin="round"/>
<path d="M100.208 164.099L100.331 161.801H106.239V176.579C106.239 176.579 107.233 182.039 101.423 182.211C95.6135 182.382 95.819 177.234 95.7436 175.971C95.6681 174.707 95.4834 161.52 95.4834 161.52H96.6074C96.6074 161.52 96.303 164.229 96.6516 164.229C97.0003 164.229 100.208 164.099 100.208 164.099Z" fill="#8C1C2F" stroke="#8C1C2F" stroke-width="0.46" stroke-linecap="round" stroke-linejoin="round"/>
<path d="M99.8182 115.349L108.274 115.38V134.134C108.274 136.669 106.453 140.686 102.615 140.756C98.7774 140.826 97.0498 140.496 97.0498 140.496L99.2015 122.437L99.2328 120.897L98.6812 120.476C98.6812 120.476 98.7124 117.616 99.009 116.836C99.2303 116.316 99.5013 115.818 99.8182 115.349Z" fill="#8C1C2F" stroke="#8C1C2F" stroke-width="0.46" stroke-linecap="round" stroke-linejoin="round"/>
<path d="M138.91 116.129H166.329L166.555 121.329H165.202V135.759C165.202 135.759 165.644 140.374 160.115 141.024C154.587 141.674 144.895 141.089 144.895 141.089C144.895 141.089 139.886 140.959 139.756 132.899C139.626 124.839 139.821 121.329 139.821 121.329L138.78 121.004L138.91 116.129Z" fill="#8C1C2F" stroke="#8C1C2F" stroke-width="0.46" stroke-linecap="round" stroke-linejoin="round"/>
<path d="M138.814 162.539V156.494H175.37V162.539H139.106" fill="#8C1C2F"/>
<path d="M138.814 162.539V156.494H175.37V162.539H139.106" stroke="#8C1C2F" stroke-width="0.46" stroke-linecap="round" stroke-linejoin="round"/>
<path d="M163.368 163.431H174.035V178.789C174.035 178.789 175.076 185.939 165.579 185.939C156.083 185.939 144.936 185.598 144.936 185.598C144.936 185.598 139.951 184.379 139.951 178.529V163.935H152.31V165.656H161.952V163.935L163.368 163.431Z" fill="#8C1C2F" stroke="#8C1C2F" stroke-width="0.46" stroke-linecap="round" stroke-linejoin="round"/>
<path d="M152.334 162.796H161.953V165.656H152.311L152.334 162.796Z" fill="white"/>
<path d="M96.8702 161.239L100.331 161.216L100.208 164.099L96.6543 164.229L96.8702 161.239Z" fill="white"/>
<path d="M190.838 215.28C190.838 215.28 185.429 240.432 202.531 245.812C219.633 251.191 223.114 241.067 223.114 241.067L223.554 236.759C223.554 236.759 227.694 234.775 227.681 231.852V228.93C227.681 228.93 228.901 224.424 227.134 222.131C225.368 219.838 223.533 219.115 223.533 219.115L221.92 217.266C216.236 218.141 210.439 217.978 204.813 216.785C195.772 214.791 191.645 214.185 191.645 214.185L190.838 215.28Z" fill="#00EFBF"/>
<path d="M146.781 206.739L151.358 229.164L165.038 276.851C165.038 276.851 169.701 281.83 180.683 280.813C191.666 279.796 195.566 274.339 195.566 274.339L187.5 248.685L190.922 214.193L183.277 200.759L146.781 206.739Z" fill="black"/>
<path d="M121.275 204.129L120.112 235.425L130.353 267.579C130.353 267.579 137.084 271.765 142.103 270.85C145.338 270.222 148.494 269.241 151.514 267.925L150.559 224.939L146.456 205.504L121.275 204.129Z" fill="black"/>
<path d="M184.731 282.1L188.416 296.709H187.635C187.635 296.709 185.338 294.7 183.777 293.441C182.215 292.183 181.911 292.071 181.911 292.071C181.911 292.071 182.78 289.146 182.606 287.911C182.431 286.676 180.904 284.955 179.137 284.427C178.225 284.144 177.298 283.908 176.361 283.72L176.642 282.864L184.731 282.1Z" fill="white"/>
<path d="M137.118 278.629C138.502 280.301 140.472 281.381 142.626 281.65C146.18 282.051 146.024 278.304 146.024 278.304L144.663 270.85L135.999 270.59L137.118 278.629Z" fill="white"/>
<path d="M119.506 59.2098C120.626 59.2098 121.533 58.303 121.533 57.1844C121.533 56.0658 120.626 55.159 119.506 55.159C118.387 55.159 117.479 56.0658 117.479 57.1844C117.479 58.303 118.387 59.2098 119.506 59.2098Z" fill="#8C1C2F" stroke="#8C1C2F" stroke-width="0.46" stroke-linecap="round" stroke-linejoin="round"/>
<path d="M133.491 54.3348C134.61 54.3348 135.518 53.428 135.518 52.3094C135.518 51.1908 134.61 50.284 133.491 50.284C132.371 50.284 131.464 51.1908 131.464 52.3094C131.464 53.428 132.371 54.3348 133.491 54.3348Z" fill="#8C1C2F" stroke="#8C1C2F" stroke-width="0.46" stroke-linecap="round" stroke-linejoin="round"/>
<path d="M142.878 203.099L146.911 203.229" stroke="black" stroke-miterlimit="10"/>
<path d="M152.735 119.964C153.436 119.964 154.004 119.411 154.004 118.729C154.004 118.047 153.436 117.494 152.735 117.494C152.033 117.494 151.465 118.047 151.465 118.729C151.465 119.411 152.033 119.964 152.735 119.964Z" fill="white" stroke="black" stroke-miterlimit="10"/>
<path d="M100.046 118.924C100.532 118.924 100.926 118.356 100.926 117.655C100.926 116.954 100.532 116.386 100.046 116.386C99.5607 116.386 99.167 116.954 99.167 117.655C99.167 118.356 99.5607 118.924 100.046 118.924Z" fill="white" stroke="black" stroke-miterlimit="10"/>
<path d="M209.79 43.199L209.709 43.2172C210.5 42.4162 211.036 41.3994 211.25 40.2946C211.464 39.1898 211.346 38.0465 210.912 37.0085C210.477 35.9704 209.745 35.0841 208.807 34.4609C207.87 33.8377 206.769 33.5055 205.642 33.5062C204.427 33.5062 202.26 34.4682 202.26 34.4682L154.326 61.529L156.278 71.539C156.278 71.539 208.97 43.914 209.553 43.368L209.79 43.199Z" fill="black"/>
<path d="M205.557 38.9168C207.936 38.9168 209.865 37.6491 209.865 36.0854C209.865 34.5216 207.936 33.254 205.557 33.254C203.177 33.254 201.248 34.5216 201.248 36.0854C201.248 37.6491 203.177 38.9168 205.557 38.9168Z" fill="white"/>
<path d="M198.777 41.6364C200.174 41.6364 201.306 40.8856 201.306 39.9594C201.306 39.0332 200.174 38.2824 198.777 38.2824C197.38 38.2824 196.248 39.0332 196.248 39.9594C196.248 40.8856 197.38 41.6364 198.777 41.6364Z" fill="white"/>
<path d="M116.795 84.084C116.535 84.279 95.624 96.694 95.624 96.694L99.6881 102.219L120.893 91.039L116.795 84.084Z" fill="black"/>
<path d="M95.46 95.199C95.46 95.199 95.6239 97.0606 97.1512 99.294C98.7773 101.665 99.8831 102.25 99.8831 102.25" stroke="black" stroke-width="3" stroke-linecap="round" stroke-linejoin="round"/>
<path d="M100.171 100.62C100.171 100.62 99.2842 100.994 99.586 101.496C99.8878 101.998 100.609 101.449 100.609 101.449C100.609 101.449 99.9269 101.969 99.893 101.951C99.8592 101.933 98.9434 101.114 98.9434 101.114L100.171 100.62Z" fill="black"/>
<path d="M96.3806 94.9624C96.3806 94.9624 95.8108 95.2874 95.9721 95.8152C96.1334 96.343 96.8671 95.9608 96.8671 95.9608L96.0866 96.499L95.7197 95.2224L96.3806 94.9624Z" fill="black"/>
<path d="M151.334 82.199L180.735 100.485L187.414 92.599C187.414 92.599 182.556 87.0506 168.506 83.239C154.456 79.4274 154.805 80.119 154.805 80.119L151.334 82.199Z" fill="#68523C"/>
<path d="M177.613 113.659C177.613 113.659 185.939 105.339 190.362 102.479C194.786 99.619 197.908 98.579 197.908 98.579C197.908 98.579 193.224 93.639 189.582 93.379C185.939 93.119 181.951 98.059 179.955 102.825C177.959 107.591 177.613 113.659 177.613 113.659Z" fill="#68523C"/>
<path d="M120.851 49.2648C120.633 49.309 118.77 50.7806 117.424 50.4348C116.079 50.089 114.607 47.9648 114.607 47.9648L113.392 48.659L114.713 53.534C114.713 53.534 115.301 52.1664 121.111 49.894L120.851 49.2648Z" fill="black"/>
<path d="M125.797 48.2482C132.562 46.033 137.328 45.019 137.328 45.019L137.979 43.1106C137.979 43.1106 138.325 42.159 138.283 42.029C138.242 41.899 137.198 39.429 137.024 39.429C136.85 39.429 131.82 41.3348 131.82 41.3348C131.82 41.3348 132.385 45.799 129.393 46.4048C126.401 47.0106 124.535 44.239 124.535 44.239L125.797 48.2482Z" fill="black"/>
<path d="M137.118 35.4952L139.07 38.4852L137.053 38.974C137.053 38.974 136.077 35.724 136.174 35.6902C136.27 35.6564 137.118 35.4952 137.118 35.4952Z" fill="black"/>
<path d="M138.229 35.2144C138.1 35.2892 137.988 35.3908 137.902 35.5124C137.816 35.634 137.757 35.7726 137.729 35.919C137.75 36.2374 137.838 36.5477 137.989 36.829L136.904 35.594L138.229 35.2144Z" fill="black"/>
<path d="M138.349 37.3906C138.503 37.6231 138.739 37.7893 139.01 37.856C139.328 37.9017 139.654 37.8613 139.951 37.739L138.76 38.454L138.349 37.3906Z" fill="black"/>
<path d="M127.512 41.249C127.512 41.249 128.899 41.2646 128.912 41.5558C128.927 41.9302 128.001 42.2708 128.001 42.2708C128.001 42.2708 131.755 41.08 131.69 41.08C131.625 41.08 127.512 41.249 127.512 41.249Z" fill="black"/>
<path d="M129.757 34.9258C130.141 34.9923 130.501 35.1612 130.798 35.4146C131.154 35.789 130.943 36.8108 130.943 36.8108C130.943 36.8108 131.625 34.7802 131.56 34.814C131.495 34.8478 129.757 34.9258 129.757 34.9258Z" fill="black"/>
<path d="M132.896 33.384C132.896 33.384 133.382 32.7496 133.837 32.7158C134.293 32.682 134.683 33.5296 134.683 33.5296L133.936 31.889L132.896 33.384Z" fill="black"/>
<path d="M119.756 32.2946C119.756 32.2946 119.251 33.1396 119.496 33.6908C119.74 34.242 120.552 34.1796 120.552 34.1796L118.275 34.3096L119.756 32.2946Z" fill="black"/>
<path d="M116.178 38.2902C116.178 38.2902 115.684 39.6162 116.113 40.2246C116.649 40.989 118.195 40.794 118.195 40.794L114.742 41.08L116.178 38.2902Z" fill="black"/>
<path d="M136.213 37.401C136.289 37.8341 136.232 38.2802 136.049 38.6802C135.809 39.0653 135.468 39.3767 135.062 39.5798C135.062 39.5798 136.949 39.104 136.907 39.091C136.866 39.078 136.213 37.401 136.213 37.401Z" fill="black"/>
<path d="M121.348 49.66C121.348 49.66 120.503 47.3954 122.758 46.6362C124.4 46.085 125.36 48.1754 125.36 48.1754L124.796 44.72L124.179 44.135L119.686 46.02L121.348 49.66Z" fill="black"/>
<path d="M118.851 50.8274C118.851 50.8274 119.826 50.4322 120.443 50.6714C121.114 50.9314 121.393 52.0598 121.393 52.0598L120.797 49.9408L118.851 50.8274Z" fill="black"/>
<path d="M127.507 47.6996C127.33 47.7888 127.175 47.9148 127.051 48.0691C126.927 48.2233 126.838 48.4023 126.789 48.594C126.705 49.0935 126.718 49.6044 126.825 50.0994L125.967 48.0506L127.507 47.6996Z" fill="black"/>
<path d="M134.423 45.6898C134.423 45.6898 135.984 45.4298 136.567 45.9498C137.15 46.4698 137.111 47.4734 137.111 47.4734C137.111 47.4734 137.371 44.7408 137.303 44.7408C137.235 44.7408 134.423 45.6898 134.423 45.6898Z" fill="black"/>
<path d="M141.281 54.5818C141.281 54.5818 141.666 55.5984 143.087 56.2822C144.297 56.8646 144.7 56.7892 144.7 56.7892L144.068 55.0732L141.281 54.5818Z" fill="black"/>
<path d="M144.086 56.5968C144.086 56.5968 144.367 57.3326 144.015 57.681C143.664 58.0294 142.579 58.2244 142.579 58.2244C142.579 58.2244 145.181 58.0684 145.103 58.0502C145.025 58.032 144.583 56.5266 144.523 56.5448C144.463 56.563 144.086 56.5968 144.086 56.5968Z" fill="black"/>
<path d="M117.833 62.4754C117.833 62.4754 118.137 63.1852 119.23 63.3282C120.323 63.4712 120.757 63.2346 120.757 63.2346L118.346 64.7426L117.833 62.4754Z" fill="black"/>
<path d="M123.963 59.566C123.963 59.566 124.933 60.4058 127.392 59.7038C129.393 59.1318 129.393 57.759 129.351 57.759C129.31 57.759 123.963 59.566 123.963 59.566Z" fill="black"/>
<path d="M116.303 69.9998C116.567 69.8867 116.851 69.8284 117.137 69.8284C117.424 69.8284 117.708 69.8867 117.971 69.9998C118.84 70.3898 119.792 72.644 119.792 72.644L117.451 67.0956L115.588 68.224L116.303 69.9998Z" fill="black"/>
<path d="M129.45 40.4118C129.846 40.3954 130.226 40.2503 130.533 39.9984C130.84 39.7384 130.845 38.8778 130.845 38.8778C130.845 38.8778 131.105 40.4664 131.079 40.4664L129.45 40.4118Z" fill="black"/>
<path d="M131.628 39.26C131.628 39.26 131.693 39.962 132.13 40.1622C132.342 40.2776 132.583 40.3308 132.824 40.3156L131.523 40.4352L131.628 39.26Z" fill="black"/>
<path d="M122.909 90.519L103.275 105.89L105.412 99.554L122.909 90.519Z" fill="black"/>
<path d="M115.996 83.0596L120.692 91.3224L122.698 90.493L119.568 81.0576L115.996 83.0596Z" fill="black"/>
<path d="M82.6797 102.713C82.534 102.812 81.9486 104.598 83.5123 106.613C85.3336 108.953 89.6267 107.346 89.6267 107.346L84.5401 110.183C84.5401 110.183 83.6112 108.521 82.0943 107.983C81.3373 107.732 80.6013 107.422 79.8931 107.055L79.0605 104.658L82.4794 102.762" fill="black"/>
<path d="M57.1426 119.678C57.1426 119.678 56.8355 123.188 60.0748 124.969C64.9689 127.657 70.2221 125.554 70.2221 125.554C70.2221 125.554 70.451 129.064 73.0841 130.234C75.7172 131.404 77.3902 130.673 77.3902 130.673C77.3902 130.673 73.0347 129.061 72.2047 126.079C71.3747 123.097 71.6661 122.119 71.6661 122.119C71.6661 122.119 67.7035 123.939 64.4746 123.976C61.2457 124.012 58.1157 120.994 58.1157 120.994L57.1426 119.678Z" fill="black"/>
<path d="M64.2871 101.686C64.2039 103.908 64.4342 106.13 64.9714 108.287C65.8508 111.667 66.3399 112.343 66.3399 112.343C66.3399 112.343 68.0051 111.366 67.8568 111.366C67.7085 111.366 65.9991 107.505 65.4111 105.599C65.0532 104.406 64.8881 103.165 64.9219 101.92L64.2871 101.686Z" fill="black"/>
<path d="M56.692 106.964C56.6224 109.068 56.6876 111.174 56.8871 113.269C57.2123 115.999 57.4725 116.779 57.4725 116.779L58.9035 115.739C58.9035 115.739 57.6677 112.294 57.5376 110.084C57.4075 107.874 57.2774 106.899 57.2774 106.899L56.692 106.964Z" fill="black"/>
<path d="M59.8145 124.384C60.0547 125.315 60.499 126.181 61.1154 126.919C61.5802 127.437 62.1933 127.801 62.8716 127.959L63.8473 126.854L63.9124 125.814L59.8145 124.384Z" fill="black"/>
<path d="M47.9111 114.179C47.9111 114.179 48.1713 118.924 49.9276 122.889C51.6838 126.854 55.6516 130.364 55.6516 130.364C55.6516 130.364 55.6516 128.479 54.8711 127.894C54.0905 127.309 52.0741 125.034 50.9033 122.304C49.7324 119.574 48.5616 114.374 48.5616 114.374L47.9111 114.179Z" fill="black"/>
<path d="M41.3408 127.374C41.3408 127.374 41.8612 129.194 42.2515 130.169C42.6417 131.144 43.032 131.989 43.032 131.989L44.8533 131.209C44.8533 131.209 43.4223 129.129 42.967 128.414C42.5117 127.699 42.1214 126.984 42.1214 126.984L41.3408 127.374Z" fill="black"/>
<path d="M54.2207 135.824C54.2207 135.824 56.9526 134.784 56.9526 132.184C56.9526 129.584 55.5216 128.284 55.5216 128.284C55.5216 128.284 56.3022 130.689 55.4566 132.314C54.611 133.939 52.7246 134.784 52.7246 134.784L54.2207 135.824Z" fill="black"/>
<path d="M56.2366 129.389C56.2366 129.389 59.1741 132.197 62.351 130.949C66.3188 129.389 64.8878 125.684 64.8878 125.684C64.8878 125.684 63.0665 128.934 60.5297 129.194C57.9929 129.454 55.4561 128.024 55.4561 128.024L56.2366 129.389Z" fill="black"/>
<path d="M154.457 60.164L157.319 71.864C157.319 71.864 153.611 74.139 153.611 73.944C153.611 73.749 153.156 68.549 152.831 65.949L152.245 61.269L154.457 60.164Z" fill="black"/>
<path d="M158.381 58.1256C158.381 58.1256 156.021 59.6856 155.602 61.3522C155.266 62.6938 155.722 65.3848 155.722 65.3848L154.077 60.3954L158.381 58.1256Z" fill="black"/>
<path d="M156.049 66.8798C156.049 66.8798 157.056 69.6956 158.531 70.1064C159.816 70.4652 161.851 69.3602 161.851 69.3602L161.88 69.6878L157.152 72.137L156.111 67.977L156.049 66.8798Z" fill="black"/>
<path d="M113.701 84.7158C113.701 84.7158 114.903 84.019 116.043 84.3596C116.904 84.6196 117.539 85.7558 117.539 85.7558L116.238 82.9348L113.701 84.7158Z" fill="black"/>
<path d="M117.755 92.3702C117.755 92.3702 119.87 91.2002 119.576 90.1056C119.266 89.12 118.871 88.1631 118.395 87.2456C118.395 87.2456 121.418 90.9038 121.332 90.9038C121.247 90.9038 117.755 92.3702 117.755 92.3702Z" fill="black"/>
<path d="M66.9932 108.61C66.9932 108.61 67.5656 109.491 68.3799 109.78C69.1163 110.04 70.092 109.411 70.092 109.411L67.9246 111.145L66.9932 108.61Z" fill="black"/>
<path d="M77.6367 106.681C77.8358 106.647 78.0249 106.569 78.1901 106.453C78.3553 106.337 78.4925 106.186 78.5916 106.01C78.7347 105.607 78.7189 105.166 78.5474 104.775L79.5673 106.92L77.6367 106.681Z" fill="black"/>
<path d="M65.3224 109.606C65.3224 109.606 65.9937 111.08 65.3224 111.969C64.6511 112.858 64.0215 113.009 64.0215 113.009L66.4074 112.229L65.3224 109.606Z" fill="black"/>
<path d="M58.6436 113.16C58.6436 113.16 58.948 114.2 59.7077 114.351C60.1223 114.451 60.5591 114.405 60.9436 114.221L58.9272 115.349L58.6436 113.16Z" fill="black"/>
<path d="M63.1396 101.457C63.4842 101.638 63.7893 101.885 64.0373 102.185C64.2636 102.534 64.2793 103.337 64.2793 103.337C64.2793 103.337 64.5394 101.777 64.477 101.79C64.4146 101.803 63.1396 101.457 63.1396 101.457Z" fill="black"/>
<path d="M55.0576 106.6C55.0576 106.6 56.0801 106.86 56.4106 107.541C56.6022 107.938 56.701 108.374 56.6994 108.815C56.6994 108.815 56.9726 106.995 56.8971 107.011C56.8217 107.026 55.0576 106.6 55.0576 106.6Z" fill="black"/>
<path d="M46.834 113.919C47.1753 114.032 47.4794 114.236 47.7134 114.509C47.9033 114.788 48.0138 115.113 48.0334 115.45L48.1401 114.15L46.834 113.919Z" fill="black"/>
<path d="M40.3291 128.248C40.6976 128.21 41.0674 128.307 41.3698 128.521C41.6985 128.765 41.9255 129.123 42.0073 129.524L41.4869 127.382L40.3291 128.248Z" fill="black"/>
<path d="M42.3738 130.465C42.3738 130.465 42.634 131.245 42.405 131.708C42.2436 131.997 42.0206 132.246 41.752 132.439L43.2714 131.846L42.3738 130.465Z" fill="black"/>
<path d="M36.8449 127.611C36.8449 127.611 36.2829 127.444 36.1007 127.642C35.9186 127.839 36.4052 128.216 36.4052 128.216C36.4052 128.216 34.3081 127.278 34.3705 127.262C34.433 127.247 35.7365 127.093 36.2673 127.231C36.798 127.369 36.8449 127.611 36.8449 127.611Z" fill="black"/>
<path d="M41.0398 136.188C41.0398 136.188 41.1439 137.189 41.4197 137.189C41.6955 137.189 41.7995 136.066 41.7995 136.066C41.7995 136.066 42.0259 136.643 41.646 137.6C41.2661 138.557 40.751 138.723 40.751 138.676C40.751 138.629 41.0398 136.188 41.0398 136.188Z" fill="black"/>
<path d="M87.1621 125.26C87.1621 125.26 87.2922 123.214 88.463 122.855C89.6339 122.496 91.2262 123.279 91.2262 123.279L87.3624 120.9L87.1621 125.26Z" fill="black"/>
<path d="M68.1405 141.44C68.1405 141.44 66.2542 141.245 65.6375 142.189C65.0209 143.133 66.0278 144.95 66.0278 144.95L65.3773 144.594L63.6211 140.725L68.1405 141.44Z" fill="black"/>
<path d="M139.845 121.329H165.385V124.535H139.886L139.845 121.329Z" fill="black"/>
<path d="M140.211 126.961C140.211 126.961 140.125 125.77 141.015 125.141C141.824 124.569 143.203 124.535 143.203 124.535C143.203 124.535 139.951 124.275 139.951 124.34C139.951 124.405 140.211 126.961 140.211 126.961Z" fill="black"/>
<path d="M164.942 126.961C164.942 126.961 165.028 125.77 164.138 125.141C163.329 124.569 161.95 124.535 161.95 124.535C161.95 124.535 165.203 124.275 165.203 124.34C165.203 124.405 164.942 126.961 164.942 126.961Z" fill="black"/>
<path d="M140.797 139.36C140.797 139.36 142.847 143.294 148.116 143.325C153.385 143.356 158.393 143.325 158.393 143.325C158.393 143.325 161.677 143.455 163.011 141.83C164.346 140.205 165.189 137.769 165.189 137.769C165.189 137.769 163.011 140.335 161.711 140.824C160.41 141.313 146.034 141.245 146.034 141.245C146.034 141.245 143.334 141.019 142.163 140.499C140.992 139.979 140.797 139.36 140.797 139.36Z" fill="black"/>
<path d="M107.624 138.32C107.624 138.32 106.096 141.279 103.429 141.799C101.898 142.108 100.339 142.261 98.7773 142.254L98.9413 140.369C100.394 140.55 101.868 140.473 103.294 140.14C105.667 139.589 106.872 138.809 106.872 138.809L107.624 138.32Z" fill="black"/>
<path d="M99.2324 121.436H108.318C108.318 121.436 108.448 116.236 108.339 116.28C108.23 116.324 106.302 120.591 106.302 120.591L99.2975 120.614L99.2324 121.436Z" fill="black"/>
<path d="M95.6553 126.116C95.6553 126.116 97.1748 127.546 97.5 128.674C97.6949 129.46 97.746 130.275 97.6509 131.079C97.6509 131.079 98.2155 127.785 98.1504 127.785C98.0854 127.785 95.6553 126.116 95.6553 126.116Z" fill="black"/>
<path d="M106.127 121.436C106.127 121.436 107.038 121.501 107.558 122.044C108.078 122.587 108.037 123.711 108.037 123.711L108.273 121.176L106.127 121.436Z" fill="black"/>
<path d="M97.2161 127.959C95.0402 135.69 93.3457 143.548 92.1425 151.489C90.061 165.009 89.1504 173.849 89.1504 173.849L97.6064 181.909C97.6064 181.909 96.5006 178.074 95.7851 175.344C95.0696 172.614 95.9803 160.979 95.9803 160.979L95.4599 160.654C95.5403 159.446 95.7364 158.249 96.0453 157.079C96.5006 155.584 97.086 154.999 97.086 154.999L98.2569 154.869L98.9073 140.634L97.9316 140.114L98.1268 128.479L97.2161 127.959Z" fill="black"/>
<path d="M139.887 162.604H152.246C152.246 162.604 152.441 164.26 152.246 164.26H139.952L139.887 162.604Z" fill="black"/>
<path d="M161.755 162.604H174.114C174.114 162.604 174.309 164.26 174.114 164.26H161.82L161.755 162.604Z" fill="black"/>
<path d="M152.57 163.28C152.669 163.215 161.872 163.28 161.872 163.28C161.872 163.28 162.052 162.419 161.872 162.599C161.692 162.778 152.474 162.469 152.344 162.599C152.214 162.729 152.57 163.28 152.57 163.28Z" fill="black"/>
<path d="M140.341 167.024C140.341 167.024 140.297 165.68 140.961 164.944C141.546 164.294 143.073 164.229 143.073 164.229C143.073 164.229 140.016 163.969 140.05 164.065C140.084 164.161 140.341 167.024 140.341 167.024Z" fill="black"/>
<path d="M171.143 164.26C171.143 164.26 172.605 164.294 173.19 165.074C173.711 165.753 173.809 167.38 173.809 167.38C173.809 167.38 174.135 163.87 174.005 163.935C173.875 164 171.143 164.26 171.143 164.26Z" fill="black"/>
<path d="M140.667 182.689C140.667 182.689 142.098 187.629 146.326 188.214C150.554 188.799 165.124 188.344 165.124 188.344C165.124 188.344 169.678 188.604 171.109 187.304C172.93 185.658 173.385 182.884 173.385 182.884C173.385 182.884 171.109 185.159 168.637 185.744C166.165 186.329 148.212 185.744 148.212 185.744C148.212 185.744 145.48 186.004 143.529 185.289C141.578 184.574 140.667 182.689 140.667 182.689Z" fill="black"/>
<path d="M95.9591 162.409H96.6096V161.216H95.7432L95.9591 162.409Z" fill="black"/>
<path d="M100.208 162.474H106.127V156.819C106.127 156.819 104.09 160.979 104.069 160.914C104.048 160.849 100.208 160.914 100.208 160.914V162.474Z" fill="black"/>
<path d="M96.8701 161.801H100.253C100.253 161.801 100.427 161.239 100.253 161.239H96.8701V161.801Z" fill="black"/>
<path d="M105.649 180.573C105.649 180.573 105.295 183.144 102.831 184.064C100.367 184.985 99.498 184.795 99.498 184.795V182.413C99.498 182.413 102.966 182.523 104.158 181.818C105.35 181.113 105.649 180.573 105.649 180.573Z" fill="black"/>
<path d="M184.675 90.3318C184.675 90.3318 185.905 91.0286 186.085 91.91C186.254 92.729 185.245 93.8444 185.245 93.8444C185.245 93.8444 188.107 91.8658 188.023 91.8658C187.94 91.8658 184.675 90.3318 184.675 90.3318Z" fill="black"/>
<path d="M177.881 108.745C177.881 108.745 173.828 130.562 178.173 150.345C181.776 166.764 186.033 173.623 186.033 173.623C186.033 173.623 186.907 169.26 187.633 167.96C188.117 167.104 188.652 166.279 189.236 165.487C189.236 165.487 183.171 153.062 180.064 140.603C175.105 120.819 177.881 108.745 177.881 108.745Z" fill="black"/>
<path d="M184.377 184.379C184.377 184.379 179.848 203.099 185.028 211.549C187.5 215.579 190.752 216.489 190.752 216.489L191.923 211.419C191.923 211.419 185.028 206.089 184.117 200.369C183.207 194.649 184.377 184.379 184.377 184.379Z" fill="black"/>
<path d="M191.013 213.759C191.013 213.759 197.907 218.959 206.754 219.869C215.6 220.779 223.406 218.309 223.406 218.309L223.015 215.579C223.015 215.579 218.722 218.049 209.095 216.619C199.469 215.189 190.492 210.509 190.492 210.509L191.013 213.759Z" fill="black"/>
<path d="M222.755 227.149C222.755 227.149 223.926 228.059 224.446 230.854C224.967 233.649 223.731 236.574 223.731 236.574C223.731 236.574 223.145 233.064 222.43 231.829C222.006 231.113 221.74 230.316 221.649 229.489L222.755 227.149Z" fill="black"/>
<path d="M224.512 219.414C224.707 219.414 225.878 221.429 225.943 222.924C225.965 223.931 225.856 224.936 225.617 225.914C225.164 225.456 224.686 225.022 224.186 224.614C223.731 224.289 223.341 224.029 223.341 224.029C223.341 224.029 223.536 221.689 223.536 220.584C223.536 219.479 223.601 218.894 223.601 218.894L224.512 219.414Z" fill="black"/>
<path d="M112.827 191.789C112.827 191.789 125.042 195.671 138.455 195.819C162.262 196.079 183.207 191.789 183.207 191.789L183.467 188.409C183.467 188.409 159.53 194.519 140.406 193.219C121.283 191.919 112.566 190.099 112.566 190.099L112.827 191.789Z" fill="black"/>
<path d="M121.197 204.961C121.197 204.961 128.482 206.695 135.422 207.215C139.461 207.53 143.515 207.589 147.562 207.389L146.305 202.491C141.616 202.572 136.926 202.399 132.255 201.971C125.49 201.279 121.502 200.759 121.502 200.759L121.197 204.961Z" fill="black"/>
<path d="M146.782 206.739C146.782 206.739 155.802 206.911 170.893 205.179C179.039 204.243 183.556 202.925 183.556 202.925C183.556 202.925 183.598 196.945 183.077 197.119C182.557 197.293 175.792 199.545 165.559 200.759C155.326 201.973 144.924 202.145 144.924 202.145L146.782 206.739Z" fill="black"/>
<path d="M174.064 282.571C174.064 282.571 176.232 283.959 179.96 283.699C183.689 283.439 184.732 282.399 184.732 282.399L184.558 280.491C182.793 280.904 180.991 281.136 179.18 281.185C177.344 281.235 175.509 281.061 173.716 280.665L174.064 282.571Z" fill="black"/>
<path d="M136.338 272.605C136.338 272.605 138.679 273.731 141.193 273.645C143.706 273.559 145.096 272.519 145.096 272.519L144.924 270.525C143.542 270.685 142.148 270.714 140.761 270.611C138.505 270.439 135.903 270.005 135.903 270.005L136.338 272.605Z" fill="black"/>
<path d="M190.536 218.265C190.536 218.265 190.622 216.185 192.313 215.751C193.69 215.4 195.566 216.489 195.566 216.489L191.057 213.109L190.536 218.265Z" fill="black"/>
<path d="M219.076 219.261C219.076 219.261 221.634 218.915 222.328 220.041C222.808 220.851 223.02 221.791 222.935 222.729C222.935 222.729 223.564 221.19 223.585 220.041C223.584 219.29 223.468 218.545 223.239 217.831L219.076 219.261Z" fill="black"/>
<path d="M113.316 194.94C113.316 194.94 113.241 193.552 114.128 192.99C115.104 192.374 116.795 192.834 116.795 192.834C116.795 192.834 112.921 191.3 112.921 191.464C112.921 191.628 113.316 194.94 113.316 194.94Z" fill="black"/>
<path d="M153.988 79.8512L143.128 86.1952L156.171 80.3426L154.698 80.015L153.988 79.8512Z" fill="black"/>
<path d="M182.73 98.1448C182.73 98.1448 185.023 94.6322 188.715 94.3748C192.407 94.1174 195.349 96.629 195.349 96.629C195.349 96.629 192.922 94.549 190.71 93.3348C188.499 92.1206 187.544 91.7306 187.544 91.7306L183.077 97.0606L182.73 98.1448Z" fill="black"/>
<path d="M153.611 79.209C153.611 79.209 153.644 79.8486 153.35 80.1424C153.204 80.3029 153.027 80.4328 152.83 80.5246L153.79 80.093L153.611 79.209Z" fill="black"/>
<path d="M160.142 308.139L157.384 312.361C157.384 312.361 161.612 313.82 170.817 313.612C180.023 313.404 187.305 312.556 187.305 312.556L191.208 308.916L191.078 296.657C191.078 296.657 190.557 293.254 189.126 293.163C187.695 293.072 188.151 296.998 188.151 296.998L186.459 296.174C186.459 296.174 177.288 307.614 175.532 308.461C173.775 309.309 170.393 309.761 170.393 309.761C170.393 309.761 166.103 309.696 163.597 309.046C161.091 308.396 160.142 308.139 160.142 308.139Z" fill="#A28ADD"/>
<path d="M168.6 291.158C168.6 291.158 166.505 290.337 165.524 290.378C164.544 290.42 164.528 291.834 164.528 291.834C164.528 291.834 163.399 292.279 163.602 292.838C163.805 293.397 164.008 294.174 164.008 294.174C164.008 294.174 163.027 295.043 163.136 295.539C163.245 296.036 163.383 296.66 163.383 296.66C163.166 296.96 162.991 297.288 162.863 297.635C162.652 298.207 163.596 298.155 163.596 298.155C163.596 298.155 163.336 298.675 163.107 299.179C162.976 299.462 162.929 299.778 162.972 300.087L163.513 300.841C163.513 300.841 162.345 300.953 162.379 301.605C162.413 302.258 163.107 302.905 163.107 302.905C163.107 302.905 161.401 303.225 161.442 304.398C161.484 305.57 164.434 304.457 167.101 305.253C169.768 306.049 172.344 307.455 173.044 306.706C173.744 305.958 172.279 304.756 172.279 304.756V304.125C172.279 304.125 173.71 304.92 174.116 304.174C174.522 303.428 174.046 302.388 174.046 302.388C174.046 302.388 175.838 303.584 176.127 302.908C176.295 302.496 176.362 302.051 176.322 301.608C176.322 301.608 177.446 301.41 177.553 300.763C177.659 300.115 176.835 299.432 176.835 299.432L175.88 298.002C175.88 298.002 178.461 299.546 178.791 298.87C179.122 298.194 178.791 297.274 178.791 297.274C178.791 297.274 180.706 298.501 181.201 298.295C181.695 298.09 181.916 296.995 181.916 296.995C181.916 296.995 183.121 297.406 183.511 296.855C183.62 296.69 183.679 296.496 183.679 296.297C183.679 296.099 183.62 295.905 183.511 295.74C183.511 295.74 180.532 293.28 177.967 292.721C175.401 292.162 174.108 292.024 174.108 292.024L172.778 291.954L168.6 291.158Z" fill="white"/>
<path d="M162.457 321.266C161.889 320.479 161.42 319.625 161.06 318.724C160.506 317.304 159.379 316.527 156.338 316.82C153.296 317.114 154.717 321.139 154.717 321.139L154.168 321.766C154.168 321.766 155.781 323.708 163.967 324.217L162.457 321.266Z" fill="black"/>
<path d="M162.718 321.526C162.718 321.526 164.604 325.819 181.906 323.248C183.801 322.967 186.069 318.804 187.891 318.471C189.712 318.139 192.634 317.231 192.41 315.292C192.328 314.367 192.165 313.452 191.924 312.556C191.924 312.556 186.915 314.072 185.354 316.826C183.793 319.579 180.629 320.51 178.472 320.588C176.315 320.666 172.995 320.616 172.995 320.616L162.718 321.526Z" fill="white"/>
<path d="M169.381 320.744C169.381 320.744 180.309 319.818 182.858 316.844C185.408 313.869 186.647 310.846 188.156 309.91C189.665 308.974 190.953 308.129 190.953 308.129L191.213 305.269C191.213 305.269 195.092 304.421 195.41 305.529C195.727 306.636 195.907 310.822 194.163 311.654C192.42 312.486 189.22 313.378 187.066 314.915C184.911 316.451 183.54 320.065 181.009 320.323C178.477 320.58 169.381 320.744 169.381 320.744Z" fill="white"/>
<path d="M153.712 321.277C153.712 321.277 152.169 318.209 153.712 316.397C155.255 314.584 155.674 314.163 155.674 314.163L169.742 315.689C169.742 315.689 173.759 315.832 175.562 314.881C177.366 313.929 182.39 310.489 182.39 310.489L184.708 311.269L186.009 312.569C186.009 312.569 184.632 316.469 180.025 318.549C175.417 320.629 168.439 320.973 166.622 321.287C164.806 321.602 162.09 321.134 162.09 321.134C162.09 321.134 161.551 316.436 156.803 316.615C152.055 316.794 154.94 322.275 154.94 322.275L153.712 321.277Z" fill="#C18B1E"/>
<path d="M155.953 313.877L157.384 312.361C157.384 312.361 160.506 313.63 168.832 313.321C177.158 313.011 181.594 310.489 181.594 310.489C181.594 310.489 177.478 315.536 172.995 315.546C168.512 315.557 160.702 314.704 158.555 314.574C156.408 314.444 155.953 313.877 155.953 313.877Z" fill="#A28ADD"/>
<path d="M171.174 309.161C174.717 307.559 177.842 305.161 180.306 302.154C184.355 297.177 185.549 295.134 185.549 295.134L186.67 296.174L177.564 306.488C177.564 306.488 174.92 309.215 173.227 309.54C171.533 309.865 171.174 309.161 171.174 309.161Z" fill="#C18B1E"/>
<path d="M161.791 305.31L160.506 308.006C160.506 308.006 168.637 310.703 172.604 308.727C176.572 306.751 185.723 295.415 185.723 295.415C185.723 295.415 184.053 293.556 182.46 292.57C180.868 291.585 178.009 291.548 178.009 291.548L175.576 291.715C175.576 291.715 179.133 292.542 180.605 293.623C182.078 294.705 183.662 296.176 183.662 296.176C183.662 296.176 183.808 296.785 183.42 297.001C183.033 297.216 182.015 296.72 182.015 296.72C182.015 296.72 182.161 297.866 181.688 298.085C181.214 298.303 178.922 297.001 178.922 297.001C178.922 297.001 179.361 298.259 178.922 298.779C178.482 299.299 175.87 297.999 175.87 297.999L177.171 299.759C177.171 299.759 177.863 300.643 177.387 300.947C176.911 301.252 175.956 301.337 175.956 301.337C175.956 301.337 176.754 302.203 176.182 302.723C175.61 303.243 174.035 302.39 174.035 302.39C174.035 302.39 174.556 303.833 174.106 304.036C173.656 304.239 172.269 304.127 172.269 304.127L171.46 304.538C171.46 304.538 173.541 305.802 173.104 306.358C172.954 306.528 172.769 306.662 172.561 306.752C172.353 306.842 172.128 306.885 171.902 306.878C170.237 306.116 168.478 305.577 166.672 305.274C163.521 304.72 161.791 305.31 161.791 305.31Z" fill="#A28ADD"/>
<path d="M165.84 290.066C165.84 290.066 164.664 286.97 165.84 285.688C167.016 284.406 169.353 283.241 169.353 283.241L168.832 287.791L175.532 288.636L176.229 283.761C176.229 283.761 181.009 284.541 181.776 286.101C182.544 287.661 182.492 290.155 182.492 290.155L181.906 292.081C181.906 292.081 179.076 291.416 177.007 291.561C174.939 291.707 172.519 291.964 172.519 291.964L172.433 290.376L170.003 290.165L169.636 291.855C169.636 291.855 168.226 290.555 167.555 290.376C166.883 290.196 165.84 290.066 165.84 290.066Z" fill="white"/>
<path d="M169.743 282.266L168.832 287.791L175.532 288.636L176.312 283.176L169.743 282.266Z" fill="white"/>
<path d="M170.047 290.631L169.742 294.616L172.214 294.811L172.518 290.703L170.047 290.631Z" fill="white"/>
<path d="M161.791 305.31C160.03 308.55 157.542 312.192 156.473 313.336C154.652 315.286 151.985 317.301 153.156 320.291C154.326 323.281 158.294 323.736 166.62 324.451C174.946 325.166 180.67 324.451 182.622 322.761C184.573 321.071 185.549 319.316 187.89 318.471C187.89 318.471 191.533 318.211 192.183 316.456C192.834 314.701 191.923 312.556 191.923 312.556C191.923 312.556 195.095 312.491 195.524 308.875C195.649 307.811 195.961 306.176 195.404 305.536C194.538 304.546 191.208 305.276 191.208 305.276C191.208 305.276 191.468 300.401 191.143 297.866C190.817 295.331 190.297 292.796 189.061 293.511C187.825 294.226 189.061 297.996 187.305 296.696C185.549 295.396 183.467 292.536 180.15 291.821C176.832 291.106 172.865 292.016 172.865 292.016" stroke="black" stroke-width="3" stroke-linecap="round" stroke-linejoin="round"/>
<path d="M169.678 291.951C169.678 291.951 168.312 290.651 166.555 290.391C164.799 290.131 164.523 291.821 164.523 291.821" stroke="black" stroke-width="3" stroke-linecap="round" stroke-linejoin="round"/>
<path d="M165.579 290.066C165.579 290.066 164.406 286.866 166.49 284.866C168.051 283.371 169.352 283.241 169.352 283.241" stroke="black" stroke-width="3" stroke-linecap="round" stroke-linejoin="round"/>
<path d="M176.638 283.761C176.638 283.761 180.345 284.346 181.776 286.101C183.207 287.856 181.906 292.081 181.906 292.081" stroke="black" stroke-width="3" stroke-linecap="round" stroke-linejoin="round"/>
<path d="M154.132 321.721L154.782 320.941C154.782 320.941 152.701 317.236 157.189 316.651C161.677 316.066 160.702 320.941 162.718 321.526" stroke="black" stroke-width="3" stroke-linecap="round" stroke-linejoin="round"/>
<path d="M162.457 321.266C162.652 321.331 172.409 321.136 177.483 319.511C182.556 317.886 184.833 315.481 185.744 313.141C186.654 310.801 189.321 308.916 191.403 308.136C193.484 307.356 193.518 307.421 193.518 307.421" stroke="black" stroke-width="3" stroke-linecap="round" stroke-linejoin="round"/>
<path d="M191.207 305.276L190.947 308.136" stroke="black" stroke-width="3" stroke-linecap="round" stroke-linejoin="round"/>
<path d="M191.923 312.556C191.923 312.556 188.671 313.271 186.589 315.351C184.508 317.431 183.923 320.161 179.955 320.486C177.401 320.68 174.837 320.71 172.279 320.575" stroke="black" stroke-width="3" stroke-linecap="round" stroke-linejoin="round"/>
<path d="M155.953 314.246C155.953 314.246 162.133 314.831 166.361 315.221C170.589 315.611 172.02 316.716 176.052 314.636C180.085 312.556 180.018 311.836 181.711 311.061C183.988 310.021 185.874 312.166 185.874 312.166" stroke="black" stroke-width="3" stroke-linecap="round" stroke-linejoin="round"/>
<path d="M157.384 312.361C160.912 313.472 164.632 313.848 168.312 313.466C172.371 313.05 176.366 312.156 180.215 310.801C180.864 310.554 181.558 310.443 182.252 310.477C182.946 310.51 183.626 310.687 184.248 310.996" stroke="black" stroke-width="3" stroke-linecap="round" stroke-linejoin="round"/>
<path d="M160.506 308.006C160.506 308.006 164.279 310.021 170.328 309.436C176.377 308.851 185.549 295.526 185.549 295.526" stroke="black" stroke-width="3" stroke-linecap="round" stroke-linejoin="round"/>
<path d="M167.56 309.566C167.56 309.566 172.329 310.911 175.667 308.331C178.953 305.796 186.465 296.176 186.465 296.176" stroke="black" stroke-width="3" stroke-linecap="round" stroke-linejoin="round"/>
<path d="M189.386 296.436L188.021 297.001" stroke="black" stroke-width="3" stroke-linecap="round" stroke-linejoin="round"/>
<path d="M169.743 282.266C169.548 282.331 168.832 287.791 168.832 287.791L175.532 288.636L176.312 283.176L169.743 282.266Z" stroke="black" stroke-width="3" stroke-linecap="round" stroke-linejoin="round"/>
<path d="M170.067 290.326L169.742 294.616L172.214 294.811L172.604 290.716L170.067 290.326Z" stroke="black" stroke-width="3" stroke-linecap="round" stroke-linejoin="round"/>
<path d="M172.503 306.966C172.349 306.966 172.197 306.92 172.069 306.834C172.069 306.834 170.529 305.838 167.274 305.357C165.624 305.111 163.953 305.04 162.289 305.146C162.082 305.162 161.877 305.095 161.719 304.959C161.562 304.824 161.465 304.632 161.449 304.425C161.434 304.218 161.501 304.013 161.637 303.856C161.772 303.699 161.964 303.602 162.171 303.586C163.951 303.47 165.739 303.545 167.503 303.81C171.145 304.351 172.87 305.49 172.943 305.539C173.081 305.633 173.185 305.768 173.241 305.926C173.296 306.083 173.299 306.254 173.25 306.414C173.201 306.573 173.102 306.713 172.967 306.812C172.833 306.911 172.67 306.964 172.503 306.964V306.966Z" stroke="black" stroke-width="3" stroke-linecap="round" stroke-linejoin="round"/>
<path d="M162.096 303.605C163.633 302.777 165.334 302.298 167.078 302.203C171.03 301.943 173.518 302.848 173.622 302.887C173.722 302.92 173.815 302.972 173.894 303.041C173.974 303.111 174.038 303.196 174.084 303.291C174.13 303.386 174.156 303.489 174.161 303.594C174.165 303.7 174.149 303.805 174.112 303.903C174.074 304.002 174.018 304.092 173.945 304.168C173.872 304.245 173.784 304.305 173.687 304.346C173.59 304.388 173.485 304.409 173.38 304.409C173.274 304.409 173.17 304.387 173.073 304.346C173.052 304.346 170.77 303.511 167.185 303.758" stroke="black" stroke-width="3" stroke-linecap="round" stroke-linejoin="round"/>
<path d="M175.576 303.025C175.433 303.025 175.293 302.986 175.172 302.91C175.149 302.91 172.628 301.415 168.579 301.335C165.925 301.278 163.493 302.565 163.469 302.578C163.287 302.672 163.075 302.69 162.879 302.63C162.683 302.569 162.519 302.433 162.422 302.253C162.326 302.072 162.304 301.86 162.362 301.664C162.42 301.467 162.553 301.301 162.733 301.202C162.845 301.142 165.558 299.712 168.61 299.775C173.104 299.863 175.864 301.506 175.981 301.577C176.128 301.665 176.241 301.798 176.304 301.957C176.367 302.116 176.377 302.291 176.33 302.455C176.284 302.62 176.186 302.764 176.049 302.867C175.913 302.97 175.746 303.025 175.576 303.025Z" stroke="black" stroke-width="3" stroke-linecap="round" stroke-linejoin="round"/>
<path d="M166.443 295.836C167.955 295.43 170.138 295.415 170.198 295.415C176.523 295.415 178.737 297.648 178.852 297.755C178.933 297.819 179 297.9 179.05 297.991C179.099 298.082 179.13 298.183 179.141 298.286C179.151 298.389 179.141 298.494 179.11 298.593C179.079 298.692 179.029 298.785 178.963 298.864C178.896 298.944 178.814 299.009 178.721 299.057C178.629 299.105 178.528 299.133 178.424 299.141C178.321 299.149 178.217 299.137 178.118 299.104C178.019 299.071 177.928 299.019 177.85 298.951C176.782 298.343 175.647 297.863 174.467 297.518" stroke="black" stroke-width="3" stroke-linecap="round" stroke-linejoin="round"/>
<path d="M165.52 298.165C166.673 297.811 167.872 297.622 169.079 297.606H169.165C174.394 297.653 177.316 299.842 177.439 299.946C177.523 300.008 177.594 300.085 177.647 300.174C177.701 300.263 177.736 300.362 177.751 300.465C177.766 300.568 177.76 300.673 177.734 300.774C177.707 300.874 177.661 300.968 177.598 301.051C177.534 301.133 177.455 301.203 177.365 301.254C177.274 301.305 177.175 301.338 177.071 301.351C176.968 301.363 176.863 301.355 176.763 301.326C176.663 301.297 176.57 301.249 176.489 301.184C176.466 301.166 173.827 299.218 169.152 299.177L168.371 299.2" stroke="black" stroke-width="3" stroke-linecap="round" stroke-linejoin="round"/>
<path d="M165.049 299.975C164.701 300.103 164.359 300.25 164.027 300.414C163.844 300.506 163.633 300.523 163.439 300.461C163.244 300.4 163.082 300.264 162.986 300.084C162.788 299.702 162.762 299.044 163.145 298.836" stroke="black" stroke-width="3" stroke-linecap="round" stroke-linejoin="round"/>
<path d="M171.462 304.034C172.048 304.488 172.577 305.012 173.036 305.594" stroke="black" stroke-width="3" stroke-linecap="round" stroke-linejoin="round"/>
<path d="M166.08 300.011C165.356 299.843 164.623 299.72 163.884 299.645C163.781 299.641 163.68 299.618 163.587 299.575C163.494 299.532 163.41 299.472 163.34 299.397C163.27 299.322 163.215 299.234 163.179 299.138C163.143 299.042 163.127 298.94 163.13 298.838C163.134 298.735 163.158 298.634 163.2 298.541C163.243 298.448 163.303 298.364 163.378 298.294C163.453 298.224 163.541 298.17 163.637 298.134C163.734 298.098 163.836 298.081 163.938 298.085C165.836 298.213 167.685 298.744 169.36 299.645" stroke="black" stroke-width="3" stroke-linecap="round" stroke-linejoin="round"/>
<path d="M172.93 301.985C174.059 302.827 174.192 303.092 174.231 303.134C174.375 303.283 174.453 303.483 174.449 303.69C174.445 303.897 174.358 304.094 174.209 304.238C174.06 304.381 173.859 304.459 173.652 304.455C173.445 304.451 173.248 304.365 173.104 304.216C173.104 304.2 172.324 302.973 169.376 301.356" stroke="black" stroke-width="3" stroke-linecap="round" stroke-linejoin="round"/>
<path d="M176.406 300.945C176.273 300.945 176.142 300.911 176.026 300.846C175.91 300.782 175.812 300.689 175.742 300.576C175.685 300.485 174.181 298.236 169.698 297.554C167.047 297.162 163.878 298.02 163.846 298.03C163.433 298.158 162.993 298.03 162.868 297.622C162.838 297.524 162.828 297.421 162.838 297.319C162.847 297.216 162.877 297.117 162.926 297.027C162.974 296.936 163.04 296.856 163.119 296.791C163.199 296.726 163.29 296.677 163.389 296.647C163.532 296.6 166.935 295.565 169.935 296.013C175.175 296.793 176.999 299.632 177.072 299.751C177.125 299.839 177.161 299.936 177.177 300.038C177.193 300.139 177.189 300.243 177.165 300.342C177.14 300.442 177.097 300.536 177.036 300.619C176.976 300.702 176.899 300.772 176.812 300.825C176.69 300.902 176.549 300.943 176.406 300.945Z" stroke="black" stroke-width="3" stroke-linecap="round" stroke-linejoin="round"/>
<path d="M173.747 295.662L172.279 294.445" stroke="black" stroke-width="3" stroke-linecap="round" stroke-linejoin="round"/>
<path d="M172.519 293.166C175.73 293.89 178.795 295.157 181.581 296.91C181.67 296.967 181.747 297.041 181.807 297.129C181.866 297.216 181.907 297.315 181.927 297.419C181.947 297.523 181.946 297.63 181.923 297.734C181.9 297.837 181.857 297.935 181.795 298.021C181.733 298.107 181.655 298.18 181.564 298.235C181.473 298.29 181.372 298.325 181.267 298.34C181.162 298.354 181.055 298.347 180.953 298.319C180.851 298.291 180.756 298.242 180.673 298.176C180.649 298.16 176.791 296.309 173.32 295.441L177.793 297.001" stroke="black" stroke-width="3" stroke-linecap="round" stroke-linejoin="round"/>
<path d="M169.612 294.445C169.612 294.445 167.791 294.809 166.394 295.225C165.661 295.474 164.962 295.812 164.312 296.234C164.227 296.29 164.131 296.33 164.03 296.35C163.93 296.37 163.826 296.369 163.726 296.349C163.522 296.309 163.344 296.189 163.229 296.017C163.114 295.844 163.072 295.633 163.113 295.43C163.154 295.227 163.273 295.048 163.446 294.934C164.218 294.427 165.052 294.023 165.928 293.73C167.167 293.401 168.433 293.187 169.711 293.09" stroke="black" stroke-width="3" stroke-linecap="round" stroke-linejoin="round"/>
<path d="M172.946 291.954C173.094 291.954 176.588 292.037 179.287 293.184C180.792 293.861 182.183 294.765 183.413 295.864C183.565 296.005 183.655 296.2 183.664 296.406C183.672 296.613 183.598 296.815 183.457 296.967C183.317 297.119 183.122 297.209 182.915 297.217C182.708 297.225 182.506 297.151 182.354 297.011C181.254 296.036 180.014 295.23 178.675 294.622C176.25 293.582 172.464 293.514 172.431 293.511" stroke="black" stroke-width="3" stroke-linecap="round" stroke-linejoin="round"/>
<path d="M169.591 293.405L165.028 293.576C165.028 293.576 163.586 293.901 163.597 292.825C163.594 292.62 163.67 292.421 163.81 292.271C163.951 292.121 164.143 292.03 164.349 292.019L169.636 291.845" stroke="black" stroke-width="3" stroke-linecap="round" stroke-linejoin="round"/>
<path d="M164.003 293.545L163.678 294.78" stroke="black" stroke-width="3" stroke-linecap="round" stroke-linejoin="round"/>
<path d="M99.0891 293.8C99.0891 293.8 103.577 292.581 104.917 292.087C106.257 291.593 108.737 290.376 108.737 290.376C113.817 290.982 118.967 290.494 123.843 288.946C129.21 287.156 134.482 285.094 139.639 282.768C139.639 282.768 142.813 283.962 144.408 283.572C146.003 283.182 147.848 282.1 148.225 279.672C148.602 277.243 148.92 276.864 149.294 276.643C149.669 276.422 150.413 277.355 151.116 278.764C151.818 280.173 152.968 283.572 152.968 283.572L148.805 295.1L123.716 300.508L97.8584 294.362L99.0891 293.8Z" fill="#A28ADD"/>
<path d="M100.599 302.679C100.599 302.679 115.068 302.731 120.844 302.159C126.62 301.587 132.359 299.98 132.599 299.933C132.838 299.887 153.64 298.002 153.64 298.002C153.64 298.002 154.199 299.595 153.536 300.508C152.872 301.421 152.053 302.393 152.053 302.393L135.638 303.03C135.638 303.03 126.414 304.348 122.511 305.11C113.868 306.769 105.631 304.85 105.631 304.85L100.599 302.679Z" fill="white"/>
<path d="M95.9125 297.261C95.9125 297.261 93.9351 300.817 101.116 303.308C108.297 305.799 99.8413 302.895 99.3703 300.511C98.8994 298.126 98.2463 297.606 97.4658 297.261C96.9669 297.063 96.4114 297.063 95.9125 297.261Z" fill="black"/>
<path d="M106.518 302.64C106.518 302.64 117.729 302.76 121.457 302.398C125.186 302.037 133.772 299.78 133.772 299.78L152.552 298.098L154.282 297.619C154.282 297.619 156.884 295.955 157.405 294.629C157.925 293.303 157.688 291.561 157.688 291.561L155.18 290.378L153.648 290.298L153.294 294.369C153.294 294.369 148.675 294.723 144.416 295.066C140.157 295.409 133.72 295.929 128.058 298.009C123.732 299.655 119.201 300.704 114.591 301.129C110.688 301.532 99.5654 301.475 99.5654 301.475C99.5654 301.475 100.073 302.255 102.55 302.414C105.027 302.572 106.518 302.64 106.518 302.64Z" fill="white"/>
<path d="M95.9121 297.261C96.0147 296.568 96.3177 295.92 96.7837 295.396C97.2662 294.929 97.8365 294.561 98.4619 294.315C98.4619 294.315 100.822 297.175 106.528 296.785C112.234 296.395 119.188 294.983 121.462 295.095C123.736 295.207 124.889 295.253 125.766 295.786C126.643 296.319 128.539 297.651 128.539 297.651C128.539 297.651 123.637 299.991 115.504 301.077C107.371 302.164 99.1514 300.945 99.1514 300.945C99.1514 300.945 99.3023 299.104 98.5868 298.194C97.8713 297.284 95.9121 297.261 95.9121 297.261Z" fill="#C18B1E"/>
<path d="M99.3906 294.811C99.3906 294.811 107.175 295.071 110.04 294.736C112.905 294.401 115.101 293.956 116.828 293.985C118.556 294.013 121.067 294.315 121.067 294.315L122.563 294.91C122.563 294.91 116.74 296.098 112.837 296.47C108.934 296.842 106.436 296.949 103.652 296.665C100.868 296.382 99.3906 294.811 99.3906 294.811Z" fill="#A28ADD"/>
<path d="M147.851 294.356C149.116 292.891 150.121 291.22 150.822 289.416C151.957 286.465 152.971 283.569 152.971 283.569C153.398 285.623 153.63 287.712 153.664 289.809C153.742 293.449 153.286 294.362 153.286 294.362L147.544 294.741L147.851 294.356Z" fill="#C18B1E"/>
<path d="M141.008 294.983L150.234 290.664L147.544 294.736L141.008 294.983Z" fill="#A28ADD"/>
<path d="M137.678 282.1C137.678 282.1 132.214 284.96 127.046 286.806C121.879 288.652 116.238 290.274 116.238 290.274C116.238 290.274 121.936 289.994 129.508 286.936C137.079 283.878 139.395 282.864 139.395 282.864L138.016 281.91L137.678 282.1Z" fill="#C18B1E"/>
<path d="M111.995 287.841L109.185 290.155C109.185 290.155 112.567 291.694 121.247 288.855C129.927 286.016 138.018 281.926 138.018 281.926L135.742 279.24L135.039 279.074L134.3 280.66C134.3 280.66 135.45 282.22 134.839 282.656C134.227 283.093 133.301 282.248 133.301 282.248L131.43 281.104C131.43 281.104 132.638 283.023 131.792 283.491C130.946 283.959 129.273 281.349 129.273 281.349L127.973 280.901C127.973 280.901 128.92 282.243 129.068 283.228C129.216 284.214 129.289 284.565 128.766 284.632C128.243 284.7 127.944 284.765 127.725 284.141C127.554 283.703 127.321 283.291 127.036 282.916L125.922 282.656C125.922 282.656 126.62 284.666 125.922 285.093C125.718 285.217 125.484 285.282 125.246 285.282C125.007 285.282 124.773 285.217 124.569 285.093L122.935 283.728C122.935 283.728 123.157 286.088 122.745 286.478C122.334 286.868 121.478 286.304 121.478 286.304C121.282 285.931 121.007 285.605 120.672 285.35C120.28 285.036 119.835 284.795 119.358 284.64L120.013 287.011C120.013 287.011 120.227 287.661 119.753 287.828C119.28 287.994 118.64 287.672 118.64 287.672L118.429 286.564L116.826 286.733C116.826 286.733 117.123 288.233 116.826 288.538C116.555 288.751 116.233 288.893 115.892 288.948C115.378 288.564 114.819 288.243 114.227 287.994C113.522 287.752 111.995 287.841 111.995 287.841Z" fill="#A28ADD"/>
<path d="M115.666 288.785C115.666 288.785 113.933 287.82 113.181 287.82C112.676 287.807 112.178 287.695 111.716 287.49C111.658 287.153 111.658 286.808 111.716 286.471C111.815 285.909 112.661 285.909 112.661 285.909C112.661 285.909 112.481 285.545 112.963 285.254C113.346 285.042 113.75 284.868 114.167 284.734C114.167 284.734 114.225 284.214 114.55 284.112C114.781 284.043 115.021 284.004 115.263 283.998L116.137 283.044C116.12 282.934 116.13 282.821 116.165 282.715C116.2 282.609 116.26 282.514 116.34 282.435C116.6 282.246 117.513 282.435 117.513 282.435C117.62 282.118 117.827 281.844 118.104 281.655C118.477 281.472 118.885 281.372 119.301 281.362C119.301 281.362 119.59 280.912 119.785 280.665C119.98 280.418 120.669 280.665 120.669 280.665L121.19 279.9C121.19 279.9 121.408 279.313 121.71 279.282C122.176 279.314 122.638 279.387 123.092 279.5C122.996 279.166 122.94 278.822 122.925 278.476C122.925 278.062 123.365 277.589 123.365 277.589L124.169 277.43C124.169 277.43 124.629 277.48 124.523 277.246C124.368 276.958 124.295 276.633 124.312 276.307C124.361 275.969 125.399 276.234 125.399 276.234L123.378 279.24L125.152 279.666L127.046 277.144C127.046 277.144 132.25 279.224 133.416 280.158C134.581 281.091 135.578 282.565 134.659 282.742C133.741 282.919 132.094 281.349 132.094 281.349L131.204 281.104C131.204 281.104 132.703 283.153 131.792 283.491C130.882 283.829 129.773 281.684 129.024 281.294L127.817 280.66L129.219 283.86C129.219 283.86 129.18 284.461 128.777 284.64C128.373 284.82 127.671 283.985 127.671 283.985L127.223 282.916L125.922 282.656C125.922 282.656 126.425 284.601 125.922 285.093C125.42 285.584 124.569 285.093 124.569 285.093L122.936 283.728C122.936 283.728 123.315 285.548 122.85 286.304C122.384 287.061 120.966 285.555 120.966 285.555L119.498 284.64C119.498 284.64 120.872 287.334 119.743 287.828C118.614 288.322 118.312 286.733 118.312 286.733L116.582 286.653C116.582 286.653 117.193 288.353 116.816 288.712C116.439 289.071 115.666 288.785 115.666 288.785Z" fill="white"/>
<path d="M126.679 275.735L126.814 277.454L125.152 279.666L123.164 279.24C123.164 279.24 124.218 277.586 124.985 276.856C125.486 276.394 126.058 276.016 126.679 275.735Z" fill="white"/>
<path d="M131.001 269.599L134.557 271.159C134.557 271.159 136.509 272.007 136.191 274.609C135.874 277.212 134.388 280.961 134.388 280.961L126.814 277.464L126.271 276.211L125.945 275.907L125.987 273.437L128.667 273.374L130.249 269.337L131.001 269.599Z" fill="white"/>
<path d="M129.643 269.326L126.739 268.271C126.739 268.271 125.959 270.091 125.883 271.248C125.808 272.405 125.779 273.166 125.779 273.166L128.667 273.364L130.249 269.326H129.643Z" fill="white"/>
<path d="M135.638 277.066L135.102 278.759C135.102 278.759 136.387 279.568 136.821 280.511C137.256 281.455 138.903 283.231 142.621 283.611C146.339 283.99 147.825 281.648 148.225 279.666C148.373 278.848 148.565 278.038 148.8 277.241C148.8 277.241 147.95 276.383 147.008 276.562C146.066 276.741 146.846 280.446 144.83 281.18C142.813 281.913 140.368 281.874 139.397 280.951C138.427 280.028 137.074 278.629 137.074 278.629L136.892 277.046L135.638 277.066Z" fill="white"/>
<path d="M112.291 287.596C112.291 287.596 109.405 290.025 107.735 290.935C106.064 291.845 101.217 293.316 99.4219 293.706C97.6266 294.096 96.0395 295.745 95.579 297.955C95.1184 300.165 97.7099 302.201 100.174 302.981C102.638 303.761 109.197 306.795 119.472 305.495C129.746 304.195 134.341 303.025 137.849 303.025C141.356 303.025 151.841 302.245 151.841 302.245C151.841 302.245 153.387 301.291 153.639 300.206C153.796 299.423 153.866 298.624 153.847 297.825C155.323 297.131 156.558 296.014 157.396 294.616C158.234 293.186 158.401 291.021 156.186 290.675C154.183 290.36 153.639 290.285 153.639 290.285C153.639 290.285 153.931 286.426 152.859 282.831C152.134 280.543 151.063 278.38 149.684 276.416C149.684 276.416 148.555 276.331 148.514 278.151C148.472 279.971 146.968 284.216 142.009 283.436C137.05 282.656 136.745 279.321 135.491 279.146" stroke="black" stroke-width="3" stroke-linecap="round" stroke-linejoin="round"/>
<path d="M153.64 297.996C153.64 297.996 148.252 298.646 141.443 299.125C134.634 299.603 134.3 299.515 131.334 300.206C126.243 301.497 121.04 302.296 115.796 302.591C110.754 302.829 105.702 302.714 100.677 302.245" stroke="black" stroke-width="3" stroke-linecap="round" stroke-linejoin="round"/>
<path d="M95.9121 297.261C95.9121 297.261 97.6267 296.871 98.5868 298.256C99.5469 299.642 98.1679 301.465 100.668 302.245" stroke="black" stroke-width="3" stroke-linecap="round" stroke-linejoin="round"/>
<path d="M99.3906 301.116C99.3906 301.116 108.913 302.505 118.353 300.596C127.792 298.688 129.965 296.655 138.028 295.701C146.091 294.746 152.271 295.006 154.61 293.966C156.949 292.926 157.493 291.715 157.493 291.715" stroke="black" stroke-width="3" stroke-linecap="round" stroke-linejoin="round"/>
<path d="M153.639 289.461C153.639 289.461 153.556 291.151 153.47 292.105C153.371 292.869 153.204 293.622 152.971 294.356" stroke="black" stroke-width="3" stroke-linecap="round" stroke-linejoin="round"/>
<path d="M152.971 283.566C152.971 283.566 151.55 287.815 150.507 290.155C149.463 292.495 147.499 294.791 147.499 294.791" stroke="black" stroke-width="3" stroke-linecap="round" stroke-linejoin="round"/>
<path d="M140.146 295.396C140.146 295.396 144.429 293.537 146.412 292.536C147.957 291.756 150.507 290.155 150.507 290.155" stroke="black" stroke-width="3" stroke-linecap="round" stroke-linejoin="round"/>
<path d="M98.4619 294.32C98.4619 294.32 99.6301 296.92 106.528 296.79C113.425 296.66 119.339 295.23 122.316 295.1C125.576 294.97 128.539 297.656 128.539 297.656" stroke="black" stroke-width="3" stroke-linecap="round" stroke-linejoin="round"/>
<path d="M99.0889 294.84C99.0889 294.84 100.759 294.71 104.813 294.882C108.867 295.053 113.417 294.232 117.01 294.016C120.604 293.8 122.937 295.1 122.937 295.1" stroke="black" stroke-width="3" stroke-linecap="round" stroke-linejoin="round"/>
<path d="M108.737 290.371C108.862 290.415 111.079 291.585 120.599 289.026C130.119 286.468 138.032 281.921 138.032 281.921" stroke="black" stroke-width="3" stroke-linecap="round" stroke-linejoin="round"/>
<path d="M112.265 290.631C112.265 290.631 117.51 291.151 126.697 288.161C136.584 284.944 139.228 282.786 139.228 282.786" stroke="black" stroke-width="3" stroke-linecap="round" stroke-linejoin="round"/>
<path d="M136.639 278.411C138.853 279.321 138.853 282.051 142.946 281.705C147.038 281.359 145.636 278.203 146.664 276.895C147.65 275.636 148.602 277.241 148.602 277.241" stroke="black" stroke-width="3" stroke-linecap="round" stroke-linejoin="round"/>
<path d="M125.779 273.166L128.704 273.426C128.704 273.426 129.021 272.09 129.245 271.391C129.522 270.685 129.858 270.004 130.249 269.355L126.739 268.271C126.403 268.991 126.15 269.747 125.987 270.525C125.847 271.398 125.777 272.282 125.779 273.166Z" stroke="black" stroke-width="3" stroke-linecap="round" stroke-linejoin="round"/>
<path d="M125.987 273.515L125.945 275.896" stroke="black" stroke-width="3" stroke-linecap="round" stroke-linejoin="round"/>
<path d="M125.794 276.245C125.794 276.245 125.11 276.416 124.067 277.805C123.023 279.193 123.104 279.495 123.104 279.495L125.152 279.666C125.152 279.666 126.278 277.768 126.814 277.454C127.616 276.981 125.794 276.245 125.794 276.245Z" stroke="black" stroke-width="3" stroke-linecap="round" stroke-linejoin="round"/>
<path d="M134.331 281.104C134.415 280.974 136.002 275.904 136.002 275.904C136.002 275.904 136.985 272.342 134.165 270.92C132.783 270.234 131.346 269.665 129.869 269.22" stroke="black" stroke-width="3" stroke-linecap="round" stroke-linejoin="round"/>
<path d="M116.128 288.941C115.949 288.94 115.775 288.877 115.637 288.764C115.153 288.421 114.629 288.141 114.076 287.929C113.502 287.719 112.897 287.606 112.285 287.596C112.078 287.596 111.88 287.514 111.734 287.368C111.587 287.222 111.505 287.023 111.505 286.816C111.505 286.61 111.587 286.411 111.734 286.265C111.88 286.119 112.078 286.036 112.285 286.036C113.101 286.047 113.908 286.199 114.671 286.484C115.368 286.75 116.026 287.11 116.625 287.555C116.751 287.656 116.842 287.794 116.885 287.95C116.929 288.105 116.923 288.27 116.869 288.422C116.815 288.575 116.715 288.706 116.582 288.799C116.45 288.892 116.293 288.941 116.131 288.941H116.128Z" stroke="black" stroke-width="3" stroke-linecap="round" stroke-linejoin="round"/>
<path d="M114.927 286.491C114.757 286.039 114.546 285.604 114.294 285.191C114.196 285.015 114.17 284.808 114.221 284.613C114.272 284.418 114.397 284.25 114.57 284.145C114.742 284.04 114.949 284.006 115.146 284.05C115.343 284.093 115.515 284.212 115.627 284.38C115.94 284.9 116.202 285.449 116.407 286.021C116.583 286.611 116.722 287.212 116.823 287.82" stroke="black" stroke-width="3" stroke-linecap="round" stroke-linejoin="round"/>
<path d="M115.884 284.755C116.89 284.73 117.897 284.817 118.884 285.015C119.071 285.056 119.237 285.165 119.349 285.32C119.462 285.476 119.513 285.668 119.492 285.859C119.472 286.05 119.382 286.226 119.239 286.355C119.097 286.484 118.912 286.555 118.72 286.556C118.665 286.558 118.61 286.552 118.556 286.541L116.563 286.52" stroke="black" stroke-width="3" stroke-linecap="round" stroke-linejoin="round"/>
<path d="M112.814 285.867C112.777 285.664 112.822 285.454 112.94 285.284C113.058 285.114 113.238 284.997 113.442 284.96C113.478 284.96 113.743 284.908 114.167 284.861" stroke="black" stroke-width="3" stroke-linecap="round" stroke-linejoin="round"/>
<path d="M117.56 284.736C117.089 283.72 116.475 283.598 116.467 283.592C116.379 283.534 116.304 283.459 116.246 283.371C116.188 283.284 116.149 283.185 116.13 283.082C116.111 282.978 116.113 282.872 116.136 282.77C116.16 282.667 116.203 282.57 116.265 282.485C116.327 282.4 116.405 282.328 116.495 282.274C116.585 282.22 116.685 282.184 116.789 282.169C116.893 282.155 116.999 282.161 117.101 282.189C117.203 282.216 117.298 282.264 117.38 282.329C118.18 282.965 118.822 283.778 119.256 284.703C119.56 285.452 119.814 286.221 120.016 287.004C120.047 287.104 120.057 287.209 120.046 287.313C120.035 287.417 120.003 287.518 119.953 287.61C119.902 287.701 119.833 287.782 119.751 287.846C119.669 287.911 119.574 287.958 119.473 287.985C119.372 288.013 119.266 288.019 119.162 288.005C119.058 287.99 118.959 287.955 118.869 287.901C118.779 287.848 118.701 287.776 118.639 287.692C118.577 287.607 118.533 287.511 118.509 287.409C118.455 287.212 118.382 286.939 118.265 286.556" stroke="black" stroke-width="3" stroke-linecap="round" stroke-linejoin="round"/>
<path d="M118.054 282.802C118.606 282.767 119.16 282.813 119.698 282.94C121.564 283.397 122.75 285.189 122.799 285.264C122.893 285.436 122.919 285.637 122.871 285.827C122.823 286.017 122.706 286.182 122.542 286.289C122.378 286.397 122.18 286.439 121.987 286.407C121.793 286.375 121.619 286.271 121.499 286.117C121.499 286.117 120.458 284.765 119.188 284.456" stroke="black" stroke-width="3" stroke-linecap="round" stroke-linejoin="round"/>
<path d="M117.042 284.526C116.856 284.569 116.671 284.623 116.491 284.687C116.087 284.838 115.653 284.539 115.499 284.136C115.462 284.048 115.443 283.953 115.445 283.858C115.448 283.763 115.47 283.669 115.511 283.583C115.553 283.497 115.612 283.421 115.686 283.36C115.759 283.298 115.844 283.254 115.936 283.228" stroke="black" stroke-width="3" stroke-linecap="round" stroke-linejoin="round"/>
<path d="M121.08 283.501C120.76 282.901 119.948 282.201 119.662 281.973C119.508 281.843 119.41 281.659 119.389 281.459C119.368 281.259 119.425 281.058 119.548 280.899C119.671 280.74 119.851 280.634 120.051 280.605C120.25 280.575 120.453 280.624 120.617 280.74C120.75 280.842 121.918 281.765 122.456 282.766C123.172 284.102 123.135 286.018 123.133 286.099C123.128 286.302 123.044 286.496 122.898 286.639C122.752 286.781 122.556 286.861 122.352 286.861H122.331C121.902 286.861 121.413 286.468 121.423 286.036" stroke="black" stroke-width="3" stroke-linecap="round" stroke-linejoin="round"/>
<path d="M121.726 281.65C122.23 281.753 122.722 281.913 123.19 282.126C124.188 282.583 125.071 283.255 125.777 284.094C125.895 284.26 125.944 284.465 125.913 284.666C125.882 284.867 125.774 285.048 125.611 285.17C125.449 285.293 125.245 285.347 125.043 285.321C124.841 285.296 124.657 285.192 124.53 285.033C124.53 285.033 124.161 284.253 122.826 283.611" stroke="black" stroke-width="3" stroke-linecap="round" stroke-linejoin="round"/>
<path d="M120.674 283.046C120.031 282.959 119.383 282.915 118.733 282.916C118.526 282.918 118.327 282.838 118.18 282.693C118.032 282.548 117.948 282.35 117.946 282.143C117.945 281.936 118.025 281.737 118.17 281.589C118.315 281.442 118.513 281.358 118.72 281.356C118.754 281.356 118.936 281.341 119.319 281.356" stroke="black" stroke-width="3" stroke-linecap="round" stroke-linejoin="round"/>
<path d="M123.799 282.441C123.068 281.616 122.153 280.881 121.898 280.79C121.721 280.771 121.555 280.693 121.429 280.568C121.303 280.444 121.223 280.279 121.202 280.103C121.182 279.926 121.223 279.748 121.317 279.598C121.412 279.448 121.555 279.334 121.723 279.276C122.504 279.016 124.177 280.316 124.9 281.143C126.066 282.443 126.217 284.339 126.224 284.419C126.239 284.625 126.172 284.829 126.037 284.986C125.902 285.142 125.71 285.238 125.504 285.254" stroke="black" stroke-width="3" stroke-linecap="round" stroke-linejoin="round"/>
<path d="M125.621 279.016C125.894 279.276 127.601 280.696 128.124 281.421C128.635 282.129 129.017 282.921 129.253 283.761C129.301 283.962 129.268 284.174 129.16 284.351C129.053 284.527 128.879 284.654 128.678 284.703C128.617 284.717 128.555 284.724 128.493 284.723C128.318 284.723 128.149 284.664 128.012 284.556C127.874 284.448 127.777 284.298 127.736 284.128C127.549 283.48 127.252 282.869 126.859 282.321C126.276 281.515 125.152 280.179 124.819 279.958" stroke="black" stroke-width="3" stroke-linecap="round" stroke-linejoin="round"/>
<path d="M125.631 279.443C126.289 279.703 128.178 280.483 128.977 281.203C130.293 282.378 130.66 283.14 130.66 283.14C130.721 283.28 130.82 283.399 130.948 283.482C131.075 283.566 131.224 283.61 131.376 283.611C131.482 283.611 131.588 283.589 131.685 283.546C131.875 283.463 132.024 283.309 132.1 283.117C132.176 282.925 132.173 282.711 132.091 282.521L130.715 280.621" stroke="black" stroke-width="3" stroke-linecap="round" stroke-linejoin="round"/>
<path d="M127.231 283.046C126.971 282.945 126.419 282.729 125.769 282.438" stroke="black" stroke-width="3" stroke-linecap="round" stroke-linejoin="round"/>
<path d="M123.849 280.121C125.319 280.537 125.386 280.795 125.712 280.901" stroke="black" stroke-width="3" stroke-linecap="round" stroke-linejoin="round"/>
<path d="M120.674 280.66C120.672 280.557 120.699 280.456 120.75 280.367C120.802 280.279 120.878 280.206 120.968 280.158" stroke="black" stroke-width="3" stroke-linecap="round" stroke-linejoin="round"/>
<path d="M126.877 277.261C127.031 277.326 130.986 278.933 132.552 279.809C134.207 280.738 134.834 281.596 134.894 281.692C135.011 281.861 135.057 282.071 135.02 282.274C134.984 282.477 134.868 282.658 134.699 282.776C134.569 282.868 134.413 282.917 134.254 282.916C134.127 282.917 134.003 282.886 133.891 282.828C133.779 282.769 133.683 282.685 133.611 282.581C133.611 282.581 133.117 281.918 131.79 281.172C130.301 280.335 125.964 278.512 125.928 278.496" stroke="black" stroke-width="3" stroke-linecap="round" stroke-linejoin="round"/>
<path d="M135.638 277.241L136.743 277.046" stroke="black" stroke-width="3" stroke-linecap="round" stroke-linejoin="round"/>
<path d="M124.491 277.046C124.491 277.046 123.924 276.747 124.325 276.302C124.78 275.8 125.545 276.302 125.545 276.302" stroke="black" stroke-width="3" stroke-linecap="round" stroke-linejoin="round"/>
<path d="M123.203 279.016C123.203 279.016 122.682 278.382 123.039 277.862C123.341 277.425 124.137 277.631 124.137 277.631" stroke="black" stroke-width="3" stroke-linecap="round" stroke-linejoin="round"/>
<path d="M136.965 38.6022L138.424 42.159" stroke="black" stroke-width="3" stroke-linecap="round" stroke-linejoin="round"/>
<path d="M118.226 65.039L113.176 48.529" stroke="black" stroke-width="3" stroke-linecap="round" stroke-linejoin="round"/>
<path d="M144.049 55.1772L145.246 57.98" stroke="black" stroke-width="3" stroke-linecap="round" stroke-linejoin="round"/>
<path d="M137.638 48.7292C137.514 48.0297 137.452 47.3206 137.453 46.6102C137.453 42.159 139.774 38.779 144.218 38.779C146.357 38.779 148.409 39.6282 149.921 41.1397C151.434 42.6513 152.284 44.7013 152.284 46.839C152.284 48.9766 151.434 51.0267 149.921 52.5383C148.409 54.0498 146.357 54.899 144.218 54.899C143.296 54.9057 142.383 54.7151 141.541 54.34" stroke="black" stroke-width="3" stroke-linecap="round" stroke-linejoin="round"/>
<path d="M96.6543 54.6806L137.118 39.2106C137.118 39.2106 134.602 27.5548 127.577 26.7306C120.552 25.9064 114.394 41.2906 114.394 41.2906L96.6543 54.6806Z" stroke="black" stroke-width="3" stroke-linecap="round" stroke-linejoin="round"/>
<path d="M114.388 41.2906L133.209 40.6848" stroke="black" stroke-width="3" stroke-linecap="round" stroke-linejoin="round"/>
<path d="M131.344 40.7706C131.344 40.7706 130.894 37.05 131.779 34.879C132.819 32.3206 133.946 31.499 133.946 31.499" stroke="black" stroke-width="3" stroke-linecap="round" stroke-linejoin="round"/>
<path d="M131.865 34.5306L117.771 34.5748" stroke="black" stroke-width="3" stroke-linecap="round" stroke-linejoin="round"/>
<path d="M124.569 44.6212L129.007 57.7122L124.243 59.3268L119.805 46.2332" stroke="black" stroke-width="3" stroke-linecap="round" stroke-linejoin="round"/>
<path d="M131.615 41.4362C131.821 41.8743 131.935 42.3503 131.948 42.8344C131.962 43.3185 131.875 43.8001 131.693 44.2489C131.511 44.6977 131.238 45.1041 130.891 45.4424C130.544 45.7808 130.131 46.0437 129.678 46.2148C129.225 46.3859 128.741 46.4614 128.257 46.4366C127.773 46.4118 127.299 46.2871 126.866 46.0705C126.433 45.854 126.049 45.5501 125.738 45.178C125.428 44.806 125.198 44.3739 125.063 43.9088" stroke="black" stroke-width="3" stroke-linecap="round" stroke-linejoin="round"/>
<path d="M120.698 49.114C120.369 49.4864 119.965 49.7844 119.512 49.9884C119.058 50.1924 118.567 50.2976 118.07 50.297C116.465 50.297 115.273 49.517 114.852 48.0454" stroke="black" stroke-width="3" stroke-linecap="round" stroke-linejoin="round"/>
<path d="M129.507 42.2968C129.637 42.4809 129.721 42.693 129.753 42.9158C129.785 43.1386 129.764 43.3658 129.691 43.5789C129.619 43.792 129.497 43.985 129.336 44.1422C129.175 44.2994 128.979 44.4164 128.764 44.4836C128.549 44.5509 128.321 44.5664 128.099 44.5291C127.877 44.4918 127.667 44.4026 127.486 44.2688C127.304 44.135 127.157 43.9603 127.057 43.7591C126.956 43.5578 126.904 43.3356 126.905 43.1106" stroke="black" stroke-width="3" stroke-linecap="round" stroke-linejoin="round"/>
<path d="M119.051 46.3762C119.181 46.5603 119.265 46.7724 119.297 46.9952C119.329 47.218 119.308 47.4452 119.235 47.6583C119.163 47.8714 119.041 48.0644 118.88 48.2216C118.719 48.3788 118.523 48.4958 118.308 48.563C118.093 48.6303 117.865 48.6458 117.643 48.6085C117.421 48.5712 117.211 48.482 117.029 48.3482C116.848 48.2144 116.701 48.0397 116.601 47.8385C116.5 47.6372 116.448 47.415 116.449 47.19" stroke="black" stroke-width="3" stroke-linecap="round" stroke-linejoin="round"/>
<path d="M134.552 192.829C134.552 192.829 125.576 171.249 129.088 133.809C132.601 96.369 137.479 88.049 137.479 88.049L128.503 62.439C128.503 62.439 125.641 62.114 121.608 63.349C119.975 63.82 118.509 64.7441 117.38 66.014L126.617 88.959C126.617 88.959 118.811 103.259 117.38 136.539C115.949 169.819 122.063 191.399 122.063 191.399" stroke="black" stroke-width="3" stroke-linecap="round" stroke-linejoin="round"/>
<path d="M127.687 62.4C131.376 61.2508 136.978 59.5712 139.952 58.994C144.635 58.084 150.879 57.954 150.879 57.954C150.879 57.954 152.31 60.749 153.286 69.329C154.046 76.0058 154.002 79.729 154.002 79.729C154.002 79.729 205.162 85.293 230.085 136.279C252.12 181.345 225.748 214.451 225.748 214.451C225.748 214.451 218.816 218.785 204.246 215.665C189.676 212.545 181.521 206.305 183.952 186.719C186.382 167.133 189.501 165.571 189.501 165.571C189.501 165.571 182.939 157.251 178.399 131.599C172.849 100.225 188.286 91.9048 188.286 91.9048" stroke="black" stroke-width="3" stroke-linecap="round" stroke-linejoin="round"/>
<path d="M99.2119 182.211C99.4279 184.642 99.5215 185.461 99.5215 185.461C99.5215 185.461 114.787 193.609 144.448 193.261C163.454 193.04 176.31 190.328 183.475 188.409" stroke="black" stroke-width="3" stroke-linecap="round" stroke-linejoin="round"/>
<path d="M98.7354 140.309C98.7041 141.02 98.6773 141.742 98.6547 142.475C98.5012 146.986 98.4127 151.094 98.3711 154.825" stroke="black" stroke-width="3" stroke-linecap="round" stroke-linejoin="round"/>
<path d="M117.625 66.729L115.543 68.289L122.547 89.96L105.011 100.339C105.011 100.339 102.979 104.478 101.168 115.31" stroke="black" stroke-width="3" stroke-linecap="round" stroke-linejoin="round"/>
<path d="M144.31 50.609C143.62 50.609 142.958 50.3351 142.47 49.8475C141.982 49.3599 141.708 48.6986 141.708 48.009C141.708 47.3194 141.982 46.6581 142.47 46.1705C142.958 45.6829 143.62 45.409 144.31 45.409" stroke="black" stroke-width="3" stroke-linecap="round" stroke-linejoin="round"/>
<path d="M141.708 47.9466C141.949 47.6892 142.238 47.482 142.56 47.3368C142.881 47.1916 143.228 47.1112 143.58 47.1003C143.933 47.0895 144.284 47.1483 144.614 47.2734C144.943 47.3986 145.245 47.5876 145.501 47.8296" stroke="black" stroke-width="3" stroke-linecap="round" stroke-linejoin="round"/>
<path d="M77.2758 130.385C77.2758 130.385 74.7598 130.211 72.7642 127.005C72.2663 126.196 71.947 125.291 71.8277 124.35C71.7083 123.408 71.7916 122.452 72.0721 121.545C72.0721 121.545 63.7461 127.005 58.6283 121.285C53.5105 115.565 62.8771 114.439 66.694 112.271C70.5109 110.102 72.8526 105.945 80.4838 107.331C88.1151 108.716 91.2191 129.706 79.0086 137.665C65.0471 146.765 52.8184 134.719 52.8184 134.719" stroke="black" stroke-width="3" stroke-linecap="round" stroke-linejoin="round"/>
<path d="M79.6169 106.725C79.6169 106.725 76.3203 93.9848 68.0803 97.279C62.8948 99.359 65.2677 106.314 67.8981 111.496" stroke="black" stroke-width="3" stroke-linecap="round" stroke-linejoin="round"/>
<path d="M63.4053 123.89C64.0051 124.495 64.7049 124.992 65.4737 125.359C68.0444 126.529 70.2013 125.203 70.8075 123.742C70.9959 123.266 71.1244 122.769 71.19 122.262" stroke="black" stroke-width="3" stroke-linecap="round" stroke-linejoin="round"/>
<path d="M64.8666 101.871C64.8666 101.871 62.6576 99.84 59.1867 102.001C56.1946 103.865 57.1521 109.78 58.9266 115.635" stroke="black" stroke-width="3" stroke-linecap="round" stroke-linejoin="round"/>
<path d="M57.116 106.86C57.116 106.86 53.7336 104.814 50.2966 108.02C47.2212 110.898 49.2558 122.925 54.6755 127.26C60.0951 131.594 63.4099 127.735 63.9563 126.74C64.3856 125.96 64.167 124.805 63.9095 123.981" stroke="black" stroke-width="3" stroke-linecap="round" stroke-linejoin="round"/>
<path d="M48.8654 114.481C48.8654 114.481 46.914 112.315 43.2271 114.395C39.0225 116.769 40.1491 128.349 47.2184 132.811C54.2876 137.272 55.5443 131.966 55.7603 131.035C56.1505 129.259 54.6753 127.265 54.6753 127.265" stroke="black" stroke-width="3" stroke-linecap="round" stroke-linejoin="round"/>
<path d="M87.2637 120.809C87.2637 120.809 92.4388 123.232 95.0692 125.229C96.9556 126.659 98.1706 127.699 98.1706 127.699" stroke="black" stroke-width="3" stroke-linecap="round" stroke-linejoin="round"/>
<path d="M63.3271 140.504C63.3271 140.504 68.0105 151.294 78.4829 163.189C90.3214 176.644 99.2327 183.209 99.2327 183.209" stroke="black" stroke-width="3" stroke-linecap="round" stroke-linejoin="round"/>
<path d="M136.018 35.7552C136.018 35.7552 138.164 35.3652 140.05 33.124C141.937 30.8828 142.002 29.614 144.18 29.549C146.357 29.484 147.786 33.254 143.529 36.14C139.272 39.026 137.09 38.9688 137.09 38.9688" stroke="black" stroke-width="3" stroke-linecap="round" stroke-linejoin="round"/>
<path d="M45.1793 131.014L41.8594 132.792" stroke="black" stroke-width="3" stroke-linecap="round" stroke-linejoin="round"/>
<path d="M122.672 90.2148L84.542 110.36" stroke="black" stroke-width="3" stroke-linecap="round" stroke-linejoin="round"/>
<path d="M152.172 61.4172L202.794 31.3716C203.748 30.8914 204.791 30.6109 205.858 30.5474C210.058 30.2874 213.664 33.3658 213.924 37.4114C214.083 39.9412 213.432 42.5854 209.488 44.7928L153.79 74.0194" stroke="black" stroke-width="3" stroke-linecap="round" stroke-linejoin="round"/>
<path d="M79.0215 104.835L119.517 80.8002" stroke="black" stroke-width="3" stroke-linecap="round" stroke-linejoin="round"/>
<path d="M38.9893 128.612L42.0568 126.789" stroke="black" stroke-width="3" stroke-linecap="round" stroke-linejoin="round"/>
<path d="M39.6043 139.856C41.2747 138.898 41.066 135.399 39.1383 132.039C37.2105 128.68 34.2936 126.732 32.6232 127.689C30.9528 128.647 31.1614 132.146 33.0892 135.506C35.017 138.865 37.9339 140.813 39.6043 139.856Z" stroke="black" stroke-width="3" stroke-linecap="round" stroke-linejoin="round"/>
<path d="M32.8613 127.603C35.9836 125.926 38.536 127.299 40.8854 131.503C42.6703 134.68 42.9955 138.398 39.5481 139.88" stroke="black" stroke-width="3" stroke-linecap="round" stroke-linejoin="round"/>
<path d="M166.329 116.194H138.814V121.329H166.329V116.194Z" stroke="black" stroke-width="3" stroke-linecap="round" stroke-linejoin="round"/>
<path d="M165.319 121.524V135.702C165.316 137.141 164.743 138.52 163.725 139.538C162.707 140.555 161.327 141.129 159.887 141.133H145.257C143.817 141.126 142.439 140.551 141.422 139.534C140.404 138.517 139.829 137.14 139.821 135.702V121.524" stroke="black" stroke-width="3" stroke-linecap="round" stroke-linejoin="round"/>
<path d="M175.37 156.517H138.814V162.539H175.37V156.517Z" stroke="black" stroke-width="3" stroke-linecap="round" stroke-linejoin="round"/>
<path d="M174.186 162.76V179.4C174.181 181.086 173.508 182.701 172.315 183.894C171.123 185.086 169.506 185.759 167.819 185.765H146.37C144.68 185.76 143.062 185.087 141.867 183.894C140.673 182.7 140 181.083 139.995 179.395V162.76" stroke="black" stroke-width="3" stroke-linecap="round" stroke-linejoin="round"/>
<path d="M98.681 120.484H106.096L108.469 115.349H99.818C99.818 115.349 99.0712 115.999 98.8111 117.754C98.6529 118.655 98.6092 119.572 98.681 120.484Z" stroke="black" stroke-width="3" stroke-linecap="round" stroke-linejoin="round"/>
<path d="M99.2322 120.45C99.2322 120.45 98.4205 124.579 98.0614 131.045C97.7023 137.511 97.9313 140.244 97.9313 140.244V140.288H102.971C104.411 140.284 105.791 139.71 106.809 138.693C107.827 137.675 108.4 136.296 108.404 134.857V115.38" stroke="black" stroke-width="3" stroke-linecap="round" stroke-linejoin="round"/>
<path d="M161.872 162.539H152.311V165.854H161.872V162.539Z" stroke="black" stroke-width="3" stroke-linecap="round" stroke-linejoin="round"/>
<path d="M95.488 160.979H104.009L106.379 154.96H97.1194C97.1194 154.96 96.4351 155.719 95.9147 157.734C95.3943 159.749 95.488 160.979 95.488 160.979Z" stroke="black" stroke-width="3" stroke-linecap="round" stroke-linejoin="round"/>
<path d="M100.145 160.976H96.6953V164.291H100.145V160.976Z" stroke="black" stroke-width="3" stroke-linecap="round" stroke-linejoin="round"/>
<path d="M95.8836 161.109C95.8836 161.109 95.4439 175.321 96.2088 178.441C97.2157 182.559 99.8644 182.296 99.8644 182.296C105.281 182.296 106.239 180.609 106.239 175.929V155.064" stroke="black" stroke-width="3" stroke-linecap="round" stroke-linejoin="round"/>
<path d="M112.741 189.925L113.087 198.419C113.087 198.419 129.06 203.359 152.029 202.059C173.278 200.845 183.512 197.205 183.512 197.205" stroke="black" stroke-width="3" stroke-linecap="round" stroke-linejoin="round"/>
<path d="M146.484 202.405L151.168 228.491C151.168 228.491 165.129 276.591 165.043 276.851C164.958 277.111 170.853 282.139 182.041 280.665C193.229 279.191 195.571 274.339 195.571 274.339L187.505 248.685L189.912 220.389" stroke="black" stroke-width="3" stroke-linecap="round" stroke-linejoin="round"/>
<path d="M191.728 211.094C191.728 211.094 186.178 228.309 193.549 238.849C196.026 242.388 200.574 246.454 208.445 247.104C221.064 248.144 223.587 242.9 223.58 237.549C223.58 237.289 223.58 237.029 223.554 236.769C223.325 233.004 221.584 229.687 221.584 229.687" stroke="black" stroke-width="3" stroke-linecap="round" stroke-linejoin="round"/>
<path d="M218.296 234.081C218.296 234.081 222.069 231.265 223.086 224.744C224.236 217.383 222.826 215.839 222.826 215.839" stroke="black" stroke-width="3" stroke-linecap="round" stroke-linejoin="round"/>
<path d="M223.554 236.766C223.554 236.766 228.861 234.918 227.438 229.486C226.332 225.261 223.405 224.026 223.405 224.026" stroke="black" stroke-width="3" stroke-linecap="round" stroke-linejoin="round"/>
<path d="M227.439 229.489C227.439 229.489 229.041 226.509 227.309 222.534C226.008 219.544 223.666 218.829 223.666 218.829" stroke="black" stroke-width="3" stroke-linecap="round" stroke-linejoin="round"/>
<path d="M217.161 232.609C217.161 232.609 218.202 233.475 218.551 235.425" stroke="black" stroke-width="3" stroke-linecap="round" stroke-linejoin="round"/>
<path d="M121.413 200.411L120.112 235.425L130.353 267.579C130.353 267.579 135.037 271.045 142.668 270.525C150.299 270.005 151.514 267.925 151.514 267.925L150.819 227.279" stroke="black" stroke-width="3" stroke-linecap="round" stroke-linejoin="round"/>
<path d="M135.897 270.091L137.113 278.629" stroke="black" stroke-width="3" stroke-linecap="round" stroke-linejoin="round"/>
<path d="M144.83 270.439L146.089 278.759" stroke="black" stroke-width="3" stroke-linecap="round" stroke-linejoin="round"/>
<path d="M173.71 280.925L174.059 282.875" stroke="black" stroke-width="3" stroke-linecap="round" stroke-linejoin="round"/>
<path d="M184.467 280.405L188.411 295.919" stroke="black" stroke-width="3" stroke-linecap="round" stroke-linejoin="round"/>
<path d="M152.724 120.071C153.442 120.071 154.025 119.489 154.025 118.771C154.025 118.053 153.442 117.471 152.724 117.471C152.005 117.471 151.423 118.053 151.423 118.771C151.423 119.489 152.005 120.071 152.724 120.071Z" stroke="black" stroke-width="3" stroke-linecap="round" stroke-linejoin="round"/>
<path d="M100.795 117.951C100.93 117.246 100.692 116.608 100.263 116.525C99.8341 116.443 99.3766 116.948 99.2412 117.653C99.1058 118.358 99.3439 118.997 99.7729 119.079C100.202 119.161 100.659 118.656 100.795 117.951Z" stroke="black" stroke-width="3" stroke-linecap="round" stroke-linejoin="round"/>
<path d="M122.584 34.424C123.141 32.8353 123.924 31.3353 124.91 29.9702C125.778 28.8005 126.772 27.7305 127.876 26.78" stroke="black" stroke-width="3" stroke-linecap="round" stroke-linejoin="round"/>
<path d="M183.691 193.999C183.691 193.999 183.712 194.277 183.795 194.779" stroke="black" stroke-width="3" stroke-linecap="round" stroke-linejoin="round"/>
<path d="M184.428 197.314C185.945 201.994 190.493 210.257 203.892 212.719C217.234 215.168 223.765 213.291 226.528 211.89" stroke="black" stroke-width="3" stroke-linecap="round" stroke-linejoin="round" stroke-dasharray="6.06 10.1"/>
<path d="M227.662 211.219C227.878 211.074 228.08 210.909 228.263 210.725" stroke="black" stroke-width="3" stroke-linecap="round" stroke-linejoin="round"/>
<path d="M88.8897 122.759C88.8897 122.759 88.8897 132.639 81.6045 138.011C74.3193 143.382 65.127 143.385 65.127 143.385" stroke="black" stroke-width="3" stroke-linecap="round" stroke-linejoin="round" stroke-dasharray="6 10"/>
<path d="M133.902 190.853C155.909 192.07 175.717 187.925 184.152 185.809" stroke="black" stroke-width="3" stroke-linecap="round" stroke-linejoin="round" stroke-dasharray="6 10"/>
<path d="M99.9922 183.251C99.9922 183.251 105.435 187.33 121.549 189.644" stroke="black" stroke-width="3" stroke-linecap="round" stroke-linejoin="round" stroke-dasharray="6 10"/>
<path d="M198.001 98.839C198.001 98.839 193.318 100.051 187.94 104.385C182.562 108.719 177.532 114.091 177.532 114.091" stroke="black" stroke-width="3" stroke-linecap="round" stroke-linejoin="round" stroke-dasharray="6 10"/>
<path d="M151.163 82.3706L180.304 100.571" stroke="black" stroke-width="3" stroke-linecap="round" stroke-linejoin="round" stroke-dasharray="6 10"/>
<path d="M152.813 104.78C152.746 104.776 152.679 104.786 152.617 104.811C152.555 104.836 152.499 104.874 152.454 104.923C152.359 105.026 152.281 105.144 152.225 105.271C152.166 105.408 152.122 105.55 152.092 105.695C152.069 105.822 152.036 105.946 151.993 106.067C151.732 106.826 151.432 107.572 151.095 108.3C150.757 109.039 150.262 109.695 149.644 110.222C149.397 110.438 149.122 110.619 148.827 110.76C148.521 110.912 148.192 111.011 147.853 111.054C147.524 111.098 147.188 111.072 146.87 110.976C146.525 110.863 146.219 110.655 145.988 110.375C145.676 110.02 145.433 109.61 145.272 109.166C145.111 108.719 144.996 108.256 144.932 107.786C144.869 107.321 144.843 106.853 144.854 106.384C144.854 105.919 144.89 105.474 144.932 105.058C145.02 104.194 145.175 103.338 145.395 102.497C145.61 101.669 145.921 100.868 146.321 100.11C146.523 99.7143 146.755 99.3337 147.013 98.9716C147.275 98.6031 147.622 98.3033 148.025 98.098C148.179 98.009 148.35 97.9551 148.527 97.9403C148.704 97.9254 148.882 97.95 149.048 98.0122C149.211 98.0854 149.358 98.1929 149.476 98.3275C149.595 98.4621 149.683 98.6206 149.735 98.7922C149.844 99.1223 149.895 99.4689 149.886 99.8166C149.879 100.18 149.819 100.541 149.709 100.888C149.602 101.228 149.436 101.547 149.217 101.829C149.006 102.105 148.731 102.326 148.415 102.471C148.206 102.586 148.008 102.7 147.822 102.814C147.632 102.935 147.491 103.119 147.424 103.334C147.324 103.583 147.315 103.859 147.398 104.114C147.485 104.384 147.651 104.621 147.874 104.796C148.123 105.027 148.448 105.161 148.788 105.173C149.089 105.175 149.386 105.096 149.646 104.944C149.921 104.788 150.171 104.593 150.388 104.364C150.587 104.159 150.767 103.936 150.926 103.698C151.145 103.345 151.32 102.966 151.447 102.57C151.578 102.165 151.657 101.745 151.681 101.319C151.704 100.889 151.672 100.457 151.587 100.035C151.505 99.6102 151.357 99.2006 151.15 98.8208C150.766 98.0531 150.141 97.4322 149.37 97.0528C148.589 96.7059 147.708 96.6569 146.893 96.915C146.044 97.1207 145.257 97.5283 144.599 98.1032C143.962 98.6661 143.437 99.3434 143.05 100.1C142.701 100.793 142.444 101.529 142.285 102.289C142.117 103.083 142.042 103.893 142.062 104.705C142.081 105.525 142.195 106.339 142.403 107.133C142.609 107.926 142.932 108.684 143.363 109.382C143.588 109.75 143.837 110.104 144.107 110.44C144.383 110.781 144.701 111.086 145.054 111.348C145.405 111.605 145.789 111.814 146.196 111.969C146.623 112.128 147.079 112.196 147.533 112.169C148.194 112.13 148.833 111.921 149.389 111.561C149.922 111.222 150.405 110.811 150.825 110.339C151.347 109.747 151.804 109.1 152.188 108.41C152.566 107.724 152.879 107.004 153.122 106.259C153.159 106.163 153.208 106.033 153.265 105.869C153.322 105.716 153.358 105.556 153.372 105.394C153.385 105.248 153.351 105.102 153.276 104.978C153.222 104.908 153.151 104.854 153.07 104.819C152.989 104.784 152.9 104.771 152.813 104.78Z" fill="#8C1C2F" stroke="#8C1C2F" stroke-width="0.46" stroke-linecap="round" stroke-linejoin="round"/>
<path d="M153.429 102.011C153.514 101.926 153.563 101.811 153.566 101.691C153.568 101.576 153.609 101.464 153.681 101.374C153.949 101.046 154.2 100.705 154.433 100.352C154.657 100.006 154.873 99.658 155.078 99.3122C155.174 99.1432 155.263 98.9768 155.338 98.8078C155.414 98.6388 155.5 98.4698 155.575 98.2878C155.654 98.1053 155.689 97.9067 155.676 97.7083C155.663 97.5099 155.604 97.3174 155.502 97.1464C155.309 96.8078 155.018 96.5358 154.667 96.3664C154.336 96.2015 153.962 96.1468 153.598 96.2104C153.411 96.2521 153.239 96.3446 153.101 96.4776C152.963 96.6107 152.865 96.7791 152.817 96.9644C152.736 97.1998 152.709 97.4502 152.736 97.6976C152.765 97.9576 152.778 98.2046 152.781 98.4334C152.781 98.7818 152.781 99.1302 152.765 99.4734C152.752 99.8223 152.715 100.17 152.653 100.513C152.632 100.61 152.601 100.724 152.56 100.862C152.518 101 152.479 101.135 152.445 101.27C152.412 101.399 152.398 101.532 152.403 101.665C152.404 101.786 152.447 101.904 152.523 101.998C152.581 102.069 152.654 102.125 152.737 102.164C152.82 102.203 152.91 102.222 153.002 102.222C153.085 102.229 153.169 102.213 153.245 102.176C153.32 102.139 153.383 102.082 153.429 102.011Z" fill="#8C1C2F" stroke="#8C1C2F" stroke-width="0.46" stroke-linecap="round" stroke-linejoin="round"/>
<path d="M158.489 101.902C158.347 101.656 158.141 101.452 157.894 101.312C157.667 101.188 157.415 101.12 157.157 101.114C156.897 101.11 156.638 101.157 156.395 101.252C156.149 101.346 155.922 101.482 155.724 101.655C155.343 101.974 155.071 102.403 154.943 102.882C154.821 103.366 154.821 103.872 154.943 104.356C155.057 104.877 155.323 105.352 155.708 105.721C156.112 106.094 156.573 106.399 157.074 106.626C157.335 106.748 157.588 106.885 157.834 107.037C158.083 107.18 158.288 107.389 158.427 107.64C158.539 107.854 158.593 108.093 158.586 108.334C158.582 108.57 158.538 108.804 158.456 109.026C158.394 109.189 158.306 109.341 158.195 109.476C158.08 109.613 157.942 109.73 157.787 109.821C157.629 109.915 157.461 109.989 157.285 110.04C157.101 110.093 156.91 110.11 156.72 110.092C156.469 110.08 156.229 109.989 156.033 109.832C155.848 109.684 155.699 109.495 155.599 109.281C155.498 109.07 155.445 108.84 155.443 108.607C155.435 108.385 155.484 108.165 155.586 107.968C155.631 107.888 155.684 107.813 155.744 107.744L155.924 107.541C155.981 107.477 156.029 107.405 156.067 107.328C156.106 107.239 156.121 107.141 156.111 107.045C156.099 106.846 156.011 106.66 155.867 106.525C155.723 106.385 155.539 106.294 155.341 106.263C155.143 106.231 154.941 106.262 154.761 106.35C154.592 106.436 154.44 106.553 154.313 106.694C154.183 106.836 154.076 106.997 153.996 107.172C153.921 107.327 153.867 107.492 153.835 107.661C153.762 108.077 153.807 108.504 153.965 108.896C154.124 109.296 154.366 109.657 154.675 109.957C154.99 110.259 155.367 110.489 155.781 110.63C156.21 110.778 156.672 110.798 157.113 110.69C157.523 110.601 157.906 110.416 158.229 110.149C158.545 109.895 158.806 109.579 158.997 109.221C159.183 108.864 159.294 108.473 159.322 108.072C159.353 107.656 159.288 107.239 159.132 106.852C158.961 106.401 158.682 105.999 158.32 105.68C157.951 105.353 157.515 105.111 157.043 104.97C156.817 104.907 156.603 104.808 156.408 104.679C156.221 104.557 156.056 104.406 155.919 104.231C155.788 104.066 155.693 103.876 155.638 103.672C155.583 103.467 155.57 103.253 155.599 103.043C155.69 102.608 155.919 102.214 156.252 101.92C156.419 101.773 156.62 101.671 156.837 101.621C156.954 101.599 157.074 101.601 157.19 101.627C157.306 101.653 157.415 101.702 157.511 101.772C157.562 101.802 157.606 101.842 157.64 101.89C157.675 101.938 157.699 101.992 157.711 102.05C157.735 102.161 157.735 102.275 157.711 102.385C157.682 102.501 157.634 102.612 157.571 102.713C157.512 102.807 157.444 102.894 157.365 102.973C157.297 103.049 157.205 103.1 157.105 103.119C157.009 103.137 156.916 103.17 156.829 103.215C156.717 103.262 156.62 103.34 156.548 103.438C156.48 103.53 156.435 103.636 156.416 103.748C156.398 103.862 156.406 103.98 156.439 104.091C156.493 104.258 156.597 104.404 156.736 104.511C156.876 104.617 157.044 104.678 157.22 104.686C157.434 104.694 157.646 104.64 157.831 104.53C158.049 104.403 158.24 104.233 158.393 104.031C158.543 103.837 158.652 103.614 158.713 103.376C158.84 102.875 158.762 102.345 158.497 101.902H158.489Z" fill="#8C1C2F" stroke="#8C1C2F" stroke-width="0.46" stroke-linecap="round" stroke-linejoin="round"/>
</svg>
