<svg width="226" height="282" viewBox="0 0 226 282" fill="none" xmlns="http://www.w3.org/2000/svg">
<path d="M131.26 281.93C176.106 281.93 212.462 273.813 212.462 263.8C212.462 253.787 176.106 245.67 131.26 245.67C86.4137 245.67 50.0586 253.787 50.0586 263.8C50.0586 273.813 86.4137 281.93 131.26 281.93Z" fill="black"/>
<path d="M155.863 279.553C169.349 279.286 180.22 276.735 180.144 273.856C180.068 270.976 169.074 268.859 155.588 269.126C142.102 269.393 131.232 271.944 131.308 274.824C131.383 277.703 142.377 279.821 155.863 279.553Z" fill="black"/>
<path d="M104.109 261.848C123.044 261.123 138.325 259.184 138.24 257.516C138.155 255.849 122.736 255.085 103.801 255.81C84.8657 256.535 69.5845 258.475 69.6696 260.142C69.7546 261.81 85.1735 262.573 104.109 261.848Z" fill="black"/>
<path d="M89.6273 153.611L89.2324 161.166C89.2324 161.166 102.489 165.584 130.854 165.022C159.219 164.461 166.079 159.961 166.079 159.961V153.293L89.6273 153.611Z" fill="white"/>
<path d="M37.695 107.871L62.6645 89.7966C62.6645 89.7966 66.1378 90.8739 68.863 92.6355C70.5806 93.7565 72.1972 94.9891 73.699 96.3227L67.1584 141.726C67.1584 141.726 50.9014 128.676 44.7946 120.311C38.6878 111.946 37.1055 109.1 37.1055 109.1L37.695 107.871Z" fill="#C18B1E"/>
<path d="M73.5908 26.8735L107.17 15.877L107.593 15.2456L90.9907 15.3203L73.5908 26.8735Z" fill="#C18B1E"/>
<path d="M91.5967 15.2456L108.465 15.0263V9.56064L94.3497 9.18469L92.3948 12.214L91.5967 15.2456Z" fill="#8C1C2F" stroke="#8C1C2F" stroke-width="0.46" stroke-linecap="round" stroke-linejoin="round"/>
<path d="M95.3922 7.78687C95.3922 7.78687 99.7081 2.07535 103.996 2.00306C108.284 1.93076 111.527 6.44936 111.527 6.44936C111.527 6.44936 109.958 8.26403 109.63 8.76289C109.52 8.9126 109.373 9.03874 109.198 9.13182C109.024 9.22491 108.827 9.28251 108.624 9.3003L94.6914 9.18703L95.3922 7.78687Z" fill="#C18B1E"/>
<path d="M113.707 14.1756C114.083 13.8145 114.432 13.433 114.753 13.0333C114.753 13.0333 113.662 10.1993 113.059 8.62558C112.456 7.0519 111.813 6.81091 111.813 6.81091C110.574 7.41743 109.644 8.40726 109.21 9.58232C108.465 11.5705 108.623 14.6817 108.623 14.6817L111.527 15.33" fill="#C18B1E"/>
<path d="M113.565 14.8239C114.461 14.8239 114.463 13.6189 113.565 13.6189C112.667 13.6189 112.67 14.8239 113.565 14.8239Z" fill="black"/>
<path d="M116.233 12.92C118.155 12.3537 120.009 11.6274 121.769 10.7511C124.181 9.47626 125.732 5.78185 123.605 4.9191C121.477 4.05635 119.648 6.09273 118.043 7.95078C116.439 9.80883 114.67 10.2402 114.67 10.2402L116.233 12.92Z" fill="black"/>
<path d="M90.4453 25.4275L94.2301 36.1565L96.4047 36.6698C96.4047 36.6698 98.8324 35.595 101.321 35.3516C102.775 35.2077 104.238 35.1329 105.701 35.1274C105.701 35.1274 114.6 32.0982 117.937 31.7921C119.843 31.6272 121.736 31.3608 123.604 30.9944L122.345 28.3001C122.345 28.3001 132.058 27.2952 131.085 19.3425C130.112 11.3897 118.571 12.7007 117.008 15.6601C115.445 18.6195 115.393 19.3425 115.393 19.3425L112.72 18.7231L103.741 21.0583C103.741 21.0583 100.999 19.2461 98.8269 19.9883C96.655 20.7306 97.7145 23.4996 97.7145 23.4996L90.4453 25.4275Z" fill="#00EFBF"/>
<path d="M97.4307 22.0778L101.121 32.1754L106.196 30.6692L101.933 19.7064L97.4307 20.668V22.0778Z" fill="#00EFBF"/>
<path d="M91.1826 21.4656L96.4134 20.1064L97.3673 23.2827C97.3673 23.2827 94.6587 24.0684 93.0236 23.878C91.3884 23.6876 91.1826 21.4656 91.1826 21.4656Z" fill="white"/>
<path d="M102.033 17.952L109.263 15.5662C109.263 15.5662 111.104 19.3763 107.258 20.1065C102.442 21.0174 102.033 17.952 102.033 17.952Z" fill="white"/>
<path d="M92.8398 21.0343C92.8398 21.0343 92.8982 22.6779 95.376 21.9742C97.8538 21.2705 95.6374 19.9884 95.6374 19.9884L92.8398 21.0343Z" fill="#72F7B4"/>
<path d="M93.0234 21.0703C93.0234 21.0703 93.2042 22.7573 95.098 22.15C96.2103 21.7861 95.3927 20.1666 95.3927 20.1666L93.0234 21.0703Z" fill="black"/>
<path d="M103.996 17.3037C103.996 17.3037 104.383 18.8412 105.865 18.5087C107.347 18.1761 106.783 16.4626 106.783 16.4626L103.996 17.3037Z" fill="black"/>
<path d="M133.043 33.2333L183.455 7.18686C183.455 7.18686 189.573 3.99372 194.675 7.57004C199.778 11.1464 196.325 16.7398 193.393 18.1737C190.462 19.6076 133.797 45.3793 133.797 45.3793L133.043 33.2333Z" fill="white"/>
<path d="M59.847 78.8457L98.0395 61.516L94.6941 53.0957L54.7441 73.433L56.0011 75.9249L59.847 78.8457Z" fill="white"/>
<path d="M12.2611 95.6165L10.0364 96.4624C10.0364 96.4624 7.6143 93.9633 3.86012 95.1297C0.105942 96.2961 3.45967 102.47 5.09761 104.567C6.73554 106.664 11.3963 108.423 12.884 105.249C13.6162 103.741 13.654 102.047 12.9897 100.516L15.448 99.0941L12.2611 95.6165Z" fill="white"/>
<path d="M98.7881 59.7231L91.6802 40.5497L93.9049 39.1038L93.6435 38.4411C93.6435 38.4411 94.9171 36.7541 98.5434 35.8624C100.732 35.3222 103 35.0624 105.276 35.0913C105.276 35.0913 112.578 32.597 118.66 31.7921C124.742 30.9872 129.283 30.7896 129.283 30.7896C129.283 30.7896 130.86 34.684 131.533 37.2963C132.206 39.9087 132.437 46.1769 132.553 47.0951C132.67 48.0133 133.204 51.3558 133.204 51.3558C133.204 51.3558 140.415 51.5245 155.935 56.7396C171.455 61.9547 168.627 62.2824 168.627 62.2824C168.627 62.2824 160.501 68.3795 158.783 77.3902C157.064 86.4009 156.347 94.0187 159.219 106.791C162.092 119.564 169.486 131.838 169.486 131.838C169.486 131.838 166.541 140.031 165.871 143.861C165.201 147.69 164.325 153.303 164.325 153.303C164.325 153.303 141.452 157.836 120.062 157.479C98.6713 157.122 88.4989 153.293 88.4989 153.293L77.4449 150.286L74.5472 149.162C74.5472 149.162 72.3059 120.766 72.773 114.038C73.2402 107.309 73.3292 92.551 73.3292 92.551L76.8137 81.7064L78.9271 73.5126L98.7881 59.7231Z" fill="#C18B1E"/>
<path d="M52.8037 104.854C52.8037 104.854 61.9111 100.065 61.5301 88.2012C61.1491 76.3372 53.4072 76.6047 53.4072 76.6047C53.4072 76.6047 52.0167 67.4181 43.8104 66.9168C35.604 66.4155 38.6213 77.9229 38.6213 77.9229L37.292 71.4161C37.292 71.4161 34.8226 69.9702 31.6246 71.7872C28.4266 73.6043 29.6085 77.265 29.6085 77.265C29.6085 77.265 27.3365 74.2068 22.7814 76.9011C18.2264 79.5954 21.0879 86.1118 21.0879 86.1118C21.0879 86.1118 20.5818 82.7958 19.1274 82.6247C17.673 82.4536 10.7403 81.5884 12.2141 91.2546C13.688 100.921 24.1719 101.988 24.1719 101.988L25.4149 102.208C25.4149 102.208 30.6986 107.37 39.8754 107.7C49.0523 108.03 52.8037 104.854 52.8037 104.854Z" fill="#00EFBF"/>
<path d="M164.55 126.222C164.55 126.222 155.481 94.115 158.293 80.9158C161.63 65.2513 169.6 62.439 169.6 62.439C169.6 62.439 193.646 72.0136 210.081 96.7852C226.516 121.557 225.918 139.25 220.834 155.325C216.04 170.481 209.644 176.023 209.644 176.023C209.644 176.023 204.769 180.308 189.235 177.913C173.701 175.517 166.591 171.129 165.57 164.417C164.55 157.706 164.594 149.837 165.706 145.176C166.819 140.516 164.55 126.222 164.55 126.222Z" fill="#C18B1E"/>
<path d="M72.5337 120.882L82.0638 120.981L79.7334 126.461H69.8613L71.7134 120.882H72.5337Z" fill="#8C1C2F" stroke="#8C1C2F" stroke-width="0.46" stroke-linecap="round" stroke-linejoin="round"/>
<path d="M75.468 129.355L75.5987 127.225H81.9141V140.923C81.9141 140.923 82.9764 145.984 76.7667 146.143C70.557 146.302 70.7767 141.53 70.6961 140.359C70.6154 139.188 70.418 126.965 70.418 126.965H71.6193C71.6193 126.965 71.2939 129.476 71.6666 129.476C72.0392 129.476 75.468 129.355 75.468 129.355Z" fill="#8C1C2F" stroke="#8C1C2F" stroke-width="0.46" stroke-linecap="round" stroke-linejoin="round"/>
<path d="M75.0506 84.1694L84.0885 84.1984V101.581C84.0885 103.931 82.1419 107.654 78.0401 107.719C73.9383 107.784 72.0918 107.478 72.0918 107.478L74.3916 90.7389L74.425 89.3122L73.8354 88.9218C73.8354 88.9218 73.8688 86.2709 74.1858 85.5479C74.4223 85.0654 74.712 84.6038 75.0506 84.1694Z" fill="#8C1C2F" stroke="#8C1C2F" stroke-width="0.46" stroke-linecap="round" stroke-linejoin="round"/>
<path d="M116.833 84.8923H146.138L146.38 89.7122H144.934V103.087C144.934 103.087 145.407 107.365 139.497 107.967C133.588 108.57 123.229 108.028 123.229 108.028C123.229 108.028 117.876 107.907 117.737 100.436C117.598 92.9656 117.807 89.7122 117.807 89.7122L116.694 89.4109L116.833 84.8923Z" fill="#8C1C2F" stroke="#8C1C2F" stroke-width="0.46" stroke-linecap="round" stroke-linejoin="round"/>
<path d="M116.73 127.909V122.306H155.802V127.909H117.042" fill="#8C1C2F"/>
<path d="M116.73 127.909V122.306H155.802V127.909H117.042" stroke="#8C1C2F" stroke-width="0.46" stroke-linecap="round" stroke-linejoin="round"/>
<path d="M142.973 128.736H154.375V142.972C154.375 142.972 155.487 149.599 145.337 149.599C135.187 149.599 123.273 149.283 123.273 149.283C123.273 149.283 117.945 148.153 117.945 142.731V129.204H131.154V130.799H141.46V129.204L142.973 128.736Z" fill="#8C1C2F" stroke="#8C1C2F" stroke-width="0.46" stroke-linecap="round" stroke-linejoin="round"/>
<path d="M131.179 128.148H141.46V130.799H131.154L131.179 128.148Z" fill="white"/>
<path d="M71.8998 126.705L75.5983 126.683L75.4676 129.355L71.6689 129.476L71.8998 126.705Z" fill="white"/>
<path d="M172.334 176.795C172.334 176.795 166.552 200.108 184.831 205.095C203.11 210.081 206.831 200.696 206.831 200.696L207.301 196.703C207.301 196.703 211.725 194.864 211.711 192.156V189.447C211.711 189.447 213.015 185.271 211.127 183.145C209.239 181.019 207.278 180.349 207.278 180.349L205.554 178.636C199.478 179.447 193.283 179.296 187.27 178.19C177.606 176.342 173.196 175.78 173.196 175.78L172.334 176.795Z" fill="#00EFBF"/>
<path d="M125.245 168.878L130.137 189.664L144.758 233.864C144.758 233.864 149.742 238.479 161.48 237.537C173.218 236.594 177.386 231.536 177.386 231.536L168.766 207.757L172.423 175.787L164.252 163.335L125.245 168.878Z" fill="black"/>
<path d="M97.9843 166.458L96.7412 195.467L107.687 225.27C107.687 225.27 114.881 229.15 120.245 228.302C123.702 227.72 127.075 226.811 130.304 225.591L129.283 185.748L124.898 167.733L97.9843 166.458Z" fill="black"/>
<path d="M165.807 238.73L169.745 252.271H168.911C168.911 252.271 166.455 250.408 164.787 249.242C163.118 248.075 162.793 247.972 162.793 247.972C162.793 247.972 163.722 245.261 163.535 244.116C163.349 242.971 161.717 241.376 159.829 240.887C158.853 240.624 157.863 240.405 156.861 240.231L157.162 239.438L165.807 238.73Z" fill="white"/>
<path d="M114.917 235.513C116.396 237.062 118.502 238.064 120.805 238.313C124.603 238.684 124.436 235.211 124.436 235.211L122.982 228.302L113.722 228.061L114.917 235.513Z" fill="white"/>
<path d="M96.0931 32.1344C97.2895 32.1344 98.2594 31.2939 98.2594 30.2571C98.2594 29.2203 97.2895 28.3798 96.0931 28.3798C94.8966 28.3798 93.9268 29.2203 93.9268 30.2571C93.9268 31.2939 94.8966 32.1344 96.0931 32.1344Z" fill="#8C1C2F" stroke="#8C1C2F" stroke-width="0.46" stroke-linecap="round" stroke-linejoin="round"/>
<path d="M111.04 27.6157C112.237 27.6157 113.207 26.7752 113.207 25.7384C113.207 24.7016 112.237 23.8611 111.04 23.8611C109.844 23.8611 108.874 24.7016 108.874 25.7384C108.874 26.7752 109.844 27.6157 111.04 27.6157Z" fill="#8C1C2F" stroke="#8C1C2F" stroke-width="0.46" stroke-linecap="round" stroke-linejoin="round"/>
<path d="M121.074 165.504L125.385 165.624" stroke="black" stroke-miterlimit="10"/>
<path d="M131.608 88.4469C132.358 88.4469 132.965 87.9344 132.965 87.3022C132.965 86.67 132.358 86.1575 131.608 86.1575C130.859 86.1575 130.251 86.67 130.251 87.3022C130.251 87.9344 130.859 88.4469 131.608 88.4469Z" fill="white" stroke="black" stroke-miterlimit="10"/>
<path d="M75.2954 87.4829C75.8145 87.4829 76.2353 86.9564 76.2353 86.3069C76.2353 85.6574 75.8145 85.1309 75.2954 85.1309C74.7763 85.1309 74.3555 85.6574 74.3555 86.3069C74.3555 86.9564 74.7763 87.4829 75.2954 87.4829Z" fill="white" stroke="black" stroke-miterlimit="10"/>
<path d="M192.589 17.2941L192.503 17.311C193.349 16.5686 193.922 15.6261 194.15 14.6021C194.379 13.5781 194.253 12.5183 193.789 11.5562C193.324 10.594 192.541 9.77247 191.539 9.19484C190.537 8.61721 189.36 8.30933 188.157 8.30994C186.858 8.30994 184.542 9.20161 184.542 9.20161L133.31 34.2841L135.395 43.5623C135.395 43.5623 191.713 17.9569 192.336 17.4508L192.589 17.2941Z" fill="black"/>
<path d="M188.065 13.3249C190.608 13.3249 192.67 12.1499 192.67 10.7005C192.67 9.25103 190.608 8.07605 188.065 8.07605C185.522 8.07605 183.46 9.25103 183.46 10.7005C183.46 12.1499 185.522 13.3249 188.065 13.3249Z" fill="white"/>
<path d="M180.818 15.8457C182.311 15.8457 183.521 15.1498 183.521 14.2913C183.521 13.4329 182.311 12.7369 180.818 12.7369C179.325 12.7369 178.115 13.4329 178.115 14.2913C178.115 15.1498 179.325 15.8457 180.818 15.8457Z" fill="white"/>
<path d="M93.1963 55.1902C92.9182 55.3709 70.5684 66.8783 70.5684 66.8783L74.9121 71.9994L97.5762 61.6367L93.1963 55.1902Z" fill="black"/>
<path d="M70.3926 65.4924C70.3926 65.4924 70.5678 67.2179 72.2001 69.2881C73.9382 71.4859 75.1201 72.0281 75.1201 72.0281" stroke="black" stroke-width="3" stroke-linecap="round" stroke-linejoin="round"/>
<path d="M75.4288 70.5171C75.4288 70.5171 74.4805 70.8641 74.8031 71.3292C75.1257 71.7943 75.896 71.2859 75.896 71.2859C75.896 71.2859 75.1674 71.7678 75.1312 71.751C75.0951 71.7341 74.1162 70.975 74.1162 70.975L75.4288 70.5171Z" fill="black"/>
<path d="M71.3772 65.2732C71.3772 65.2732 70.7682 65.5744 70.9406 66.0636C71.113 66.5529 71.8973 66.1986 71.8973 66.1986L71.063 66.6975L70.6709 65.5142L71.3772 65.2732Z" fill="black"/>
<path d="M130.112 53.4429L161.536 70.3919L168.675 63.0826C168.675 63.0826 163.483 57.9398 148.466 54.4068C133.449 50.8739 133.822 51.5149 133.822 51.5149L130.112 53.4429Z" fill="#68523C"/>
<path d="M158.198 82.6029C158.198 82.6029 167.097 74.8911 171.825 72.2402C176.552 69.5893 179.889 68.6253 179.889 68.6253C179.889 68.6253 174.883 64.0465 170.99 63.8055C167.097 63.5645 162.834 68.1434 160.701 72.5608C158.568 76.9781 158.198 82.6029 158.198 82.6029Z" fill="#68523C"/>
<path d="M97.5314 22.9164C97.2978 22.9574 95.3067 24.3214 93.8689 24.0009C92.4312 23.6803 90.8573 21.7114 90.8573 21.7114L89.5586 22.3549L90.9713 26.8735C90.9713 26.8735 91.5998 25.6059 97.8094 23.4996L97.5314 22.9164Z" fill="black"/>
<path d="M102.817 21.9741C110.048 19.9209 115.142 18.981 115.142 18.981L115.838 17.2121C115.838 17.2121 116.207 16.3301 116.163 16.2096C116.118 16.0891 115.003 13.7997 114.817 13.7997C114.631 13.7997 109.255 15.5662 109.255 15.5662C109.255 15.5662 109.859 19.704 106.661 20.2655C103.463 20.827 101.469 18.258 101.469 18.258L102.817 21.9741Z" fill="black"/>
<path d="M114.917 10.1534L117.003 12.9249L114.847 13.3779C114.847 13.3779 113.805 10.3655 113.908 10.3342C114.01 10.3029 114.917 10.1534 114.917 10.1534Z" fill="black"/>
<path d="M116.105 9.89319C115.967 9.96255 115.848 10.0568 115.756 10.1694C115.664 10.2821 115.601 10.4106 115.571 10.5463C115.593 10.8414 115.688 11.1291 115.849 11.3897L114.689 10.245L116.105 9.89319Z" fill="black"/>
<path d="M116.232 11.9104C116.397 12.126 116.649 12.28 116.939 12.3418C117.279 12.3842 117.627 12.3467 117.945 12.2333L116.672 12.8961L116.232 11.9104Z" fill="black"/>
<path d="M104.65 15.4867C104.65 15.4867 106.133 15.5012 106.147 15.7711C106.163 16.1181 105.173 16.4338 105.173 16.4338C105.173 16.4338 109.186 15.3301 109.116 15.3301C109.047 15.3301 104.65 15.4867 104.65 15.4867Z" fill="black"/>
<path d="M107.05 9.62574C107.461 9.68744 107.845 9.84395 108.162 10.0788C108.543 10.4258 108.318 11.3729 108.318 11.3729C108.318 11.3729 109.046 9.49079 108.977 9.52212C108.907 9.55344 107.05 9.62574 107.05 9.62574Z" fill="black"/>
<path d="M110.404 8.19662C110.404 8.19662 110.924 7.6086 111.411 7.57727C111.898 7.54594 112.315 8.33157 112.315 8.33157L111.517 6.81091L110.404 8.19662Z" fill="black"/>
<path d="M96.3606 7.18689C96.3606 7.18689 95.8211 7.97011 96.0825 8.48102C96.344 8.99192 97.2116 8.93408 97.2116 8.93408L94.7783 9.05458L96.3606 7.18689Z" fill="black"/>
<path d="M92.537 12.7441C92.537 12.7441 92.0086 13.9732 92.4675 14.5371C93.0403 15.2456 94.6922 15.0649 94.6922 15.0649L91.002 15.33L92.537 12.7441Z" fill="black"/>
<path d="M113.949 11.9199C114.03 12.3214 113.969 12.7349 113.774 13.1056C113.518 13.4626 113.153 13.7512 112.72 13.9394C112.72 13.9394 114.736 13.4984 114.691 13.4864C114.647 13.4743 113.949 11.9199 113.949 11.9199Z" fill="black"/>
<path d="M98.0621 23.2827C98.0621 23.2827 97.1583 21.1837 99.5694 20.48C101.324 19.9691 102.35 21.9066 102.35 21.9066L101.747 18.7039L101.088 18.1616L96.2852 19.9088L98.0621 23.2827Z" fill="black"/>
<path d="M95.3926 24.3648C95.3926 24.3648 96.4354 23.9984 97.0945 24.2202C97.8119 24.4611 98.1095 25.5071 98.1095 25.5071L97.4727 23.543L95.3926 24.3648Z" fill="black"/>
<path d="M104.644 21.4657C104.456 21.5484 104.289 21.6652 104.157 21.8082C104.025 21.9512 103.929 22.1171 103.877 22.2947C103.787 22.7578 103.801 23.2313 103.916 23.6901L102.998 21.791L104.644 21.4657Z" fill="black"/>
<path d="M112.036 19.6028C112.036 19.6028 113.705 19.3618 114.328 19.8438C114.95 20.3257 114.909 21.256 114.909 21.256C114.909 21.256 115.187 18.7231 115.115 18.7231C115.042 18.7231 112.036 19.6028 112.036 19.6028Z" fill="black"/>
<path d="M119.366 27.8447C119.366 27.8447 119.778 28.787 121.296 29.4208C122.589 29.9606 123.02 29.8908 123.02 29.8908L122.345 28.3002L119.366 27.8447Z" fill="black"/>
<path d="M122.364 29.7124C122.364 29.7124 122.664 30.3944 122.289 30.7174C121.914 31.0403 120.754 31.221 120.754 31.221C120.754 31.221 123.535 31.0764 123.451 31.0596C123.368 31.0427 122.895 29.6473 122.831 29.6642C122.767 29.6811 122.364 29.7124 122.364 29.7124Z" fill="black"/>
<path d="M94.3057 35.1611C94.3057 35.1611 94.631 35.819 95.799 35.9516C96.967 36.0841 97.4314 35.8648 97.4314 35.8648L94.8535 37.2626L94.3057 35.1611Z" fill="black"/>
<path d="M100.857 32.4644C100.857 32.4644 101.895 33.2429 104.523 32.5922C106.661 32.062 106.661 30.7896 106.617 30.7896C106.572 30.7896 100.857 32.4644 100.857 32.4644Z" fill="black"/>
<path d="M92.67 42.1357C92.9516 42.0309 93.2548 41.9768 93.5613 41.9768C93.8677 41.9768 94.171 42.0309 94.4526 42.1357C95.3814 42.4972 96.3992 44.5866 96.3992 44.5866L93.8964 39.4438L91.9053 40.4898L92.67 42.1357Z" fill="black"/>
<path d="M106.722 14.7105C107.145 14.6954 107.551 14.5608 107.879 14.3274C108.207 14.0864 108.212 13.2887 108.212 13.2887C108.212 13.2887 108.49 14.7612 108.463 14.7612L106.722 14.7105Z" fill="black"/>
<path d="M109.05 13.6431C109.05 13.6431 109.119 14.2937 109.586 14.4793C109.814 14.5863 110.071 14.6356 110.329 14.6215L108.938 14.7324L109.05 13.6431Z" fill="black"/>
<path d="M99.7306 61.1545L78.7461 75.402L81.0292 69.529L99.7306 61.1545Z" fill="black"/>
<path d="M92.3418 54.2406L97.3613 61.8994L99.5053 61.1306L96.1599 52.385L92.3418 54.2406Z" fill="black"/>
<path d="M56.7334 72.4573C56.5777 72.5489 55.952 74.2045 57.6233 76.0722C59.5699 78.2411 64.1584 76.7518 64.1584 76.7518L58.7218 79.381C58.7218 79.381 57.729 77.841 56.1077 77.3422C55.2987 77.1094 54.5121 76.8217 53.7551 76.4818L52.8652 74.2599L56.5193 72.5031" fill="black"/>
<path d="M29.439 88.1821C29.439 88.1821 29.1109 91.4355 32.573 93.0863C37.8039 95.5782 43.4184 93.6286 43.4184 93.6286C43.4184 93.6286 43.6632 96.8819 46.4774 97.9664C49.2916 99.0509 51.0797 98.3737 51.0797 98.3737C51.0797 98.3737 46.4246 96.8795 45.5375 94.1154C44.6504 91.3512 44.9618 90.445 44.9618 90.445C44.9618 90.445 40.7266 92.132 37.2755 92.1657C33.8244 92.1995 30.479 89.4015 30.479 89.4015L29.439 88.1821Z" fill="black"/>
<path d="M37.0753 71.5054C36.9864 73.5646 37.2326 75.6244 37.8067 77.6242C38.7466 80.7571 39.2694 81.3836 39.2694 81.3836C39.2694 81.3836 41.0492 80.4775 40.8907 80.4775C40.7322 80.4775 38.9051 76.8988 38.2767 75.1323C37.8942 74.027 37.7177 72.8758 37.7539 71.7223L37.0753 71.5054Z" fill="black"/>
<path d="M28.9575 76.3974C28.8832 78.3473 28.9528 80.2993 29.166 82.2415C29.5137 84.7719 29.7917 85.4949 29.7917 85.4949L31.3212 84.5309C31.3212 84.5309 30.0003 81.3377 29.8613 79.2893C29.7222 77.2409 29.5832 76.3372 29.5832 76.3372L28.9575 76.3974Z" fill="black"/>
<path d="M32.2949 92.5439C32.5517 93.4068 33.0266 94.2094 33.6854 94.8936C34.1821 95.3742 34.8375 95.7107 35.5624 95.8576L36.6053 94.8334L36.6748 93.8694L32.2949 92.5439Z" fill="black"/>
<path d="M19.5723 83.0847C19.5723 83.0847 19.8504 87.4828 21.7274 91.158C23.6045 94.8331 27.8454 98.0865 27.8454 98.0865C27.8454 98.0865 27.8454 96.3393 27.0111 95.7971C26.1768 95.2548 24.0217 93.1461 22.7703 90.6157C21.5189 88.0853 20.2675 83.2655 20.2675 83.2655L19.5723 83.0847Z" fill="black"/>
<path d="M12.5508 95.3153C12.5508 95.3153 13.107 97.0023 13.5241 97.906C13.9412 98.8097 14.3583 99.593 14.3583 99.593L16.305 98.87C16.305 98.87 14.7755 96.942 14.2888 96.2793C13.8022 95.6166 13.385 94.9539 13.385 94.9539L12.5508 95.3153Z" fill="black"/>
<path d="M26.3158 103.147C26.3158 103.147 29.2357 102.183 29.2357 99.7736C29.2357 97.3637 27.7062 96.1587 27.7062 96.1587C27.7062 96.1587 28.5405 98.3879 27.6367 99.8941C26.7329 101.4 24.7168 102.184 24.7168 102.184L26.3158 103.147Z" fill="black"/>
<path d="M28.471 97.1829C28.471 97.1829 31.6106 99.7856 35.006 98.6289C39.2469 97.1829 37.7174 93.7488 37.7174 93.7488C37.7174 93.7488 35.7708 96.7612 33.0594 97.0022C30.3481 97.2432 27.6367 95.9177 27.6367 95.9177L28.471 97.1829Z" fill="black"/>
<path d="M133.449 33.0188L136.508 43.8634C136.508 43.8634 132.545 45.9721 132.545 45.7914C132.545 45.6106 132.058 40.7908 131.711 38.3809L131.085 34.043L133.449 33.0188Z" fill="black"/>
<path d="M137.643 31.1294C137.643 31.1294 135.12 32.5753 134.673 34.1201C134.314 35.3636 134.8 37.8579 134.8 37.8579L133.043 33.2333L137.643 31.1294Z" fill="black"/>
<path d="M135.15 39.2437C135.15 39.2437 136.227 41.8536 137.803 42.2344C139.177 42.5669 141.352 41.5427 141.352 41.5427L141.382 41.8464L136.329 44.1165L135.217 40.2606L135.15 39.2437Z" fill="black"/>
<path d="M89.8887 55.7755C89.8887 55.7755 91.1734 55.1297 92.3915 55.4454C93.3119 55.6864 93.9905 56.7395 93.9905 56.7395L92.6 54.1248L89.8887 55.7755Z" fill="black"/>
<path d="M94.2217 62.8706C94.2217 62.8706 96.4825 61.7861 96.1683 60.7715C95.8365 59.858 95.4141 58.971 94.9058 58.1206C94.9058 58.1206 98.1371 61.5114 98.0454 61.5114C97.9536 61.5114 94.2217 62.8706 94.2217 62.8706Z" fill="black"/>
<path d="M39.9668 77.9229C39.9668 77.9229 40.5786 78.7398 41.449 79.0073C42.236 79.2483 43.2788 78.6651 43.2788 78.6651L40.9623 80.2725L39.9668 77.9229Z" fill="black"/>
<path d="M51.3438 76.1349C51.5566 76.1037 51.7586 76.0316 51.9352 75.9241C52.1118 75.8165 52.2584 75.6761 52.3643 75.5131C52.5173 75.1402 52.5004 74.7309 52.3171 74.3684L53.4072 76.3566L51.3438 76.1349Z" fill="black"/>
<path d="M38.1815 78.8459C38.1815 78.8459 38.8989 80.2124 38.1815 81.0366C37.464 81.8608 36.791 82.0005 36.791 82.0005L39.3411 81.2776L38.1815 78.8459Z" fill="black"/>
<path d="M31.043 82.1401C31.043 82.1401 31.3683 83.1041 32.1803 83.2439C32.6235 83.3373 33.0903 83.2947 33.5013 83.1234L31.3461 84.1693L31.043 82.1401Z" fill="black"/>
<path d="M35.8486 71.2932C36.2169 71.4608 36.543 71.6902 36.808 71.968C37.05 72.2909 37.0667 73.0356 37.0667 73.0356C37.0667 73.0356 37.3447 71.5896 37.278 71.6017C37.2113 71.6137 35.8486 71.2932 35.8486 71.2932Z" fill="black"/>
<path d="M27.2109 76.0601C27.2109 76.0601 28.3038 76.301 28.657 76.9324C28.8618 77.3007 28.9674 77.7045 28.9657 78.1133C28.9657 78.1133 29.2577 76.4264 29.177 76.4408C29.0964 76.4553 27.2109 76.0601 27.2109 76.0601Z" fill="black"/>
<path d="M18.4209 82.844C18.7857 82.949 19.1107 83.1381 19.3608 83.3911C19.5637 83.6497 19.6819 83.9512 19.7029 84.2634L19.8169 83.0585L18.4209 82.844Z" fill="black"/>
<path d="M11.4688 96.125C11.8626 96.0901 12.2578 96.18 12.5811 96.3781C12.9324 96.605 13.175 96.9362 13.2624 97.3083L12.7062 95.3225L11.4688 96.125Z" fill="black"/>
<path d="M13.6549 98.1807C13.6549 98.1807 13.9329 98.9036 13.6882 99.3326C13.5157 99.5999 13.2774 99.8311 12.9902 100.01L14.6143 99.4603L13.6549 98.1807Z" fill="black"/>
<path d="M7.74568 95.5346C7.74568 95.5346 7.14501 95.3803 6.95035 95.5635C6.75569 95.7466 7.27571 96.0961 7.27571 96.0961C7.27571 96.0961 5.03433 95.2261 5.10107 95.2116C5.16781 95.1972 6.56103 95.055 7.12832 95.1827C7.69562 95.3104 7.74568 95.5346 7.74568 95.5346Z" fill="black"/>
<path d="M12.2276 103.485C12.2276 103.485 12.3389 104.413 12.6336 104.413C12.9284 104.413 13.0396 103.372 13.0396 103.372C13.0396 103.372 13.2816 103.907 12.8756 104.793C12.4696 105.68 11.9189 105.835 11.9189 105.791C11.9189 105.748 12.2276 103.485 12.2276 103.485Z" fill="black"/>
<path d="M61.5244 93.3559C61.5244 93.3559 61.6635 91.4593 62.9148 91.1267C64.1662 90.7941 65.8681 91.5195 65.8681 91.5195L61.7385 89.3145L61.5244 93.3559Z" fill="black"/>
<path d="M41.1937 108.353C41.1937 108.353 39.1775 108.172 38.5185 109.047C37.8594 109.922 38.9356 111.606 38.9356 111.606L38.2404 111.276L36.3633 107.69L41.1937 108.353Z" fill="black"/>
<path d="M117.831 89.7124H145.128V92.6838H117.876L117.831 89.7124Z" fill="black"/>
<path d="M118.223 94.932C118.223 94.932 118.132 93.8283 119.083 93.2451C119.948 92.7149 121.421 92.6836 121.421 92.6836C121.421 92.6836 117.945 92.4426 117.945 92.5028C117.945 92.5631 118.223 94.932 118.223 94.932Z" fill="black"/>
<path d="M144.656 94.932C144.656 94.932 144.748 93.8283 143.797 93.2451C142.932 92.7149 141.458 92.6836 141.458 92.6836C141.458 92.6836 144.934 92.4426 144.934 92.5028C144.934 92.5631 144.656 94.932 144.656 94.932Z" fill="black"/>
<path d="M118.85 106.425C118.85 106.425 121.041 110.071 126.672 110.1C132.303 110.129 137.657 110.1 137.657 110.1C137.657 110.1 141.166 110.221 142.593 108.714C144.019 107.208 144.92 104.95 144.92 104.95C144.92 104.95 142.593 107.329 141.202 107.782C139.812 108.235 124.448 108.172 124.448 108.172C124.448 108.172 121.561 107.963 120.31 107.481C119.058 106.999 118.85 106.425 118.85 106.425Z" fill="black"/>
<path d="M83.3925 105.461C83.3925 105.461 81.7601 108.204 78.9097 108.686C77.2732 108.972 75.6071 109.114 73.9375 109.107L74.1127 107.36C75.6658 107.528 77.2409 107.456 78.7651 107.148C81.3012 106.637 82.5888 105.914 82.5888 105.914L83.3925 105.461Z" fill="black"/>
<path d="M74.4248 89.8111H84.1356C84.1356 89.8111 84.2747 84.9913 84.1579 85.0322C84.0411 85.0732 81.9804 89.0279 81.9804 89.0279L74.4943 89.0496L74.4248 89.8111Z" fill="black"/>
<path d="M70.6016 94.1489C70.6016 94.1489 72.2256 95.4744 72.5732 96.5203C72.7816 97.2488 72.8362 98.0041 72.7345 98.7495C72.7345 98.7495 73.3379 95.6961 73.2684 95.6961C73.1989 95.6961 70.6016 94.1489 70.6016 94.1489Z" fill="black"/>
<path d="M81.7939 89.8111C81.7939 89.8111 82.7673 89.8713 83.3234 90.375C83.8796 90.8787 83.8351 91.9197 83.8351 91.9197L84.0882 89.5701L81.7939 89.8111Z" fill="black"/>
<path d="M72.2691 95.8574C69.9435 103.023 68.1325 110.307 66.8464 117.667C64.6217 130.199 63.6484 138.393 63.6484 138.393L72.6863 145.863C72.6863 145.863 71.5044 142.309 70.7397 139.778C69.9749 137.248 70.9482 126.463 70.9482 126.463L70.3921 126.162C70.478 125.043 70.6876 123.933 71.0177 122.849C71.5044 121.463 72.1301 120.921 72.1301 120.921L73.3815 120.8L74.0767 107.606L73.0339 107.124L73.2424 96.3394L72.2691 95.8574Z" fill="black"/>
<path d="M117.876 127.97H131.085C131.085 127.97 131.294 129.505 131.085 129.505H117.945L117.876 127.97Z" fill="black"/>
<path d="M141.249 127.97H154.458C154.458 127.97 154.667 129.505 154.458 129.505H141.319L141.249 127.97Z" fill="black"/>
<path d="M131.433 128.596C131.538 128.536 141.374 128.596 141.374 128.596C141.374 128.596 141.566 127.799 141.374 127.965C141.182 128.131 131.33 127.845 131.191 127.965C131.052 128.086 131.433 128.596 131.433 128.596Z" fill="black"/>
<path d="M118.363 132.066C118.363 132.066 118.315 130.821 119.024 130.139C119.65 129.536 121.282 129.476 121.282 129.476C121.282 129.476 118.015 129.235 118.051 129.324C118.087 129.413 118.363 132.066 118.363 132.066Z" fill="black"/>
<path d="M151.282 129.505C151.282 129.505 152.845 129.536 153.471 130.259C154.027 130.888 154.133 132.397 154.133 132.397C154.133 132.397 154.48 129.143 154.341 129.204C154.202 129.264 151.282 129.505 151.282 129.505Z" fill="black"/>
<path d="M118.71 146.586C118.71 146.586 120.239 151.165 124.758 151.707C129.277 152.249 144.85 151.828 144.85 151.828C144.85 151.828 149.717 152.069 151.246 150.864C153.193 149.338 153.679 146.767 153.679 146.767C153.679 146.767 151.246 148.876 148.604 149.418C145.963 149.96 126.774 149.418 126.774 149.418C126.774 149.418 123.855 149.659 121.769 148.996C119.683 148.333 118.71 146.586 118.71 146.586Z" fill="black"/>
<path d="M70.9261 127.789H71.6213V126.683H70.6953L70.9261 127.789Z" fill="black"/>
<path d="M75.4678 127.849H81.7943V122.608C81.7943 122.608 79.6168 126.464 79.5946 126.403C79.5723 126.343 75.4678 126.403 75.4678 126.403V127.849Z" fill="black"/>
<path d="M71.8994 127.225H75.5145C75.5145 127.225 75.7009 126.705 75.5145 126.705H71.8994V127.225Z" fill="black"/>
<path d="M81.283 144.625C81.283 144.625 80.9048 147.008 78.2713 147.861C75.6378 148.714 74.709 148.538 74.709 148.538V146.331C74.709 146.331 78.4159 146.432 79.6895 145.779C80.9632 145.126 81.283 144.625 81.283 144.625Z" fill="black"/>
<path d="M165.746 60.9812C165.746 60.9812 167.061 61.6271 167.253 62.444C167.434 63.2032 166.355 64.237 166.355 64.237C166.355 64.237 169.414 62.4031 169.325 62.4031C169.236 62.4031 165.746 60.9812 165.746 60.9812Z" fill="black"/>
<path d="M158.485 78.0483C158.485 78.0483 154.152 98.27 158.796 116.607C162.648 131.826 167.197 138.183 167.197 138.183C167.197 138.183 168.132 134.139 168.908 132.934C169.425 132.141 169.997 131.376 170.621 130.642C170.621 130.642 164.138 119.125 160.818 107.577C155.518 89.24 158.485 78.0483 158.485 78.0483Z" fill="black"/>
<path d="M165.428 148.153C165.428 148.153 160.587 165.504 166.124 173.337C168.765 177.072 172.242 177.915 172.242 177.915L173.493 173.216C173.493 173.216 166.124 168.276 165.15 162.974C164.177 157.672 165.428 148.153 165.428 148.153Z" fill="black"/>
<path d="M172.52 175.385C172.52 175.385 179.889 180.205 189.344 181.048C198.799 181.892 207.142 179.602 207.142 179.602L206.725 177.072C206.725 177.072 202.136 179.361 191.847 178.036C181.558 176.71 171.964 172.373 171.964 172.373L172.52 175.385Z" fill="black"/>
<path d="M206.447 187.796C206.447 187.796 207.698 188.639 208.254 191.23C208.81 193.821 207.489 196.532 207.489 196.532C207.489 196.532 206.864 193.278 206.099 192.134C205.646 191.47 205.362 190.731 205.265 189.965L206.447 187.796Z" fill="black"/>
<path d="M208.324 180.627C208.532 180.627 209.784 182.494 209.853 183.88C209.877 184.813 209.76 185.745 209.506 186.651C209.021 186.226 208.51 185.824 207.976 185.446C207.489 185.145 207.072 184.904 207.072 184.904C207.072 184.904 207.281 182.735 207.281 181.711C207.281 180.687 207.35 180.145 207.35 180.145L208.324 180.627Z" fill="black"/>
<path d="M88.9548 155.021C88.9548 155.021 102.011 158.619 116.346 158.757C141.791 158.998 164.177 155.021 164.177 155.021L164.456 151.888C164.456 151.888 138.872 157.552 118.432 156.347C97.9927 155.142 88.6768 153.455 88.6768 153.455L88.9548 155.021Z" fill="black"/>
<path d="M97.9014 167.23C97.9014 167.23 105.688 168.837 113.104 169.319C117.421 169.611 121.755 169.665 126.08 169.481L124.737 164.94C119.725 165.016 114.712 164.855 109.72 164.458C102.49 163.817 98.2267 163.335 98.2267 163.335L97.9014 167.23Z" fill="black"/>
<path d="M125.245 168.878C125.245 168.878 134.887 169.037 151.016 167.432C159.723 166.564 164.55 165.343 164.55 165.343C164.55 165.343 164.595 159.8 164.038 159.961C163.482 160.123 156.252 162.21 145.315 163.335C134.378 164.461 123.26 164.62 123.26 164.62L125.245 168.878Z" fill="black"/>
<path d="M154.406 239.166C154.406 239.166 156.722 240.453 160.707 240.212C164.692 239.971 165.807 239.007 165.807 239.007L165.621 237.238C163.735 237.621 161.809 237.837 159.873 237.881C157.911 237.928 155.95 237.766 154.033 237.399L154.406 239.166Z" fill="black"/>
<path d="M114.083 229.929C114.083 229.929 116.585 230.972 119.272 230.893C121.958 230.813 123.443 229.849 123.443 229.849L123.259 228.001C121.783 228.149 120.293 228.176 118.81 228.08C116.399 227.921 113.618 227.519 113.618 227.519L114.083 229.929Z" fill="black"/>
<path d="M172.011 179.561C172.011 179.561 172.103 177.633 173.91 177.231C175.381 176.906 177.386 177.915 177.386 177.915L172.567 174.782L172.011 179.561Z" fill="black"/>
<path d="M202.515 180.484C202.515 180.484 205.248 180.164 205.991 181.207C206.503 181.958 206.73 182.83 206.639 183.699C206.639 183.699 207.312 182.273 207.334 181.207C207.333 180.512 207.208 179.821 206.964 179.159L202.515 180.484Z" fill="black"/>
<path d="M89.4774 157.942C89.4774 157.942 89.3967 156.655 90.345 156.134C91.3878 155.563 93.1954 155.99 93.1954 155.99C93.1954 155.99 89.0547 154.568 89.0547 154.72C89.0547 154.872 89.4774 157.942 89.4774 157.942Z" fill="black"/>
<path d="M132.948 51.2666L121.341 57.1468L135.281 51.7221L133.707 51.4184L132.948 51.2666Z" fill="black"/>
<path d="M163.669 68.2229C163.669 68.2229 166.119 64.9671 170.065 64.7285C174.011 64.4899 177.156 66.8179 177.156 66.8179C177.156 66.8179 174.562 64.8899 172.198 63.7645C169.834 62.6391 168.814 62.2776 168.814 62.2776L164.039 67.2179L163.669 68.2229Z" fill="black"/>
<path d="M132.545 50.6714C132.545 50.6714 132.581 51.2642 132.267 51.5365C132.111 51.6853 131.922 51.8057 131.711 51.8908L132.737 51.4908L132.545 50.6714Z" fill="black"/>
<path d="M139.525 262.865L136.577 266.779C136.577 266.779 141.096 268.131 150.935 267.938C160.774 267.745 168.557 266.96 168.557 266.96L172.728 263.586L172.589 252.223C172.589 252.223 172.033 249.068 170.504 248.984C168.974 248.9 169.461 252.539 169.461 252.539L167.653 251.775C167.653 251.775 157.851 262.378 155.974 263.164C154.097 263.95 150.482 264.369 150.482 264.369C150.482 264.369 145.896 264.309 143.218 263.706C140.54 263.104 139.525 262.865 139.525 262.865Z" fill="#A28ADD"/>
<path d="M148.566 247.126C148.566 247.126 146.327 246.364 145.279 246.403C144.231 246.442 144.214 247.753 144.214 247.753C144.214 247.753 143.007 248.165 143.224 248.683C143.441 249.201 143.658 249.922 143.658 249.922C143.658 249.922 142.609 250.726 142.726 251.187C142.843 251.647 142.99 252.225 142.99 252.225C142.759 252.503 142.571 252.807 142.434 253.129C142.209 253.659 143.218 253.611 143.218 253.611C143.218 253.611 142.94 254.093 142.696 254.561C142.555 254.823 142.505 255.115 142.551 255.402L143.129 256.101C143.129 256.101 141.881 256.204 141.917 256.809C141.953 257.414 142.696 258.014 142.696 258.014C142.696 258.014 140.871 258.31 140.916 259.397C140.96 260.484 144.114 259.453 146.964 260.19C149.815 260.928 152.568 262.231 153.316 261.537C154.064 260.843 152.498 259.73 152.498 259.73V259.144C152.498 259.144 154.028 259.882 154.461 259.19C154.895 258.498 154.386 257.534 154.386 257.534C154.386 257.534 156.302 258.643 156.611 258.016C156.791 257.635 156.863 257.222 156.82 256.811C156.82 256.811 158.021 256.628 158.135 256.028C158.249 255.428 157.367 254.794 157.367 254.794L156.347 253.469C156.347 253.469 159.106 254.9 159.459 254.274C159.812 253.647 159.459 252.794 159.459 252.794C159.459 252.794 161.505 253.932 162.034 253.741C162.562 253.551 162.799 252.536 162.799 252.536C162.799 252.536 164.086 252.917 164.503 252.406C164.62 252.253 164.683 252.073 164.683 251.889C164.683 251.705 164.62 251.526 164.503 251.372C164.503 251.372 161.319 249.093 158.577 248.574C155.835 248.056 154.453 247.929 154.453 247.929L153.032 247.863L148.566 247.126Z" fill="white"/>
<path d="M142 275.033C141.392 274.303 140.891 273.511 140.506 272.676C139.914 271.36 138.71 270.639 135.459 270.912C132.208 271.184 133.726 274.914 133.726 274.914L133.14 275.495C133.14 275.495 134.864 277.295 143.612 277.768L142 275.033Z" fill="black"/>
<path d="M142.278 275.274C142.278 275.274 144.294 279.252 162.787 276.869C164.812 276.609 167.237 272.751 169.183 272.442C171.13 272.134 174.253 271.293 174.014 269.495C173.926 268.638 173.752 267.79 173.494 266.959C173.494 266.959 168.14 268.364 166.472 270.917C164.803 273.469 161.422 274.331 159.116 274.404C156.811 274.476 153.263 274.43 153.263 274.43L142.278 275.274Z" fill="white"/>
<path d="M149.399 274.548C149.399 274.548 161.079 273.691 163.804 270.934C166.53 268.177 167.853 265.374 169.466 264.506C171.079 263.639 172.456 262.856 172.456 262.856L172.734 260.205C172.734 260.205 176.88 259.419 177.219 260.446C177.559 261.472 177.75 265.352 175.887 266.123C174.024 266.895 170.604 267.721 168.301 269.145C165.998 270.57 164.533 273.919 161.827 274.158C159.121 274.397 149.399 274.548 149.399 274.548Z" fill="white"/>
<path d="M132.654 275.042C132.654 275.042 131.005 272.199 132.654 270.519C134.303 268.839 134.751 268.449 134.751 268.449L149.787 269.863C149.787 269.863 154.08 269.996 156.008 269.114C157.935 268.232 163.305 265.043 163.305 265.043L165.782 265.766L167.173 266.971C167.173 266.971 165.702 270.586 160.777 272.514C155.852 274.442 148.394 274.76 146.452 275.052C144.511 275.343 141.608 274.91 141.608 274.91C141.608 274.91 141.033 270.555 135.957 270.721C130.882 270.888 133.966 275.968 133.966 275.968L132.654 275.042Z" fill="#C18B1E"/>
<path d="M135.048 268.184L136.577 266.779C136.577 266.779 139.914 267.955 148.813 267.668C157.712 267.381 162.453 265.043 162.453 265.043C162.453 265.043 158.054 269.721 153.263 269.731C148.471 269.74 140.123 268.95 137.829 268.829C135.535 268.709 135.048 268.184 135.048 268.184Z" fill="#A28ADD"/>
<path d="M151.315 263.812C155.102 262.327 158.443 260.105 161.076 257.318C165.403 252.705 166.68 250.811 166.68 250.811L167.878 251.775L158.145 261.335C158.145 261.335 155.32 263.863 153.51 264.164C151.699 264.465 151.315 263.812 151.315 263.812Z" fill="#C18B1E"/>
<path d="M141.288 260.243L139.914 262.742C139.914 262.742 148.604 265.241 152.845 263.41C157.086 261.578 166.866 251.071 166.866 251.071C166.866 251.071 165.081 249.348 163.379 248.434C161.677 247.521 158.621 247.487 158.621 247.487L156.021 247.642C156.021 247.642 159.822 248.408 161.396 249.41C162.97 250.413 164.664 251.777 164.664 251.777C164.664 251.777 164.82 252.341 164.405 252.541C163.991 252.741 162.904 252.281 162.904 252.281C162.904 252.281 163.059 253.343 162.553 253.546C162.047 253.748 159.597 252.541 159.597 252.541C159.597 252.541 160.067 253.707 159.597 254.189C159.127 254.671 156.335 253.466 156.335 253.466L157.726 255.098C157.726 255.098 158.465 255.917 157.956 256.199C157.447 256.481 156.427 256.561 156.427 256.561C156.427 256.561 157.281 257.363 156.669 257.845C156.057 258.327 154.375 257.537 154.375 257.537C154.375 257.537 154.931 258.874 154.45 259.062C153.969 259.25 152.486 259.147 152.486 259.147L151.622 259.527C151.622 259.527 153.846 260.699 153.379 261.214C153.219 261.372 153.021 261.496 152.799 261.58C152.577 261.663 152.336 261.703 152.094 261.696C150.314 260.99 148.435 260.49 146.505 260.209C143.137 259.696 141.288 260.243 141.288 260.243Z" fill="#A28ADD"/>
<path d="M145.615 246.114C145.615 246.114 144.358 243.244 145.615 242.056C146.872 240.867 149.369 239.788 149.369 239.788L148.813 244.005L155.974 244.788L156.719 240.27C156.719 240.27 161.828 240.993 162.648 242.439C163.468 243.885 163.413 246.196 163.413 246.196L162.787 247.982C162.787 247.982 159.762 247.365 157.551 247.5C155.34 247.635 152.754 247.873 152.754 247.873L152.662 246.401L150.065 246.205L149.673 247.772C149.673 247.772 148.165 246.567 147.448 246.401C146.73 246.234 145.615 246.114 145.615 246.114Z" fill="white"/>
<path d="M149.787 238.884L148.813 244.005L155.974 244.788L156.808 239.727L149.787 238.884Z" fill="white"/>
<path d="M150.111 246.637L149.786 250.331L152.428 250.512L152.753 246.704L150.111 246.637Z" fill="white"/>
<path d="M141.288 260.243C139.405 263.246 136.747 266.622 135.604 267.682C133.657 269.49 130.807 271.358 132.058 274.129C133.31 276.9 137.55 277.322 146.449 277.985C155.348 278.648 161.466 277.985 163.552 276.418C165.637 274.852 166.68 273.225 169.183 272.442C169.183 272.442 173.076 272.201 173.771 270.574C174.466 268.948 173.493 266.959 173.493 266.959C173.493 266.959 176.883 266.899 177.342 263.547C177.475 262.561 177.809 261.046 177.214 260.453C176.288 259.535 172.728 260.212 172.728 260.212C172.728 260.212 173.006 255.693 172.659 253.343C172.311 250.994 171.755 248.644 170.434 249.307C169.113 249.97 170.434 253.464 168.557 252.259C166.68 251.054 164.455 248.403 160.91 247.74C157.364 247.078 153.123 247.921 153.123 247.921" stroke="black" stroke-width="3" stroke-linecap="round" stroke-linejoin="round"/>
<path d="M149.717 247.861C149.717 247.861 148.257 246.656 146.38 246.415C144.503 246.174 144.208 247.74 144.208 247.74" stroke="black" stroke-width="3" stroke-linecap="round" stroke-linejoin="round"/>
<path d="M145.337 246.114C145.337 246.114 144.083 243.147 146.31 241.294C147.979 239.908 149.369 239.788 149.369 239.788" stroke="black" stroke-width="3" stroke-linecap="round" stroke-linejoin="round"/>
<path d="M157.156 240.27C157.156 240.27 161.119 240.812 162.648 242.438C164.178 244.065 162.788 247.981 162.788 247.981" stroke="black" stroke-width="3" stroke-linecap="round" stroke-linejoin="round"/>
<path d="M133.102 275.454L133.797 274.731C133.797 274.731 131.572 271.297 136.369 270.755C141.166 270.213 140.123 274.731 142.278 275.274" stroke="black" stroke-width="3" stroke-linecap="round" stroke-linejoin="round"/>
<path d="M142 275.033C142.209 275.093 152.637 274.912 158.06 273.406C163.482 271.9 165.915 269.671 166.889 267.502C167.862 265.333 170.713 263.586 172.937 262.863C175.162 262.14 175.198 262.2 175.198 262.2" stroke="black" stroke-width="3" stroke-linecap="round" stroke-linejoin="round"/>
<path d="M172.729 260.212L172.451 262.863" stroke="black" stroke-width="3" stroke-linecap="round" stroke-linejoin="round"/>
<path d="M173.494 266.959C173.494 266.959 170.018 267.622 167.793 269.55C165.568 271.478 164.942 274.008 160.702 274.31C157.972 274.489 155.232 274.517 152.498 274.392" stroke="black" stroke-width="3" stroke-linecap="round" stroke-linejoin="round"/>
<path d="M135.048 268.526C135.048 268.526 141.652 269.068 146.171 269.43C150.69 269.791 152.22 270.815 156.53 268.887C160.84 266.96 160.768 266.292 162.578 265.574C165.012 264.61 167.028 266.598 167.028 266.598" stroke="black" stroke-width="3" stroke-linecap="round" stroke-linejoin="round"/>
<path d="M136.577 266.779C140.349 267.808 144.324 268.157 148.257 267.803C152.595 267.417 156.866 266.588 160.979 265.333C161.673 265.103 162.414 265.001 163.156 265.032C163.898 265.063 164.625 265.227 165.29 265.513" stroke="black" stroke-width="3" stroke-linecap="round" stroke-linejoin="round"/>
<path d="M139.914 262.742C139.914 262.742 143.946 264.61 150.412 264.068C156.877 263.525 166.68 251.175 166.68 251.175" stroke="black" stroke-width="3" stroke-linecap="round" stroke-linejoin="round"/>
<path d="M147.453 264.188C147.453 264.188 152.55 265.434 156.118 263.043C159.631 260.694 167.659 251.777 167.659 251.777" stroke="black" stroke-width="3" stroke-linecap="round" stroke-linejoin="round"/>
<path d="M170.782 252.018L169.322 252.541" stroke="black" stroke-width="3" stroke-linecap="round" stroke-linejoin="round"/>
<path d="M149.787 238.884C149.578 238.944 148.813 244.005 148.813 244.005L155.974 244.788L156.808 239.727L149.787 238.884Z" stroke="black" stroke-width="3" stroke-linecap="round" stroke-linejoin="round"/>
<path d="M150.134 246.355L149.786 250.331L152.428 250.512L152.845 246.716L150.134 246.355Z" stroke="black" stroke-width="3" stroke-linecap="round" stroke-linejoin="round"/>
<path d="M152.737 261.778C152.571 261.778 152.41 261.735 152.272 261.655C152.272 261.655 150.626 260.732 147.147 260.286C145.384 260.058 143.598 259.993 141.819 260.091C141.598 260.106 141.379 260.043 141.211 259.918C141.043 259.792 140.939 259.614 140.922 259.422C140.906 259.231 140.978 259.041 141.122 258.895C141.267 258.75 141.473 258.66 141.694 258.645C143.596 258.538 145.507 258.607 147.392 258.853C151.285 259.354 153.129 260.409 153.207 260.455C153.354 260.542 153.466 260.668 153.525 260.814C153.584 260.96 153.587 261.118 153.535 261.266C153.482 261.414 153.376 261.543 153.233 261.635C153.089 261.726 152.915 261.776 152.737 261.776V261.778Z" stroke="black" stroke-width="3" stroke-linecap="round" stroke-linejoin="round"/>
<path d="M141.613 258.662C143.256 257.895 145.075 257.451 146.939 257.363C151.163 257.122 153.821 257.961 153.933 257.997C154.04 258.027 154.139 258.076 154.224 258.14C154.309 258.205 154.378 258.283 154.427 258.371C154.476 258.459 154.503 258.555 154.508 258.653C154.513 258.75 154.496 258.848 154.456 258.939C154.416 259.031 154.355 259.114 154.277 259.185C154.199 259.255 154.106 259.312 154.002 259.35C153.898 259.388 153.787 259.408 153.674 259.408C153.561 259.408 153.449 259.388 153.346 259.349C153.324 259.349 150.885 258.575 147.053 258.804" stroke="black" stroke-width="3" stroke-linecap="round" stroke-linejoin="round"/>
<path d="M156.021 258.125C155.869 258.125 155.719 258.088 155.59 258.019C155.565 258.019 152.87 256.633 148.543 256.558C145.707 256.505 143.107 257.698 143.082 257.71C142.887 257.798 142.66 257.815 142.451 257.759C142.242 257.702 142.066 257.577 141.963 257.409C141.859 257.242 141.836 257.046 141.898 256.863C141.961 256.681 142.103 256.527 142.295 256.435C142.414 256.38 145.315 255.055 148.577 255.112C153.379 255.194 156.33 256.717 156.455 256.783C156.611 256.864 156.733 256.988 156.8 257.135C156.867 257.282 156.877 257.444 156.828 257.597C156.779 257.749 156.673 257.883 156.527 257.979C156.382 258.074 156.204 258.125 156.021 258.125Z" stroke="black" stroke-width="3" stroke-linecap="round" stroke-linejoin="round"/>
<path d="M146.261 251.461C147.876 251.085 150.21 251.071 150.274 251.071C157.034 251.071 159.4 253.141 159.523 253.24C159.609 253.3 159.681 253.374 159.735 253.459C159.788 253.544 159.821 253.637 159.832 253.732C159.843 253.828 159.832 253.925 159.799 254.017C159.766 254.109 159.713 254.194 159.641 254.268C159.57 254.342 159.482 254.403 159.384 254.447C159.285 254.491 159.177 254.518 159.066 254.525C158.955 254.533 158.844 254.521 158.739 254.49C158.633 254.46 158.536 254.412 158.452 254.348C157.311 253.786 156.097 253.34 154.837 253.02" stroke="black" stroke-width="3" stroke-linecap="round" stroke-linejoin="round"/>
<path d="M145.273 253.621C146.507 253.292 147.788 253.117 149.078 253.103H149.169C154.759 253.146 157.882 255.175 158.013 255.271C158.102 255.328 158.178 255.4 158.236 255.483C158.293 255.565 158.331 255.657 158.346 255.752C158.362 255.848 158.356 255.945 158.328 256.038C158.3 256.131 158.25 256.219 158.183 256.295C158.115 256.372 158.03 256.436 157.934 256.483C157.837 256.531 157.731 256.562 157.62 256.573C157.51 256.585 157.398 256.577 157.291 256.55C157.184 256.524 157.084 256.479 156.998 256.419C156.973 256.402 154.153 254.597 149.156 254.558L148.321 254.58" stroke="black" stroke-width="3" stroke-linecap="round" stroke-linejoin="round"/>
<path d="M144.77 255.298C144.398 255.416 144.033 255.552 143.677 255.705C143.482 255.79 143.257 255.806 143.049 255.749C142.841 255.691 142.667 255.566 142.565 255.399C142.354 255.045 142.326 254.435 142.735 254.242" stroke="black" stroke-width="3" stroke-linecap="round" stroke-linejoin="round"/>
<path d="M151.625 259.06C152.252 259.481 152.816 259.966 153.307 260.506" stroke="black" stroke-width="3" stroke-linecap="round" stroke-linejoin="round"/>
<path d="M145.871 255.332C145.098 255.175 144.314 255.062 143.524 254.992C143.415 254.988 143.307 254.966 143.207 254.927C143.108 254.888 143.018 254.832 142.943 254.762C142.868 254.693 142.81 254.611 142.772 254.522C142.733 254.433 142.715 254.338 142.719 254.244C142.723 254.149 142.748 254.055 142.794 253.969C142.839 253.882 142.904 253.805 142.984 253.74C143.064 253.675 143.159 253.624 143.261 253.591C143.364 253.558 143.473 253.543 143.583 253.546C145.611 253.664 147.587 254.157 149.378 254.992" stroke="black" stroke-width="3" stroke-linecap="round" stroke-linejoin="round"/>
<path d="M153.193 257.161C154.4 257.942 154.542 258.187 154.584 258.226C154.737 258.364 154.821 258.55 154.816 258.742C154.812 258.934 154.72 259.116 154.56 259.249C154.4 259.382 154.186 259.454 153.965 259.451C153.743 259.447 153.533 259.367 153.38 259.229C153.38 259.214 152.545 258.077 149.395 256.578" stroke="black" stroke-width="3" stroke-linecap="round" stroke-linejoin="round"/>
<path d="M156.909 256.197C156.767 256.197 156.627 256.165 156.503 256.105C156.379 256.046 156.274 255.959 156.2 255.855C156.138 255.77 154.531 253.686 149.74 253.054C146.906 252.69 143.519 253.486 143.485 253.495C143.043 253.613 142.573 253.495 142.44 253.117C142.408 253.026 142.397 252.93 142.407 252.836C142.418 252.741 142.45 252.649 142.501 252.565C142.553 252.481 142.623 252.407 142.708 252.346C142.793 252.286 142.891 252.241 142.996 252.213C143.149 252.17 146.786 251.211 149.993 251.625C155.593 252.348 157.543 254.98 157.621 255.091C157.678 255.172 157.716 255.262 157.733 255.356C157.75 255.45 157.746 255.546 157.72 255.638C157.694 255.731 157.648 255.818 157.583 255.895C157.518 255.972 157.436 256.037 157.343 256.086C157.213 256.157 157.062 256.195 156.909 256.197Z" stroke="black" stroke-width="3" stroke-linecap="round" stroke-linejoin="round"/>
<path d="M154.066 251.3L152.498 250.172" stroke="black" stroke-width="3" stroke-linecap="round" stroke-linejoin="round"/>
<path d="M152.754 248.986C156.186 249.658 159.462 250.832 162.44 252.457C162.535 252.509 162.617 252.579 162.681 252.66C162.745 252.741 162.788 252.833 162.81 252.929C162.831 253.026 162.83 253.125 162.806 253.221C162.781 253.317 162.735 253.407 162.669 253.487C162.603 253.567 162.519 253.634 162.422 253.685C162.325 253.736 162.217 253.769 162.105 253.782C161.992 253.796 161.878 253.789 161.769 253.763C161.66 253.737 161.558 253.692 161.469 253.63C161.444 253.616 157.32 251.9 153.61 251.095L158.391 252.541" stroke="black" stroke-width="3" stroke-linecap="round" stroke-linejoin="round"/>
<path d="M149.648 250.172C149.648 250.172 147.701 250.509 146.208 250.895C145.424 251.126 144.677 251.44 143.983 251.83C143.892 251.883 143.789 251.919 143.682 251.938C143.574 251.956 143.463 251.956 143.356 251.937C143.138 251.9 142.947 251.789 142.825 251.629C142.702 251.469 142.657 251.274 142.701 251.085C142.744 250.897 142.872 250.732 143.057 250.625C143.882 250.156 144.774 249.781 145.71 249.509C147.034 249.205 148.387 249.006 149.753 248.917" stroke="black" stroke-width="3" stroke-linecap="round" stroke-linejoin="round"/>
<path d="M153.21 247.864C153.368 247.864 157.103 247.941 159.987 249.003C161.595 249.631 163.083 250.469 164.397 251.488C164.56 251.618 164.656 251.799 164.665 251.99C164.674 252.182 164.595 252.369 164.445 252.51C164.294 252.651 164.086 252.734 163.865 252.742C163.644 252.75 163.428 252.681 163.265 252.551C162.089 251.647 160.764 250.9 159.333 250.336C156.742 249.372 152.695 249.309 152.659 249.307" stroke="black" stroke-width="3" stroke-linecap="round" stroke-linejoin="round"/>
<path d="M149.625 249.208L144.747 249.367C144.747 249.367 143.207 249.668 143.218 248.671C143.215 248.48 143.296 248.296 143.446 248.157C143.596 248.018 143.802 247.934 144.022 247.924L149.672 247.762" stroke="black" stroke-width="3" stroke-linecap="round" stroke-linejoin="round"/>
<path d="M143.652 249.338L143.305 250.483" stroke="black" stroke-width="3" stroke-linecap="round" stroke-linejoin="round"/>
<path d="M74.2724 249.574C74.2724 249.574 79.0694 248.444 80.5015 247.986C81.9337 247.528 84.5839 246.401 84.5839 246.401C90.0133 246.962 95.5185 246.51 100.73 245.075C106.466 243.416 112.101 241.505 117.612 239.349C117.612 239.349 121.005 240.455 122.71 240.094C124.414 239.732 126.386 238.73 126.789 236.479C127.192 234.228 127.532 233.876 127.932 233.671C128.333 233.467 129.128 234.332 129.879 235.638C130.63 236.944 131.859 240.094 131.859 240.094L127.409 250.779L100.593 255.792L72.957 250.095L74.2724 249.574Z" fill="#A28ADD"/>
<path d="M75.8848 257.804C75.8848 257.804 91.3492 257.852 97.5227 257.322C103.696 256.792 109.831 255.303 110.087 255.259C110.343 255.216 132.576 253.469 132.576 253.469C132.576 253.469 133.173 254.946 132.464 255.792C131.755 256.638 130.879 257.539 130.879 257.539L113.335 258.13C113.335 258.13 103.477 259.351 99.3053 260.057C90.0672 261.595 81.263 259.816 81.263 259.816L75.8848 257.804Z" fill="white"/>
<path d="M70.8769 252.782C70.8769 252.782 68.7634 256.079 76.4387 258.387C84.1139 260.696 75.076 258.004 74.5727 255.794C74.0694 253.584 73.3714 253.102 72.5371 252.782C72.0038 252.599 71.4102 252.599 70.8769 252.782Z" fill="black"/>
<path d="M82.2117 257.768C82.2117 257.768 94.1945 257.879 98.1795 257.544C102.164 257.209 111.341 255.117 111.341 255.117L131.414 253.558L133.263 253.115C133.263 253.115 136.044 251.572 136.6 250.343C137.156 249.114 136.903 247.5 136.903 247.5L134.222 246.403L132.584 246.328L132.206 250.102C132.206 250.102 127.27 250.43 122.718 250.748C118.166 251.066 111.286 251.548 105.235 253.476C100.61 255.001 95.7678 255.974 90.8408 256.368C86.6695 256.742 74.7812 256.689 74.7812 256.689C74.7812 256.689 75.3235 257.412 77.9709 257.559C80.6183 257.706 82.2117 257.768 82.2117 257.768Z" fill="white"/>
<path d="M70.876 252.782C70.9857 252.14 71.3094 251.539 71.8076 251.054C72.3232 250.62 72.9328 250.28 73.6012 250.052C73.6012 250.052 76.1235 252.702 82.2219 252.341C88.3204 251.979 95.7537 250.671 98.1841 250.774C100.615 250.878 101.847 250.922 102.784 251.416C103.721 251.91 105.748 253.143 105.748 253.143C105.748 253.143 100.509 255.312 91.8159 256.32C83.1229 257.327 74.3382 256.197 74.3382 256.197C74.3382 256.197 74.4995 254.491 73.7347 253.647C72.97 252.804 70.876 252.782 70.876 252.782Z" fill="#C18B1E"/>
<path d="M74.5947 250.512C74.5947 250.512 82.9151 250.753 85.9768 250.442C89.0386 250.131 91.3856 249.719 93.2321 249.745C95.0786 249.772 97.7622 250.051 97.7622 250.051L99.3612 250.603C99.3612 250.603 93.1376 251.705 88.9663 252.049C84.795 252.394 82.1253 252.493 79.1498 252.23C76.1743 251.967 74.5947 250.512 74.5947 250.512Z" fill="#A28ADD"/>
<path d="M126.388 250.09C127.74 248.732 128.814 247.183 129.563 245.511C130.776 242.776 131.86 240.091 131.86 240.091C132.317 241.995 132.565 243.931 132.6 245.875C132.684 249.249 132.197 250.095 132.197 250.095L126.06 250.447L126.388 250.09Z" fill="#C18B1E"/>
<path d="M119.074 250.671L128.935 246.668L126.06 250.442L119.074 250.671Z" fill="#A28ADD"/>
<path d="M115.515 238.73C115.515 238.73 109.675 241.381 104.152 243.092C98.6295 244.803 92.6006 246.306 92.6006 246.306C92.6006 246.306 98.6907 246.046 106.783 243.212C114.875 240.378 117.35 239.438 117.35 239.438L115.876 238.554L115.515 238.73Z" fill="#C18B1E"/>
<path d="M88.0649 244.051L85.0615 246.196C85.0615 246.196 88.6767 247.622 97.9536 244.991C107.231 242.359 115.879 238.568 115.879 238.568L113.446 236.079L112.695 235.925L111.905 237.395C111.905 237.395 113.134 238.841 112.481 239.245C111.827 239.65 110.837 238.867 110.837 238.867L108.838 237.807C108.838 237.807 110.128 239.585 109.225 240.019C108.321 240.453 106.533 238.033 106.533 238.033L105.142 237.619C105.142 237.619 106.154 238.862 106.313 239.776C106.471 240.689 106.549 241.014 105.99 241.077C105.431 241.14 105.112 241.2 104.878 240.621C104.694 240.215 104.446 239.833 104.141 239.486L102.951 239.245C102.951 239.245 103.696 241.108 102.951 241.504C102.733 241.618 102.483 241.679 102.228 241.679C101.973 241.679 101.723 241.618 101.505 241.504L99.7584 240.238C99.7584 240.238 99.9948 242.427 99.5554 242.788C99.116 243.149 98.2011 242.627 98.2011 242.627C97.9917 242.281 97.6974 241.979 97.3391 241.742C96.9208 241.451 96.445 241.228 95.9347 241.084L96.6355 243.282C96.6355 243.282 96.8635 243.885 96.3574 244.039C95.8513 244.193 95.1672 243.894 95.1672 243.894L94.942 242.868L93.2289 243.024C93.2289 243.024 93.546 244.415 93.2289 244.697C92.9386 244.895 92.5952 245.026 92.2306 245.077C91.6811 244.721 91.0834 244.424 90.4508 244.193C89.6972 243.969 88.0649 244.051 88.0649 244.051Z" fill="#A28ADD"/>
<path d="M91.9885 244.926C91.9885 244.926 90.1365 244.031 89.3328 244.031C88.7928 244.02 88.2607 243.916 87.7672 243.725C87.7052 243.413 87.7052 243.093 87.7672 242.781C87.8728 242.26 88.7766 242.26 88.7766 242.26C88.7766 242.26 88.5847 241.923 89.0992 241.653C89.5093 241.456 89.9406 241.295 90.3868 241.171C90.3868 241.171 90.4479 240.689 90.7955 240.595C91.043 240.531 91.2992 240.495 91.5575 240.489L92.4919 239.604C92.474 239.502 92.4843 239.398 92.522 239.3C92.5597 239.202 92.6237 239.113 92.7088 239.041C92.9869 238.865 93.9629 239.041 93.9629 239.041C94.0772 238.747 94.2988 238.493 94.5942 238.318C94.9927 238.147 95.4292 238.054 95.8734 238.045C95.8734 238.045 96.1821 237.628 96.3907 237.399C96.5992 237.17 97.3361 237.399 97.3361 237.399L97.8923 236.691C97.8923 236.691 98.1259 236.146 98.4485 236.117C98.9465 236.148 99.4406 236.215 99.9251 236.32C99.8233 236.01 99.7636 235.692 99.7472 235.37C99.7472 234.987 100.217 234.548 100.217 234.548L101.076 234.401C101.076 234.401 101.569 234.447 101.455 234.23C101.289 233.964 101.211 233.663 101.229 233.36C101.282 233.047 102.392 233.293 102.392 233.293L100.231 236.079L102.128 236.474L104.152 234.136C104.152 234.136 109.714 236.064 110.96 236.929C112.205 237.795 113.271 239.161 112.289 239.325C111.307 239.489 109.547 238.033 109.547 238.033L108.596 237.807C108.596 237.807 110.198 239.706 109.224 240.019C108.251 240.332 107.066 238.344 106.266 237.983L104.975 237.395L106.474 240.361C106.474 240.361 106.432 240.918 106.001 241.084C105.57 241.25 104.819 240.477 104.819 240.477L104.341 239.486L102.951 239.245C102.951 239.245 103.487 241.048 102.951 241.503C102.414 241.959 101.505 241.503 101.505 241.503L99.7583 240.238C99.7583 240.238 100.164 241.925 99.6665 242.627C99.1687 243.328 97.6532 241.932 97.6532 241.932L96.0848 241.084C96.0848 241.084 97.5531 243.581 96.3462 244.039C95.1393 244.497 94.8167 243.024 94.8167 243.024L92.9674 242.949C92.9674 242.949 93.6209 244.526 93.2177 244.858C92.8144 245.191 91.9885 244.926 91.9885 244.926Z" fill="white"/>
<path d="M103.761 232.83L103.905 234.423L102.128 236.474L100.004 236.079C100.004 236.079 101.13 234.546 101.951 233.869C102.486 233.441 103.097 233.09 103.761 232.83Z" fill="white"/>
<path d="M108.379 227.143L112.18 228.589C112.18 228.589 114.266 229.374 113.927 231.787C113.587 234.199 112 237.674 112 237.674L103.904 234.433L103.323 233.271L102.976 232.989L103.02 230.7L105.884 230.642L107.575 226.899L108.379 227.143Z" fill="white"/>
<path d="M106.927 226.89L103.824 225.911C103.824 225.911 102.99 227.598 102.909 228.671C102.828 229.743 102.798 230.449 102.798 230.449L105.885 230.632L107.575 226.89H106.927Z" fill="white"/>
<path d="M113.335 234.064L112.762 235.633C112.762 235.633 114.135 236.382 114.6 237.257C115.064 238.132 116.825 239.778 120.798 240.13C124.772 240.482 126.36 238.31 126.788 236.474C126.947 235.716 127.152 234.965 127.403 234.226C127.403 234.226 126.494 233.43 125.487 233.597C124.48 233.763 125.315 237.197 123.159 237.877C121.004 238.556 118.39 238.52 117.353 237.665C116.316 236.809 114.87 235.512 114.87 235.512L114.675 234.045L113.335 234.064Z" fill="white"/>
<path d="M88.3817 243.824C88.3817 243.824 85.2977 246.075 83.5124 246.919C81.7271 247.762 76.5463 249.126 74.6275 249.488C72.7087 249.849 71.0124 251.377 70.5201 253.426C70.0279 255.474 72.7977 257.361 75.4312 258.084C78.0647 258.807 85.0752 261.619 96.0569 260.414C107.039 259.209 111.95 258.125 115.698 258.125C119.447 258.125 130.654 257.402 130.654 257.402C130.654 257.402 132.306 256.517 132.575 255.513C132.743 254.786 132.817 254.046 132.798 253.305C134.374 252.662 135.695 251.627 136.591 250.331C137.486 249.006 137.664 246.998 135.298 246.678C133.157 246.386 132.575 246.316 132.575 246.316C132.575 246.316 132.887 242.74 131.741 239.407C130.966 237.287 129.822 235.282 128.348 233.462C128.348 233.462 127.141 233.382 127.097 235.069C127.052 236.756 125.445 240.692 120.145 239.969C114.844 239.246 114.519 236.154 113.179 235.992" stroke="black" stroke-width="3" stroke-linecap="round" stroke-linejoin="round"/>
<path d="M132.575 253.464C132.575 253.464 126.816 254.067 119.538 254.51C112.261 254.953 111.905 254.872 108.735 255.513C103.294 256.709 97.7322 257.449 92.1274 257.722C86.7389 257.944 81.339 257.837 75.9678 257.402" stroke="black" stroke-width="3" stroke-linecap="round" stroke-linejoin="round"/>
<path d="M70.876 252.782C70.876 252.782 72.7086 252.42 73.7347 253.705C74.7609 254.989 73.287 256.679 75.9594 257.402" stroke="black" stroke-width="3" stroke-linecap="round" stroke-linejoin="round"/>
<path d="M74.5947 256.356C74.5947 256.356 84.7727 257.643 94.8617 255.874C104.951 254.105 107.273 252.22 115.891 251.336C124.509 250.452 131.113 250.693 133.613 249.729C136.113 248.765 136.694 247.642 136.694 247.642" stroke="black" stroke-width="3" stroke-linecap="round" stroke-linejoin="round"/>
<path d="M132.576 245.552C132.576 245.552 132.487 247.119 132.395 248.003C132.29 248.711 132.111 249.41 131.861 250.09" stroke="black" stroke-width="3" stroke-linecap="round" stroke-linejoin="round"/>
<path d="M131.861 240.089C131.861 240.089 130.343 244.027 129.227 246.196C128.112 248.365 126.013 250.493 126.013 250.493" stroke="black" stroke-width="3" stroke-linecap="round" stroke-linejoin="round"/>
<path d="M118.154 251.054C118.154 251.054 122.732 249.331 124.851 248.403C126.502 247.68 129.228 246.196 129.228 246.196" stroke="black" stroke-width="3" stroke-linecap="round" stroke-linejoin="round"/>
<path d="M73.6016 250.056C73.6016 250.056 74.8502 252.466 82.2223 252.346C89.5944 252.225 95.9153 250.9 99.0966 250.779C102.581 250.659 105.748 253.148 105.748 253.148" stroke="black" stroke-width="3" stroke-linecap="round" stroke-linejoin="round"/>
<path d="M74.2725 250.538C74.2725 250.538 76.0578 250.418 80.3904 250.577C84.723 250.736 89.5867 249.974 93.4271 249.774C97.2675 249.574 99.7619 250.779 99.7619 250.779" stroke="black" stroke-width="3" stroke-linecap="round" stroke-linejoin="round"/>
<path d="M84.583 246.396C84.7165 246.437 87.0858 247.521 97.261 245.15C107.436 242.778 115.893 238.563 115.893 238.563" stroke="black" stroke-width="3" stroke-linecap="round" stroke-linejoin="round"/>
<path d="M88.3545 246.637C88.3545 246.637 93.9607 247.119 103.78 244.347C114.347 241.366 117.173 239.366 117.173 239.366" stroke="black" stroke-width="3" stroke-linecap="round" stroke-linejoin="round"/>
<path d="M114.405 235.31C116.772 236.154 116.772 238.684 121.146 238.363C125.52 238.043 124.022 235.117 125.12 233.905C126.174 232.739 127.192 234.226 127.192 234.226" stroke="black" stroke-width="3" stroke-linecap="round" stroke-linejoin="round"/>
<path d="M102.798 230.449L105.924 230.69C105.924 230.69 106.263 229.452 106.502 228.803C106.798 228.149 107.157 227.518 107.575 226.916L103.824 225.911C103.464 226.579 103.195 227.28 103.02 228.001C102.87 228.81 102.796 229.629 102.798 230.449Z" stroke="black" stroke-width="3" stroke-linecap="round" stroke-linejoin="round"/>
<path d="M103.02 230.772L102.976 232.98" stroke="black" stroke-width="3" stroke-linecap="round" stroke-linejoin="round"/>
<path d="M102.814 233.302C102.814 233.302 102.083 233.462 100.968 234.748C99.8528 236.035 99.939 236.315 99.939 236.315L102.128 236.474C102.128 236.474 103.332 234.715 103.905 234.423C104.761 233.985 102.814 233.302 102.814 233.302Z" stroke="black" stroke-width="3" stroke-linecap="round" stroke-linejoin="round"/>
<path d="M111.939 237.807C112.028 237.686 113.724 232.987 113.724 232.987C113.724 232.987 114.776 229.685 111.761 228.367C110.284 227.731 108.749 227.204 107.17 226.791" stroke="black" stroke-width="3" stroke-linecap="round" stroke-linejoin="round"/>
<path d="M92.4836 245.07C92.2919 245.07 92.1063 245.012 91.958 244.906C91.4416 244.589 90.881 244.329 90.2895 244.133C89.6761 243.938 89.0294 243.834 88.3763 243.824C88.155 243.824 87.9428 243.748 87.7863 243.613C87.6299 243.477 87.542 243.293 87.542 243.101C87.542 242.91 87.6299 242.726 87.7863 242.59C87.9428 242.455 88.155 242.378 88.3763 242.378C89.2474 242.389 90.1101 242.529 90.9263 242.793C91.6714 243.04 92.3741 243.374 93.0147 243.786C93.1488 243.88 93.2459 244.008 93.2925 244.152C93.3391 244.296 93.333 244.449 93.2751 244.59C93.2171 244.731 93.1101 244.853 92.9689 244.939C92.8276 245.025 92.659 245.071 92.4864 245.07H92.4836Z" stroke="black" stroke-width="3" stroke-linecap="round" stroke-linejoin="round"/>
<path d="M91.1987 242.8C91.0176 242.381 90.7914 241.978 90.523 241.595C90.4177 241.432 90.3895 241.24 90.4444 241.059C90.4992 240.878 90.6328 240.722 90.8171 240.625C91.0014 240.528 91.2221 240.496 91.4327 240.537C91.6434 240.578 91.8276 240.687 91.9468 240.843C92.2821 241.325 92.5616 241.834 92.781 242.364C92.9686 242.911 93.1172 243.468 93.226 244.032" stroke="black" stroke-width="3" stroke-linecap="round" stroke-linejoin="round"/>
<path d="M92.2227 241.19C93.2985 241.167 94.3739 241.248 95.429 241.431C95.6295 241.469 95.8068 241.57 95.9268 241.715C96.0468 241.859 96.1012 242.037 96.0795 242.214C96.0578 242.391 95.9616 242.554 95.8092 242.674C95.6569 242.793 95.4591 242.859 95.2538 242.86C95.195 242.861 95.1361 242.857 95.0786 242.846L92.9485 242.827" stroke="black" stroke-width="3" stroke-linecap="round" stroke-linejoin="round"/>
<path d="M88.9413 242.222C88.9016 242.033 88.9498 241.839 89.0755 241.681C89.2012 241.523 89.394 241.415 89.6115 241.381C89.6504 241.381 89.9341 241.332 90.3874 241.289" stroke="black" stroke-width="3" stroke-linecap="round" stroke-linejoin="round"/>
<path d="M94.0135 241.173C93.5102 240.231 92.8539 240.118 92.8456 240.113C92.7518 240.059 92.6716 239.99 92.6096 239.908C92.5477 239.827 92.5054 239.736 92.4852 239.64C92.465 239.544 92.4674 239.446 92.4923 239.351C92.5171 239.255 92.5638 239.166 92.6296 239.087C92.6954 239.008 92.779 238.941 92.8753 238.891C92.9716 238.841 93.0786 238.808 93.19 238.794C93.3013 238.781 93.4147 238.787 93.5232 238.812C93.6318 238.837 93.7333 238.882 93.8217 238.942C94.6763 239.532 95.3624 240.285 95.8267 241.142C96.1512 241.837 96.4224 242.549 96.6387 243.275C96.6715 243.368 96.6824 243.465 96.6708 243.562C96.6592 243.658 96.6253 243.752 96.5712 243.837C96.517 243.921 96.4436 243.996 96.3555 244.056C96.2674 244.116 96.1662 244.16 96.0581 244.185C95.95 244.21 95.8371 244.216 95.7262 244.203C95.6153 244.189 95.5087 244.157 95.4126 244.107C95.3165 244.057 95.233 243.991 95.167 243.913C95.1011 243.834 95.054 243.745 95.0286 243.651C94.9702 243.468 94.8923 243.215 94.7672 242.86" stroke="black" stroke-width="3" stroke-linecap="round" stroke-linejoin="round"/>
<path d="M94.542 239.38C95.1319 239.348 95.7241 239.391 96.2995 239.508C98.2934 239.932 99.5615 241.593 99.6143 241.663C99.7144 241.822 99.7417 242.008 99.6908 242.184C99.6398 242.36 99.5143 242.513 99.3392 242.613C99.1641 242.712 98.9522 242.751 98.7455 242.722C98.5389 242.692 98.3527 242.596 98.2239 242.453C98.2239 242.453 97.1115 241.2 95.7544 240.913" stroke="black" stroke-width="3" stroke-linecap="round" stroke-linejoin="round"/>
<path d="M93.4598 240.978C93.2602 241.019 93.0634 241.069 92.8702 241.128C92.4392 241.268 91.9748 240.99 91.8107 240.617C91.7705 240.536 91.7509 240.448 91.7531 240.359C91.7553 240.271 91.7794 240.184 91.8237 240.104C91.8679 240.025 91.9314 239.954 92.0097 239.897C92.0881 239.841 92.1795 239.799 92.2779 239.776" stroke="black" stroke-width="3" stroke-linecap="round" stroke-linejoin="round"/>
<path d="M97.7757 240.029C97.4337 239.472 96.566 238.824 96.2601 238.611C96.0957 238.491 95.9912 238.321 95.9685 238.135C95.9458 237.95 96.0067 237.764 96.1385 237.616C96.2702 237.469 96.4626 237.371 96.6755 237.344C96.8883 237.316 97.1052 237.361 97.2807 237.469C97.4225 237.563 98.6711 238.419 99.2468 239.347C100.012 240.585 99.9726 242.361 99.9698 242.436C99.9647 242.625 99.8746 242.804 99.7187 242.936C99.5628 243.068 99.3535 243.142 99.1356 243.142H99.1133C98.6545 243.142 98.1317 242.778 98.1428 242.378" stroke="black" stroke-width="3" stroke-linecap="round" stroke-linejoin="round"/>
<path d="M98.4658 238.313C99.0052 238.409 99.5304 238.556 100.031 238.754C101.097 239.177 102.042 239.8 102.796 240.578C102.922 240.732 102.974 240.922 102.941 241.108C102.908 241.295 102.793 241.462 102.619 241.576C102.445 241.689 102.227 241.739 102.011 241.716C101.795 241.692 101.599 241.596 101.464 241.448C101.464 241.448 101.069 240.725 99.6421 240.13" stroke="black" stroke-width="3" stroke-linecap="round" stroke-linejoin="round"/>
<path d="M97.3416 239.607C96.6541 239.526 95.9609 239.485 95.267 239.487C95.0458 239.488 94.8328 239.414 94.6751 239.279C94.5173 239.145 94.4277 238.961 94.4258 238.77C94.424 238.578 94.5101 238.393 94.6652 238.257C94.8204 238.12 95.0319 238.042 95.2531 238.041C95.2893 238.041 95.4839 238.026 95.8927 238.041" stroke="black" stroke-width="3" stroke-linecap="round" stroke-linejoin="round"/>
<path d="M100.682 239.045C99.9002 238.282 98.9214 237.6 98.6488 237.515C98.4599 237.498 98.2833 237.426 98.1482 237.31C98.0131 237.194 97.9276 237.042 97.9059 236.879C97.8841 236.715 97.9275 236.55 98.0287 236.411C98.1299 236.272 98.283 236.166 98.4625 236.113C99.2968 235.872 101.085 237.077 101.858 237.843C103.104 239.048 103.265 240.805 103.273 240.879C103.29 241.071 103.217 241.259 103.073 241.404C102.929 241.549 102.724 241.639 102.503 241.653" stroke="black" stroke-width="3" stroke-linecap="round" stroke-linejoin="round"/>
<path d="M102.628 235.871C102.92 236.112 104.744 237.428 105.303 238.101C105.85 238.756 106.258 239.491 106.51 240.269C106.562 240.456 106.526 240.652 106.411 240.816C106.296 240.979 106.11 241.097 105.896 241.142C105.831 241.155 105.765 241.162 105.698 241.161C105.511 241.161 105.33 241.106 105.183 241.006C105.037 240.906 104.933 240.766 104.889 240.609C104.689 240.009 104.372 239.442 103.952 238.934C103.329 238.187 102.127 236.949 101.771 236.744" stroke="black" stroke-width="3" stroke-linecap="round" stroke-linejoin="round"/>
<path d="M102.64 236.267C103.343 236.508 105.362 237.231 106.216 237.898C107.623 238.988 108.015 239.694 108.015 239.694C108.08 239.823 108.186 239.933 108.322 240.011C108.458 240.088 108.617 240.13 108.78 240.13C108.894 240.13 109.007 240.11 109.111 240.07C109.313 239.993 109.473 239.851 109.554 239.673C109.636 239.495 109.632 239.296 109.545 239.12L108.073 237.359" stroke="black" stroke-width="3" stroke-linecap="round" stroke-linejoin="round"/>
<path d="M104.35 239.607C104.072 239.513 103.482 239.313 102.787 239.043" stroke="black" stroke-width="3" stroke-linecap="round" stroke-linejoin="round"/>
<path d="M100.734 236.896C102.306 237.281 102.378 237.52 102.725 237.619" stroke="black" stroke-width="3" stroke-linecap="round" stroke-linejoin="round"/>
<path d="M97.3419 237.395C97.34 237.299 97.3683 237.206 97.4237 237.124C97.4792 237.042 97.5596 236.975 97.6561 236.929" stroke="black" stroke-width="3" stroke-linecap="round" stroke-linejoin="round"/>
<path d="M103.972 234.245C104.136 234.305 108.363 235.794 110.037 236.607C111.806 237.467 112.476 238.262 112.54 238.351C112.666 238.509 112.714 238.703 112.675 238.891C112.636 239.08 112.513 239.247 112.331 239.356C112.192 239.442 112.026 239.487 111.856 239.486C111.721 239.487 111.588 239.458 111.468 239.404C111.349 239.35 111.246 239.272 111.169 239.176C111.169 239.176 110.641 238.561 109.222 237.869C107.632 237.093 102.996 235.404 102.957 235.39" stroke="black" stroke-width="3" stroke-linecap="round" stroke-linejoin="round"/>
<path d="M113.335 234.225L114.517 234.045" stroke="black" stroke-width="3" stroke-linecap="round" stroke-linejoin="round"/>
<path d="M101.421 234.045C101.421 234.045 100.815 233.767 101.243 233.355C101.73 232.89 102.547 233.355 102.547 233.355" stroke="black" stroke-width="3" stroke-linecap="round" stroke-linejoin="round"/>
<path d="M100.045 235.871C100.045 235.871 99.4887 235.283 99.8697 234.801C100.192 234.397 101.043 234.587 101.043 234.587" stroke="black" stroke-width="3" stroke-linecap="round" stroke-linejoin="round"/>
<path d="M114.753 13.0333L116.313 16.3301" stroke="black" stroke-width="3" stroke-linecap="round" stroke-linejoin="round"/>
<path d="M94.7248 37.5375L89.3271 22.2345" stroke="black" stroke-width="3" stroke-linecap="round" stroke-linejoin="round"/>
<path d="M122.325 28.3965L123.604 30.9944" stroke="black" stroke-width="3" stroke-linecap="round" stroke-linejoin="round"/>
<path d="M115.474 22.42C115.341 21.7717 115.275 21.1144 115.276 20.456C115.276 16.3302 117.757 13.1973 122.507 13.1973C124.793 13.1973 126.986 13.9844 128.602 15.3854C130.219 16.7864 131.127 18.6867 131.127 20.668C131.127 22.6494 130.219 24.5496 128.602 25.9506C126.986 27.3517 124.793 28.1388 122.507 28.1388C121.521 28.145 120.545 27.9683 119.645 27.6206" stroke="black" stroke-width="3" stroke-linecap="round" stroke-linejoin="round"/>
<path d="M71.6689 27.9363L114.917 13.5973C114.917 13.5973 112.228 2.79358 104.72 2.02964C97.2112 1.26569 90.6289 15.5252 90.6289 15.5252L71.6689 27.9363Z" stroke="black" stroke-width="3" stroke-linecap="round" stroke-linejoin="round"/>
<path d="M90.623 15.5253L110.74 14.9637" stroke="black" stroke-width="3" stroke-linecap="round" stroke-linejoin="round"/>
<path d="M108.746 15.0432C108.746 15.0432 108.265 11.5946 109.211 9.58236C110.323 7.211 111.527 6.44946 111.527 6.44946" stroke="black" stroke-width="3" stroke-linecap="round" stroke-linejoin="round"/>
<path d="M109.302 9.2594L94.2383 9.30023" stroke="black" stroke-width="3" stroke-linecap="round" stroke-linejoin="round"/>
<path d="M101.505 18.6123L106.249 30.7463L101.157 32.2428L96.4131 20.1065" stroke="black" stroke-width="3" stroke-linecap="round" stroke-linejoin="round"/>
<path d="M109.035 15.6602C109.256 16.0663 109.377 16.5075 109.392 16.9562C109.406 17.4049 109.313 17.8513 109.118 18.2673C108.924 18.6833 108.632 19.0599 108.262 19.3735C107.891 19.6871 107.45 19.9309 106.965 20.0895C106.481 20.2481 105.964 20.3181 105.446 20.295C104.929 20.272 104.423 20.1565 103.96 19.9557C103.496 19.755 103.086 19.4733 102.755 19.1285C102.423 18.7836 102.177 18.3831 102.033 17.952" stroke="black" stroke-width="3" stroke-linecap="round" stroke-linejoin="round"/>
<path d="M97.3668 22.7766C97.0153 23.1217 96.583 23.398 96.0987 23.5871C95.6145 23.7762 95.0893 23.8737 94.5581 23.8731C92.8423 23.8731 91.5687 23.1501 91.1182 21.7861" stroke="black" stroke-width="3" stroke-linecap="round" stroke-linejoin="round"/>
<path d="M106.783 16.4578C106.921 16.6285 107.011 16.825 107.045 17.0315C107.08 17.238 107.057 17.4486 106.98 17.6461C106.902 17.8437 106.772 18.0226 106.6 18.1683C106.428 18.314 106.218 18.4224 105.988 18.4848C105.759 18.5471 105.515 18.5615 105.278 18.5269C105.04 18.4923 104.816 18.4096 104.622 18.2856C104.429 18.1616 104.272 17.9997 104.164 17.8132C104.056 17.6266 104.001 17.4207 104.002 17.2121" stroke="black" stroke-width="3" stroke-linecap="round" stroke-linejoin="round"/>
<path d="M95.6071 20.2389C95.7455 20.4096 95.8354 20.6062 95.8696 20.8127C95.9038 21.0192 95.8813 21.2297 95.8039 21.4273C95.7264 21.6248 95.5963 21.8037 95.424 21.9494C95.2518 22.0951 95.0423 22.2036 94.8125 22.2659C94.5828 22.3282 94.3393 22.3426 94.1019 22.308C93.8645 22.2734 93.6399 22.1908 93.4464 22.0667C93.2528 21.9427 93.0957 21.7808 92.988 21.5943C92.8802 21.4078 92.8248 21.2018 92.8262 20.9932" stroke="black" stroke-width="3" stroke-linecap="round" stroke-linejoin="round"/>
<path d="M112.176 155.985C112.176 155.985 102.582 135.983 106.336 101.28C110.09 66.577 115.304 58.8652 115.304 58.8652L105.71 35.1275C105.71 35.1275 102.651 34.8263 98.3407 35.971C96.5952 36.4075 95.0283 37.2641 93.8218 38.4411L103.694 59.7087C103.694 59.7087 95.3513 72.9633 93.8218 103.81C92.2923 134.657 98.8274 154.66 98.8274 154.66" stroke="black" stroke-width="3" stroke-linecap="round" stroke-linejoin="round"/>
<path d="M104.836 35.0913C108.779 34.0261 114.766 32.4693 117.945 31.9343C122.951 31.0908 129.625 30.9703 129.625 30.9703C129.625 30.9703 131.154 33.561 132.197 41.5137C133.009 47.7024 132.962 51.1534 132.962 51.1534C132.962 51.1534 187.642 56.3107 214.28 103.569C237.831 145.34 209.644 176.026 209.644 176.026C209.644 176.026 202.236 180.043 186.663 177.151C171.09 174.259 162.375 168.476 164.972 150.322C167.57 132.168 170.904 130.719 170.904 130.719C170.904 130.719 163.891 123.008 159.038 99.2314C153.106 70.1508 169.605 62.4391 169.605 62.4391" stroke="black" stroke-width="3" stroke-linecap="round" stroke-linejoin="round"/>
<path d="M74.4023 146.143C74.6332 148.396 74.7333 149.155 74.7333 149.155C74.7333 149.155 91.0486 156.708 122.751 156.385C143.065 156.18 156.805 153.667 164.464 151.888" stroke="black" stroke-width="3" stroke-linecap="round" stroke-linejoin="round"/>
<path d="M73.8942 107.305C73.8608 107.963 73.8321 108.633 73.808 109.312C73.6439 113.493 73.5494 117.301 73.5049 120.759" stroke="black" stroke-width="3" stroke-linecap="round" stroke-linejoin="round"/>
<path d="M94.0832 39.1038L91.8585 40.5497L99.3446 60.6364L80.6015 70.2568C80.6015 70.2568 78.4296 74.0934 76.4941 84.1331" stroke="black" stroke-width="3" stroke-linecap="round" stroke-linejoin="round"/>
<path d="M122.603 24.1624C121.866 24.1624 121.158 23.9085 120.637 23.4565C120.115 23.0046 119.822 22.3916 119.822 21.7525C119.822 21.1133 120.115 20.5003 120.637 20.0484C121.158 19.5964 121.866 19.3425 122.603 19.3425" stroke="black" stroke-width="3" stroke-linecap="round" stroke-linejoin="round"/>
<path d="M119.822 21.6946C120.08 21.4561 120.389 21.264 120.733 21.1294C121.076 20.9948 121.447 20.9203 121.824 20.9102C122.2 20.9002 122.576 20.9547 122.928 21.0707C123.28 21.1867 123.603 21.3619 123.877 21.5862" stroke="black" stroke-width="3" stroke-linecap="round" stroke-linejoin="round"/>
<path d="M50.9566 98.1058C50.9566 98.1058 48.2675 97.9444 46.1346 94.9729C45.6025 94.2237 45.2612 93.3846 45.1337 92.5118C45.0061 91.639 45.0951 90.7527 45.3949 89.9121C45.3949 89.9121 36.4961 94.9729 31.0261 89.6711C25.5561 84.3693 35.5673 83.3258 39.6468 81.3159C43.7263 79.306 46.2291 75.4526 54.3854 76.7371C62.5417 78.0215 65.8593 97.4768 52.8087 104.854C37.8865 113.288 24.8164 102.123 24.8164 102.123" stroke="black" stroke-width="3" stroke-linecap="round" stroke-linejoin="round"/>
<path d="M53.4593 76.1756C53.4593 76.1756 49.9359 64.367 41.1289 67.4204C35.5866 69.3483 38.1228 75.7948 40.9342 80.5978" stroke="black" stroke-width="3" stroke-linecap="round" stroke-linejoin="round"/>
<path d="M36.1318 92.086C36.773 92.6466 37.5209 93.1072 38.3426 93.4476C41.0901 94.5321 43.3955 93.303 44.0434 91.9486C44.2447 91.508 44.382 91.0474 44.4522 90.5774" stroke="black" stroke-width="3" stroke-linecap="round" stroke-linejoin="round"/>
<path d="M37.6956 71.6762C37.6956 71.6762 35.3347 69.794 31.625 71.7967C28.427 73.5246 29.4504 79.0072 31.3469 84.4343" stroke="black" stroke-width="3" stroke-linecap="round" stroke-linejoin="round"/>
<path d="M29.4108 76.3009C29.4108 76.3009 25.7957 74.4043 22.1222 77.3758C18.8352 80.0435 21.0098 91.1918 26.8024 95.2092C32.5949 99.2265 36.1378 95.6502 36.7217 94.7272C37.1806 94.0042 36.947 92.9342 36.6717 92.1703" stroke="black" stroke-width="3" stroke-linecap="round" stroke-linejoin="round"/>
<path d="M20.5928 83.3645C20.5928 83.3645 18.5072 81.357 14.5667 83.285C10.0728 85.4852 11.2769 96.219 18.8325 100.354C26.3882 104.49 27.7313 99.5712 27.9621 98.7085C28.3793 97.0625 26.8025 95.2141 26.8025 95.2141" stroke="black" stroke-width="3" stroke-linecap="round" stroke-linejoin="round"/>
<path d="M61.6328 89.2302C61.6328 89.2302 67.164 91.4763 69.9754 93.3271C71.9916 94.6525 73.2902 95.6165 73.2902 95.6165" stroke="black" stroke-width="3" stroke-linecap="round" stroke-linejoin="round"/>
<path d="M36.0488 107.485C36.0488 107.485 41.0544 117.487 52.2474 128.512C64.9004 140.983 74.4249 147.068 74.4249 147.068" stroke="black" stroke-width="3" stroke-linecap="round" stroke-linejoin="round"/>
<path d="M113.74 10.3945C113.74 10.3945 116.034 10.033 118.051 7.95565C120.067 5.87829 120.136 4.70225 122.464 4.642C124.791 4.58176 126.318 8.07614 121.769 10.7512C117.219 13.4262 114.886 13.3732 114.886 13.3732" stroke="black" stroke-width="3" stroke-linecap="round" stroke-linejoin="round"/>
<path d="M16.6519 98.6892L13.1035 100.338" stroke="black" stroke-width="3" stroke-linecap="round" stroke-linejoin="round"/>
<path d="M99.4773 60.8726L58.7236 79.5446" stroke="black" stroke-width="3" stroke-linecap="round" stroke-linejoin="round"/>
<path d="M131.007 34.1804L185.111 6.33138C186.132 5.88627 187.247 5.62631 188.387 5.56743C192.876 5.32644 196.73 8.17979 197.008 11.9296C197.178 14.2745 196.482 16.7254 192.267 18.7714L132.737 45.8613" stroke="black" stroke-width="3" stroke-linecap="round" stroke-linejoin="round"/>
<path d="M52.8232 74.4236L96.1047 52.1462" stroke="black" stroke-width="3" stroke-linecap="round" stroke-linejoin="round"/>
<path d="M10.0371 96.4623L13.3158 94.7729" stroke="black" stroke-width="3" stroke-linecap="round" stroke-linejoin="round"/>
<path d="M10.6941 106.885C12.4794 105.997 12.2564 102.754 10.196 99.6398C8.13559 96.5258 5.01799 94.7206 3.23265 95.6078C1.44731 96.4949 1.6703 99.7385 3.73072 102.853C5.79114 105.967 8.90875 107.772 10.6941 106.885Z" stroke="black" stroke-width="3" stroke-linecap="round" stroke-linejoin="round"/>
<path d="M3.4873 95.5274C6.82435 93.973 9.55239 95.2454 12.0635 99.1423C13.9712 102.087 14.3188 105.533 10.6341 106.907" stroke="black" stroke-width="3" stroke-linecap="round" stroke-linejoin="round"/>
<path d="M146.138 84.9526H116.73V89.7122H146.138V84.9526Z" stroke="black" stroke-width="3" stroke-linecap="round" stroke-linejoin="round"/>
<path d="M145.059 89.8931V103.034C145.056 104.368 144.443 105.646 143.355 106.59C142.267 107.533 140.792 108.065 139.253 108.069H123.616C122.078 108.062 120.605 107.529 119.517 106.586C118.429 105.644 117.815 104.367 117.807 103.034V89.8931" stroke="black" stroke-width="3" stroke-linecap="round" stroke-linejoin="round"/>
<path d="M155.802 122.328H116.73V127.909H155.802V122.328Z" stroke="black" stroke-width="3" stroke-linecap="round" stroke-linejoin="round"/>
<path d="M154.536 128.114V143.538C154.53 145.1 153.811 146.598 152.536 147.703C151.261 148.808 149.534 149.432 147.731 149.437H124.805C123 149.433 121.27 148.809 119.993 147.703C118.717 146.597 117.997 145.097 117.992 143.533V128.114" stroke="black" stroke-width="3" stroke-linecap="round" stroke-linejoin="round"/>
<path d="M73.8356 88.929H81.7611L84.2973 84.1694H75.0509C75.0509 84.1694 74.2527 84.7719 73.9747 86.3986C73.8056 87.2336 73.7589 88.0838 73.8356 88.929Z" stroke="black" stroke-width="3" stroke-linecap="round" stroke-linejoin="round"/>
<path d="M74.4253 88.8976C74.4253 88.8976 73.5577 92.7245 73.1739 98.718C72.7902 104.711 73.0349 107.244 73.0349 107.244V107.285H78.4214C79.9605 107.281 81.4353 106.75 82.5233 105.806C83.6114 104.863 84.2242 103.585 84.2279 102.251V84.1982" stroke="black" stroke-width="3" stroke-linecap="round" stroke-linejoin="round"/>
<path d="M141.374 127.909H131.154V130.982H141.374V127.909Z" stroke="black" stroke-width="3" stroke-linecap="round" stroke-linejoin="round"/>
<path d="M70.423 126.463H79.5304L82.0638 120.885H72.1666C72.1666 120.885 71.4353 121.588 70.8791 123.456C70.3229 125.324 70.423 126.463 70.423 126.463Z" stroke="black" stroke-width="3" stroke-linecap="round" stroke-linejoin="round"/>
<path d="M75.4003 126.461H71.7129V129.534H75.4003V126.461Z" stroke="black" stroke-width="3" stroke-linecap="round" stroke-linejoin="round"/>
<path d="M70.8463 126.584C70.8463 126.584 70.3764 139.757 71.1939 142.649C72.2701 146.466 75.1011 146.222 75.1011 146.222C80.8908 146.222 81.9142 144.658 81.9142 140.321V120.981" stroke="black" stroke-width="3" stroke-linecap="round" stroke-linejoin="round"/>
<path d="M88.8633 153.293L89.2331 161.166C89.2331 161.166 106.305 165.745 130.854 164.54C153.566 163.415 164.503 160.041 164.503 160.041" stroke="black" stroke-width="3" stroke-linecap="round" stroke-linejoin="round"/>
<path d="M124.928 164.861L129.933 189.04C129.933 189.04 144.855 233.623 144.764 233.864C144.672 234.105 150.973 238.766 162.931 237.399C174.889 236.033 177.392 231.536 177.392 231.536L168.771 207.757L171.343 181.53" stroke="black" stroke-width="3" stroke-linecap="round" stroke-linejoin="round"/>
<path d="M173.285 172.915C173.285 172.915 167.353 188.871 175.231 198.641C177.879 201.921 182.74 205.69 191.152 206.292C204.639 207.256 207.336 202.395 207.328 197.436C207.328 197.195 207.328 196.954 207.3 196.713C207.055 193.223 205.195 190.148 205.195 190.148" stroke="black" stroke-width="3" stroke-linecap="round" stroke-linejoin="round"/>
<path d="M201.681 194.221C201.681 194.221 205.713 191.611 206.8 185.567C208.029 178.744 206.522 177.313 206.522 177.313" stroke="black" stroke-width="3" stroke-linecap="round" stroke-linejoin="round"/>
<path d="M207.3 196.71C207.3 196.71 212.973 194.997 211.452 189.963C210.27 186.047 207.142 184.902 207.142 184.902" stroke="black" stroke-width="3" stroke-linecap="round" stroke-linejoin="round"/>
<path d="M211.452 189.965C211.452 189.965 213.165 187.203 211.313 183.518C209.923 180.747 207.42 180.084 207.42 180.084" stroke="black" stroke-width="3" stroke-linecap="round" stroke-linejoin="round"/>
<path d="M200.468 192.857C200.468 192.857 201.58 193.659 201.953 195.467" stroke="black" stroke-width="3" stroke-linecap="round" stroke-linejoin="round"/>
<path d="M98.1316 163.012L96.7412 195.467L107.687 225.27C107.687 225.27 112.692 228.483 120.849 228.001C129.005 227.519 130.304 225.591 130.304 225.591L129.561 187.917" stroke="black" stroke-width="3" stroke-linecap="round" stroke-linejoin="round"/>
<path d="M113.613 227.598L114.912 235.513" stroke="black" stroke-width="3" stroke-linecap="round" stroke-linejoin="round"/>
<path d="M123.16 227.921L124.506 235.633" stroke="black" stroke-width="3" stroke-linecap="round" stroke-linejoin="round"/>
<path d="M154.027 237.64L154.4 239.448" stroke="black" stroke-width="3" stroke-linecap="round" stroke-linejoin="round"/>
<path d="M165.523 237.158L169.739 251.538" stroke="black" stroke-width="3" stroke-linecap="round" stroke-linejoin="round"/>
<path d="M131.596 88.5459C132.364 88.5459 132.987 88.0064 132.987 87.3409C132.987 86.6755 132.364 86.136 131.596 86.136C130.829 86.136 130.206 86.6755 130.206 87.3409C130.206 88.0064 130.829 88.5459 131.596 88.5459Z" stroke="black" stroke-width="3" stroke-linecap="round" stroke-linejoin="round"/>
<path d="M76.0953 86.5812C76.24 85.9276 75.9856 85.336 75.527 85.2598C75.0685 85.1836 74.5795 85.6516 74.4348 86.3051C74.2901 86.9587 74.5446 87.5503 75.0031 87.6266C75.4616 87.7028 75.9506 87.2348 76.0953 86.5812Z" stroke="black" stroke-width="3" stroke-linecap="round" stroke-linejoin="round"/>
<path d="M99.3828 9.16061C99.9782 7.68813 100.816 6.29775 101.869 5.03241C102.796 3.94823 103.859 2.95652 105.039 2.07544" stroke="black" stroke-width="3" stroke-linecap="round" stroke-linejoin="round"/>
<path d="M164.694 157.07C164.694 157.07 164.717 157.327 164.806 157.793" stroke="black" stroke-width="3" stroke-linecap="round" stroke-linejoin="round"/>
<path d="M165.481 160.142C167.103 164.48 171.964 172.139 186.285 174.421C200.545 176.691 207.525 174.951 210.479 173.652" stroke="black" stroke-width="3" stroke-linecap="round" stroke-linejoin="round" stroke-dasharray="6.06 10.1"/>
<path d="M211.691 173.03C211.922 172.896 212.138 172.743 212.334 172.573" stroke="black" stroke-width="3" stroke-linecap="round" stroke-linejoin="round"/>
<path d="M63.3704 91.0378C63.3704 91.0378 63.3704 100.196 55.5839 105.174C47.7975 110.153 37.9727 110.156 37.9727 110.156" stroke="black" stroke-width="3" stroke-linecap="round" stroke-linejoin="round" stroke-dasharray="6 10"/>
<path d="M111.479 154.154C135 155.281 156.171 151.44 165.186 149.478" stroke="black" stroke-width="3" stroke-linecap="round" stroke-linejoin="round" stroke-dasharray="6 10"/>
<path d="M75.2363 147.107C75.2363 147.107 81.0539 150.888 98.2759 153.033" stroke="black" stroke-width="3" stroke-linecap="round" stroke-linejoin="round" stroke-dasharray="6 10"/>
<path d="M179.989 68.8665C179.989 68.8665 174.984 69.9895 169.236 74.0068C163.488 78.0242 158.112 83.0031 158.112 83.0031" stroke="black" stroke-width="3" stroke-linecap="round" stroke-linejoin="round" stroke-dasharray="6 10"/>
<path d="M129.929 53.6018L161.074 70.4713" stroke="black" stroke-width="3" stroke-linecap="round" stroke-linejoin="round" stroke-dasharray="6 10"/>
<path d="M131.691 74.3731C131.62 74.3691 131.548 74.3789 131.482 74.4018C131.416 74.4248 131.356 74.4602 131.307 74.5056C131.206 74.601 131.123 74.7101 131.063 74.8286C131 74.955 130.953 75.0866 130.921 75.2214C130.896 75.3385 130.861 75.4537 130.815 75.566C130.536 76.2698 130.216 76.9607 129.856 77.6361C129.495 78.3207 128.965 78.9285 128.304 79.4171C128.041 79.6172 127.747 79.7851 127.431 79.9159C127.104 80.0565 126.753 80.1486 126.391 80.1882C126.039 80.2296 125.68 80.205 125.34 80.1159C124.971 80.0113 124.644 79.8183 124.397 79.5592C124.064 79.2303 123.804 78.8502 123.632 78.4386C123.459 78.0243 123.337 77.5954 123.268 77.159C123.201 76.7285 123.174 76.2942 123.184 75.86C123.184 75.4286 123.223 75.0165 123.268 74.631C123.363 73.8299 123.528 73.0363 123.763 72.2572C123.993 71.4891 124.326 70.7468 124.753 70.0449C124.969 69.6778 125.216 69.325 125.493 68.9893C125.773 68.6478 126.144 68.37 126.574 68.1796C126.738 68.0971 126.922 68.0472 127.111 68.0334C127.299 68.0197 127.49 68.0424 127.667 68.1001C127.842 68.1679 127.998 68.2676 128.125 68.3924C128.252 68.5171 128.346 68.664 128.401 68.823C128.518 69.129 128.573 69.4503 128.563 69.7725C128.556 70.1097 128.492 70.4442 128.374 70.7654C128.26 71.0811 128.082 71.3766 127.848 71.6378C127.623 71.8939 127.329 72.0982 126.992 72.2331C126.767 72.3391 126.556 72.4452 126.357 72.5512C126.154 72.663 126.003 72.8339 125.932 73.0332C125.825 73.2638 125.815 73.5198 125.904 73.7561C125.998 74.0058 126.175 74.2257 126.413 74.3875C126.679 74.6024 127.026 74.7266 127.389 74.737C127.712 74.7394 128.029 74.6661 128.307 74.5249C128.6 74.3809 128.868 74.1998 129.099 73.9875C129.312 73.7971 129.505 73.5907 129.675 73.3706C129.909 73.0427 130.095 72.6915 130.231 72.3247C130.372 71.9492 130.456 71.5596 130.482 71.1655C130.506 70.7666 130.472 70.3666 130.381 69.975C130.293 69.5812 130.136 69.2016 129.914 68.8495C129.504 68.138 128.836 67.5625 128.012 67.2108C127.177 66.8893 126.236 66.8438 125.365 67.0831C124.457 67.2738 123.615 67.6516 122.912 68.1844C122.232 68.7062 121.67 69.334 121.257 70.0352C120.884 70.6778 120.609 71.36 120.44 72.0644C120.26 72.8 120.179 73.5514 120.201 74.3032C120.221 75.0632 120.343 75.8186 120.565 76.5541C120.785 77.2894 121.131 77.992 121.591 78.6387C121.832 78.9799 122.098 79.3075 122.386 79.6195C122.682 79.9357 123.022 80.2183 123.399 80.4606C123.774 80.6995 124.184 80.8933 124.619 81.0365C125.076 81.1839 125.563 81.2471 126.049 81.2221C126.755 81.186 127.438 80.9917 128.032 80.6582C128.602 80.3446 129.118 79.9633 129.567 79.5255C130.125 78.9766 130.614 78.3771 131.024 77.7373C131.428 77.1015 131.762 76.4342 132.022 75.7443C132.061 75.6552 132.114 75.5347 132.175 75.3828C132.236 75.241 132.275 75.0927 132.289 74.9418C132.303 74.8071 132.267 74.672 132.186 74.5562C132.128 74.4919 132.053 74.4413 131.966 74.4093C131.879 74.3773 131.785 74.3648 131.691 74.3731Z" fill="#8C1C2F" stroke="#8C1C2F" stroke-width="0.46" stroke-linecap="round" stroke-linejoin="round"/>
<path d="M132.351 71.8065C132.442 71.7275 132.494 71.6215 132.498 71.51C132.5 71.403 132.543 71.2995 132.62 71.216C132.907 70.9123 133.175 70.5962 133.424 70.2689C133.663 69.9484 133.894 69.6255 134.114 69.305C134.217 69.1483 134.311 68.9941 134.392 68.8374C134.473 68.6808 134.564 68.5242 134.645 68.3555C134.729 68.1863 134.766 68.0023 134.753 67.8184C134.739 67.6345 134.676 67.456 134.567 67.2975C134.361 66.9837 134.05 66.7315 133.674 66.5745C133.321 66.4217 132.92 66.371 132.531 66.4299C132.332 66.4686 132.148 66.5543 132.001 66.6776C131.854 66.8009 131.749 66.9571 131.697 67.1288C131.611 67.347 131.581 67.5791 131.611 67.8084C131.642 68.0494 131.655 68.2783 131.658 68.4904C131.658 68.8133 131.658 69.1363 131.642 69.4544C131.628 69.7777 131.588 70.0999 131.522 70.4184C131.5 70.5075 131.466 70.6136 131.422 70.7413C131.377 70.869 131.336 70.9943 131.3 71.1196C131.264 71.2392 131.249 71.3626 131.255 71.4859C131.256 71.5984 131.301 71.7071 131.383 71.7944C131.445 71.8598 131.523 71.9123 131.612 71.9482C131.7 71.984 131.797 72.0023 131.895 72.0017C131.984 72.0082 132.074 71.9935 132.154 71.9591C132.234 71.9247 132.302 71.8719 132.351 71.8065Z" fill="#8C1C2F" stroke="#8C1C2F" stroke-width="0.46" stroke-linecap="round" stroke-linejoin="round"/>
<path d="M137.759 71.7053C137.607 71.477 137.387 71.2882 137.122 71.1583C136.881 71.0437 136.611 70.9809 136.335 70.9751C136.057 70.9711 135.78 71.0145 135.521 71.1028C135.258 71.19 135.015 71.3165 134.803 71.4764C134.397 71.7723 134.106 72.1694 133.969 72.6139C133.838 73.0623 133.838 73.5318 133.969 73.9803C134.091 74.463 134.375 74.9034 134.786 75.2455C135.218 75.5907 135.711 75.8738 136.246 76.0841C136.525 76.1976 136.796 76.3247 137.058 76.4649C137.324 76.5979 137.544 76.7912 137.692 77.024C137.812 77.2223 137.87 77.4439 137.862 77.6675C137.858 77.8864 137.811 78.1032 137.723 78.3085C137.657 78.4597 137.563 78.6005 137.445 78.7254C137.322 78.853 137.174 78.9614 137.008 79.0459C136.84 79.1329 136.66 79.2009 136.472 79.2484C136.276 79.2973 136.071 79.3137 135.868 79.2966C135.6 79.2854 135.343 79.201 135.134 79.0556C134.936 78.9186 134.777 78.7438 134.67 78.5447C134.562 78.3497 134.505 78.1366 134.503 77.9205C134.495 77.7148 134.547 77.5107 134.656 77.3277C134.704 77.2537 134.761 77.1843 134.825 77.1204L135.017 76.9324C135.078 76.8726 135.129 76.8062 135.17 76.7348C135.212 76.6523 135.228 76.5618 135.218 76.4721C135.204 76.2885 135.111 76.1161 134.956 75.9901C134.802 75.8611 134.606 75.7763 134.395 75.7474C134.183 75.7185 133.966 75.7469 133.774 75.8287C133.594 75.9084 133.431 76.0162 133.296 76.1468C133.157 76.2784 133.042 76.428 132.957 76.5902C132.877 76.7341 132.819 76.8864 132.784 77.0433C132.706 77.4286 132.755 77.8251 132.923 78.188C133.093 78.5585 133.352 78.8936 133.682 79.1712C134.019 79.452 134.422 79.6651 134.864 79.7954C135.323 79.9323 135.817 79.9515 136.288 79.8508C136.726 79.7685 137.135 79.5966 137.481 79.3496C137.819 79.1137 138.098 78.8211 138.301 78.4892C138.501 78.1586 138.619 77.796 138.649 77.4241C138.682 77.0388 138.613 76.652 138.446 76.2938C138.263 75.8757 137.965 75.5026 137.578 75.2069C137.184 74.904 136.718 74.6795 136.213 74.549C135.972 74.4904 135.743 74.3993 135.535 74.2791C135.335 74.1668 135.158 74.0268 135.012 73.8646C134.872 73.7112 134.77 73.535 134.711 73.3465C134.653 73.1564 134.639 72.9581 134.67 72.7633C134.767 72.3602 135.012 71.9951 135.368 71.7222C135.546 71.5862 135.761 71.491 135.993 71.445C136.118 71.4247 136.246 71.4266 136.37 71.4507C136.494 71.4747 136.611 71.5204 136.714 71.5848C136.768 71.6128 136.815 71.6502 136.851 71.6945C136.888 71.7389 136.914 71.7893 136.928 71.8427C136.953 71.9452 136.953 72.0511 136.928 72.1536C136.896 72.2609 136.845 72.3633 136.778 72.4572C136.715 72.5445 136.641 72.6253 136.558 72.6982C136.485 72.7682 136.387 72.8156 136.28 72.8331C136.177 72.8505 136.078 72.8806 135.985 72.9223C135.865 72.9664 135.761 73.038 135.685 73.1296C135.612 73.2142 135.563 73.3124 135.543 73.4164C135.524 73.5227 135.532 73.6314 135.568 73.7345C135.626 73.8892 135.736 74.0249 135.885 74.1235C136.034 74.2222 136.215 74.279 136.402 74.2863C136.631 74.2932 136.858 74.243 137.056 74.1417C137.289 74.0233 137.493 73.866 137.656 73.679C137.816 73.4987 137.933 73.2921 137.998 73.0717C138.133 72.6078 138.05 72.1163 137.768 71.7053H137.759Z" fill="#8C1C2F" stroke="#8C1C2F" stroke-width="0.46" stroke-linecap="round" stroke-linejoin="round"/>
</svg>
