<?xml version="1.0" encoding="UTF-8"?><svg id="Layer_1" xmlns="http://www.w3.org/2000/svg" viewBox="0 0 742.52 511.65"><defs><style>.cls-1{fill:#fff;}.cls-2{fill:#fd243c;stroke:#000;stroke-miterlimit:10;stroke-width:3px;}.cls-3{font-family:Eigerdals-Hea, Eigerdals;font-size:80.9px;}</style></defs><g><g><path d="m63.07,16.57h632.95c24.56,0,44.51,19.94,44.51,44.51v404.07c0,24.56-19.94,44.51-44.51,44.51H63.07c-24.56,0-44.5-19.94-44.5-44.5V61.08c0-24.56,19.94-44.51,44.51-44.51Z"/><path d="m696.01,18.57c23.44,0,42.51,19.07,42.51,42.51v404.07c0,23.44-19.07,42.51-42.51,42.51H63.07c-23.44,0-42.51-19.07-42.51-42.51V61.08c0-23.44,19.07-42.51,42.51-42.51h632.95m0-4H63.07c-25.68,0-46.51,20.82-46.51,46.51v404.07c0,25.68,20.82,46.51,46.51,46.51h632.95c25.68,0,46.51-20.82,46.51-46.51V61.08c0-25.68-20.82-46.51-46.51-46.51h0Z"/></g><rect class="cls-2" x="1.5" y="1.5" width="725.96" height="497.08" rx="30.78" ry="30.78"/></g><g id="Jb0xdZ.tif"><path class="cls-1" d="m657.62,143.07c7.48,5.74,9.77,12.44,6.74,19.77-2.63,6.36-8.59,9.97-15.35,8.6-3.88-.79-6.07.25-8.56,3.29-40.71,49.6-81.53,99.11-122.46,148.53-3.59,4.33-6.02,8.88-7.45,14.29-5.93,22.49-12.12,44.91-18.14,67.38-1.17,4.37-4.23,6.61-8.16,7.99-6.6,2.31-13.42,2.33-20.28,1.83-9.76-.72-19.13-2.96-27.93-7.34-7.32-3.65-10.8-8.72-10.03-17.69,2.05-23.96,3.08-48.01,4.46-72.03.07-1.19-.27-2.48-.7-3.62-4.82-12.8-9.74-25.56-14.5-38.38-.75-2.02-1.88-2.74-3.9-3.07-20.05-3.23-40.01-7.11-60.14-9.7-26.74-3.44-39.94-24.74-42.34-42.53-3.17-23.46,3.97-43.08,23.33-57.35,9.86-7.27,21.16-9.88,33.39-7.69,1.1.2,2.2.36,3.9.64-.6-1.72-.99-2.98-1.46-4.2-3.12-8.2-6.39-16.35-9.3-24.63-.97-2.75-2.32-4.09-5.24-4.22-11.53-.48-15.45-12.61-11.74-20.95,2.44-5.48,6.98-7.83,12.55-8.78,101.1,16.62,202.21,33.24,303.31,49.86Zm-250.37,112.2c-.53-1.59-.87-2.76-1.3-3.89-8.19-21.51-16.37-43.02-24.58-64.52-1.62-4.25-2.22-9.85-5.3-12.32-3.2-2.57-8.83-2.13-13.4-2.96-7.13-1.29-13.91-.12-20.12,3.49-13.32,7.75-19.5,19.82-19.78,34.87-.33,17.74,11.22,34.14,30.07,36.51,15.72,1.98,31.3,5.02,46.94,7.59,2.33.38,4.67.77,7.48,1.23Z"/></g><text class="cls-3" transform="translate(53.82 146.44)"><tspan x="0" y="0">The </tspan><tspan x="0" y="85.07">Community </tspan><tspan x="0" y="170.14">Funnel </tspan><tspan x="0" y="255.21">Framework.</tspan></text></svg>